<svg width="302" height="291" viewBox="0 0 302 291" fill="none" xmlns="http://www.w3.org/2000/svg">
<path d="M251.882 255.189C279.276 255.189 301.484 232.981 301.484 205.586C301.484 178.192 279.276 155.984 251.882 155.984C224.487 155.984 202.279 178.192 202.279 205.586C202.279 232.981 224.487 255.189 251.882 255.189Z" fill="url(#paint0_linear_769_685421)"/>
<path d="M165.341 238.091C223.782 238.091 271.159 190.714 271.159 132.273C271.159 73.8309 223.782 26.4545 165.341 26.4545C106.899 26.4545 59.5225 73.8309 59.5225 132.273C59.5225 190.714 106.899 238.091 165.341 238.091Z" stroke="white" stroke-width="2" stroke-miterlimit="10"/>
<path d="M89.2843 264.545C131.289 264.545 165.341 230.494 165.341 188.489C165.341 146.484 131.289 112.432 89.2843 112.432C47.2793 112.432 13.2275 146.484 13.2275 188.489C13.2275 230.494 47.2793 264.545 89.2843 264.545Z" fill="url(#paint1_linear_769_685421)"/>
<defs>
<linearGradient id="paint0_linear_769_685421" x1="251.415" y1="169.585" x2="251.415" y2="254.589" gradientUnits="userSpaceOnUse">
<stop stop-color="#FEC506"/>
<stop offset="1" stop-color="#FEC506" stop-opacity="0.2"/>
</linearGradient>
<linearGradient id="paint1_linear_769_685421" x1="88.5687" y1="133.287" x2="88.5687" y2="263.626" gradientUnits="userSpaceOnUse">
<stop stop-color="#FEC506"/>
<stop offset="1" stop-color="#FEC506" stop-opacity="0.2"/>
</linearGradient>
</defs>
</svg>
