<svg width="51" height="34" viewBox="0 0 51 34" fill="none" xmlns="http://www.w3.org/2000/svg">
<path d="M28.9516 5.02095C29.2287 5.29558 29.4485 5.62168 29.5985 5.98062C29.7485 6.33955 29.8257 6.72429 29.8257 7.11283C29.8257 7.50138 29.7485 7.88611 29.5985 8.24505C29.4485 8.60399 29.2287 8.93009 28.9516 9.20471L5.09803 32.8506C4.82092 33.1256 4.49191 33.3437 4.12981 33.4925C3.7677 33.6413 3.37958 33.7179 2.98763 33.7179C2.59567 33.7179 2.20755 33.6413 1.84544 33.4925C1.48333 33.3437 1.15433 33.1256 0.877214 32.8506C0.599772 32.5762 0.379655 32.2501 0.229462 31.8912C0.0792699 31.5322 0.00195313 31.1474 0.00195313 30.7587C0.00195313 30.3701 0.0792699 29.9853 0.229462 29.6263C0.379655 29.2673 0.599772 28.9413 0.877214 28.6669L24.728 5.02095C25.0051 4.7456 25.3343 4.52715 25.6967 4.37811C26.059 4.22906 26.4475 4.15234 26.8398 4.15234C27.2321 4.15234 27.6205 4.22906 27.9829 4.37811C28.3452 4.52715 28.6744 4.7456 28.9516 5.02095Z" fill="url(#paint0_linear_175_2096)"/>
<path d="M49.851 0.868611C50.1281 1.14324 50.3479 1.46934 50.4979 1.82827C50.6479 2.18721 50.7251 2.57195 50.7251 2.96049C50.7251 3.34904 50.6479 3.73377 50.4979 4.09271C50.3479 4.45164 50.1281 4.77774 49.851 5.05237L25.9974 28.6983C25.7203 28.9732 25.3913 29.1913 25.0292 29.3401C24.6671 29.4889 24.279 29.5655 23.887 29.5655C23.4951 29.5655 23.107 29.4889 22.7449 29.3401C22.3827 29.1913 22.0537 28.9732 21.7766 28.6983C21.4992 28.4238 21.2791 28.0978 21.1289 27.7388C20.9787 27.3799 20.9014 26.995 20.9014 26.6064C20.9014 26.2177 20.9787 25.8329 21.1289 25.474C21.2791 25.115 21.4992 24.789 21.7766 24.5145L45.6274 0.868611C45.9046 0.593257 46.2337 0.374808 46.5961 0.225763C46.9585 0.0767174 47.3469 0 47.7392 0C48.1315 0 48.5199 0.0767174 48.8823 0.225763C49.2446 0.374808 49.5738 0.593257 49.851 0.868611Z" fill="url(#paint1_linear_175_2096)"/>
<defs>
<linearGradient id="paint0_linear_175_2096" x1="0.00489523" y1="33.7241" x2="29.575" y2="3.91163" gradientUnits="userSpaceOnUse">
<stop stop-color="#FEC506" stop-opacity="0.5"/>
<stop offset="1" stop-color="#FEC506"/>
</linearGradient>
<linearGradient id="paint1_linear_175_2096" x1="20.9043" y1="29.5717" x2="50.4744" y2="-0.240715" gradientUnits="userSpaceOnUse">
<stop stop-color="#FEC506" stop-opacity="0.5"/>
<stop offset="1" stop-color="#FEC506"/>
</linearGradient>
</defs>
</svg>
