<svg width="25" height="25" viewBox="0 0 25 25" fill="none" xmlns="http://www.w3.org/2000/svg">
<circle cx="12.5" cy="12.5" r="12.5" fill="white"/>
<path d="M12.4987 7.03423C14.2788 7.03423 14.4896 7.04101 15.1926 7.07308C15.8426 7.10275 16.1956 7.21135 16.4305 7.30262C16.7417 7.42356 16.9638 7.56805 17.197 7.80133C17.4303 8.0346 17.5748 8.25671 17.6957 8.56787C17.787 8.80281 17.8956 9.1558 17.9253 9.80577C17.9574 10.5088 17.9641 10.7196 17.9641 12.4997C17.9641 14.2798 17.9574 14.4906 17.9253 15.1936C17.8956 15.8436 17.787 16.1966 17.6957 16.4315C17.5748 16.7427 17.4303 16.9648 17.197 17.198C16.9638 17.4313 16.7417 17.5758 16.4305 17.6967C16.1956 17.788 15.8426 17.8966 15.1926 17.9263C14.4897 17.9584 14.2789 17.9651 12.4987 17.9651C10.7185 17.9651 10.5077 17.9584 9.80479 17.9263C9.1548 17.8966 8.8018 17.788 8.56689 17.6967C8.25571 17.5758 8.0336 17.4313 7.80032 17.198C7.56705 16.9648 7.42256 16.7427 7.30165 16.4315C7.21035 16.1966 7.10174 15.8436 7.07208 15.1936C7.04 14.4906 7.03323 14.2798 7.03323 12.4997C7.03323 10.7196 7.04 10.5088 7.07208 9.8058C7.10174 9.1558 7.21035 8.80281 7.30165 8.56787C7.42256 8.25671 7.56705 8.0346 7.80032 7.80133C8.0336 7.56805 8.25571 7.42356 8.56689 7.30262C8.8018 7.21135 9.1548 7.10275 9.80477 7.07308C10.5078 7.04101 10.7186 7.03423 12.4987 7.03423ZM12.4987 5.83301C10.6881 5.83301 10.4611 5.84068 9.75004 5.87313C9.04042 5.90552 8.55583 6.0182 8.13175 6.18301C7.69336 6.35338 7.32158 6.58134 6.95096 6.95196C6.58034 7.32258 6.35238 7.69436 6.18201 8.13275C6.0172 8.55683 5.90451 9.04143 5.87212 9.75104C5.83968 10.4621 5.83203 10.6891 5.83203 12.4997C5.83203 14.3103 5.83968 14.5373 5.87212 15.2483C5.90451 15.9579 6.0172 16.4425 6.18201 16.8666C6.35238 17.305 6.58034 17.6768 6.95096 18.0474C7.32158 18.418 7.69336 18.646 8.13175 18.8164C8.55583 18.9812 9.04042 19.0939 9.75004 19.1262C10.4611 19.1587 10.6881 19.1663 12.4987 19.1663C14.3093 19.1663 14.5363 19.1587 15.2473 19.1262C15.9569 19.0939 16.4415 18.9812 16.8656 18.8164C17.304 18.646 17.6758 18.418 18.0464 18.0474C18.417 17.6768 18.645 17.305 18.8154 16.8666C18.9802 16.4425 19.0929 15.9579 19.1252 15.2483C19.1577 14.5373 19.1654 14.3103 19.1654 12.4997C19.1654 10.6891 19.1577 10.4621 19.1252 9.75104C19.0929 9.04143 18.9802 8.55683 18.8154 8.13275C18.645 7.69436 18.417 7.32258 18.0464 6.95196C17.6758 6.58134 17.304 6.35338 16.8656 6.18301C16.4415 6.0182 15.9569 5.90552 15.2473 5.87313C14.5363 5.84068 14.3093 5.83301 12.4987 5.83301ZM12.4987 9.07625C10.608 9.07625 9.07525 10.609 9.07525 12.4997C9.07525 14.3904 10.608 15.9231 12.4987 15.9231C14.3894 15.9231 15.9221 14.3904 15.9221 12.4997C15.9221 10.609 14.3894 9.07625 12.4987 9.07625ZM12.4987 14.7219C11.2714 14.7219 10.2764 13.727 10.2764 12.4997C10.2764 11.2724 11.2714 10.2775 12.4987 10.2775C13.726 10.2775 14.7209 11.2724 14.7209 12.4997C14.7209 13.727 13.726 14.7219 12.4987 14.7219ZM16.8574 8.941C16.8574 9.38283 16.4992 9.74101 16.0574 9.74101C15.6155 9.74101 15.2574 9.38283 15.2574 8.941C15.2574 8.49917 15.6155 8.14101 16.0574 8.14101C16.4992 8.14101 16.8574 8.49917 16.8574 8.941Z" fill="#0A0A08"/>
</svg>
