<svg width="15" height="15" viewBox="0 0 15 15" fill="none" xmlns="http://www.w3.org/2000/svg">
<path d="M7.50015 2.03423C9.28023 2.03423 9.49107 2.04101 10.194 2.07308C10.844 2.10275 11.197 2.21135 11.432 2.30262C11.7431 2.42356 11.9652 2.56805 12.1985 2.80133C12.4318 3.0346 12.5763 3.25671 12.6972 3.56787C12.7885 3.80281 12.8971 4.1558 12.9268 4.80577C12.9588 5.50877 12.9656 5.7196 12.9656 7.49969C12.9656 9.27977 12.9588 9.49061 12.9268 10.1936C12.8971 10.8436 12.7885 11.1966 12.6972 11.4315C12.5763 11.7427 12.4318 11.9648 12.1985 12.198C11.9652 12.4313 11.7431 12.5758 11.432 12.6967C11.197 12.788 10.844 12.8966 10.194 12.9263C9.49117 12.9584 9.28034 12.9651 7.50015 12.9651C5.71996 12.9651 5.50912 12.9584 4.80626 12.9263C4.15626 12.8966 3.80327 12.788 3.56835 12.6967C3.25717 12.5758 3.03506 12.4313 2.80179 12.198C2.56851 11.9648 2.42402 11.7427 2.30311 11.4315C2.21181 11.1966 2.10321 10.8436 2.07354 10.1936C2.04147 9.49061 2.0347 9.27977 2.0347 7.49969C2.0347 5.7196 2.04147 5.50877 2.07354 4.8058C2.10321 4.1558 2.21181 3.80281 2.30311 3.56787C2.42402 3.25671 2.56851 3.0346 2.80179 2.80133C3.03506 2.56805 3.25717 2.42356 3.56835 2.30262C3.80327 2.21135 4.15626 2.10275 4.80623 2.07308C5.50923 2.04101 5.72006 2.03423 7.50015 2.03423ZM7.50015 0.833008C5.68958 0.833008 5.46258 0.840682 4.7515 0.873126C4.04189 0.905517 3.55729 1.0182 3.13322 1.18301C2.69482 1.35338 2.32304 1.58134 1.95242 1.95196C1.5818 2.32258 1.35385 2.69436 1.18347 3.13275C1.01866 3.55683 0.905979 4.04143 0.873588 4.75104C0.841144 5.46209 0.833496 5.68912 0.833496 7.49969C0.833496 9.31026 0.841144 9.53729 0.873588 10.2483C0.905979 10.9579 1.01866 11.4425 1.18347 11.8666C1.35385 12.305 1.5818 12.6768 1.95242 13.0474C2.32304 13.418 2.69482 13.646 3.13322 13.8164C3.55729 13.9812 4.04189 14.0939 4.7515 14.1262C5.46258 14.1587 5.68958 14.1663 7.50015 14.1663C9.31072 14.1663 9.53775 14.1587 10.2488 14.1262C10.9584 14.0939 11.443 13.9812 11.8671 13.8164C12.3055 13.646 12.6773 13.418 13.0479 13.0474C13.4185 12.6768 13.6465 12.305 13.8168 11.8666C13.9816 11.4425 14.0943 10.9579 14.1267 10.2483C14.1592 9.53729 14.1668 9.31026 14.1668 7.49969C14.1668 5.68912 14.1592 5.46209 14.1267 4.75104C14.0943 4.04143 13.9816 3.55683 13.8168 3.13275C13.6465 2.69436 13.4185 2.32258 13.0479 1.95196C12.6773 1.58134 12.3055 1.35338 11.8671 1.18301C11.443 1.0182 10.9584 0.905517 10.2488 0.873126C9.53775 0.840682 9.31072 0.833008 7.50015 0.833008ZM7.50015 4.07625C5.60945 4.07625 4.07671 5.60899 4.07671 7.49969C4.07671 9.39039 5.60945 10.9231 7.50015 10.9231C9.39085 10.9231 10.9236 9.39039 10.9236 7.49969C10.9236 5.60899 9.39085 4.07625 7.50015 4.07625ZM7.50015 9.72192C6.27286 9.72192 5.27791 8.72698 5.27791 7.49969C5.27791 6.2724 6.27286 5.27745 7.50015 5.27745C8.72744 5.27745 9.72239 6.2724 9.72239 7.49969C9.72239 8.72698 8.72744 9.72192 7.50015 9.72192ZM11.8588 3.941C11.8588 4.38283 11.5007 4.74101 11.0588 4.74101C10.617 4.74101 10.2588 4.38283 10.2588 3.941C10.2588 3.49917 10.617 3.14101 11.0588 3.14101C11.5007 3.14101 11.8588 3.49917 11.8588 3.941Z" fill="#0A0A08"/>
</svg>
