<svg width="20" height="20" viewBox="0 0 20 20" fill="none" xmlns="http://www.w3.org/2000/svg">
<circle cx="10" cy="10" r="10" fill="white"/>
<path d="M6.55104 4.66675C6.86242 4.66675 7.10622 4.76975 7.28336 4.97481C7.46051 5.17986 7.55547 5.43858 7.56825 5.74855C7.56825 6.0547 7.46872 6.31293 7.2683 6.52278C7.06787 6.73215 6.79393 6.83707 6.4474 6.83707H6.43508C6.09677 6.83707 5.82877 6.73215 5.62925 6.52278C5.43202 6.31293 5.33203 6.0547 5.33203 5.74855C5.33203 5.43379 5.44069 5.17507 5.65984 4.97146C5.87899 4.76832 6.17666 4.66675 6.55104 4.66675ZM5.46306 7.69657H7.60113V13.9996H5.46306V7.69657ZM15.332 10.3858V13.9996H13.1944V10.6287C13.1944 10.1999 13.1104 9.85635 12.9433 9.59476C12.7771 9.33557 12.4991 9.20574 12.1064 9.20574C11.8074 9.20574 11.5673 9.28527 11.3883 9.44529C11.2089 9.60435 11.0787 9.78018 11.0002 9.97325C10.9746 10.0432 10.9587 10.1203 10.95 10.2061C10.9418 10.2904 10.9381 10.3819 10.9381 10.4782V14.0001H8.78727C8.7964 12.9336 8.80142 11.9553 8.80142 11.068V9.94738V8.92929C8.80142 8.61932 8.79822 8.35486 8.7932 8.13543C8.79046 7.91792 8.78727 7.77083 8.78727 7.69657H10.9381V8.58913L10.9262 8.61501H10.9381V8.58913C11.0048 8.47942 11.0901 8.36492 11.1942 8.24466C11.2997 8.12489 11.4257 8.01278 11.5791 7.90929C11.7312 7.80677 11.9142 7.72244 12.1288 7.65393C12.3448 7.58638 12.5904 7.55284 12.8703 7.55284C13.2182 7.55284 13.5432 7.60842 13.8464 7.72005C14.1486 7.83168 14.4084 8.00655 14.6294 8.24514C14.849 8.4823 15.0211 8.77742 15.1462 9.13004C15.2709 9.4817 15.332 9.90043 15.332 10.3858Z" fill="#18181A"/>
</svg>
