<svg width="14" height="13" viewBox="0 0 14 13" fill="none" xmlns="http://www.w3.org/2000/svg">
<path d="M2.19027 0.833008C2.57948 0.833008 2.88424 0.961766 3.10567 1.21808C3.3271 1.4744 3.4458 1.79779 3.46178 2.18527C3.46178 2.56795 3.33737 2.89074 3.08683 3.15305C2.8363 3.41475 2.49388 3.54591 2.06072 3.54591H2.04531C1.62242 3.54591 1.28742 3.41475 1.03803 3.15305C0.791487 2.89074 0.666504 2.56795 0.666504 2.18527C0.666504 1.79181 0.80233 1.46841 1.07627 1.21389C1.3502 0.959969 1.7223 0.833008 2.19027 0.833008ZM0.830294 4.62029H3.50287V12.4991H0.830294V4.62029ZM13.1665 7.98177V12.4991H10.4945V8.2854C10.4945 7.74941 10.3895 7.32001 10.1806 6.99303C9.97288 6.66904 9.62532 6.50674 9.13452 6.50674C8.76071 6.50674 8.46053 6.60616 8.23681 6.80618C8.01253 7.00501 7.84988 7.22479 7.75172 7.46614C7.71976 7.55357 7.69979 7.64999 7.68894 7.75719C7.67867 7.86259 7.67411 7.97698 7.67411 8.09735V12.4997H4.98555C4.99696 11.1666 5.00324 9.94368 5.00324 8.83457V7.4338V6.16119C5.00324 5.77372 4.99924 5.44314 4.99297 5.16886C4.98954 4.89697 4.98555 4.71311 4.98555 4.62029H7.67411V5.73599L7.65927 5.76833H7.67411V5.73599C7.75743 5.59885 7.86415 5.45572 7.99427 5.3054C8.1261 5.15568 8.28361 5.01554 8.47537 4.88619C8.66541 4.75803 8.89426 4.65263 9.16249 4.56699C9.43243 4.48255 9.73946 4.44063 10.0893 4.44063C10.5242 4.44063 10.9305 4.5101 11.3095 4.64963C11.6873 4.78917 12.012 5.00776 12.2882 5.306C12.5627 5.60244 12.7779 5.97135 12.9342 6.41212C13.09 6.85169 13.1665 7.37511 13.1665 7.98177Z" fill="#18181A"/>
</svg>
