<svg width="25" height="25" viewBox="0 0 25 25" fill="none" xmlns="http://www.w3.org/2000/svg">
<circle cx="12.5" cy="12.5" r="12.5" fill="#FEC506"/>
<path d="M8.18783 5.83313C8.57704 5.83313 8.8818 5.96189 9.10323 6.21821C9.32466 6.47452 9.44336 6.79792 9.45934 7.18539C9.45934 7.56807 9.33493 7.89086 9.08439 8.15317C8.83386 8.41488 8.49144 8.54603 8.05828 8.54603H8.04287C7.61998 8.54603 7.28498 8.41488 7.03559 8.15317C6.78905 7.89086 6.66406 7.56807 6.66406 7.18539C6.66406 6.79193 6.79989 6.46854 7.07382 6.21401C7.34776 5.96009 7.71985 5.83313 8.18783 5.83313ZM6.82785 9.62041H9.50043V17.4992H6.82785V9.62041ZM19.1641 12.9819V17.4992H16.4921V13.2855C16.4921 12.7495 16.387 12.3201 16.1782 11.9931C15.9704 11.6692 15.6229 11.5069 15.1321 11.5069C14.7583 11.5069 14.4581 11.6063 14.2344 11.8063C14.0101 12.0051 13.8474 12.2249 13.7493 12.4663C13.7173 12.5537 13.6973 12.6501 13.6865 12.7573C13.6762 12.8627 13.6717 12.9771 13.6717 13.0975V17.4998H10.9831C10.9945 16.1667 11.0008 14.9438 11.0008 13.8347V12.4339V11.1613C11.0008 10.7738 10.9968 10.4433 10.9905 10.169C10.9871 9.89709 10.9831 9.71324 10.9831 9.62041H13.6717V10.7361L13.6568 10.7685H13.6717V10.7361C13.755 10.599 13.8617 10.4558 13.9918 10.3055C14.1237 10.1558 14.2812 10.0157 14.4729 9.88631C14.663 9.75815 14.8918 9.65275 15.16 9.56711C15.43 9.48267 15.737 9.44075 16.0869 9.44075C16.5217 9.44075 16.9281 9.51022 17.307 9.64976C17.6848 9.78929 18.0095 10.0079 18.2858 10.3061C18.5603 10.6026 18.7754 10.9715 18.9318 11.4122C19.0876 11.8518 19.1641 12.3752 19.1641 12.9819Z" fill="black"/>
</svg>
