<svg width="41" height="25" viewBox="0 0 41 25" fill="none" xmlns="http://www.w3.org/2000/svg">
<path d="M11.3103 8.79376C11.3103 9.28764 11.3637 9.68808 11.4572 9.98174C11.564 10.2754 11.6974 10.5958 11.8843 10.9428C11.9511 11.0496 11.9778 11.1564 11.9778 11.2498C11.9778 11.3833 11.8977 11.5168 11.7241 11.6503L10.8832 12.2109C10.7631 12.291 10.6429 12.331 10.5361 12.331C10.4027 12.331 10.2692 12.2643 10.1357 12.1441C9.94883 11.9439 9.78865 11.7304 9.65517 11.5168C9.52169 11.2899 9.3882 11.0363 9.24137 10.7292C8.20022 11.9573 6.89209 12.5713 5.31701 12.5713C4.19576 12.5713 3.30143 12.2509 2.64737 11.6102C1.99331 10.9695 1.65961 10.1152 1.65961 9.04737C1.65961 7.91277 2.06005 6.99175 2.87429 6.29764C3.68853 5.60354 4.76973 5.25649 6.1446 5.25649C6.59843 5.25649 7.06562 5.29653 7.5595 5.36327C8.05339 5.43001 8.56062 5.5368 9.09454 5.65693V4.68252C9.09454 3.66805 8.88097 2.9606 8.46718 2.54681C8.04004 2.13301 7.31924 1.93279 6.29143 1.93279C5.82424 1.93279 5.3437 1.98618 4.84982 2.10632C4.35594 2.22645 3.87541 2.37328 3.40822 2.56015C3.19465 2.65359 3.03447 2.70698 2.94103 2.73368C2.8476 2.76038 2.78085 2.77373 2.72746 2.77373C2.54059 2.77373 2.44715 2.64024 2.44715 2.35993V1.70587C2.44715 1.4923 2.47385 1.33212 2.54059 1.23868C2.60733 1.14525 2.72746 1.05181 2.91434 0.958373C3.38152 0.718105 3.94215 0.517883 4.59621 0.357704C5.25027 0.184178 5.94437 0.104089 6.67852 0.104089C8.26696 0.104089 9.42825 0.46449 10.1757 1.18529C10.9099 1.90609 11.2836 3.00064 11.2836 4.46894V8.79376H11.3103ZM5.89098 10.8227C6.33147 10.8227 6.78531 10.7426 7.26584 10.5824C7.74638 10.4222 8.17352 10.1286 8.53392 9.72813C8.74749 9.47451 8.90767 9.1942 8.98776 8.87384C9.06785 8.55349 9.12124 8.16639 9.12124 7.71255V7.15193C8.73414 7.05849 8.32035 6.9784 7.89321 6.92501C7.46607 6.87162 7.05227 6.84492 6.63848 6.84492C5.74415 6.84492 5.09009 7.01845 4.6496 7.37885C4.20911 7.73925 3.99554 8.24648 3.99554 8.91389C3.99554 9.54125 4.15572 10.0084 4.48942 10.3288C4.80978 10.6625 5.27696 10.8227 5.89098 10.8227V10.8227ZM16.6096 12.2643C16.3693 12.2643 16.2091 12.2242 16.1023 12.1308C15.9956 12.0507 15.9021 11.8638 15.822 11.6102L12.6852 1.29208C12.6051 1.02511 12.5651 0.851587 12.5651 0.75815C12.5651 0.544579 12.6719 0.424445 12.8854 0.424445H14.1935C14.4472 0.424445 14.6207 0.46449 14.7141 0.557927C14.8209 0.638016 14.901 0.824891 14.9811 1.07851L17.2236 9.915L19.3059 1.07851C19.3726 0.811543 19.4527 0.638016 19.5595 0.557927C19.6663 0.477838 19.8532 0.424445 20.0934 0.424445H21.1613C21.4149 0.424445 21.5884 0.46449 21.6952 0.557927C21.802 0.638016 21.8955 0.824891 21.9488 1.07851L24.0579 10.0218L26.3671 1.07851C26.4472 0.811543 26.5406 0.638016 26.6341 0.557927C26.7408 0.477838 26.9144 0.424445 27.1546 0.424445H28.396C28.6096 0.424445 28.7297 0.531231 28.7297 0.75815C28.7297 0.824891 28.7164 0.891632 28.703 0.971721C28.6897 1.05181 28.663 1.1586 28.6096 1.30543L25.3927 11.6236C25.3126 11.8905 25.2191 12.0641 25.1124 12.1441C25.0056 12.2242 24.8321 12.2776 24.6051 12.2776H23.4572C23.2036 12.2776 23.03 12.2376 22.9233 12.1441C22.8165 12.0507 22.723 11.8772 22.6696 11.6102L20.6007 3.00064L18.5451 11.5969C18.4783 11.8638 18.3982 12.0374 18.2914 12.1308C18.1847 12.2242 17.9978 12.2643 17.7575 12.2643H16.6096V12.2643ZM33.762 12.6247C33.0679 12.6247 32.3738 12.5446 31.7064 12.3844C31.039 12.2242 30.5184 12.0507 30.1713 11.8505C29.9578 11.7304 29.8109 11.5969 29.7575 11.4767C29.7041 11.3566 29.6774 11.2231 29.6774 11.103V10.4222C29.6774 10.1419 29.7842 10.0084 29.9844 10.0084C30.0645 10.0084 30.1446 10.0218 30.2247 10.0485C30.3048 10.0752 30.4249 10.1286 30.5584 10.182C31.0123 10.3822 31.5061 10.5424 32.0267 10.6492C32.5606 10.7559 33.0812 10.8093 33.6152 10.8093C34.4561 10.8093 35.1101 10.6625 35.564 10.3688C36.0178 10.0752 36.2581 9.64804 36.2581 9.10076C36.2581 8.72701 36.138 8.42001 35.8977 8.16639C35.6574 7.91277 35.2036 7.68586 34.5495 7.47229L32.614 6.87162C31.6396 6.56461 30.9188 6.11077 30.4783 5.5101C30.0378 4.92278 29.8109 4.26872 29.8109 3.57462C29.8109 3.01399 29.9311 2.52011 30.1713 2.09297C30.4116 1.66583 30.7319 1.29208 31.1324 0.998417C31.5328 0.691409 31.9867 0.46449 32.5206 0.304312C33.0545 0.144133 33.6152 0.0773926 34.2025 0.0773926C34.4961 0.0773926 34.8031 0.0907408 35.0968 0.130785C35.4038 0.17083 35.6841 0.224223 35.9644 0.277615C36.2314 0.344356 36.485 0.411097 36.7253 0.491186C36.9655 0.571275 37.1524 0.651364 37.2859 0.731453C37.4728 0.838239 37.6063 0.945024 37.6863 1.06516C37.7664 1.17194 37.8065 1.31877 37.8065 1.50565V2.13301C37.8065 2.41332 37.6997 2.56015 37.4995 2.56015C37.3927 2.56015 37.2192 2.50676 36.9922 2.39998C36.2314 2.05292 35.3771 1.8794 34.4294 1.8794C33.6685 1.8794 33.0679 1.99953 32.6541 2.25315C32.2403 2.50676 32.0267 2.89386 32.0267 3.44113C32.0267 3.81488 32.1602 4.13524 32.4272 4.38886C32.6941 4.64247 33.188 4.89609 33.8955 5.12301L35.7909 5.72367C36.752 6.03068 37.4461 6.45782 37.8599 7.0051C38.2737 7.55237 38.4739 8.17974 38.4739 8.87384C38.4739 9.44782 38.3538 9.9684 38.1268 10.4222C37.8866 10.8761 37.5662 11.2765 37.1524 11.5969C36.7386 11.9306 36.2447 12.1708 35.6708 12.3444C35.0701 12.5312 34.4427 12.6247 33.762 12.6247V12.6247Z" fill="#FEC506"/>
<path d="M36.2846 19.1119C31.8931 22.3555 25.5127 24.0774 20.0265 24.0774C12.338 24.0774 5.41029 21.2343 0.1778 16.509C-0.235994 16.1353 0.137756 15.628 0.631638 15.9217C6.29127 19.2053 13.2724 21.1942 20.4937 21.1942C25.3658 21.1942 30.7184 20.1798 35.6439 18.0974C36.3781 17.7637 37.0054 18.578 36.2846 19.1119Z" fill="#FEC506"/>
<path d="M38.1134 17.0297C37.5527 16.3089 34.4026 16.6827 32.9743 16.8562C32.5472 16.9096 32.4804 16.5358 32.8675 16.2555C35.377 14.4936 39.5016 15.0008 39.9821 15.5881C40.4626 16.1888 39.8486 20.3134 37.4993 22.2889C37.1389 22.5959 36.7919 22.4357 36.9521 22.0353C37.486 20.7138 38.674 17.7372 38.1134 17.0297V17.0297Z" fill="#FEC506"/>
</svg>
