<svg width="27" height="26" viewBox="0 0 27 26" fill="none" xmlns="http://www.w3.org/2000/svg">
<g clip-path="url(#clip0_583_7304)">
<path d="M1.44703 24.264L7.14234 13.4358L1.44703 1.73706L0 2.47693V23.5241L1.44703 24.264ZM15.2803 7.16425L5.83875 5.53217L7.94813 2.43341L17.4909 6.7856L15.2803 7.16425ZM15.3942 18.7933L4.21875 20.6996L6.56016 24.029L17.5289 19.1371L15.3942 18.7933Z" fill="#FEC506"/>
<path d="M4.81348 2.53351V23.4545L1.43848 24.264V1.73706L4.81348 2.53351Z" fill="#FEC506"/>
<path d="M4.81355 26.0005L3.0459 25.0909V0.910097L4.81355 0.000488281L8.13793 14.4628L4.81355 26.0005ZM17.512 6.80296L15.2676 7.1642V18.7628L17.512 19.124L19.5623 13.2312L17.512 6.80296Z" fill="#FEC506"/>
<path d="M8.25176 1.01455V25.0038L4.81348 26.0005V0.000488281L8.25176 1.01455Z" fill="#FEC506"/>
<path d="M19.8575 21.6135V18.6757L4.81348 21.57V26.0005L19.8575 21.6135ZM19.8871 4.41361V7.26865L4.81348 4.31351V0.000488281L19.8871 4.41361Z" fill="#FEC506"/>
<path d="M17.512 22.2966V3.72583L19.9251 4.40477V21.6133L17.512 22.2966Z" fill="#FEC506"/>
<path d="M24.781 5.4668L27.0001 10.7286C25.3463 10.8069 19.7944 11.1638 18.2419 10.8853L24.781 5.4668Z" fill="#FEC506"/>
<path d="M18.2419 6.54179V10.894L24.781 10.5066V5.4668L18.2419 6.54179Z" fill="#FEC506"/>
<path d="M15.2128 10.6894L12.0825 10.4761L18.7186 3.58228L22.0936 10.2411L15.2128 10.6894Z" fill="#FEC506"/>
<path d="M12.0825 5.15345V10.4544L18.7186 9.87123V3.56055L12.0825 5.15345ZM18.2419 19.5592V15.207L27 15.3593L24.781 20.6429L18.2419 19.5592Z" fill="#FEC506"/>
<path d="M12.0825 20.9345V15.6335L22.0894 15.8686L18.7144 22.5274L12.0825 20.9345Z" fill="#FEC506"/>
<path d="M15.2128 15.416L12.0825 15.6336C14.3775 15.8817 19.8577 16.417 22.0894 15.8686L15.2128 15.416ZM24.781 15.5901L27 15.3594C25.3463 15.2854 19.7944 14.9242 18.2419 15.2158L24.781 15.5901Z" fill="#FEC506"/>
<path d="M24.7809 5.46681V10.4979L27 10.7286V6.12399L24.7809 5.46681ZM22.0894 4.59637V10.2107L18.7144 9.86252V3.56055L22.0894 4.59637ZM24.7809 20.6342V15.59L27 15.3593V19.964L24.7809 20.6342ZM22.0894 21.4742V15.8686L18.7144 16.2124V22.5274L22.0894 21.4742Z" fill="#FEC506"/>
</g>
<defs>
<clipPath id="clip0_583_7304">
<rect width="27" height="26" fill="white" transform="translate(0 0.000488281)"/>
</clipPath>
</defs>
</svg>
