<svg width="27" height="26" viewBox="0 0 27 26" fill="none" xmlns="http://www.w3.org/2000/svg">
<path d="M12.779 -0.353842C12.729 -0.351569 12.5403 -0.335657 12.3585 -0.322018C10.0854 -0.153807 7.78041 0.687248 5.89144 2.03748C5.26633 2.48301 4.77307 2.90127 4.22297 3.45136C1.06106 6.61555 -0.241441 11.1436 0.747367 15.5421C1.15198 17.347 2.01577 19.1632 3.16142 20.6225C4.95946 22.9161 7.42353 24.5323 10.1876 25.2324C11.3128 25.5188 12.2471 25.6348 13.4268 25.6348C14.5907 25.6348 15.4476 25.5302 16.5569 25.2597C18.1504 24.8687 19.5506 24.2254 20.9509 23.2457C22.292 22.3046 23.54 20.9862 24.4356 19.5655C25.5903 17.7288 26.2473 15.7012 26.4086 13.4758C26.4427 13.0076 26.4223 11.8483 26.3723 11.3709C26.2723 10.423 26.0177 9.17281 25.8699 8.9114C25.8108 8.80911 25.6449 8.67727 25.5221 8.63408C25.4789 8.62045 25.3835 8.60908 25.3062 8.60908C24.9652 8.60908 24.6788 8.89322 24.6788 9.22737C24.6788 9.30693 24.7152 9.49787 24.7675 9.70473C25.2175 11.455 25.2539 13.3781 24.8697 15.1329C24.3787 17.3811 23.2831 19.3632 21.6305 20.9885C20.86 21.7455 20.1166 22.3046 19.1551 22.8547C16.9115 24.139 14.1224 24.6255 11.5061 24.1891C9.51935 23.8595 7.79405 23.0957 6.15512 21.8205C5.38454 21.2204 4.44574 20.2316 3.86382 19.4041C2.8591 17.9766 2.22717 16.4718 1.89984 14.7238C1.7339 13.8327 1.67707 12.6507 1.75436 11.6892C1.87256 10.2298 2.23854 8.87504 2.8591 7.59072C3.14551 6.99289 3.32281 6.68147 3.66606 6.16547C4.36618 5.1062 5.29361 4.11512 6.31879 3.32862C7.52127 2.40346 8.94879 1.70106 10.3922 1.32372C11.1719 1.11914 11.7947 1.01685 12.5858 0.960023C15.4476 0.755442 18.23 1.57831 20.4963 3.30361C20.6645 3.43091 20.8418 3.56957 20.8895 3.61276L20.9759 3.68777L20.9418 3.78324C20.7668 4.27423 20.8963 4.8857 21.2646 5.31305C21.4532 5.53127 21.7942 5.73585 22.0829 5.80405C22.2807 5.85178 22.6239 5.85178 22.8239 5.80405C23.3308 5.68357 23.8036 5.2494 23.9537 4.7675C24.1219 4.22877 24.0241 3.69686 23.6786 3.26497C23.2967 2.78761 22.6398 2.57394 22.0329 2.73306L21.901 2.76715L21.7146 2.61258C20.9577 1.97838 20.0416 1.39192 19.0778 0.925926C17.5139 0.168976 15.9432 -0.237913 14.1542 -0.347023C13.811 -0.367481 12.9995 -0.372027 12.779 -0.353842Z" fill="#FEC506"/>
<path d="M11.4334 7.12462C11.1925 7.74745 10.6697 9.11132 10.2673 10.1547C9.86497 11.1981 9.03982 13.3416 8.4329 14.9169C7.82825 16.4922 7.32589 17.7878 7.32134 17.7969C7.31452 17.8083 7.95327 17.8151 8.7375 17.8151H10.1673L10.2514 17.581C10.2991 17.4537 10.4673 17.0036 10.6242 16.5808L10.9106 15.8148H13.0564C14.7658 15.8148 15.2023 15.8079 15.1954 15.7852C15.1727 15.7238 14.8226 14.7237 14.6363 14.1895L14.4362 13.6212L13.0155 13.6098L11.5971 13.5985L12.52 11.0548C13.0746 9.52731 13.4497 8.52713 13.4565 8.54986C13.4656 8.57032 13.8338 9.61823 14.2771 10.8775C14.7204 12.1368 15.4523 14.2099 15.9024 15.4852L16.7184 17.8037L18.1414 17.8106C18.9234 17.8128 19.5644 17.8106 19.5644 17.806C19.5644 17.8015 19.3803 17.3173 19.1529 16.7331C18.9256 16.1466 18.4392 14.8851 18.0709 13.9281C17.7027 12.9711 17.289 11.8982 17.1503 11.5413C17.0139 11.1844 16.7753 10.5661 16.6207 10.1661C16.4661 9.76598 16.0638 8.71807 15.7228 7.8361C15.3818 6.95413 15.0841 6.179 15.0591 6.11308L15.0159 5.99487H11.8676L11.4334 7.12462Z" fill="#FEC506"/>
</svg>
