<svg width="26" height="26" viewBox="0 0 26 26" fill="none" xmlns="http://www.w3.org/2000/svg">
<path d="M9.66859 13C9.66859 11.2947 11.0713 9.91065 12.7996 9.91065C14.5279 9.91065 15.9306 11.2947 15.9306 13C15.9306 14.7053 14.5279 16.0894 12.7996 16.0894C11.0713 16.1141 9.66859 14.7053 9.66859 13ZM12.7996 0C6.63776 0 1.47784 4.15209 0.0250482 9.78707C0.0250482 9.8365 0 9.86122 0 9.91065C0 10.2567 0.27553 10.5285 0.626204 10.5285H5.93642C6.1869 10.5285 6.41233 10.3802 6.51252 10.1578C7.61464 7.80989 9.99422 6.17871 12.7996 6.17871C16.6069 6.17871 19.7129 9.24335 19.7129 13C19.7129 16.7567 16.6069 19.8213 12.7996 19.8213C10.0193 19.8213 7.61464 18.1901 6.51252 15.8422C6.41233 15.6198 6.1869 15.4715 5.93642 15.4715H0.626204C0.27553 15.4715 0 15.7433 0 16.0894C0 16.1388 0 16.1635 0.0250482 16.2129C1.47784 21.8479 6.63776 26 12.7996 26C20.0886 26 26 20.1673 26 12.9753C26 5.80798 20.0886 0 12.7996 0Z" fill="#FEC506"/>
</svg>
