<svg width="26" height="26" viewBox="0 0 26 26" fill="none" xmlns="http://www.w3.org/2000/svg">
<path fill-rule="evenodd" clip-rule="evenodd" d="M12.9944 26V20.9613C18.3278 20.9613 22.4678 15.6723 20.4197 10.0588C20.0436 9.0276 19.4465 8.09106 18.6704 7.31483C17.8942 6.53859 16.9578 5.94143 15.9266 5.56517C10.3131 3.53217 5.02409 7.65711 5.02409 12.9905H0C0 4.49026 8.22118 -2.13968 17.1345 0.644355C21.0242 1.86791 24.1326 4.96122 25.341 8.85146C28.1256 17.7788 21.5103 26 12.9944 26Z" fill="#FEC506"/>
<path fill-rule="evenodd" clip-rule="evenodd" d="M8.00005 20.976H13.009V15.967H8.00057L8.00005 20.976ZM4.14006 24.836H7.99953V20.9765H4.14006V24.836ZM0.913239 20.9765H4.14006V17.7492H0.913239V20.9765Z" fill="#FEC506"/>
</svg>
