<svg width="21" height="25" viewBox="0 0 21 25" fill="none" xmlns="http://www.w3.org/2000/svg">
<path d="M9.17177 0H13.4289V19.512C11.2483 19.9245 9.64305 20.0867 7.90616 20.0867C2.70661 20.0813 0 17.7584 0 13.2971C0 8.99862 2.87097 6.20891 7.3199 6.20891C8.01028 6.20891 8.53621 6.26324 9.17177 6.42601V0ZM9.32095 9.94229C8.82235 9.77945 8.41148 9.72519 7.88547 9.72519C5.73228 9.72519 4.48856 11.0386 4.48856 13.3403C4.48856 15.5813 5.67754 16.8187 7.85814 16.8187C8.32926 16.8187 8.7128 16.7922 9.32095 16.7108V9.94229Z" fill="#FEC506"/>
<path d="M20.3904 6.73276V16.5021C20.3904 19.8665 20.1384 21.4844 19.3987 22.8793C18.7083 24.2204 17.7988 25.066 15.9196 26L11.9692 24.1385C13.8485 23.2651 14.758 22.4934 15.3388 21.3157C15.9469 20.1114 16.1387 18.7165 16.1387 15.0476V6.73284H20.3904V6.73276ZM15.7097 0H19.9668V4.32564H15.7097V0Z" fill="#FEC506"/>
</svg>
