<svg width="31" height="23" viewBox="0 0 31 23" fill="none" xmlns="http://www.w3.org/2000/svg">
<g clip-path="url(#clip0_582_7121)">
<path d="M30.6979 8.69739C30.6117 8.62305 29.8353 8.01349 28.1674 8.01349C27.7289 8.01618 27.2913 8.05596 26.8591 8.13243C26.5427 5.8577 24.7168 4.7575 24.6449 4.69803L24.1992 4.43042L23.9116 4.86158C23.5492 5.44696 23.282 6.08983 23.1208 6.76462C22.9675 7.36201 22.9343 7.98559 23.0233 8.59678C23.1124 9.20797 23.3217 9.79377 23.6384 10.3179C22.8764 10.764 21.6399 10.868 21.3811 10.8829H0.964624C0.709137 10.8829 0.464115 10.9879 0.283459 11.1747C0.102803 11.3615 0.00130856 11.6148 0.00130856 11.879C-0.0268138 13.7292 0.275387 15.5689 0.892735 17.3057C1.59725 19.2087 2.64682 20.6211 3.99834 21.4834C5.52239 22.4498 8.00975 22.9999 10.8134 22.9999C12.0817 22.9999 13.3474 22.8804 14.5948 22.6431C16.3333 22.3176 18.0057 21.6892 19.5407 20.7847C20.8037 20.027 21.9399 19.063 22.9052 17.9301C24.5299 16.0419 25.4932 13.9308 26.1977 12.0574H26.4852C28.2537 12.0574 29.3464 11.3289 29.9503 10.7045C30.3507 10.3126 30.6646 9.83589 30.8705 9.30696L30.9999 8.9204L30.6979 8.69739Z" fill="#FEC506"/>
<path d="M2.86992 10.2734H5.6017C5.63385 10.2736 5.66572 10.2672 5.69546 10.2546C5.7252 10.242 5.75222 10.2234 5.77496 10.1998C5.79769 10.1763 5.81569 10.1484 5.82791 10.1176C5.84012 10.0869 5.84632 10.0539 5.84613 10.0207V7.49322C5.84632 7.45997 5.84012 7.42701 5.82791 7.39626C5.81569 7.36551 5.79769 7.33757 5.77496 7.31406C5.75222 7.29055 5.7252 7.27194 5.69546 7.25931C5.66572 7.24667 5.63385 7.24027 5.6017 7.24047H2.86992C2.83777 7.24027 2.8059 7.24667 2.77616 7.25931C2.74642 7.27194 2.7194 7.29055 2.69666 7.31406C2.67393 7.33757 2.65593 7.36551 2.64371 7.39626C2.63149 7.42701 2.6253 7.45997 2.62549 7.49322V10.0207C2.6273 10.0871 2.65364 10.1503 2.69909 10.1973C2.74454 10.2443 2.80566 10.2716 2.86992 10.2734ZM6.63691 10.2734H9.36869C9.40084 10.2736 9.43271 10.2672 9.46245 10.2546C9.49219 10.242 9.51921 10.2234 9.54195 10.1998C9.56468 10.1763 9.58268 10.1484 9.5949 10.1176C9.60711 10.0869 9.61331 10.0539 9.61312 10.0207V7.49322C9.61331 7.45997 9.60711 7.42701 9.5949 7.39626C9.58268 7.36551 9.56468 7.33757 9.54195 7.31406C9.51921 7.29055 9.49219 7.27194 9.46245 7.25931C9.43271 7.24667 9.40084 7.24027 9.36869 7.24047H6.63691C6.60476 7.24027 6.57288 7.24667 6.54314 7.25931C6.5134 7.27194 6.48638 7.29055 6.46364 7.31406C6.44091 7.33757 6.42292 7.36551 6.4107 7.39626C6.39848 7.42701 6.39229 7.45997 6.39248 7.49322V10.0207C6.39429 10.0871 6.42062 10.1503 6.46607 10.1973C6.51152 10.2443 6.57265 10.2716 6.63691 10.2734ZM10.4758 10.2734H13.2076C13.2397 10.2736 13.2716 10.2672 13.3013 10.2546C13.3311 10.242 13.3581 10.2234 13.3808 10.1998C13.4036 10.1763 13.4216 10.1484 13.4338 10.1176C13.446 10.0869 13.4522 10.0539 13.452 10.0207V7.49322C13.4522 7.45997 13.446 7.42701 13.4338 7.39626C13.4216 7.36551 13.4036 7.33757 13.3808 7.31406C13.3581 7.29055 13.3311 7.27194 13.3013 7.25931C13.2716 7.24667 13.2397 7.24027 13.2076 7.24047H10.4758C10.4436 7.24027 10.4118 7.24667 10.382 7.25931C10.3523 7.27194 10.3253 7.29055 10.3025 7.31406C10.2798 7.33757 10.2618 7.36551 10.2496 7.39626C10.2374 7.42701 10.2312 7.45997 10.2314 7.49322V10.0207C10.23 10.0536 10.2351 10.0865 10.2465 10.1173C10.2578 10.1481 10.2751 10.1762 10.2973 10.1999C10.3195 10.2236 10.3462 10.2423 10.3756 10.2549C10.4051 10.2676 10.4367 10.2739 10.4686 10.2734H10.4758ZM14.2571 10.2734H16.9889C17.0211 10.2736 17.053 10.2672 17.0827 10.2546C17.1124 10.242 17.1395 10.2234 17.1622 10.1998C17.1849 10.1763 17.2029 10.1484 17.2151 10.1176C17.2274 10.0869 17.2335 10.0539 17.2334 10.0207V7.49322C17.2335 7.45997 17.2274 7.42701 17.2151 7.39626C17.2029 7.36551 17.1849 7.33757 17.1622 7.31406C17.1395 7.29055 17.1124 7.27194 17.0827 7.25931C17.053 7.24667 17.0211 7.24027 16.9889 7.24047H14.2571C14.225 7.24027 14.1931 7.24667 14.1634 7.25931C14.1336 7.27194 14.1066 7.29055 14.0839 7.31406C14.0612 7.33757 14.0432 7.36551 14.0309 7.39626C14.0187 7.42701 14.0125 7.45997 14.0127 7.49322V10.0207C14.0123 10.0866 14.037 10.15 14.0813 10.1972C14.1257 10.2445 14.1863 10.2719 14.25 10.2734H14.2571ZM6.63691 6.66064H9.36869C9.43294 6.65876 9.49406 6.63154 9.53952 6.58454C9.58497 6.53754 9.6113 6.47433 9.61312 6.40789V3.88042C9.61331 3.84717 9.60711 3.81422 9.5949 3.78346C9.58268 3.75271 9.56468 3.72477 9.54195 3.70126C9.51921 3.67775 9.49219 3.65914 9.46245 3.64651C9.43271 3.63388 9.40084 3.62747 9.36869 3.62767H6.63691C6.60476 3.62747 6.57288 3.63388 6.54314 3.64651C6.5134 3.65914 6.48638 3.67775 6.46364 3.70126C6.44091 3.72477 6.42292 3.75271 6.4107 3.78346C6.39848 3.81422 6.39229 3.84717 6.39248 3.88042V6.40789C6.39685 6.47344 6.424 6.53513 6.46893 6.58159C6.51385 6.62805 6.57352 6.65613 6.63691 6.66064ZM10.4758 6.66064H13.2076C13.2718 6.65876 13.3329 6.63154 13.3784 6.58454C13.4238 6.53754 13.4502 6.47433 13.452 6.40789V3.88042C13.4522 3.84717 13.446 3.81422 13.4338 3.78346C13.4216 3.75271 13.4036 3.72477 13.3808 3.70126C13.3581 3.67775 13.3311 3.65914 13.3013 3.64651C13.2716 3.63388 13.2397 3.62747 13.2076 3.62767H10.4758C10.4436 3.62747 10.4118 3.63388 10.382 3.64651C10.3523 3.65914 10.3253 3.67775 10.3025 3.70126C10.2798 3.72477 10.2618 3.75271 10.2496 3.78346C10.2374 3.81422 10.2312 3.84717 10.2314 3.88042V6.40789C10.2312 6.44114 10.2374 6.47409 10.2496 6.50485C10.2618 6.5356 10.2798 6.56354 10.3025 6.58705C10.3253 6.61056 10.3523 6.62917 10.382 6.6418C10.4118 6.65443 10.4436 6.66083 10.4758 6.66064ZM14.2571 6.66064H16.9889C17.0532 6.65876 17.1143 6.63154 17.1598 6.58454C17.2052 6.53754 17.2315 6.47433 17.2334 6.40789V3.88042C17.2315 3.81398 17.2052 3.75077 17.1598 3.70377C17.1143 3.65677 17.0532 3.62954 16.9889 3.62767H14.2571C14.225 3.62747 14.1931 3.63388 14.1634 3.64651C14.1336 3.65914 14.1066 3.67775 14.0839 3.70126C14.0612 3.72477 14.0432 3.75271 14.0309 3.78346C14.0187 3.81422 14.0125 3.84717 14.0127 3.88042V6.40789C14.0145 6.47433 14.0409 6.53754 14.0863 6.58454C14.1318 6.63154 14.1929 6.65876 14.2571 6.66064ZM14.2571 3.03297H16.9889C17.0211 3.03317 17.053 3.02677 17.0827 3.01413C17.1124 3.0015 17.1395 2.98289 17.1622 2.95938C17.1849 2.93587 17.2029 2.90793 17.2151 2.87718C17.2274 2.84643 17.2335 2.81347 17.2334 2.78022V0.252751C17.2315 0.18631 17.2052 0.123105 17.1598 0.0761057C17.1143 0.0291062 17.0532 0.0018771 16.9889 4.42533e-06H14.2571C14.225 -0.000192888 14.1931 0.00620987 14.1634 0.0188417C14.1336 0.0314736 14.1066 0.0500829 14.0839 0.0735921C14.0612 0.0971012 14.0432 0.125042 14.0309 0.155796C14.0187 0.18655 14.0125 0.219505 14.0127 0.252751V2.78022C14.0145 2.84666 14.0409 2.90987 14.0863 2.95687C14.1318 3.00387 14.1929 3.0311 14.2571 3.03297ZM18.0673 10.2734H20.799C20.8312 10.2736 20.8631 10.2672 20.8928 10.2546C20.9226 10.242 20.9496 10.2234 20.9723 10.1998C20.995 10.1763 21.013 10.1484 21.0253 10.1176C21.0375 10.0869 21.0437 10.0539 21.0435 10.0207V7.49322C21.0437 7.45997 21.0375 7.42701 21.0253 7.39626C21.013 7.36551 20.995 7.33757 20.9723 7.31406C20.9496 7.29055 20.9226 7.27194 20.8928 7.25931C20.8631 7.24667 20.8312 7.24027 20.799 7.24047H18.0673C18.0351 7.24027 18.0032 7.24667 17.9735 7.25931C17.9438 7.27194 17.9167 7.29055 17.894 7.31406C17.8713 7.33757 17.8533 7.36551 17.8411 7.39626C17.8288 7.42701 17.8227 7.45997 17.8228 7.49322V10.0207C17.8247 10.0871 17.851 10.1503 17.8964 10.1973C17.9419 10.2443 18.003 10.2716 18.0673 10.2734Z" fill="#FEC506"/>
</g>
<defs>
<clipPath id="clip0_582_7121">
<rect width="31" height="23" fill="white"/>
</clipPath>
</defs>
</svg>
