<svg width="29" height="26" viewBox="0 0 29 26" fill="none" xmlns="http://www.w3.org/2000/svg">
<path d="M8.63574 23.259C7.56848 22.419 6.43672 21.6141 5.65093 20.4809C4.01928 18.4658 2.74721 16.1845 1.8906 13.7372C1.37016 12.1583 1.19131 10.4563 0.519872 8.93308C-0.18235 7.82917 0.640086 6.62117 1.84955 6.2708C2.38904 6.16671 3.33609 5.65947 2.1926 6.02304C1.16639 6.77364 1.06816 5.33988 2.1193 5.24898C2.83618 5.15369 3.10006 4.56728 2.85231 4.03805C2.08265 3.53667 4.71854 2.98398 3.3918 2.23485C2.01374 0.746842 5.32841 0.459502 4.51037 2.15275C4.31539 3.45604 6.82668 1.91526 6.24467 3.41793C6.83108 4.14067 8.46275 3.58212 8.42317 4.59074C9.28519 4.64938 9.58132 5.37506 10.392 5.43077C11.2335 5.81633 12.7538 6.1154 13.0397 7.06098C12.207 7.72069 10.2777 5.69905 10.1853 7.52424C10.436 10.2217 10.373 12.9998 11.3581 15.5683C11.8243 17.1237 12.9561 18.3537 13.9779 19.5588C14.9557 20.7448 16.2796 21.579 17.6298 22.2826C18.8238 22.8334 20.0852 23.2248 21.3813 23.4467C21.9047 23.0464 22.8283 21.5584 23.6448 22.1859C23.6844 22.891 22.0322 23.6592 23.5671 23.5815C24.4731 23.3089 25.102 24.2823 25.8468 23.4041C26.5343 24.2178 28.7026 22.8837 28.2144 24.5476C27.5532 24.9742 26.5886 24.7162 25.9274 25.3041C24.8352 24.7587 23.9659 25.7908 22.7564 25.6603C21.4129 25.8922 20.0516 26.006 18.6882 26.0005C16.4555 25.8245 14.1758 25.7498 12.0516 24.9743C10.8553 24.6253 9.68688 23.948 8.63574 23.2634V23.259ZM10.521 24.0756C11.6939 24.5814 12.8315 25.1135 14.1128 25.2733C16.1432 25.5563 18.2411 25.9917 20.2803 25.5944C19.3582 25.178 18.4038 25.7571 17.4846 25.3012C16.3822 25.5387 15.1991 25.2411 14.0776 25.0945C12.8036 24.5271 11.4285 24.1357 10.2352 23.3997C8.74276 22.8544 11.0063 24.0976 11.408 24.1987C12.3404 24.728 10.3818 23.9275 10.1062 23.7076C9.32477 23.2678 9.22655 23.3602 10.0285 23.8058C10.1912 23.8997 10.351 23.9993 10.5196 24.08L10.521 24.0756ZM8.30149 22.504C9.43326 22.9233 8.30149 21.708 7.77666 21.7783C7.54796 21.3796 6.89705 21.1289 7.35591 20.9134C6.53347 21.1993 6.49389 19.8285 6.10833 20.0235C5.23752 19.7494 5.76968 18.7759 4.73321 18.1778C4.63791 17.5474 3.70699 17.005 3.40353 16.0521C3.27305 15.5653 2.348 14.1682 2.91534 15.4657C3.39913 16.7162 4.25089 17.7878 4.95897 18.8595C5.50873 19.8857 6.15817 20.9442 7.158 21.5804C7.49518 21.9044 7.82064 22.3999 8.29856 22.5011L8.30149 22.504ZM5.0396 18.924C5.07625 18.7554 5.24338 19.2934 5.03667 18.924H5.0396ZM9.65462 23.0069C9.90531 22.8954 9.29398 22.8603 9.65462 23.0069V23.0069ZM10.2689 23.2312C10.2073 22.9218 9.98741 23.4041 10.2689 23.2312V23.2312ZM11.0385 23.5522C11.4036 23.2033 10.4741 23.3323 11.0385 23.5522V23.5522ZM12.358 24.2852C12.5793 23.9583 11.644 24.1635 12.3565 24.2867L12.358 24.2852ZM9.82615 22.526C10.3935 22.1536 9.09021 22.5172 9.82468 22.5216L9.82615 22.526ZM10.4038 22.8192C10.3862 22.6154 10.1956 22.8969 10.4023 22.8104L10.4038 22.8192ZM13.2859 24.6107C13.7492 24.9039 15.9937 25.2513 14.5878 24.7309C14.3532 24.7793 11.9827 24.0595 13.2859 24.6107ZM8.70758 21.0439C8.66213 20.8489 7.98776 20.8284 8.70758 21.0439V21.0439ZM10.049 21.834C10.3994 21.5834 9.3277 21.6391 10.049 21.834V21.834ZM11.1793 22.526C11.6807 22.3296 10.3656 22.3296 11.1793 22.5187V22.526ZM8.15489 20.4487C8.69878 20.8665 10.3539 20.5029 8.98759 20.1994C8.36893 19.8696 6.97181 19.6438 7.92326 20.3988L8.15489 20.4487ZM11.9445 22.7576C12.1703 22.3721 10.9931 22.5377 11.9445 22.7576V22.7576ZM10.7937 21.8443C12.1249 22.2211 9.67515 21.0028 10.4668 21.7065L10.6413 21.7857L10.7879 21.8443H10.7937ZM13.0998 23.1769C14.3591 23.1886 11.9621 23.0025 13.0998 23.1769V23.1769ZM7.6755 19.72C7.62712 19.4884 7.36471 19.7391 7.6755 19.72V19.72ZM15.2314 24.3717C15.2651 23.948 14.8194 24.6884 15.2314 24.3717V24.3717ZM9.82615 21.0365C9.74992 20.8078 9.43179 21.0277 9.82615 21.0365V21.0365ZM7.79571 19.5705C8.51846 19.5295 6.80469 19.2538 7.79571 19.572V19.5705ZM5.38998 18.0224C5.29909 17.6705 4.60273 17.3949 5.38998 18.0224V18.0224ZM11.7056 22.0305C11.5722 21.8751 11.6425 22.0583 11.7056 22.0261V22.0305ZM15.6316 24.4377C15.6228 24.2075 15.4219 24.5256 15.6316 24.4377V24.4377ZM11.3567 21.6669C11.4285 21.3693 10.7409 21.576 11.3567 21.6669V21.6669ZM8.42464 19.8109C8.96706 19.7523 7.56848 19.4459 8.42903 19.8109H8.42464ZM13.3783 22.8896C14.2213 22.5568 12.5647 22.7268 13.3827 22.8881L13.3783 22.8896ZM10.8054 21.1391C11.7716 21.2638 9.65609 20.4824 10.5943 21.0688L10.8054 21.1391ZM14.1656 23.2048C15.0686 22.6653 14.771 24.4685 15.6975 23.3514C16.6109 22.6843 14.9088 24.1753 16.0347 23.4701C16.8484 22.9262 18.0505 23.7281 18.8099 23.9906C19.3567 23.9627 19.8874 24.4626 20.4474 24.1591C21.5264 23.8659 18.3393 23.7281 19.1749 23.2136C18.1883 23.5068 17.4597 22.8705 16.9759 22.2387C15.8691 21.9836 14.5892 21.4177 14.0439 20.4384C13.8181 20.0704 14.3679 20.4897 13.8489 19.8886C13.1819 19.3022 12.8491 18.6235 12.4019 17.9022C11.8668 17.609 11.8038 16.7763 11.751 17.8743C11.751 17.1809 11.1045 16.7162 10.9462 16.9097C10.9462 16.2426 11.6411 16.5769 11.1529 16.0829C11.0473 15.3924 10.7014 14.6725 10.5973 13.8926C10.4345 13.5159 10.5738 12.711 10.0446 13.5628C9.85254 14.4614 9.98008 12.4574 10.2806 13.123C10.675 12.4471 10.134 12.5278 10.1179 12.6201C10.3744 12.0513 10.2791 11.2435 10.0505 11.5514C10.178 10.9503 10.2572 9.33331 9.83788 9.61918C10.0915 8.98879 10.3202 6.73406 9.21482 7.59314C8.66813 7.61456 8.12936 7.73114 7.62273 7.93766C8.77355 8.57244 7.50691 8.16636 7.03632 8.06667C6.97621 8.65308 6.51148 8.39945 5.93241 8.40532C6.85746 8.51967 5.48087 9.35237 4.95018 9.02838C4.25968 9.35823 5.54538 10.1807 4.96337 10.4358C5.0352 10.8184 3.90784 10.2892 3.9958 11.1834C3.32583 10.9005 3.90344 12.2331 4.23916 11.783C5.37825 12.0909 5.04107 12.7946 5.06892 13.4616C4.88421 13.8501 4.15266 12.5468 4.9062 12.6069C4.31246 11.6423 4.24942 12.258 3.75537 12.7066C3.64102 12.7403 5.01468 13.3458 4.15266 13.6449C4.91206 13.7621 4.93258 14.4263 5.08798 14.847C5.54391 15.322 5.45009 14.3222 5.99691 14.8924C5.6524 14.3837 4.16732 13.4601 5.36946 13.7563C5.36213 13.2446 5.15249 12.8312 5.51606 12.8415C5.87816 12.1847 5.13636 14.4541 5.95586 13.6258C6.18163 13.5261 6.23734 12.9676 6.64343 13.6786C7.22983 14.265 6.85746 14.6799 6.02477 14.1477C6.17137 14.6535 7.13894 14.8353 6.95715 15.6255C7.1492 16.3218 7.41895 16.0653 7.65351 16.0242C7.83823 16.7 7.94672 16.2031 7.94672 15.8776C8.78821 16.0579 8.59176 16.5564 8.85565 16.9038C9.44205 17.1662 8.02441 15.127 9.02131 16.291C10.0695 17.2381 9.4142 17.6339 8.47302 17.4814C9.06822 17.4331 9.26027 18.2863 10.0065 18.257C10.6852 18.5795 11.1456 19.8212 9.97422 19.3052C9.56813 18.9387 8.12997 18.4871 9.30425 19.1835C10.3891 19.6849 11.2497 19.9854 12.2964 20.6158C13.0441 21.1509 13.368 21.7622 13.651 21.8839C13.0221 22.1771 11.7554 21.6435 12.6966 21.4778C12.1102 21.3708 11.4505 21.0746 12.012 21.8062C12.4899 22.2049 13.7052 22.1624 13.9178 22.2079C13.7331 22.614 13.4164 22.6477 13.9251 22.6785C13.3578 22.9805 14.1084 23.0274 14.1597 23.2004L14.1656 23.2048ZM13.003 19.9282C12.6585 19.5676 12.5632 18.8903 12.9414 19.4796C13.1335 19.5558 13.5557 20.585 13.003 19.9282ZM16.7853 22.331C17.0008 22.3134 16.7912 22.4908 16.7853 22.3281V22.331ZM12.4577 19.0398C12.4445 18.493 12.5823 19.4606 12.4577 19.0398V19.0398ZM12.0823 18.534C11.6469 17.694 12.6306 18.7715 12.0823 18.534V18.534ZM7.52743 15.3836C7.78252 15.322 7.65205 15.8234 7.52743 15.3836V15.3836ZM11.1529 17.3554C11.3098 16.766 11.3361 17.8494 11.1529 17.3554V17.3554ZM8.59469 15.5741C8.40998 15.2487 8.96853 15.8791 8.59469 15.5741V15.5741ZM10.7937 16.2793C10.3818 15.3557 11.0869 15.775 10.8846 16.4259L10.7937 16.2793ZM6.9982 13.7504C6.81495 13.4484 6.51002 12.56 6.60824 12.2844C6.6962 12.7242 7.54649 14.1902 7.02459 12.8884C6.44845 11.8021 7.71508 13.2417 7.84409 13.5129C7.90567 13.7812 7.48932 13.4382 7.77079 14.07C7.25622 13.3561 7.46733 14.4717 6.9982 13.7504ZM5.82539 12.9441C5.87523 12.2404 6.10247 13.4264 5.82685 12.9441H5.82539ZM6.35315 13.1244C6.60531 12.5981 6.78123 13.8648 6.35462 13.1244H6.35315ZM5.08505 12.1451C4.64524 11.7053 4.33298 11.311 5.10557 11.8754C5.39878 11.8871 4.4444 10.9665 5.17741 11.5822C5.95586 11.7185 5.55857 12.8459 5.08652 12.1451H5.08505ZM5.75062 12.1275C6.00571 11.8754 5.88696 12.3738 5.75209 12.1275H5.75062ZM6.16111 12.258C5.77848 11.5382 6.62877 12.56 6.16257 12.258H6.16111ZM5.346 11.4796C4.0779 10.3522 6.93956 12.066 5.55271 11.6892L5.346 11.4796ZM8.97879 13.5906C8.4305 13.2622 8.83219 11.2743 9.02131 12.6333C9.55494 12.4618 8.99199 13.3311 9.39074 13.3311C9.3277 13.8794 9.15032 14.0773 8.98026 13.5906H8.97879ZM10.3246 14.3852C10.3774 13.7856 10.4375 14.7972 10.3246 14.3852V14.3852ZM10.09 14.1536C10.1516 13.8985 10.0974 14.4556 10.09 14.1536V14.1536ZM5.59669 11.1087C4.78158 9.98568 7.96431 12.2463 6.11859 11.4019C5.92508 11.3432 5.69345 11.3256 5.59669 11.1087ZM8.18421 12.4808C8.10651 11.5353 8.35573 12.6377 8.18421 12.4808V12.4808ZM10.1487 13.7416C10.2997 13.2021 10.1589 14.0979 10.1487 13.7416V13.7416ZM5.7213 10.6806C6.20509 10.5765 7.72681 11.5309 6.3297 10.9533C6.1743 10.7803 5.84298 10.8594 5.7213 10.6806ZM9.87893 12.7521C9.93024 11.7845 10.1721 12.1744 9.87893 12.8987V12.7521ZM6.08194 10.3434C6.27839 10.0502 5.55857 9.03571 6.18603 9.97835C6.45724 10.1939 6.97035 10.339 6.51735 10.4299C7.22983 11.0588 6.34289 10.5999 6.08194 10.3434ZM9.67222 12.4515C9.80856 11.3476 9.79243 13.0951 9.67222 12.4515V12.4515ZM5.66999 9.32744C5.82099 9.26147 5.74916 9.52682 5.66999 9.32598V9.32744ZM6.60678 9.88453C6.8472 9.37289 7.05098 10.4475 6.60678 9.88306V9.88453ZM9.24561 11.3505C9.24561 11.1585 9.29838 11.635 9.24854 11.3535L9.24561 11.3505ZM9.099 11.0119C8.7281 10.1059 9.43619 11.4928 9.09607 11.0148L9.099 11.0119ZM8.87324 10.4255C8.81167 10.0517 9.08288 10.8946 8.87324 10.4255V10.4255ZM9.23974 9.83029C8.98759 9.39048 9.55787 7.87462 9.62091 8.81287C9.35556 9.54588 9.54467 9.9505 9.72939 8.9712C10.0724 8.20154 9.65609 10.4929 9.23974 9.83029ZM9.62091 7.57848C9.72353 7.44361 9.6385 7.74121 9.62091 7.57848V7.57848ZM8.99199 19.9707C8.83512 19.8417 9.00371 20.0543 8.98466 19.9707H8.99199ZM10.2806 20.626C11.0004 20.8122 10.9975 20.5146 10.3451 20.4267C9.99474 20.0997 8.88936 19.7552 9.87893 20.3856C9.9449 20.5513 10.1516 20.5483 10.2806 20.626ZM7.71508 18.9269C8.11237 19.2201 9.21042 19.7655 8.28097 19.0398C8.59469 18.6748 7.68137 18.4813 7.98776 18.2379C7.2181 17.7658 7.38083 17.8084 7.92033 17.823C6.9938 17.4096 8.05373 17.4404 8.00389 17.2278C7.64765 17.1574 6.23001 16.5974 7.06417 17.2733C6.21681 16.8422 6.86186 17.4345 6.60531 17.3715C5.73889 17.1355 7.3779 18.0327 6.4675 17.8113C6.96448 18.2056 7.80598 18.8199 6.67861 18.2276C6.53201 18.4417 7.48492 18.7657 7.71948 18.9284L7.71508 18.9269ZM9.07115 19.7054C10.7234 20.2361 8.26924 19.0574 9.07701 19.7054H9.07115ZM16.0127 23.9085C16.0347 23.5815 15.7884 24.187 16.0127 23.9085V23.9085ZM16.7267 24.2017C17.1064 23.8337 16.7414 24.7881 17.3556 24.1122C17.3629 23.627 17.3366 23.3411 16.6505 23.929C16.4599 24.0345 16.3763 24.4817 16.7267 24.2017ZM5.40904 17.0944C5.29176 16.6414 4.591 16.6443 5.40904 17.1003V17.0944ZM6.1699 17.5928C5.88696 17.1311 5.16128 17.175 6.1699 17.5987V17.5928ZM10.5005 20.2112C10.9242 20.5865 12.443 20.4868 11.0151 20.2581C10.8025 19.9443 9.67075 20.0191 10.5005 20.2112ZM16.4555 23.8865C17.1064 23.3426 15.8236 24.1313 16.4555 23.8865V23.8865ZM17.8086 24.8174C17.813 24.6429 17.5286 24.8951 17.8086 24.8189V24.8174ZM17.8086 24.5711C18.5299 23.8073 17.1108 24.6165 17.8086 24.5711V24.5711ZM3.53547 15.5302C2.92121 14.6506 3.1543 14.2591 2.56203 13.5437C2.44915 12.9969 1.54608 11.7552 2.09437 13.0702C2.59722 13.8428 2.74675 15.0346 3.53547 15.5302ZM17.5843 24.3263C18.9111 23.473 17.0404 23.9568 17.5843 24.3263V24.3263ZM18.5959 24.7221C19.26 24.1562 18.1766 24.6077 18.5959 24.7265V24.7221ZM5.18327 16.1312C5.36946 15.8483 4.69216 16.096 5.18327 16.1312V16.1312ZM18.3848 24.4553C19.0283 24.0419 18.2382 24.1049 18.2689 24.4934L18.3848 24.4553ZM9.66049 18.9562C9.6385 18.6762 9.3277 18.9812 9.66049 18.9562V18.9562ZM10.2073 19.267C10.0285 18.9211 9.9361 19.3213 10.2073 19.267V19.267ZM19.4168 24.7368C20.2407 24.1416 18.9169 24.6224 19.2438 24.8482L19.4168 24.7368ZM19.1016 24.5902C19.7731 24.0213 18.3936 24.8335 19.1016 24.5843V24.5902ZM20.7143 25.6633C21.1629 25.3525 20.166 25.5592 20.7128 25.6574L20.7143 25.6633ZM5.59669 15.9275C6.19922 16.0623 8.00975 17.4155 6.94249 16.0213C6.39567 15.86 6.72259 14.523 6.1655 14.759C6.53934 15.385 6.47337 15.6504 5.68758 15.256C4.69949 14.7752 5.13196 15.495 5.32548 15.6958C5.06306 15.7559 5.67292 15.9245 5.59669 15.9289V15.9275ZM2.84498 13.7548C2.95346 13.315 1.84955 11.2948 2.32454 12.7462C2.4946 13.0511 2.47701 13.6243 2.84498 13.7548ZM7.89394 16.8686C7.58314 16.6077 7.87928 16.832 7.89394 16.8686V16.8686ZM8.66067 17.046C8.6592 16.5725 7.81331 16.8496 8.66067 17.046V17.046ZM15.2959 21.23C15.1683 20.9061 14.7959 21.2212 15.2959 21.23V21.23ZM15.614 21.4617C15.5671 21.2814 15.4307 21.4969 15.614 21.4617V21.4617ZM18.244 23.1183C18.4976 22.9321 17.9288 23.0948 18.244 23.1183V23.1183ZM4.21863 14.1052C4.94285 13.8252 3.44458 13.9058 4.21863 14.1052V14.1052ZM14.7109 20.7155C14.7036 20.2478 14.2506 20.8328 14.7109 20.7155V20.7155ZM3.93276 13.4396C4.39749 13.2828 3.50322 13.3311 3.93276 13.4396V13.4396ZM5.28296 14.0935C5.27417 13.9395 5.13929 14.1521 5.28296 14.0935V14.0935ZM21.7361 24.1797C22.3327 24.058 23.6947 24.4831 23.9146 24.0213C23.1816 24.0037 21.4048 23.5097 21.3197 24.1386L21.4781 24.1635L21.7361 24.1797ZM5.71104 14.2005C5.7213 13.727 5.3416 14.1829 5.71104 14.2005V14.2005ZM2.16474 11.7405C1.99762 10.8389 1.55781 11.6042 2.16474 11.7405V11.7405ZM3.01064 11.9531C3.02383 11.6628 2.23658 11.6921 3.01064 11.9531V11.9531ZM3.49296 12.1906C3.35368 12.0777 3.38447 12.3342 3.49296 12.1906V12.1906ZM6.54227 14.1418C6.67714 14.0099 6.19629 14.0436 6.54227 14.1418V14.1418ZM3.17043 11.6555C3.0898 10.9723 2.19113 11.5529 3.17043 11.6555V11.6555ZM1.4376 10.531C1.41121 10.2158 1.26461 10.6498 1.4376 10.531V10.531ZM1.69562 10.3361C1.6531 9.9593 1.47425 10.383 1.69562 10.3361V10.3361ZM3.12059 11.1864C3.72312 10.9489 2.02254 10.6967 2.99744 11.1409L3.12059 11.1864ZM22.1935 22.9673C22.579 22.614 21.7024 22.8603 22.1935 22.9673V22.9673ZM24.4966 24.1621C24.652 23.7047 24.1081 24.2222 24.4966 24.1621V24.1621ZM3.26572 10.4387C3.33023 9.99741 2.7878 10.5266 3.26572 10.4387V10.4387ZM1.23822 9.07969C1.12974 8.45516 1.1444 7.35858 2.18673 7.72948C0.795484 8.0051 3.14844 9.45792 2.85231 8.31589C3.43871 8.34375 3.9958 7.96991 3.6894 8.53726C4.84022 8.41118 5.6392 7.41136 6.75191 7.5521C7.61979 7.43628 8.56684 7.34979 9.50069 7.00087C10.2689 6.94516 11.0092 6.12126 10.587 5.62868C9.54028 5.53925 8.4437 5.6712 7.28554 5.90136C6.00278 6.16818 4.83876 6.67395 3.54427 6.89239C2.28202 7.06098 3.79789 7.35858 3.43578 7.42455C2.77754 7.65325 4.22157 7.80718 3.35075 8.04908C2.81272 7.94646 2.25417 7.75587 2.48287 7.19439C1.27487 7.35125 0.212009 7.8541 1.16345 9.08262L1.23822 9.07969ZM4.1512 7.59608C4.43414 6.55227 5.66852 8.45516 4.61446 7.74268C4.48446 7.63651 4.31854 7.58452 4.1512 7.59754V7.59608ZM4.20544 7.0903C4.61446 6.78683 4.42388 7.26182 4.20544 7.09177V7.0903ZM4.72441 7.0991C4.76253 6.61824 5.91335 7.35272 4.91499 7.27062L4.72441 7.0991ZM5.43543 6.80589C5.69491 6.51122 5.51606 7.08444 5.43543 6.81469V6.80589ZM5.61721 6.68421C6.04969 6.16524 8.064 6.35289 6.58918 6.6329C6.19336 6.3441 5.89136 6.81762 5.61721 6.69301V6.68421ZM8.24578 6.29425C8.17981 4.86928 9.552 6.79123 8.24578 6.29425V6.29425ZM8.99199 6.29425C9.26466 5.57884 10.0504 6.00105 9.11806 6.14765C9.13859 6.21509 9.09021 6.50829 8.99199 6.28399V6.29425ZM2.97252 10.0722C3.78616 9.57373 2.10757 9.6397 2.97252 10.0722V10.0722ZM3.57505 10.2393C3.85946 9.93584 2.95346 10.1162 3.57505 10.2393V10.2393ZM1.79971 8.98C2.26443 8.62229 1.24848 8.84366 1.79971 8.98V8.98ZM25.857 24.0331C25.8702 23.6153 25.5008 24.2178 25.857 24.0331V24.0331ZM23.4132 22.3618C23.4821 21.8854 23.098 22.4043 23.4132 22.3618V22.3618ZM26.5299 24.1914C27.1809 24.1914 28.5017 23.9891 27.0856 23.9906C26.8627 24.0243 25.7896 24.0169 26.5299 24.1914ZM4.09989 9.94757C4.62619 9.91092 4.92379 9.36116 3.99873 9.39781C2.5635 9.25121 5.2639 9.88893 3.81401 9.70568C3.62343 9.83469 4.09256 9.98275 4.10428 9.94757H4.09989ZM4.56315 10.1821C4.5133 9.84348 4.40482 10.361 4.56755 10.1821H4.56315ZM5.11437 8.71611C5.34747 8.43024 4.80211 8.63988 5.11877 8.71465L5.11437 8.71611ZM3.36248 5.78408C4.3022 5.46449 5.58789 5.10531 6.0321 5.94241C5.58056 5.39852 5.85031 4.86342 6.27692 5.658C6.87946 6.46284 7.18145 5.29296 6.79003 5.02175C7.23716 5.57737 7.74587 5.84125 7.08323 5.05693C7.79572 4.19931 5.65386 5.16982 5.16715 5.15955C4.94431 5.26804 2.75995 5.71811 3.36688 5.78554L3.36248 5.78408ZM3.9137 4.73001C4.4532 4.32686 5.77261 4.97484 4.92965 4.32832C4.84316 4.25502 3.07367 4.81651 3.9181 4.73148L3.9137 4.73001ZM5.8679 4.81064C6.49536 4.82677 5.59669 3.96768 6.34436 4.35618C6.22268 3.95449 5.47501 3.87972 5.10851 3.71993C4.9062 4.09523 5.53365 4.81651 5.8723 4.81211L5.8679 4.81064ZM4.25528 3.0353C4.47812 2.74356 3.87998 3.1863 4.25968 3.03676L4.25528 3.0353ZM5.05426 3.22734C6.06581 3.09247 4.79771 2.78754 4.85049 3.21562L5.05426 3.22734ZM3.56332 2.05453C2.85084 1.12361 4.9018 2.20993 4.17905 1.23649C3.57505 0.760036 2.98865 1.78918 3.56772 2.06186L3.56332 2.05453ZM12.6995 6.98328C13.0265 6.39687 11.3508 6.20189 12.4796 6.77804C12.5896 6.81322 12.5661 7.02726 12.6995 6.98328Z" fill="#FEC506"/>
</svg>
