<svg width="26" height="24" viewBox="0 0 26 24" fill="none" xmlns="http://www.w3.org/2000/svg">
<path d="M12.974 24.0005L0.402597 14.8217C0.246753 14.7174 0.0909091 14.5088 0.038961 14.3002C-0.012987 14.0916 -0.012987 13.883 0.038961 13.6744L1.49351 9.24149L12.974 24.0005ZM5.33766 0.323508L8.19481 9.24149H1.49351L4.35065 0.323508C4.4026 0.1149 4.61039 0.0105961 4.81818 0.0105961C5.12987 -0.0415558 5.28571 0.1149 5.33766 0.323508ZM8.19481 9.24149H17.7532L12.974 24.0005L8.19481 9.24149ZM25.961 13.7266C26.013 13.9352 26.013 14.1438 25.961 14.3524C25.9091 14.561 25.7532 14.7174 25.5974 14.8739L12.974 24.0005L24.4545 9.24149L25.961 13.7266ZM24.4545 9.24149H17.8052L20.6623 0.323508C20.7143 0.1149 20.9221 0.0105961 21.1299 0.0105961C21.3896 0.0105961 21.5455 0.1149 21.5974 0.323508L24.4545 9.24149Z" fill="#FEC506"/>
</svg>
