<svg width="30" height="24" viewBox="0 0 30 24" fill="none" xmlns="http://www.w3.org/2000/svg">
<path d="M18.8868 6.5959H19.7952L22.3828 4.00821L22.5101 2.91026C17.6953 -1.33934 10.3452 -0.881438 6.09564 3.93335C4.91409 5.27086 4.05693 6.86165 3.5903 8.58345C3.87852 8.46492 4.19792 8.44621 4.49861 8.52855L9.67273 7.67514C9.67273 7.67514 9.93599 7.2397 10.072 7.26715C12.374 4.73935 16.248 4.4449 18.9056 6.5959H18.8868Z" fill="#FEC506"/>
<path d="M26.0685 8.58341C25.4734 6.39373 24.2531 4.42489 22.555 2.91895L18.9243 6.54969C20.4577 7.80236 21.3311 9.6901 21.2936 11.6702V12.3152C23.0791 12.3152 24.5251 13.7625 24.5251 15.5467C24.5251 17.3321 23.0778 18.7782 21.2936 18.7782H14.8294L14.1844 19.432V23.3085L14.8294 23.9536H21.2936C24.9992 23.9823 28.2869 21.5805 29.3873 18.0421C30.4853 14.5024 29.1378 10.6595 26.0685 8.58341Z" fill="#FEC506"/>
<path d="M8.35635 23.9175H14.8206V18.7433H8.35635C7.89596 18.7433 7.44055 18.6448 7.02133 18.4526L6.11302 18.7334L3.50787 21.321L3.28079 22.2294C4.74182 23.3323 6.52476 23.925 8.35635 23.9175Z" fill="#FEC506"/>
<path d="M8.35635 7.13115C4.76553 7.15236 1.5852 9.45183 0.439833 12.8543C-0.705536 16.2567 0.43609 20.0122 3.28204 22.2006L7.03132 18.4513C5.40435 17.7165 4.68194 15.8025 5.41682 14.1755C6.15171 12.5486 8.06564 11.8262 9.69262 12.561C10.4088 12.8854 10.9827 13.4594 11.3071 14.1755L15.0564 10.4263C13.4606 8.3414 10.9815 7.12242 8.35635 7.13115Z" fill="#FEC506"/>
</svg>
