<svg width="27" height="26" viewBox="0 0 27 26" fill="none" xmlns="http://www.w3.org/2000/svg">
<path d="M13.7002 7.09668C10.4277 7.09668 7.77124 9.75314 7.77124 13.0256C7.77124 16.2981 10.4277 18.9545 13.7002 18.9545C16.9726 18.9545 19.6291 16.2981 19.6291 13.0256C19.6163 9.74031 16.9598 7.09668 13.7002 7.09668Z" fill="#FEC506"/>
<path d="M22.1958 7.62287C23.6913 7.62287 24.9036 6.41055 24.9036 4.91507C24.9036 3.4196 23.6913 2.20728 22.1958 2.20728C20.7004 2.20728 19.488 3.4196 19.488 4.91507C19.488 6.41055 20.7004 7.62287 22.1958 7.62287Z" fill="#FEC506"/>
<path d="M25.5195 7.6229L25.4169 7.37907L25.2372 7.59724C24.8009 8.09773 24.2234 8.48273 23.6074 8.71372L23.4277 8.79072L23.5047 8.97039C24.0566 10.2665 24.3132 11.6397 24.3132 13.0385C24.3132 18.8904 19.5521 23.6644 13.6874 23.6644C7.8226 23.6644 3.07433 18.8904 3.07433 13.0385C3.07433 7.18657 7.83544 2.41264 13.7002 2.41264C15.2915 2.41264 16.8058 2.77197 18.2431 3.43929L18.3971 3.51629L18.4741 3.33662C18.7436 2.72063 19.1415 2.18164 19.6805 1.75814L19.8986 1.57848L19.6548 1.45015C17.794 0.500494 15.8048 0 13.7002 0C6.53929 0 0.700195 5.83909 0.700195 13C0.700195 20.1609 6.53929 26 13.7002 26C20.8611 26 26.7002 20.1609 26.7002 13C26.6874 11.1392 26.2895 9.34255 25.5195 7.6229Z" fill="#FEC506"/>
</svg>
