<svg width="26" height="26" viewBox="0 0 26 26" fill="none" xmlns="http://www.w3.org/2000/svg">
<circle cx="13" cy="12.9995" r="13" fill="#FEC506"/>
<mask id="path-2-outside-1_218_270" maskUnits="userSpaceOnUse" x="4" y="2.00195" width="18" height="20" fill="black">
<rect fill="white" x="4" y="2.00195" width="18" height="20"/>
<path d="M20.9929 17.9425C20.9457 17.5506 20.336 17.1306 20.0174 16.8227C19.8403 16.6467 19.0143 16.0108 18.9671 15.7709C18.9199 15.5389 19.3015 15.015 19.4273 14.7551C19.6043 14.3791 19.7302 13.9232 19.8167 13.6073C20.4658 11.2837 20.5326 8.09227 19.6004 6.18062C19.2464 5.45675 18.2669 4.45693 17.6494 3.98501C16.1979 2.86921 13.5153 2.74523 11.7688 3.40112C11.2811 3.58508 10.8091 3.74505 10.3803 4.00101C9.23566 4.68489 8.02021 5.1448 7.678 6.51656C6.84017 6.89649 6.58842 7.98429 6.63169 9.25207C6.63956 9.50002 6.7733 9.80797 6.72609 10.0399C6.70249 10.1559 6.54515 10.3079 6.51369 10.3839C6.11247 11.3597 6.43502 12.6355 6.89917 13.3273C7.17845 13.7473 7.6426 14.1152 8.25622 14.2152C8.27982 14.5871 8.37029 14.907 8.53943 15.283C8.64564 15.5229 9.04685 15.9509 8.89738 16.2588C8.82264 16.4148 8.16968 16.7427 7.95334 16.8787C7.22565 17.3186 6.69463 17.5906 6.022 18.0865C5.58538 18.4024 4.90489 18.4464 5.01109 19.1783C5.0819 19.6742 5.36117 20.2901 5.51851 20.79C5.54211 20.862 5.56571 20.934 5.58932 21.002H20.1826C20.3517 20.462 20.5169 19.9141 20.686 19.3423C20.808 18.9383 21.044 18.3624 20.9929 17.9425ZM11.2693 4.18498C11.3322 4.16898 11.3873 4.20897 11.4384 4.26896C11.4305 4.45293 11.2535 4.44893 11.1316 4.50892C10.9467 4.74488 10.6674 4.85286 10.4393 5.11281C10.2033 5.37676 9.93975 6.08863 9.62901 6.16862C9.47167 6.20861 9.29466 6.14062 9.15699 6.15262C8.79904 6.17662 8.54337 6.36458 8.17755 6.41657C8.64957 5.36076 10.1207 4.51692 11.2693 4.18498ZM7.6426 7.47638C8.11068 6.95248 8.75184 6.62854 9.53854 6.56455C9.94369 7.60836 9.24746 8.84814 9.50707 9.99593C9.58574 10.3439 9.86108 10.8878 9.42447 10.8998C9.43627 9.90395 8.22082 9.27206 7.30432 9.85996C7.24138 9.10409 7.13518 8.04028 7.6426 7.47638ZM8.91311 14.5151C8.87771 14.3711 8.81871 14.0632 8.83444 13.9832C8.88951 13.6793 9.42447 13.5433 9.21599 13.1154C8.82658 13.1114 8.74004 13.4753 8.38209 13.5113C7.45772 13.6033 6.80476 12.2675 6.84803 11.4597C6.88343 10.7758 7.45772 10.1159 8.23655 10.1999C8.79118 10.2639 8.97605 10.8758 9.08225 11.4197C9.40087 11.4357 9.86108 11.4037 10.0106 11.1517C9.99089 10.5358 9.70768 10.0399 9.72735 9.47602C9.76275 8.41222 10.3331 7.45239 9.89255 6.40458C10.3646 5.31677 11.7413 4.46093 12.7679 3.94502C14.0345 3.30113 16.0485 3.81304 17.2403 4.50092C17.9208 4.89285 18.4282 5.64871 18.912 6.2846C18.2394 6.08064 17.6651 6.43257 17.7674 6.99647C18.3299 6.47256 19.2975 6.98847 19.5847 7.57237C19.8561 8.12827 19.8561 8.95612 19.8954 9.77997C19.9937 11.7836 19.5375 13.8552 18.5423 15.303C18.2748 15.6909 18.0545 16.1108 17.6809 16.3788C16.7801 17.0187 15.4191 17.5986 14.2509 17.2026C12.705 16.6747 12.0048 15.6269 11.1552 14.4311C11.1788 15.087 11.6312 15.6309 12.0835 16.1348C12.4729 16.5747 12.9489 17.0707 13.4563 17.2746C13.0315 17.1746 12.3825 17.1426 12.2054 17.5266C11.2181 17.4586 10.3016 17.3586 9.82962 16.6747C9.45593 16.1308 9.08225 15.219 8.91311 14.5151ZM16.5913 18.8783C16.7329 18.7744 16.9768 18.7784 17.1931 18.7504C17.0082 18.6544 16.7447 18.6184 16.5244 18.6744C16.5205 18.5264 16.4536 18.4344 16.4143 18.3144C16.7801 18.1825 17.6415 17.3106 18.1293 17.6026C18.3614 17.7385 18.4597 18.5224 18.4794 18.9023C18.4951 19.2183 18.4518 19.5342 18.322 19.7022C17.673 19.6822 17.083 19.6022 16.5677 19.4542C16.5991 19.2423 16.5362 19.0343 16.5913 18.8783ZM15.9934 18.1745C15.4112 18.2025 15.0926 18.1305 14.6678 17.7945C14.6757 17.7665 14.715 17.7785 14.7189 17.7465C15.3404 18.0265 16.1311 17.6306 16.7604 17.5746C16.489 17.7545 16.2569 17.9825 15.9934 18.1745ZM15.5764 19.3423C15.5214 19.0103 15.4545 18.9223 15.4781 18.6304C16.3435 18.0465 16.5087 19.6382 15.5764 19.3423ZM11.9616 18.4224C11.5604 18.3984 10.2977 17.9305 10.632 17.5906C10.9585 17.8185 11.584 17.7625 12.0599 17.8465C12.0874 17.9985 11.9616 18.2025 11.9616 18.4224ZM6.14394 20.478C5.99447 20.0301 5.82533 19.5942 5.63258 19.1823C6.69856 18.3464 7.89041 17.4626 9.16486 16.9507C9.26319 16.9107 9.96729 17.8425 10.0696 17.9225C10.6399 18.3344 11.3479 18.6624 12.0127 18.9823C12.056 19.2903 12.1464 19.6942 12.3116 20.2301C12.3352 20.3101 12.3588 20.3941 12.3864 20.482L6.14394 20.478ZM14.4633 20.678H14.4357C14.4475 20.67 14.4515 20.662 14.4633 20.662V20.678ZM14.7229 20.478C14.7937 20.4301 14.8723 20.3781 14.9432 20.3261C14.9825 20.3741 15.0179 20.4261 15.0533 20.478H14.7229ZM15.246 19.6102C14.8723 19.8662 14.5341 20.2541 14.0935 20.498C13.885 20.614 13.1613 20.91 12.9371 20.858C12.8112 20.83 12.8033 20.67 12.7522 20.522C12.646 20.2061 12.4021 19.6982 12.3785 19.2223C12.351 18.6184 12.292 17.6066 12.9331 17.7305C13.4484 17.8305 14.0502 18.0705 14.4515 18.2984C14.6953 18.4344 14.8369 18.6024 15.2106 18.6344C15.2067 18.6824 15.2067 18.7344 15.2028 18.7864C14.9982 18.9223 14.6717 18.9183 14.4475 19.0343C14.7779 19.0503 15.0336 19.1303 15.2618 19.2423C15.2539 19.3542 15.246 19.4822 15.246 19.6102ZM17.0908 20.478H16.607C16.6031 20.3661 16.5087 20.2741 16.3946 20.2741C16.2805 20.2741 16.1901 20.3661 16.1822 20.478H15.5804C15.482 20.3221 15.3837 20.1741 15.2736 20.0381C15.3444 19.9621 15.4112 19.8742 15.482 19.7942C15.7928 19.9261 15.9934 19.6222 16.2333 19.6462C16.5047 19.6742 16.725 20.0581 17.1105 20.0341L17.0908 20.478ZM17.3937 20.478C17.4016 20.3381 17.4094 20.2021 17.4134 20.0741C17.9523 19.8182 18.4164 20.1181 18.6485 20.478H17.3937ZM20.277 19.1783C20.1983 19.5702 20.0764 20.0221 19.9347 20.482C19.9269 20.478 19.919 20.478 19.9151 20.478H18.9514C18.971 20.4381 18.9946 20.4021 19.0182 20.3621C18.9278 20.1461 18.7075 20.0581 18.6406 19.8182C19.0576 19.0183 18.8648 16.5348 17.8028 17.0587C17.9523 16.8387 18.3417 16.6547 18.5226 16.3788C18.971 16.7427 19.2425 17.0907 19.6712 17.4826C19.9072 17.6945 20.3635 17.9505 20.4107 18.2944C20.4343 18.4864 20.3163 18.9583 20.277 19.1783ZM11.8318 7.58836C12.0166 7.06446 12.7719 6.36858 13.3894 6.46457C13.6569 6.50856 14.0109 6.75251 13.8103 7.08845C12.7679 6.8405 12.2487 7.53237 11.9301 8.25224C11.6469 8.18026 11.757 7.78833 11.8318 7.58836ZM18.1961 9.80797C18.4794 9.67999 18.971 9.78397 19.2189 9.62C19.0733 9.21607 18.8609 8.86813 18.8963 8.29624C18.912 8.29624 18.9317 8.29624 18.9435 8.30024C19.1795 8.80015 19.3841 9.32805 19.683 9.76797C19.4903 10.2399 18.1804 10.6558 18.1961 9.80797ZM14.8487 9.89995C14.6127 9.51602 14.1919 8.75615 14.3492 8.30823C14.5734 8.72816 14.6481 9.16808 14.9628 9.48002C15.1044 9.62 15.3837 9.79597 15.246 10.1919C15.2146 10.2879 14.9746 10.4958 14.8409 10.5318C14.3413 10.6838 13.1849 10.5638 13.5743 9.93194C13.9873 9.95594 14.5419 10.2039 14.8487 9.89995ZM15.7928 12.3635C15.9226 12.5955 15.84 13.0194 16.2097 13.0874C16.9099 13.2074 17.7163 12.6555 18.2197 12.4635C18.5305 11.9276 18.1922 11.7356 17.9129 11.3917C17.3386 10.6878 16.5716 9.81596 16.5991 8.76415C16.8312 8.59218 16.8509 9.02411 16.8824 9.10409C17.1813 9.81596 17.9326 10.7278 18.4833 11.3357C18.617 11.4877 18.8412 11.6316 18.8648 11.7276C18.9356 12.0156 18.68 12.3595 18.7075 12.5555C17.9562 13.0434 17.1223 13.5793 15.8911 13.4553C15.6394 13.2194 15.5371 12.7034 15.7928 12.3635ZM8.83444 12.0396C8.59843 11.9036 8.54337 11.2997 8.26802 11.2877C7.87467 11.2637 7.94548 12.0676 7.94548 12.5355C7.67406 12.2875 7.62686 11.5117 7.82354 11.1197C7.5954 11.0077 7.49312 11.2477 7.37119 11.3277C7.53246 10.1279 9.09405 10.7718 8.83444 12.0396ZM19.1953 13.0514C18.8452 13.7273 18.3496 14.4711 17.3268 14.4911C17.3072 14.2712 17.2875 13.9432 17.3268 13.8072C18.1096 13.7353 18.5934 13.3313 19.1953 13.0514ZM14.2863 13.4873C14.9392 13.8352 16.1389 13.8752 17.0279 13.8472C17.0751 14.0432 17.0712 14.2912 17.0751 14.5311C15.9344 14.5911 14.5891 14.3032 14.2863 13.4873ZM17.4763 15.131C17.4173 15.283 17.2914 15.4589 17.138 15.5229C16.7211 15.6949 15.5607 15.8269 14.9786 15.5109C14.6088 15.311 14.3728 14.8591 14.1683 14.5951C14.0699 14.4671 13.5822 14.1432 14.1604 14.1432C14.6167 15.291 16.1665 15.163 17.4763 15.131Z"/>
</mask>
<path d="M20.9929 17.9425C20.9457 17.5506 20.336 17.1306 20.0174 16.8227C19.8403 16.6467 19.0143 16.0108 18.9671 15.7709C18.9199 15.5389 19.3015 15.015 19.4273 14.7551C19.6043 14.3791 19.7302 13.9232 19.8167 13.6073C20.4658 11.2837 20.5326 8.09227 19.6004 6.18062C19.2464 5.45675 18.2669 4.45693 17.6494 3.98501C16.1979 2.86921 13.5153 2.74523 11.7688 3.40112C11.2811 3.58508 10.8091 3.74505 10.3803 4.00101C9.23566 4.68489 8.02021 5.1448 7.678 6.51656C6.84017 6.89649 6.58842 7.98429 6.63169 9.25207C6.63956 9.50002 6.7733 9.80797 6.72609 10.0399C6.70249 10.1559 6.54515 10.3079 6.51369 10.3839C6.11247 11.3597 6.43502 12.6355 6.89917 13.3273C7.17845 13.7473 7.6426 14.1152 8.25622 14.2152C8.27982 14.5871 8.37029 14.907 8.53943 15.283C8.64564 15.5229 9.04685 15.9509 8.89738 16.2588C8.82264 16.4148 8.16968 16.7427 7.95334 16.8787C7.22565 17.3186 6.69463 17.5906 6.022 18.0865C5.58538 18.4024 4.90489 18.4464 5.01109 19.1783C5.0819 19.6742 5.36117 20.2901 5.51851 20.79C5.54211 20.862 5.56571 20.934 5.58932 21.002H20.1826C20.3517 20.462 20.5169 19.9141 20.686 19.3423C20.808 18.9383 21.044 18.3624 20.9929 17.9425ZM11.2693 4.18498C11.3322 4.16898 11.3873 4.20897 11.4384 4.26896C11.4305 4.45293 11.2535 4.44893 11.1316 4.50892C10.9467 4.74488 10.6674 4.85286 10.4393 5.11281C10.2033 5.37676 9.93975 6.08863 9.62901 6.16862C9.47167 6.20861 9.29466 6.14062 9.15699 6.15262C8.79904 6.17662 8.54337 6.36458 8.17755 6.41657C8.64957 5.36076 10.1207 4.51692 11.2693 4.18498ZM7.6426 7.47638C8.11068 6.95248 8.75184 6.62854 9.53854 6.56455C9.94369 7.60836 9.24746 8.84814 9.50707 9.99593C9.58574 10.3439 9.86108 10.8878 9.42447 10.8998C9.43627 9.90395 8.22082 9.27206 7.30432 9.85996C7.24138 9.10409 7.13518 8.04028 7.6426 7.47638ZM8.91311 14.5151C8.87771 14.3711 8.81871 14.0632 8.83444 13.9832C8.88951 13.6793 9.42447 13.5433 9.21599 13.1154C8.82658 13.1114 8.74004 13.4753 8.38209 13.5113C7.45772 13.6033 6.80476 12.2675 6.84803 11.4597C6.88343 10.7758 7.45772 10.1159 8.23655 10.1999C8.79118 10.2639 8.97605 10.8758 9.08225 11.4197C9.40087 11.4357 9.86108 11.4037 10.0106 11.1517C9.99089 10.5358 9.70768 10.0399 9.72735 9.47602C9.76275 8.41222 10.3331 7.45239 9.89255 6.40458C10.3646 5.31677 11.7413 4.46093 12.7679 3.94502C14.0345 3.30113 16.0485 3.81304 17.2403 4.50092C17.9208 4.89285 18.4282 5.64871 18.912 6.2846C18.2394 6.08064 17.6651 6.43257 17.7674 6.99647C18.3299 6.47256 19.2975 6.98847 19.5847 7.57237C19.8561 8.12827 19.8561 8.95612 19.8954 9.77997C19.9937 11.7836 19.5375 13.8552 18.5423 15.303C18.2748 15.6909 18.0545 16.1108 17.6809 16.3788C16.7801 17.0187 15.4191 17.5986 14.2509 17.2026C12.705 16.6747 12.0048 15.6269 11.1552 14.4311C11.1788 15.087 11.6312 15.6309 12.0835 16.1348C12.4729 16.5747 12.9489 17.0707 13.4563 17.2746C13.0315 17.1746 12.3825 17.1426 12.2054 17.5266C11.2181 17.4586 10.3016 17.3586 9.82962 16.6747C9.45593 16.1308 9.08225 15.219 8.91311 14.5151ZM16.5913 18.8783C16.7329 18.7744 16.9768 18.7784 17.1931 18.7504C17.0082 18.6544 16.7447 18.6184 16.5244 18.6744C16.5205 18.5264 16.4536 18.4344 16.4143 18.3144C16.7801 18.1825 17.6415 17.3106 18.1293 17.6026C18.3614 17.7385 18.4597 18.5224 18.4794 18.9023C18.4951 19.2183 18.4518 19.5342 18.322 19.7022C17.673 19.6822 17.083 19.6022 16.5677 19.4542C16.5991 19.2423 16.5362 19.0343 16.5913 18.8783ZM15.9934 18.1745C15.4112 18.2025 15.0926 18.1305 14.6678 17.7945C14.6757 17.7665 14.715 17.7785 14.7189 17.7465C15.3404 18.0265 16.1311 17.6306 16.7604 17.5746C16.489 17.7545 16.2569 17.9825 15.9934 18.1745ZM15.5764 19.3423C15.5214 19.0103 15.4545 18.9223 15.4781 18.6304C16.3435 18.0465 16.5087 19.6382 15.5764 19.3423ZM11.9616 18.4224C11.5604 18.3984 10.2977 17.9305 10.632 17.5906C10.9585 17.8185 11.584 17.7625 12.0599 17.8465C12.0874 17.9985 11.9616 18.2025 11.9616 18.4224ZM6.14394 20.478C5.99447 20.0301 5.82533 19.5942 5.63258 19.1823C6.69856 18.3464 7.89041 17.4626 9.16486 16.9507C9.26319 16.9107 9.96729 17.8425 10.0696 17.9225C10.6399 18.3344 11.3479 18.6624 12.0127 18.9823C12.056 19.2903 12.1464 19.6942 12.3116 20.2301C12.3352 20.3101 12.3588 20.3941 12.3864 20.482L6.14394 20.478ZM14.4633 20.678H14.4357C14.4475 20.67 14.4515 20.662 14.4633 20.662V20.678ZM14.7229 20.478C14.7937 20.4301 14.8723 20.3781 14.9432 20.3261C14.9825 20.3741 15.0179 20.4261 15.0533 20.478H14.7229ZM15.246 19.6102C14.8723 19.8662 14.5341 20.2541 14.0935 20.498C13.885 20.614 13.1613 20.91 12.9371 20.858C12.8112 20.83 12.8033 20.67 12.7522 20.522C12.646 20.2061 12.4021 19.6982 12.3785 19.2223C12.351 18.6184 12.292 17.6066 12.9331 17.7305C13.4484 17.8305 14.0502 18.0705 14.4515 18.2984C14.6953 18.4344 14.8369 18.6024 15.2106 18.6344C15.2067 18.6824 15.2067 18.7344 15.2028 18.7864C14.9982 18.9223 14.6717 18.9183 14.4475 19.0343C14.7779 19.0503 15.0336 19.1303 15.2618 19.2423C15.2539 19.3542 15.246 19.4822 15.246 19.6102ZM17.0908 20.478H16.607C16.6031 20.3661 16.5087 20.2741 16.3946 20.2741C16.2805 20.2741 16.1901 20.3661 16.1822 20.478H15.5804C15.482 20.3221 15.3837 20.1741 15.2736 20.0381C15.3444 19.9621 15.4112 19.8742 15.482 19.7942C15.7928 19.9261 15.9934 19.6222 16.2333 19.6462C16.5047 19.6742 16.725 20.0581 17.1105 20.0341L17.0908 20.478ZM17.3937 20.478C17.4016 20.3381 17.4094 20.2021 17.4134 20.0741C17.9523 19.8182 18.4164 20.1181 18.6485 20.478H17.3937ZM20.277 19.1783C20.1983 19.5702 20.0764 20.0221 19.9347 20.482C19.9269 20.478 19.919 20.478 19.9151 20.478H18.9514C18.971 20.4381 18.9946 20.4021 19.0182 20.3621C18.9278 20.1461 18.7075 20.0581 18.6406 19.8182C19.0576 19.0183 18.8648 16.5348 17.8028 17.0587C17.9523 16.8387 18.3417 16.6547 18.5226 16.3788C18.971 16.7427 19.2425 17.0907 19.6712 17.4826C19.9072 17.6945 20.3635 17.9505 20.4107 18.2944C20.4343 18.4864 20.3163 18.9583 20.277 19.1783ZM11.8318 7.58836C12.0166 7.06446 12.7719 6.36858 13.3894 6.46457C13.6569 6.50856 14.0109 6.75251 13.8103 7.08845C12.7679 6.8405 12.2487 7.53237 11.9301 8.25224C11.6469 8.18026 11.757 7.78833 11.8318 7.58836ZM18.1961 9.80797C18.4794 9.67999 18.971 9.78397 19.2189 9.62C19.0733 9.21607 18.8609 8.86813 18.8963 8.29624C18.912 8.29624 18.9317 8.29624 18.9435 8.30024C19.1795 8.80015 19.3841 9.32805 19.683 9.76797C19.4903 10.2399 18.1804 10.6558 18.1961 9.80797ZM14.8487 9.89995C14.6127 9.51602 14.1919 8.75615 14.3492 8.30823C14.5734 8.72816 14.6481 9.16808 14.9628 9.48002C15.1044 9.62 15.3837 9.79597 15.246 10.1919C15.2146 10.2879 14.9746 10.4958 14.8409 10.5318C14.3413 10.6838 13.1849 10.5638 13.5743 9.93194C13.9873 9.95594 14.5419 10.2039 14.8487 9.89995ZM15.7928 12.3635C15.9226 12.5955 15.84 13.0194 16.2097 13.0874C16.9099 13.2074 17.7163 12.6555 18.2197 12.4635C18.5305 11.9276 18.1922 11.7356 17.9129 11.3917C17.3386 10.6878 16.5716 9.81596 16.5991 8.76415C16.8312 8.59218 16.8509 9.02411 16.8824 9.10409C17.1813 9.81596 17.9326 10.7278 18.4833 11.3357C18.617 11.4877 18.8412 11.6316 18.8648 11.7276C18.9356 12.0156 18.68 12.3595 18.7075 12.5555C17.9562 13.0434 17.1223 13.5793 15.8911 13.4553C15.6394 13.2194 15.5371 12.7034 15.7928 12.3635ZM8.83444 12.0396C8.59843 11.9036 8.54337 11.2997 8.26802 11.2877C7.87467 11.2637 7.94548 12.0676 7.94548 12.5355C7.67406 12.2875 7.62686 11.5117 7.82354 11.1197C7.5954 11.0077 7.49312 11.2477 7.37119 11.3277C7.53246 10.1279 9.09405 10.7718 8.83444 12.0396ZM19.1953 13.0514C18.8452 13.7273 18.3496 14.4711 17.3268 14.4911C17.3072 14.2712 17.2875 13.9432 17.3268 13.8072C18.1096 13.7353 18.5934 13.3313 19.1953 13.0514ZM14.2863 13.4873C14.9392 13.8352 16.1389 13.8752 17.0279 13.8472C17.0751 14.0432 17.0712 14.2912 17.0751 14.5311C15.9344 14.5911 14.5891 14.3032 14.2863 13.4873ZM17.4763 15.131C17.4173 15.283 17.2914 15.4589 17.138 15.5229C16.7211 15.6949 15.5607 15.8269 14.9786 15.5109C14.6088 15.311 14.3728 14.8591 14.1683 14.5951C14.0699 14.4671 13.5822 14.1432 14.1604 14.1432C14.6167 15.291 16.1665 15.163 17.4763 15.131Z" fill="white"/>
<path d="M20.9929 17.9425C20.9457 17.5506 20.336 17.1306 20.0174 16.8227C19.8403 16.6467 19.0143 16.0108 18.9671 15.7709C18.9199 15.5389 19.3015 15.015 19.4273 14.7551C19.6043 14.3791 19.7302 13.9232 19.8167 13.6073C20.4658 11.2837 20.5326 8.09227 19.6004 6.18062C19.2464 5.45675 18.2669 4.45693 17.6494 3.98501C16.1979 2.86921 13.5153 2.74523 11.7688 3.40112C11.2811 3.58508 10.8091 3.74505 10.3803 4.00101C9.23566 4.68489 8.02021 5.1448 7.678 6.51656C6.84017 6.89649 6.58842 7.98429 6.63169 9.25207C6.63956 9.50002 6.7733 9.80797 6.72609 10.0399C6.70249 10.1559 6.54515 10.3079 6.51369 10.3839C6.11247 11.3597 6.43502 12.6355 6.89917 13.3273C7.17845 13.7473 7.6426 14.1152 8.25622 14.2152C8.27982 14.5871 8.37029 14.907 8.53943 15.283C8.64564 15.5229 9.04685 15.9509 8.89738 16.2588C8.82264 16.4148 8.16968 16.7427 7.95334 16.8787C7.22565 17.3186 6.69463 17.5906 6.022 18.0865C5.58538 18.4024 4.90489 18.4464 5.01109 19.1783C5.0819 19.6742 5.36117 20.2901 5.51851 20.79C5.54211 20.862 5.56571 20.934 5.58932 21.002H20.1826C20.3517 20.462 20.5169 19.9141 20.686 19.3423C20.808 18.9383 21.044 18.3624 20.9929 17.9425ZM11.2693 4.18498C11.3322 4.16898 11.3873 4.20897 11.4384 4.26896C11.4305 4.45293 11.2535 4.44893 11.1316 4.50892C10.9467 4.74488 10.6674 4.85286 10.4393 5.11281C10.2033 5.37676 9.93975 6.08863 9.62901 6.16862C9.47167 6.20861 9.29466 6.14062 9.15699 6.15262C8.79904 6.17662 8.54337 6.36458 8.17755 6.41657C8.64957 5.36076 10.1207 4.51692 11.2693 4.18498ZM7.6426 7.47638C8.11068 6.95248 8.75184 6.62854 9.53854 6.56455C9.94369 7.60836 9.24746 8.84814 9.50707 9.99593C9.58574 10.3439 9.86108 10.8878 9.42447 10.8998C9.43627 9.90395 8.22082 9.27206 7.30432 9.85996C7.24138 9.10409 7.13518 8.04028 7.6426 7.47638ZM8.91311 14.5151C8.87771 14.3711 8.81871 14.0632 8.83444 13.9832C8.88951 13.6793 9.42447 13.5433 9.21599 13.1154C8.82658 13.1114 8.74004 13.4753 8.38209 13.5113C7.45772 13.6033 6.80476 12.2675 6.84803 11.4597C6.88343 10.7758 7.45772 10.1159 8.23655 10.1999C8.79118 10.2639 8.97605 10.8758 9.08225 11.4197C9.40087 11.4357 9.86108 11.4037 10.0106 11.1517C9.99089 10.5358 9.70768 10.0399 9.72735 9.47602C9.76275 8.41222 10.3331 7.45239 9.89255 6.40458C10.3646 5.31677 11.7413 4.46093 12.7679 3.94502C14.0345 3.30113 16.0485 3.81304 17.2403 4.50092C17.9208 4.89285 18.4282 5.64871 18.912 6.2846C18.2394 6.08064 17.6651 6.43257 17.7674 6.99647C18.3299 6.47256 19.2975 6.98847 19.5847 7.57237C19.8561 8.12827 19.8561 8.95612 19.8954 9.77997C19.9937 11.7836 19.5375 13.8552 18.5423 15.303C18.2748 15.6909 18.0545 16.1108 17.6809 16.3788C16.7801 17.0187 15.4191 17.5986 14.2509 17.2026C12.705 16.6747 12.0048 15.6269 11.1552 14.4311C11.1788 15.087 11.6312 15.6309 12.0835 16.1348C12.4729 16.5747 12.9489 17.0707 13.4563 17.2746C13.0315 17.1746 12.3825 17.1426 12.2054 17.5266C11.2181 17.4586 10.3016 17.3586 9.82962 16.6747C9.45593 16.1308 9.08225 15.219 8.91311 14.5151ZM16.5913 18.8783C16.7329 18.7744 16.9768 18.7784 17.1931 18.7504C17.0082 18.6544 16.7447 18.6184 16.5244 18.6744C16.5205 18.5264 16.4536 18.4344 16.4143 18.3144C16.7801 18.1825 17.6415 17.3106 18.1293 17.6026C18.3614 17.7385 18.4597 18.5224 18.4794 18.9023C18.4951 19.2183 18.4518 19.5342 18.322 19.7022C17.673 19.6822 17.083 19.6022 16.5677 19.4542C16.5991 19.2423 16.5362 19.0343 16.5913 18.8783ZM15.9934 18.1745C15.4112 18.2025 15.0926 18.1305 14.6678 17.7945C14.6757 17.7665 14.715 17.7785 14.7189 17.7465C15.3404 18.0265 16.1311 17.6306 16.7604 17.5746C16.489 17.7545 16.2569 17.9825 15.9934 18.1745ZM15.5764 19.3423C15.5214 19.0103 15.4545 18.9223 15.4781 18.6304C16.3435 18.0465 16.5087 19.6382 15.5764 19.3423ZM11.9616 18.4224C11.5604 18.3984 10.2977 17.9305 10.632 17.5906C10.9585 17.8185 11.584 17.7625 12.0599 17.8465C12.0874 17.9985 11.9616 18.2025 11.9616 18.4224ZM6.14394 20.478C5.99447 20.0301 5.82533 19.5942 5.63258 19.1823C6.69856 18.3464 7.89041 17.4626 9.16486 16.9507C9.26319 16.9107 9.96729 17.8425 10.0696 17.9225C10.6399 18.3344 11.3479 18.6624 12.0127 18.9823C12.056 19.2903 12.1464 19.6942 12.3116 20.2301C12.3352 20.3101 12.3588 20.3941 12.3864 20.482L6.14394 20.478ZM14.4633 20.678H14.4357C14.4475 20.67 14.4515 20.662 14.4633 20.662V20.678ZM14.7229 20.478C14.7937 20.4301 14.8723 20.3781 14.9432 20.3261C14.9825 20.3741 15.0179 20.4261 15.0533 20.478H14.7229ZM15.246 19.6102C14.8723 19.8662 14.5341 20.2541 14.0935 20.498C13.885 20.614 13.1613 20.91 12.9371 20.858C12.8112 20.83 12.8033 20.67 12.7522 20.522C12.646 20.2061 12.4021 19.6982 12.3785 19.2223C12.351 18.6184 12.292 17.6066 12.9331 17.7305C13.4484 17.8305 14.0502 18.0705 14.4515 18.2984C14.6953 18.4344 14.8369 18.6024 15.2106 18.6344C15.2067 18.6824 15.2067 18.7344 15.2028 18.7864C14.9982 18.9223 14.6717 18.9183 14.4475 19.0343C14.7779 19.0503 15.0336 19.1303 15.2618 19.2423C15.2539 19.3542 15.246 19.4822 15.246 19.6102ZM17.0908 20.478H16.607C16.6031 20.3661 16.5087 20.2741 16.3946 20.2741C16.2805 20.2741 16.1901 20.3661 16.1822 20.478H15.5804C15.482 20.3221 15.3837 20.1741 15.2736 20.0381C15.3444 19.9621 15.4112 19.8742 15.482 19.7942C15.7928 19.9261 15.9934 19.6222 16.2333 19.6462C16.5047 19.6742 16.725 20.0581 17.1105 20.0341L17.0908 20.478ZM17.3937 20.478C17.4016 20.3381 17.4094 20.2021 17.4134 20.0741C17.9523 19.8182 18.4164 20.1181 18.6485 20.478H17.3937ZM20.277 19.1783C20.1983 19.5702 20.0764 20.0221 19.9347 20.482C19.9269 20.478 19.919 20.478 19.9151 20.478H18.9514C18.971 20.4381 18.9946 20.4021 19.0182 20.3621C18.9278 20.1461 18.7075 20.0581 18.6406 19.8182C19.0576 19.0183 18.8648 16.5348 17.8028 17.0587C17.9523 16.8387 18.3417 16.6547 18.5226 16.3788C18.971 16.7427 19.2425 17.0907 19.6712 17.4826C19.9072 17.6945 20.3635 17.9505 20.4107 18.2944C20.4343 18.4864 20.3163 18.9583 20.277 19.1783ZM11.8318 7.58836C12.0166 7.06446 12.7719 6.36858 13.3894 6.46457C13.6569 6.50856 14.0109 6.75251 13.8103 7.08845C12.7679 6.8405 12.2487 7.53237 11.9301 8.25224C11.6469 8.18026 11.757 7.78833 11.8318 7.58836ZM18.1961 9.80797C18.4794 9.67999 18.971 9.78397 19.2189 9.62C19.0733 9.21607 18.8609 8.86813 18.8963 8.29624C18.912 8.29624 18.9317 8.29624 18.9435 8.30024C19.1795 8.80015 19.3841 9.32805 19.683 9.76797C19.4903 10.2399 18.1804 10.6558 18.1961 9.80797ZM14.8487 9.89995C14.6127 9.51602 14.1919 8.75615 14.3492 8.30823C14.5734 8.72816 14.6481 9.16808 14.9628 9.48002C15.1044 9.62 15.3837 9.79597 15.246 10.1919C15.2146 10.2879 14.9746 10.4958 14.8409 10.5318C14.3413 10.6838 13.1849 10.5638 13.5743 9.93194C13.9873 9.95594 14.5419 10.2039 14.8487 9.89995ZM15.7928 12.3635C15.9226 12.5955 15.84 13.0194 16.2097 13.0874C16.9099 13.2074 17.7163 12.6555 18.2197 12.4635C18.5305 11.9276 18.1922 11.7356 17.9129 11.3917C17.3386 10.6878 16.5716 9.81596 16.5991 8.76415C16.8312 8.59218 16.8509 9.02411 16.8824 9.10409C17.1813 9.81596 17.9326 10.7278 18.4833 11.3357C18.617 11.4877 18.8412 11.6316 18.8648 11.7276C18.9356 12.0156 18.68 12.3595 18.7075 12.5555C17.9562 13.0434 17.1223 13.5793 15.8911 13.4553C15.6394 13.2194 15.5371 12.7034 15.7928 12.3635ZM8.83444 12.0396C8.59843 11.9036 8.54337 11.2997 8.26802 11.2877C7.87467 11.2637 7.94548 12.0676 7.94548 12.5355C7.67406 12.2875 7.62686 11.5117 7.82354 11.1197C7.5954 11.0077 7.49312 11.2477 7.37119 11.3277C7.53246 10.1279 9.09405 10.7718 8.83444 12.0396ZM19.1953 13.0514C18.8452 13.7273 18.3496 14.4711 17.3268 14.4911C17.3072 14.2712 17.2875 13.9432 17.3268 13.8072C18.1096 13.7353 18.5934 13.3313 19.1953 13.0514ZM14.2863 13.4873C14.9392 13.8352 16.1389 13.8752 17.0279 13.8472C17.0751 14.0432 17.0712 14.2912 17.0751 14.5311C15.9344 14.5911 14.5891 14.3032 14.2863 13.4873ZM17.4763 15.131C17.4173 15.283 17.2914 15.4589 17.138 15.5229C16.7211 15.6949 15.5607 15.8269 14.9786 15.5109C14.6088 15.311 14.3728 14.8591 14.1683 14.5951C14.0699 14.4671 13.5822 14.1432 14.1604 14.1432C14.6167 15.291 16.1665 15.163 17.4763 15.131Z" stroke="white" stroke-width="0.4" mask="url(#path-2-outside-1_218_270)"/>
</svg>
