<svg width="26" height="26" viewBox="0 0 26 26" fill="none" xmlns="http://www.w3.org/2000/svg">
<path d="M15.4594 14.9486H15.1693C14.9423 15.0916 14.8414 15.3647 14.9423 15.5987L16.0269 18.342C17.0737 17.653 17.8683 16.6258 18.2845 15.4167L15.472 14.9486H15.4594ZM11.1082 15.3257C11.0325 15.1046 10.8433 14.9486 10.6289 14.9486H10.528L7.72811 15.4297C8.14431 16.6258 8.93888 17.64 9.98569 18.329L11.0577 15.6377V15.5987C11.1082 15.5337 11.1082 15.4167 11.1082 15.3257ZM13.4162 16.3788C13.2901 16.1448 13 16.0538 12.773 16.1838C12.6847 16.2488 12.6216 16.2878 12.5838 16.3788H12.5712L11.1965 18.9401C12.1802 19.2782 13.2396 19.3432 14.2612 19.0961C14.4378 19.0571 14.627 19.0051 14.8035 18.9401L13.4288 16.3788H13.4162ZM17.7674 10.4371L15.6486 12.3483L15.6612 12.3873C15.4594 12.5693 15.4341 12.8814 15.6107 13.0764C15.6738 13.1544 15.7495 13.2064 15.8377 13.2324L15.8504 13.2454L18.5872 14.0515C18.6755 12.7903 18.4106 11.5162 17.7674 10.4371ZM13.845 10.6451C13.8576 10.9181 14.072 11.1261 14.3369 11.1131C14.4378 11.1131 14.5261 11.0871 14.6017 11.0481H14.6144L16.9224 9.34492C16.0395 8.44781 14.8918 7.88874 13.6811 7.73272L13.845 10.6451ZM11.3983 11.0481C11.6127 11.1911 11.9027 11.1521 12.0541 10.9311C12.1171 10.8531 12.1424 10.7621 12.155 10.6581H12.1676L12.3189 7.73272C12.1298 7.75872 11.9406 7.79772 11.7388 7.83673C10.7298 8.07076 9.79651 8.59082 9.065 9.34492L11.3856 11.0481H11.3983ZM10.1496 13.2454C10.4019 13.1804 10.5532 12.9074 10.4776 12.6473C10.4776 12.5433 10.4145 12.4653 10.3388 12.4003V12.3873L8.21999 10.3981C7.56415 11.5162 7.28668 12.7903 7.42542 14.0645L10.1496 13.2584V13.2454ZM12.218 14.1035L13 14.4936L13.782 14.1035L13.9711 13.2324L13.4288 12.5433H12.5586L12.0163 13.2324L12.218 14.1035ZM25.9527 15.8197L23.7204 5.84748C23.6068 5.30141 23.2537 4.85936 22.7871 4.62533L13.7441 0.165771C13.2775 -0.0552569 12.7225 -0.0552569 12.2433 0.165771L3.21295 4.62533C2.7463 4.85936 2.39316 5.30141 2.27965 5.84748L0.0472957 15.8197C-0.0157652 16.0798 -0.0157652 16.3398 0.0472957 16.5868C0.0599078 16.6648 0.0851321 16.7428 0.110356 16.8209C0.148193 16.9379 0.211254 17.0679 0.274315 17.1719C0.312151 17.2239 0.337376 17.2759 0.387824 17.3149L6.63085 25.3499C6.65608 25.3499 6.69391 25.4019 6.69391 25.4279C6.82003 25.5449 6.93354 25.636 7.04705 25.714C7.1984 25.818 7.37497 25.896 7.55154 25.935C7.69027 26 7.84162 26 7.95513 26H18.1962C18.2845 26 18.3728 25.961 18.4485 25.935C18.5115 25.922 18.5746 25.896 18.625 25.883C18.6755 25.857 18.7133 25.844 18.7638 25.818C18.8268 25.792 18.8899 25.753 18.9529 25.714C19.1043 25.61 19.243 25.4799 19.3691 25.3499L19.5583 25.0899L25.6122 17.3149C25.7383 17.1589 25.8266 16.9899 25.8896 16.8209C25.9149 16.7428 25.9401 16.6648 25.9527 16.5868C26.0158 16.3398 26.0158 16.0668 25.9527 15.8197ZM16.5819 19.7072C16.6071 19.7852 16.6323 19.8632 16.6701 19.9282C16.6197 20.0323 16.5945 20.1493 16.6323 20.2663C16.7837 20.5783 16.9224 20.8644 17.1116 21.1504C17.2125 21.2934 17.3134 21.4494 17.4143 21.5924C17.4143 21.6315 17.4521 21.6965 17.4647 21.7485C17.6161 22.0085 17.5404 22.3465 17.2755 22.5156C17.0107 22.6846 16.6828 22.5806 16.5314 22.3205C16.5188 22.2815 16.5062 22.2555 16.4936 22.2165C16.4683 22.1775 16.4431 22.0995 16.4179 22.0995C16.3548 21.9045 16.3044 21.7355 16.2666 21.5664C16.153 21.2414 16.0521 20.9294 15.8882 20.6303C15.8251 20.5393 15.7242 20.4743 15.6233 20.4483L15.5224 20.2403C13.8955 20.8644 12.1171 20.8644 10.5154 20.2273L10.3893 20.4613C10.301 20.4743 10.2127 20.5133 10.1496 20.5783C9.97308 20.8904 9.84696 21.2154 9.73345 21.5794C9.69561 21.7485 9.64516 21.9175 9.5821 22.0995C9.55688 22.0995 9.53165 22.1905 9.50643 22.2295C9.40553 22.5156 9.10284 22.6716 8.81276 22.5676C8.53529 22.4636 8.38394 22.1515 8.48484 21.8525C8.49745 21.8135 8.52268 21.7875 8.53529 21.7485C8.58574 21.7095 8.58574 21.6445 8.58574 21.6055C8.69925 21.4494 8.78753 21.3064 8.88843 21.1504C9.09023 20.8774 9.25418 20.5653 9.38031 20.2533C9.39292 20.1493 9.38031 20.0323 9.34247 19.9282L9.43075 19.6942C7.95513 18.7841 6.84526 17.3669 6.31555 15.6767L6.0633 15.7157C5.98763 15.6507 5.87412 15.5987 5.77322 15.5987C5.43269 15.6637 5.13 15.7677 4.80209 15.8847C4.66335 15.9627 4.49939 16.0278 4.33544 16.0798C4.2976 16.0928 4.24715 16.1058 4.17148 16.1188C3.89401 16.2098 3.59132 16.0538 3.49042 15.7677C3.40213 15.4687 3.54087 15.1566 3.84356 15.0526C3.86878 15.0526 3.90662 15.0396 3.94446 15.0396V15.0266H3.95707L4.0958 15.0006C4.27237 14.9486 4.44895 14.9486 4.6129 14.9486C4.94082 14.9486 5.26874 14.8706 5.58404 14.7926C5.68494 14.7276 5.76061 14.6496 5.82367 14.5456L6.0633 14.4806C5.79845 12.7123 6.18943 10.9311 7.14795 9.44893L6.97138 9.29291C6.97138 9.1759 6.93354 9.05888 6.87048 8.96787C6.61824 8.74684 6.35338 8.55182 6.0633 8.3828C5.91196 8.30479 5.76061 8.21378 5.60926 8.10976C5.58404 8.08376 5.53359 8.04476 5.50837 8.01875L5.49576 8.00575C5.24351 7.79772 5.18045 7.45968 5.35702 7.18665C5.47053 7.05663 5.62188 6.99162 5.79845 6.99162C5.93718 7.00463 6.0633 7.05663 6.17681 7.14764L6.29032 7.23866C6.41644 7.35567 6.52995 7.49869 6.64346 7.6287C6.87048 7.87573 7.11011 8.10976 7.37497 8.30479C7.47587 8.3568 7.58938 8.3698 7.70289 8.34379L7.89207 8.48681C8.83798 7.44668 10.074 6.71859 11.4235 6.40655C11.7388 6.32854 12.0793 6.27653 12.4072 6.25053L12.4198 6.0165C12.5081 5.93849 12.5586 5.84748 12.5964 5.71746C12.609 5.37942 12.5838 5.04138 12.5333 4.71634C12.4955 4.54732 12.4703 4.3653 12.4577 4.18327V4.02725C12.4325 3.71521 12.6469 3.44218 12.9496 3.40318C13.2522 3.36417 13.5045 3.5982 13.5423 3.89724V4.18327C13.5297 4.3653 13.5045 4.54732 13.4667 4.71634C13.4162 5.04138 13.391 5.37942 13.4036 5.71746C13.4288 5.84748 13.4919 5.93849 13.5802 6.0035L13.5928 6.25053C15.308 6.40655 16.8972 7.19965 18.0827 8.48681L18.2845 8.33079C18.398 8.35679 18.5115 8.34379 18.6124 8.29179C18.8773 8.09676 19.1295 7.86273 19.3439 7.6157C19.4574 7.48569 19.5709 7.35567 19.6971 7.22565C19.7349 7.19965 19.7854 7.14764 19.8232 7.14764C20.0376 6.91361 20.3781 6.91361 20.5673 7.14764C20.8069 7.35567 20.7943 7.70671 20.5673 7.92774C20.5673 7.95374 20.5295 7.97975 20.4916 8.00575C20.4664 8.03175 20.416 8.07076 20.3781 8.09676C20.2394 8.20078 20.088 8.29179 19.9367 8.3698C19.6466 8.53882 19.3692 8.73384 19.1295 8.95487C19.0538 9.04588 19.016 9.14989 19.0286 9.26691L18.8268 9.44893C19.798 10.9181 20.1889 12.7123 19.9367 14.4676L20.1763 14.5326C20.2268 14.6366 20.3151 14.7146 20.416 14.7666C20.7313 14.8576 21.0592 14.9096 21.3871 14.9486H21.9042C21.942 14.9876 22.0051 15.0006 22.0555 15.0136C22.3582 15.0526 22.56 15.3387 22.5222 15.6507C22.4591 15.9497 22.2195 16.1708 21.9168 16.1318C21.879 16.1188 21.8285 16.1188 21.8285 16.1058V16.0928C21.7529 16.0928 21.7024 16.0798 21.652 16.0668C21.488 16.0148 21.3367 15.9497 21.1979 15.8717C20.87 15.7417 20.5673 15.6507 20.2268 15.5987C20.1133 15.5987 20.0124 15.5987 19.9367 15.7027C19.8484 15.6897 19.7727 15.6767 19.6971 15.6637C19.18 17.3669 18.0449 18.7971 16.5819 19.7072Z" fill="#FEC506"/>
</svg>
