<svg width="13" height="28" viewBox="0 0 13 28" fill="none" xmlns="http://www.w3.org/2000/svg">
<path d="M6.26205 0.0769043L7.00924 1.4803C7.17723 1.73928 7.35921 1.96851 7.57357 2.18199C8.20202 2.8026 8.78781 3.46498 9.32693 4.16459C10.593 5.82696 11.4469 7.67306 12.0567 9.66966C12.4224 10.8893 12.6211 12.1405 12.6359 13.4056C12.6972 17.188 11.4005 20.4357 8.78623 23.1349C8.36098 23.5629 7.90158 23.9556 7.41258 24.309C7.1536 24.309 7.03111 24.1104 6.92437 23.9276C6.72999 23.5885 6.60061 23.2161 6.5429 22.8295C6.45103 22.3719 6.39066 21.9143 6.42041 21.4419V21.2284C6.39941 21.1829 6.17105 0.184521 6.26205 0.0769043Z" fill="#FEC506"/>
<path d="M6.26223 0.0305886C6.23161 -0.0306567 6.20099 0.0157147 6.17037 0.0454624C6.18524 0.351689 6.0785 0.624667 5.91139 0.885397C5.72765 1.14438 5.48442 1.34299 5.24031 1.55647C3.88417 2.73063 2.81675 4.14889 1.96194 5.73514C0.824531 7.86998 0.238327 10.1579 0.0720897 12.5666C-0.00402933 13.4354 0.346818 16.5012 0.620672 17.3857C1.36786 19.7341 2.71001 21.7018 4.4485 23.4096C4.87547 23.8209 5.33218 24.2023 5.80464 24.5689C5.94201 24.5689 5.95688 24.4464 5.98838 24.3554C6.0486 24.1607 6.09451 23.9619 6.12574 23.7605L6.43197 21.4734L6.26223 0.0305886Z" fill="#DAAA09"/>
<path d="M7.00947 25.2383C7.04009 24.8884 7.20808 24.5979 7.39094 24.3083C7.2072 24.2322 7.07071 24.0808 6.96397 23.9119C6.87193 23.7521 6.79574 23.5836 6.73649 23.4088C6.52301 22.7684 6.47751 22.0964 6.41627 21.442V21.0457C6.34015 21.1069 6.3244 21.6249 6.3244 21.7019C6.27987 22.3936 6.18808 23.0814 6.04967 23.7606C6.00417 24.0353 5.97355 24.3092 5.80469 24.5533C5.80469 24.5839 5.80469 24.6145 5.81956 24.66C6.09429 25.4684 6.16953 26.2917 6.21591 27.1308V27.437C6.21591 27.8028 6.20103 27.7258 6.50463 27.8483C6.62712 27.8937 6.76361 27.9095 6.8861 28.0005C6.97797 28.0005 6.99285 27.9244 6.99285 27.8631L6.94735 27.36V25.9566C6.93248 25.7117 6.97797 25.4684 7.00859 25.2392L7.00947 25.2383Z" fill="#FEC506"/>
</svg>
