<svg width="51" height="27" viewBox="0 0 51 27" fill="none" xmlns="http://www.w3.org/2000/svg">
<g clip-path="url(#clip0_583_7233)">
<path d="M19.1147 18.8368V23.1323C19.0892 23.1323 15.9756 23.1446 15.5181 23.1323C14.6029 23.1195 14.5269 22.6618 14.5394 22.4587V18.8496H12.8872C12.9254 18.888 12.8872 22.4971 12.8872 22.5731C12.8997 23.3991 13.9414 24.1105 15.5816 24.1364H19.1022V24.5686C19.1022 24.7467 19.2291 25.2802 18.1615 25.3812C18.149 25.3942 12.9254 25.3812 12.9254 25.3812V26.4995H18.1615C18.9875 26.4741 20.7922 26.1701 20.7797 24.7206C20.7797 24.6951 20.7922 18.8362 20.7797 18.8362L19.1147 18.8368Z" fill="#FEC506"/>
<path d="M49.8704 18.4049L49.4891 18.0239C49.1208 17.5407 48.6504 17.1085 48.1545 16.7531C47.7605 16.4733 46.8708 16.0793 46.7049 15.6218C46.6922 15.6091 46.6792 15.6091 46.6792 15.5964C46.959 15.5579 47.2898 15.4567 47.5439 15.3925C47.9764 15.2788 48.3699 15.3047 48.8147 15.1896C49.0183 15.1257 49.2214 15.075 49.425 15.0115V14.8964C49.1961 14.6676 49.044 14.35 48.7898 14.1466C48.1417 13.5875 47.4297 13.0408 46.7052 12.5833C46.2984 12.3165 45.8029 12.1513 45.3709 11.9354C45.2308 11.8718 44.9756 11.8338 44.8755 11.7066C44.6462 11.4268 44.5322 11.0583 44.3541 10.728C43.9813 10.003 43.634 9.26585 43.3122 8.51634C43.0963 8.02065 42.9432 7.52496 42.677 7.06683C41.3549 4.90639 39.944 3.59677 37.7456 2.31373C37.2756 2.04667 36.7164 1.93246 36.1188 1.79256C35.8012 1.76708 35.4836 1.75457 35.1658 1.72887C34.975 1.65244 34.7718 1.4113 34.581 1.29665C33.8562 0.839175 31.9883 -0.164726 31.4542 1.15697C31.1109 1.98297 31.9626 2.79646 32.2668 3.21594C32.4833 3.50826 32.75 3.83902 32.9037 4.16911C33.0047 4.385 33.0177 4.60133 33.1069 4.82996C33.3228 5.40098 33.5006 6.02471 33.7675 6.54566C33.9072 6.8125 34.0596 7.0923 34.2375 7.33389C34.3394 7.47357 34.53 7.53726 34.5553 7.76589C34.3772 8.01999 34.3649 8.40148 34.2632 8.71906C33.8182 10.1552 33.9836 11.9218 34.6445 12.9892C34.848 13.3068 35.318 14.0058 35.9791 13.7392C36.5501 13.4976 36.4239 12.7858 36.589 12.1377C36.6274 11.9978 36.6018 11.8961 36.6769 11.7944V11.8217C36.842 12.1775 37.0201 12.5205 37.198 12.8636C37.5793 13.4864 38.2656 14.1473 38.8505 14.5793C39.1424 14.8079 39.384 15.2021 39.778 15.3289V15.3034H39.74C39.6638 15.1894 39.5491 15.1384 39.4604 15.0493C39.2191 14.8103 38.994 14.5556 38.7866 14.2867C38.2661 13.5747 37.7956 12.7869 37.3636 11.9734C37.1598 11.5794 36.9819 11.1474 36.8172 10.7534C36.7531 10.601 36.7531 10.3724 36.6136 10.2832C36.4228 10.5753 36.1564 10.8169 36.0031 11.1602C35.7744 11.7068 35.7364 12.3802 35.6604 13.0667C35.6093 13.092 35.622 13.0792 35.5963 13.1047C35.1902 13.003 35.0501 12.5836 34.8977 12.2278C34.5294 11.3253 34.4527 9.87669 34.783 8.83436C34.872 8.56752 35.2662 7.72855 35.1013 7.47445C35.0244 7.23286 34.783 7.08066 34.6436 6.89003C34.4655 6.6614 34.3003 6.35612 34.1736 6.08928C33.8687 5.37748 33.7286 4.58969 33.3979 3.87811C33.2327 3.53484 32.9788 3.19156 32.7627 2.89925C32.5211 2.55619 32.2543 2.31483 32.0639 1.90808C32.0004 1.76818 31.9117 1.53955 32.0004 1.3867C32.0384 1.28501 32.0768 1.24702 32.1778 1.2088C32.3432 1.08164 32.8148 1.25975 32.9905 1.32301C33.4482 1.52638 33.8422 1.70449 34.2362 1.97134C34.427 2.09828 34.6179 2.33964 34.8465 2.40333H35.1008C35.5078 2.49118 35.9648 2.42881 36.3461 2.54324C37.0197 2.74639 37.6296 3.06418 38.1765 3.42041C39.854 4.47461 41.2141 5.97486 42.1543 7.76677C42.3067 8.05909 42.3702 8.32593 42.4976 8.63099C42.7649 9.25406 43.1075 9.88921 43.3743 10.4866C43.6287 11.0967 43.8957 11.7068 44.264 12.2021C44.4676 12.4691 45.2304 12.6088 45.573 12.7485C45.8146 12.8502 46.2084 12.9644 46.4377 13.1045C46.8822 13.3586 47.3017 13.6755 47.7211 13.9687C47.9239 14.1102 48.5592 14.4277 48.5847 14.6935C47.5685 14.668 46.7928 14.757 46.1192 15.0493C45.9288 15.1255 45.636 15.1255 45.5985 15.3671C45.7002 15.4683 45.7252 15.6337 45.8016 15.7738C45.9668 16.0284 46.2338 16.371 46.4752 16.5489C46.7314 16.7581 46.9987 16.9533 47.276 17.1337C47.7844 17.4386 48.3436 17.6037 48.8133 17.9094C49.1059 18.0869 49.3844 18.3162 49.665 18.5193C49.7918 18.621 49.8937 18.7737 50.0591 18.8369V18.8119C49.9727 18.6977 49.947 18.5325 49.8704 18.4049Z" fill="#FEC506"/>
<path d="M10.7267 16.5366C9.46847 16.1426 8.61677 16.4859 8.23572 17.3376L5.71927 22.9679L3.27925 17.3376C2.91072 16.4859 2.0465 16.1426 0.788279 16.5366C0.254593 16.7018 0.000488281 17.0073 0.000488281 17.6426V24.1874H1.66502V17.6295L4.23242 23.3493C4.53726 24.0352 4.94422 24.2768 5.75749 24.2768C6.57076 24.2768 6.97772 24.0352 7.28256 23.3493L9.84996 17.6301V24.1881H11.502V17.6418C11.502 17.0075 11.2476 16.7018 10.7267 16.5366Z" fill="#FEC506"/>
<path d="M35.103 3.73958H35.141C35.2427 3.94317 35.4206 4.08285 35.5478 4.26075C35.6356 4.46412 35.7386 4.6675 35.8273 4.87087L35.8653 4.83265C36.0432 4.71845 36.1197 4.51508 36.1197 4.1975C36.0562 4.12107 36.0432 4.03212 35.98 3.94295C35.8908 3.81579 35.7384 3.75232 35.6238 3.65063C35.4482 3.6506 35.2734 3.67199 35.103 3.71433V3.73958Z" fill="#FEC506"/>
<path d="M23.4996 16.6644C22.5084 16.9822 22.0762 17.4651 22.0762 18.3168V19.2832C22.0762 20.0332 22.9277 20.6684 24.3384 20.8206C24.5035 20.8206 24.6559 20.8335 24.8215 20.8335H26.5375C26.5969 20.8309 26.6565 20.8352 26.7149 20.8463C27.2491 20.897 27.465 20.986 27.6303 21.1757C27.7182 21.2774 27.7575 21.3666 27.7575 21.481V22.4473C27.7575 22.562 27.6813 22.7146 27.5159 22.8413C27.3756 22.9687 27.1342 23.0449 26.8164 23.07C26.7529 23.07 26.7026 23.0829 26.6385 23.0829H22.0635V24.1883H26.8294C27.3885 24.1883 27.9347 24.0739 28.3667 23.8703C29.0783 23.5409 29.4343 23.0952 29.4343 22.5106V21.2906C29.4343 20.8206 29.0276 20.3631 28.2528 20.0706C27.8333 19.9054 27.3248 19.829 26.8291 19.829H24.8211C24.1475 19.829 23.8299 19.6254 23.7535 19.1811C23.7429 19.131 23.7387 19.0798 23.7408 19.0287V18.2786C23.7387 18.2318 23.7429 18.1849 23.7535 18.1392C23.8299 17.7959 24.0076 17.6942 24.5925 17.6435C24.6432 17.6435 24.7067 17.6305 24.7576 17.6305H29.4983V16.5251H24.8334C24.1605 16.5249 23.8174 16.5757 23.4996 16.6644Z" fill="#FEC506"/>
<path d="M41.4315 22.2559V16.5237H39.7793V22.2559C39.7793 23.3997 40.618 24.0348 42.334 24.1622C42.4864 24.1752 42.6518 24.1879 42.804 24.1879H47.1249V23.0819H42.7787C41.7998 23.0819 41.4315 22.8403 41.4315 22.2559Z" fill="#FEC506"/>
<path d="M38.737 22.3197V18.3798C38.737 17.3757 38.0254 16.7658 36.6403 16.575C36.4887 16.5539 36.3356 16.5453 36.1826 16.5493H33.031C32.8913 16.5493 32.7261 16.5493 32.586 16.575C31.1879 16.7658 30.4893 17.3757 30.4893 18.3798V22.3197C30.4893 23.2348 30.9977 23.794 32.0519 24.074C32.3699 24.1667 32.6995 24.2137 33.0307 24.2137H34.797L36.1318 24.1373L37.4538 25.3193H39.3854L37.7456 23.845C38.4322 23.5649 38.737 23.1323 38.737 22.3197ZM37.1871 22.2564C37.1888 22.3118 37.1845 22.3671 37.1744 22.4216C37.1237 22.6504 36.9712 22.8283 36.7547 22.943L35.5468 21.8624H33.6152L35.0003 23.1081H33.4884C32.8403 23.1081 32.4086 22.8538 32.3069 22.3965C32.2921 22.3383 32.2835 22.2787 32.2812 22.2186V18.469C32.2812 17.9733 32.7512 17.6564 33.4891 17.6564H36.0056C36.6411 17.6564 37.0732 17.898 37.1748 18.3295C37.1848 18.3755 37.1891 18.4226 37.1876 18.4697L37.1871 22.2564Z" fill="#FEC506"/>
<path d="M47.5581 23.2729H47.8884V24.1881H48.13V23.2729H48.4605V23.082H47.5581V23.2729Z" fill="#FEC506"/>
<path d="M49.3373 23.8448L49.0454 23.082H48.7021V24.1881H48.9308V23.3493L49.2484 24.1881H49.4137L49.7313 23.3493H49.744V24.1881H49.9597V23.082H49.6294L49.3373 23.8448Z" fill="#FEC506"/>
<path d="M6.59637 13.9816C7.1048 13.9816 7.52406 13.7658 7.84164 13.3208C8.13417 12.9145 8.27407 12.4061 8.27407 11.7705C8.27407 11.3003 8.19765 10.9063 8.05775 10.5626C7.90503 10.2322 7.70166 9.97807 7.44763 9.80003C7.19353 9.62235 6.90099 9.54614 6.59637 9.54614C6.1132 9.54614 5.70668 9.73656 5.38844 10.1306C5.07021 10.5246 4.90527 11.0839 4.90527 11.8217C4.90527 12.3927 5.04495 12.8895 5.33749 13.3081C5.65573 13.753 6.07499 13.9816 6.59637 13.9816ZM5.73172 10.4622C5.9476 10.1697 6.23992 10.0302 6.59593 10.0302C6.8161 10.0292 7.03048 10.1007 7.20605 10.2336C7.39146 10.3673 7.53302 10.553 7.61279 10.7672C7.74017 11.0591 7.7909 11.3771 7.7909 11.7582C7.7909 12.3304 7.67648 12.7623 7.44763 13.054C7.219 13.3461 6.92669 13.4989 6.58341 13.4989C6.25398 13.4989 5.97352 13.3452 5.73215 13.054C5.50309 12.7616 5.38888 12.3549 5.38888 11.821C5.38888 11.2115 5.50309 10.7541 5.73172 10.4622Z" fill="#FEC506"/>
<path d="M1.47408 13.9059L2.2241 10.6396C2.26789 10.4723 2.30185 10.3025 2.32578 10.1312L2.44043 10.6396L3.19001 13.9059H3.63496L4.61339 9.6102H4.13022L3.58379 12.3681C3.50736 12.7111 3.44389 13.0289 3.40568 13.3083C3.33894 12.7954 3.24569 12.2864 3.12631 11.7832L2.61788 9.60889H2.07168L1.39809 12.508L1.23293 13.3085C1.19472 13.0164 1.14347 12.7242 1.0792 12.4318L0.546387 9.6102H0.0761719L1.00386 13.9059H1.47408Z" fill="#FEC506"/>
<path d="M25.6724 9.61011H25.2021V13.906H25.6724V9.61011Z" fill="#FEC506"/>
<path d="M27.3883 13.906H27.8464V10.1188H29.015V9.61011H26.2319V10.1188H27.3883V13.906Z" fill="#FEC506"/>
<path d="M17.6407 13.2713C17.487 13.398 17.2847 13.4744 17.0054 13.4744C16.8145 13.4744 16.6366 13.4362 16.484 13.3473C16.3316 13.2713 16.2046 13.1696 16.1282 13.0297C16.0403 12.9027 15.9883 12.7121 15.963 12.4833L15.5181 12.5215C15.5306 12.9662 15.6698 13.322 15.9239 13.5888C16.178 13.8557 16.5338 13.9828 16.966 13.9828C17.2456 13.9828 17.4872 13.9319 17.6778 13.8175C17.8812 13.7162 18.0336 13.5636 18.1481 13.3602C18.2662 13.1555 18.3277 12.923 18.3262 12.6866C18.3262 12.445 18.2754 12.2294 18.161 12.0513C18.0593 11.8731 17.8944 11.7335 17.6778 11.619C17.5379 11.5556 17.2966 11.4653 16.9408 11.3774C16.585 11.2758 16.3559 11.1741 16.2545 11.0851C16.1528 10.9834 16.1018 10.8563 16.1018 10.6784C16.1 10.5906 16.1185 10.5036 16.156 10.4242C16.1934 10.3449 16.2488 10.2753 16.3177 10.2209C16.4451 10.1063 16.6482 10.0428 16.9153 10.0428C17.1824 10.0428 17.3726 10.1063 17.5252 10.2462C17.6651 10.3861 17.7538 10.5894 17.7668 10.8688L18.2117 10.8308C18.2144 10.5919 18.1575 10.356 18.0464 10.1445C17.9376 9.95696 17.7794 9.80301 17.5889 9.69952C17.3753 9.59562 17.1403 9.54348 16.9028 9.54732C16.5217 9.54732 16.2167 9.649 15.9878 9.87675C15.772 10.0929 15.6584 10.3724 15.6584 10.7285C15.6557 10.9086 15.6948 11.087 15.7728 11.2494C15.8474 11.4 15.9617 11.5274 16.1034 11.6179C16.243 11.7196 16.4846 11.8213 16.8152 11.923C17.1837 12.0247 17.4253 12.1136 17.5399 12.1771C17.6546 12.2406 17.7435 12.317 17.7942 12.4059C17.8462 12.5079 17.8724 12.621 17.8707 12.7354C17.8699 12.9522 17.7933 13.1309 17.6407 13.2713Z" fill="#FEC506"/>
<path d="M31.7731 13.906H32.2435V9.61011H31.7731V11.3768H29.9431V9.61011H29.4731V13.906H29.9431V11.8852H31.7731V13.906Z" fill="#FEC506"/>
<path d="M22.4062 10.1307L22.5204 10.6391L23.2705 13.9053H23.7154L24.6939 9.60972H24.2107L23.6515 12.3675C23.588 12.7106 23.5246 13.0284 23.4864 13.3077C23.4194 12.7949 23.326 12.2859 23.2066 11.7827L22.6986 9.6084H22.1519L21.4785 12.5074L21.3131 13.3079C21.2748 13.0158 21.2235 12.7236 21.1594 12.4312L20.6257 9.60994H20.1553L21.0832 13.9055H21.5534L22.3032 10.6393C22.3473 10.4719 22.3817 10.302 22.4062 10.1307Z" fill="#FEC506"/>
<path d="M10.9811 12.1901C10.8914 12.0991 10.7886 12.022 10.676 11.9614C11.0055 11.898 11.2471 11.7708 11.4131 11.5674C11.591 11.3641 11.6672 11.11 11.6672 10.7794C11.671 10.5541 11.6185 10.3313 11.5146 10.1313C11.4267 9.94067 11.2987 9.81373 11.1335 9.7373C10.9798 9.64945 10.7382 9.61035 10.4217 9.61035H8.8584V13.9056H9.32884V11.999H9.86275C9.98443 11.9957 10.1055 12.0173 10.2185 12.0625C10.3075 12.1007 10.3967 12.1899 10.4854 12.317C10.5871 12.4314 10.7142 12.6728 10.9047 13.0159L11.3751 13.9058H11.9595L11.3496 12.7365C11.2447 12.5429 11.1212 12.3599 10.9811 12.1901ZM10.32 11.504H9.32774V10.0806H10.4336C10.6877 10.0806 10.8656 10.144 10.9927 10.2712C11.1199 10.3984 11.1831 10.5633 11.1831 10.7794C11.1831 10.9316 11.1579 11.0715 11.0953 11.1862C11.0189 11.2879 10.9299 11.377 10.8157 11.4278C10.7015 11.4785 10.5357 11.504 10.32 11.504Z" fill="#FEC506"/>
<path d="M14.6792 13.906H15.3018L13.7515 11.3515L15.2384 9.61011H14.6032L12.8618 11.7455V9.61011H12.3916V13.906H12.8618V12.4191L13.4339 11.7455L14.6792 13.906Z" fill="#FEC506"/>
</g>
<defs>
<clipPath id="clip0_583_7233">
<rect width="50.0614" height="26" fill="white" transform="translate(0 0.500488)"/>
</clipPath>
</defs>
</svg>
