<svg width="24" height="26" viewBox="0 0 24 26" fill="none" xmlns="http://www.w3.org/2000/svg">
<path d="M10.7324 0.277383C11.3771 -0.0916273 12.2168 -0.0932941 12.8609 0.277383C16.1014 2.10845 19.343 3.93665 22.583 5.76884C23.1924 6.1121 23.6 6.79031 23.5938 7.49249V18.5089C23.5983 19.2402 23.1504 19.9346 22.5075 20.2701C19.2776 22.0911 16.0494 23.9143 12.8201 25.7352C12.1621 26.1115 11.3055 26.0825 10.6681 25.6754C9.69973 25.1141 8.72975 24.5555 7.76134 23.9947C7.56345 23.8767 7.34038 23.7829 7.20065 23.591C7.32418 23.4245 7.54503 23.4037 7.72449 23.3311C8.12868 23.2025 8.49992 22.9962 8.87124 22.796C8.96514 22.7318 9.07978 22.7564 9.16978 22.8139C9.99781 23.2886 10.8185 23.7772 11.6493 24.2474C11.8266 24.3497 12.006 24.2139 12.1575 24.1295C15.327 22.3381 18.5004 20.5535 21.6694 18.7616C21.7868 18.7051 21.8517 18.5805 21.8422 18.4519C21.8444 14.8178 21.8427 11.1831 21.8433 7.54898C21.8567 7.40304 21.7723 7.26886 21.6403 7.20914C18.4216 5.39649 15.2046 3.58107 11.9865 1.76796C11.9307 1.72963 11.8647 1.70907 11.797 1.70897C11.7294 1.70887 11.6633 1.72924 11.6074 1.76741C8.38926 3.58107 5.1728 5.39816 1.95468 7.21071C1.82319 7.27053 1.73494 7.40248 1.75059 7.54898C1.75114 11.1831 1.75059 14.8178 1.75059 18.4524C1.74501 18.5152 1.75879 18.5781 1.79008 18.6328C1.82137 18.6875 1.86867 18.7313 1.9256 18.7583C2.78437 19.2453 3.64426 19.7288 4.50358 20.2141C4.9877 20.4747 5.58209 20.6295 6.11547 20.4299C6.58615 20.2611 6.91609 19.7808 6.90711 19.281C6.91155 15.6681 6.90488 12.0547 6.91044 8.44238C6.89868 8.282 7.05082 8.14949 7.20676 8.16458C7.61938 8.1618 8.03257 8.15903 8.44519 8.16569C8.61743 8.1618 8.73595 8.3345 8.71466 8.49609C8.71299 12.1318 8.7191 15.7677 8.71188 19.4034C8.71299 20.3724 8.3149 21.4267 7.41863 21.9009C6.31447 22.4728 4.94973 22.3515 3.8589 21.8031C2.91457 21.3317 2.01339 20.7755 1.08581 20.2705C0.441226 19.9369 -0.00445769 19.2397 7.97008e-05 18.509V7.49249C-0.00668009 6.77577 0.41715 6.08525 1.04553 5.74698C4.27486 3.92452 7.50363 2.10068 10.7324 0.277383Z" fill="#FEC506"/>
<path d="M13.5495 7.90847C14.9579 7.81781 16.4657 7.85476 17.7332 8.54861C18.7144 9.08032 19.2585 10.1962 19.2758 11.2864C19.2484 11.4335 19.0947 11.5146 18.9543 11.5045C18.5456 11.5039 18.1369 11.51 17.7282 11.5017C17.5549 11.5084 17.4542 11.3486 17.4324 11.1953C17.315 10.6737 17.0305 10.1571 16.5395 9.90548C15.7859 9.52813 14.912 9.54712 14.0902 9.55499C13.4902 9.58684 12.8451 9.63879 12.3368 9.9916C11.9466 10.2588 11.8281 10.7983 11.9673 11.2328C12.0986 11.5448 12.4588 11.6454 12.7534 11.7382C14.4508 12.1821 16.2494 12.138 17.9144 12.7222C18.6037 12.9603 19.278 13.4233 19.5139 14.1451C19.8226 15.1124 19.6873 16.2686 18.9991 17.0451C18.441 17.6841 17.6281 18.032 16.8174 18.2209C15.7389 18.4613 14.6197 18.4675 13.5244 18.3607C12.4945 18.2433 11.4227 17.9727 10.6277 17.271C9.94782 16.6806 9.61575 15.7608 9.64872 14.8731C9.65659 14.7232 9.80586 14.6186 9.94948 14.6309C10.361 14.6276 10.7725 14.6265 11.184 14.6315C11.3484 14.6197 11.4703 14.7618 11.4787 14.9167C11.5546 15.4137 11.7414 15.9353 12.1748 16.23C13.0111 16.7695 14.0605 16.7326 15.0182 16.7477C15.8116 16.7125 16.7022 16.7018 17.3497 16.1775C17.6913 15.8784 17.7925 15.3779 17.7002 14.9475C17.6002 14.584 17.22 14.4146 16.8935 14.3039C15.2179 13.7738 13.3991 13.9662 11.7397 13.3668C11.0661 13.1287 10.4146 12.6786 10.1558 11.9865C9.79466 11.007 9.96013 9.79538 10.7205 9.04504C11.4618 8.29868 12.532 8.01125 13.5495 7.90837V7.90847Z" fill="#FEC506"/>
</svg>
