<svg width="26" height="25" viewBox="0 0 26 25" fill="none" xmlns="http://www.w3.org/2000/svg">
<g clip-path="url(#clip0_583_7190)">
<path d="M24.0193 14.9837C20.9195 15.6231 20.706 14.5737 20.706 14.5737C23.9792 9.71736 25.3473 3.55305 24.1668 2.04436C20.9463 -2.07113 15.3701 -0.124781 15.2774 -0.074257L15.2476 -0.0688633C14.6351 -0.196 13.9498 -0.271732 13.1795 -0.28428C11.777 -0.307286 10.713 0.0833706 9.90565 0.695388C9.90565 0.695388 -0.0407424 -3.40216 0.421903 5.84889C0.52031 7.81681 3.24269 20.7401 6.48979 16.8367C7.67662 15.4093 8.82339 14.2025 8.82339 14.2025C9.39292 14.5808 10.0747 14.7738 10.7895 14.7045L10.8446 14.6574C10.8273 14.8345 10.8352 15.0079 10.8666 15.2132C10.03 16.1477 10.2759 16.3119 8.60379 16.6561C6.9116 17.0048 7.90558 17.6256 8.55469 17.788C9.34151 17.9847 11.1617 18.2634 12.3916 16.5416L12.3426 16.7381C12.6703 17.0006 12.9005 18.4457 12.8618 19.7557C12.8232 21.0657 12.7975 21.965 13.0557 22.6675C13.3138 23.37 13.5715 24.9506 15.7698 24.4795C17.6066 24.0859 18.5585 23.0658 18.691 21.3644C18.7849 20.1548 18.9976 20.3337 19.011 19.2521L19.1816 18.7401C19.3783 17.1 19.2128 16.5716 20.3444 16.8173L20.6196 16.8415C21.4524 16.8793 22.5426 16.7075 23.1825 16.4102C24.5602 15.7707 25.3773 14.7032 24.019 14.9837" fill="#FEC506"/>
<path d="M10.4879 6.72925C10.2085 6.69039 9.95558 6.72627 9.82746 6.82325C9.75558 6.87774 9.73323 6.94092 9.72718 6.9844C9.71111 7.09954 9.79179 7.22657 9.84144 7.29262C9.98178 7.47854 10.1866 7.60633 10.3895 7.63451C10.4187 7.63856 10.4481 7.64058 10.4776 7.64057C10.8158 7.64057 11.1234 7.37716 11.1504 7.18276C11.1844 6.93927 10.8312 6.77702 10.4881 6.72936L10.4879 6.72925ZM19.7418 6.73695C19.7151 6.54608 19.3756 6.4917 19.0533 6.5365C18.731 6.5813 18.4193 6.7266 18.4454 6.91792C18.4662 7.06663 18.7348 7.32058 19.0527 7.32058C19.0799 7.32063 19.1071 7.31871 19.1341 7.31485C19.3463 7.28546 19.5019 7.15073 19.5759 7.07268C19.6885 6.95424 19.7538 6.82226 19.7418 6.73651" fill="#19191B"/>
<path d="M25.0509 14.9111C24.9326 14.5537 24.5522 14.4386 23.9202 14.5692C22.0435 14.9565 21.3715 14.6882 21.1508 14.5252C22.6095 12.3031 23.8094 9.61694 24.4568 7.11077C24.7634 5.92362 24.9329 4.82123 24.9467 3.92247C24.962 2.93621 24.794 2.21137 24.4475 1.76865C23.0507 -0.0156558 21.0005 -0.973081 18.5189 -0.999389C16.8127 -1.01854 15.3707 -0.581877 15.0919 -0.459145C14.4608 -0.614755 13.814 -0.697848 13.1641 -0.706812C11.8832 -0.727506 10.7762 -0.420619 9.85961 0.204163C9.46147 0.0558926 8.43249 -0.297336 7.17378 -0.500312C4.99836 -0.850569 3.26963 -0.58518 2.03591 0.28881C0.563987 1.33165 -0.115617 3.19587 0.0160332 5.8294C0.0600632 6.71549 0.565198 9.44126 1.36192 12.0516C2.41061 15.4873 3.55066 17.4322 4.75014 17.8323C4.90507 17.8846 5.06744 17.9115 5.23095 17.9119C5.6685 17.9119 6.2049 17.7147 6.76309 17.0436C7.44394 16.227 8.14787 15.4305 8.87488 14.6542C9.34235 14.9071 9.8626 15.0471 10.3939 15.0628C10.395 15.0766 10.3963 15.0905 10.3975 15.1043C10.3064 15.213 10.2171 15.3233 10.1297 15.4351C9.76263 15.9012 9.68624 15.9982 8.50458 16.2414C8.16852 16.3109 7.27582 16.4946 7.26261 17.1206C7.24852 17.8044 8.3179 18.0914 8.43975 18.1223C8.86442 18.2286 9.27346 18.281 9.66356 18.281C10.6124 18.281 11.4468 17.9692 12.1146 17.3657C12.0941 19.8032 12.1957 22.205 12.4889 22.9368C12.7285 23.5359 13.3144 24.9999 15.1637 24.9998C15.4351 24.9998 15.7339 24.9682 16.0625 24.8978C17.9928 24.484 18.8312 23.6308 19.1556 21.7497C19.329 20.7443 19.6268 18.344 19.7669 17.0563C20.0625 17.1486 20.443 17.1908 20.8545 17.1907C21.7124 17.1907 22.7025 17.0084 23.3233 16.7201C24.0209 16.3963 25.2795 15.6015 25.0515 14.9109L25.0509 14.9111ZM20.4538 6.21025C20.4474 6.59034 20.3951 6.93542 20.3396 7.29558C20.2799 7.68305 20.2186 8.08361 20.2027 8.5698C20.1874 9.04312 20.2467 9.53494 20.3035 10.0107C20.419 10.9717 20.5376 11.961 20.0789 12.9372C20.0027 12.802 19.9348 12.6624 19.8756 12.5189C19.8187 12.3807 19.6948 12.1587 19.5233 11.8514C18.8564 10.6554 17.2945 7.85432 18.0941 6.71098C18.3322 6.37074 18.9366 6.02104 20.4538 6.20937V6.21025ZM18.6148 -0.22909C20.8383 -0.179996 22.5973 0.651505 23.8426 2.24318C24.7978 3.46379 23.746 9.0177 20.7012 13.8091C20.6706 13.7702 20.6399 13.7313 20.6089 13.6927L20.5702 13.6444C21.3571 12.3456 21.2033 11.0595 21.0664 9.91965C21.01 9.45194 20.9568 9.0101 20.9704 8.59501C20.9843 8.15471 21.0426 7.77793 21.0988 7.41314C21.168 6.9636 21.2383 6.49843 21.2189 5.95004C21.2349 5.88254 21.2391 5.81281 21.2316 5.74387C21.1822 5.21804 20.5821 3.64442 19.3581 2.22006C18.6887 1.44096 17.7127 0.568949 16.3799 -0.0189577C16.9532 -0.137838 17.737 -0.248573 18.6144 -0.22909H18.6148ZM6.17231 16.5529C5.55743 17.2923 5.13276 17.1505 4.99308 17.1041C4.0832 16.8006 3.02736 14.8774 2.09656 11.8277C1.29103 9.18886 0.820351 6.53541 0.783036 5.79131C0.665475 3.43803 1.23588 1.79804 2.47819 0.916783C4.5006 -0.517374 7.82564 0.340985 9.16173 0.776329C9.14258 0.795371 9.12255 0.813093 9.10361 0.832356C6.91103 3.0465 6.96309 6.82953 6.96816 7.0608C6.96816 7.15007 6.97542 7.27632 6.98566 7.45013C7.02341 8.08636 7.09364 9.27065 6.90607 10.6117C6.73182 11.8579 7.11599 13.0773 7.95993 13.9579C8.04647 14.0482 8.13751 14.1341 8.2327 14.2152C7.85701 14.6175 7.04059 15.5072 6.17154 16.5526L6.17231 16.5529ZM8.51526 13.4268C7.83511 12.7171 7.52613 11.7298 7.66768 10.718C7.86582 9.30136 7.79262 8.06754 7.75332 7.40478C7.74782 7.31199 7.74297 7.23064 7.74011 7.16658C8.06043 6.88259 9.54468 6.08785 10.6033 6.33001C11.0863 6.44009 11.3805 6.76954 11.5029 7.33521C12.1362 10.2643 11.5867 11.485 11.1452 12.4662C11.0543 12.6683 10.9683 12.8594 10.8949 13.057L10.838 13.2098C10.6939 13.596 10.5599 13.9552 10.4768 14.2962C9.75372 14.2941 9.05023 13.9852 8.51537 13.4266L8.51526 13.4268ZM8.62622 17.3771C8.41509 17.3243 8.22521 17.2326 8.11382 17.1569C8.20683 17.1129 8.37249 17.0536 8.65968 16.9943C10.0498 16.7081 10.2645 16.5063 10.7333 15.911C10.8408 15.7745 10.9626 15.6198 11.1313 15.4314C11.3826 15.1499 11.4976 15.1977 11.706 15.2842C11.875 15.354 12.0395 15.5658 12.1062 15.7988C12.1378 15.9089 12.1733 16.118 12.0573 16.2804C11.0782 17.6511 9.65113 17.6335 8.62622 17.3771ZM15.9012 24.1466C14.2006 24.511 13.5985 23.6434 13.2017 22.6514C12.9457 22.0111 12.8197 19.1234 12.909 15.9343C12.9101 15.893 12.9045 15.8519 12.8925 15.8124C12.8821 15.7362 12.8662 15.6609 12.845 15.587C12.7122 15.1231 12.3886 14.7348 12.0003 14.5744C11.8462 14.5105 11.5629 14.3933 11.2228 14.4802C11.2953 14.1814 11.4209 13.8438 11.5575 13.4786L11.6148 13.3245C11.6791 13.1512 11.7601 12.9716 11.8459 12.7815C12.3082 11.755 12.9407 10.3488 12.254 7.17307C11.9968 5.98339 11.1377 5.40242 9.8355 5.53748C9.05485 5.61816 8.34057 5.93375 7.98437 6.11383C7.90732 6.15257 7.83764 6.19011 7.77225 6.22654C7.87132 5.02795 8.24734 2.78794 9.65245 1.37062C10.5372 0.479018 11.7156 0.0378405 13.1512 0.0616165C15.9801 0.107848 17.7939 1.55951 18.8176 2.76944C19.6998 3.81174 20.1775 4.86184 20.3681 5.42818C18.9344 5.28244 17.9594 5.56533 17.4651 6.27201C16.3893 7.80864 18.0529 10.7917 18.8525 12.2259C18.9991 12.4887 19.1257 12.7159 19.1655 12.8123C19.4259 13.4433 19.763 13.8646 20.009 14.172C20.0845 14.2663 20.1577 14.3577 20.2133 14.4375C19.7791 14.5627 18.9991 14.852 19.0703 16.2978C19.0129 17.0232 18.6053 20.4195 18.3988 21.6194C18.1254 23.2045 17.542 23.7952 15.9017 24.147L15.9012 24.1466ZM22.9995 16.0232C22.5556 16.2292 21.8124 16.3839 21.1062 16.4171C20.3265 16.4535 19.9297 16.3297 19.8363 16.2535C19.7922 15.3526 20.1279 15.2585 20.4827 15.1588C20.5384 15.1432 20.5928 15.1279 20.6454 15.1095C20.6799 15.1376 20.7158 15.1639 20.753 15.1883C21.3796 15.6019 22.4972 15.6465 24.0751 15.3204L24.0924 15.317C23.8795 15.516 23.5154 15.7831 22.9991 16.0228L22.9995 16.0232Z" fill="#19191B"/>
</g>
<defs>
<clipPath id="clip0_583_7190">
<rect width="25.0781" height="26" fill="white" transform="translate(0 -1)"/>
</clipPath>
</defs>
</svg>
