<svg width="25" height="24" viewBox="0 0 25 24" fill="none" xmlns="http://www.w3.org/2000/svg">
<g clip-path="url(#clip0_583_7163)">
<path d="M11.9758 0.000244141C5.85131 0.000244141 6.23374 2.65626 6.23374 2.65626L6.24051 5.40797H12.085V6.23407H3.91913C3.91913 6.23407 0 5.78904 0 11.9692C0 18.1493 3.4207 17.9299 3.4207 17.9299H5.46201V15.0619C5.46201 15.0619 5.3522 11.6412 8.82824 11.6412H14.6251C14.6251 11.6412 17.8818 11.6938 17.8818 8.49363V3.20248C17.8818 3.20248 18.3765 0.000244141 11.9758 0.000244141ZM8.75316 1.85048C8.89112 1.85034 9.02774 1.87738 9.15524 1.93005C9.28275 1.98271 9.39862 2.05998 9.49626 2.15744C9.59389 2.25489 9.67138 2.37063 9.72428 2.49803C9.77718 2.62544 9.80447 2.76201 9.80459 2.89996V2.9019C9.80471 3.03985 9.77767 3.17647 9.72499 3.30396C9.67232 3.43146 9.59505 3.54733 9.4976 3.64496C9.40015 3.7426 9.28442 3.82008 9.15702 3.87299C9.02962 3.92589 8.89305 3.95319 8.7551 3.95332H8.75316C8.61521 3.95344 8.47858 3.9264 8.35108 3.87372C8.22358 3.82104 8.1077 3.74376 8.01006 3.6463C7.91243 3.54883 7.83495 3.43309 7.78205 3.30568C7.72915 3.17827 7.70186 3.04169 7.70174 2.90374V2.9019C7.70162 2.76394 7.72866 2.62731 7.78134 2.49981C7.83402 2.37231 7.9113 2.25643 8.00877 2.1588C8.10623 2.06117 8.22197 1.98369 8.34938 1.93078C8.47679 1.87788 8.61337 1.85059 8.75133 1.85048H8.75316Z" fill="#FEC506"/>
<path d="M12.1498 24.0002C18.2744 24.0002 17.892 21.3442 17.892 21.3442L17.8852 18.5927H12.0405V17.7665H20.2064C20.2064 17.7665 24.1255 18.2115 24.1255 12.0312C24.1255 5.85084 20.7048 6.07055 20.7048 6.07055H18.6635V8.93815C18.6635 8.93815 18.7734 12.3588 15.2976 12.3588H9.50053C9.50053 12.3588 6.24372 12.3062 6.24372 15.5065V20.798C6.24372 20.798 5.74917 24.0002 12.1497 24.0002H12.1498ZM15.3724 22.15C15.0938 22.1502 14.8266 22.0397 14.6294 21.8429C14.4322 21.6461 14.3213 21.379 14.321 21.1004V21.0985C14.3209 20.9605 14.3479 20.8239 14.4006 20.6964C14.4533 20.5689 14.5305 20.453 14.628 20.3553C14.7254 20.2577 14.8412 20.1802 14.9686 20.1273C15.096 20.0744 15.2326 20.0471 15.3705 20.0469H15.3724C15.6511 20.0467 15.9184 20.1572 16.1155 20.354C16.3127 20.5508 16.4237 20.8179 16.424 21.0965V21.0984C16.4242 21.377 16.3137 21.6443 16.1169 21.8415C15.9201 22.0387 15.653 22.1496 15.3744 22.1499H15.3724V22.15Z" fill="#FEC506"/>
</g>
<defs>
<clipPath id="clip0_583_7163">
<rect width="24.1255" height="24" fill="white"/>
</clipPath>
</defs>
</svg>
