<svg width="30" height="26" viewBox="0 0 30 26" fill="none" xmlns="http://www.w3.org/2000/svg">
<path d="M29.8959 13.003C29.8959 11.0689 27.4738 9.23598 23.7604 8.09934C24.6173 4.31449 24.2365 1.30327 22.5583 0.339208C22.1715 0.113069 21.7192 0.00595093 21.2253 0.00595093V1.33303C21.499 1.33303 21.7192 1.38659 21.9037 1.48775C22.713 1.95193 23.0641 3.71939 22.7904 5.99268C22.7249 6.55207 22.6178 7.14122 22.4869 7.74228C21.3205 7.45663 20.047 7.23644 18.708 7.09361C17.9046 5.99268 17.0714 4.9929 16.2324 4.1181C18.1724 2.31495 19.9934 1.32708 21.2312 1.32708V0C19.5947 0 17.4523 1.1664 15.2861 3.18975C13.12 1.1783 10.9776 0.0238042 9.34107 0.0238042V1.35088C10.5729 1.35088 12.3999 2.3328 14.3399 4.12406C13.5068 4.99886 12.6736 5.99268 11.8822 7.09361C10.5372 7.23644 9.26371 7.45663 8.09731 7.74823C7.96044 7.15312 7.85927 6.57587 7.78786 6.02243C7.50816 3.74914 7.85332 1.98169 8.65671 1.51156C8.83524 1.40444 9.06733 1.35683 9.34107 1.35683V0.0297551C8.84119 0.0297551 8.38891 0.136873 7.99614 0.363012C6.32391 1.32708 5.94899 4.33234 6.81189 8.10529C3.11036 9.24788 0.700195 11.0748 0.700195 13.003C0.700195 14.9371 3.12226 16.77 6.83569 17.9066C5.97875 21.6915 6.35961 24.7027 8.0378 25.6667C8.42462 25.8929 8.87689 26 9.37678 26C11.0133 26 13.1557 24.8336 15.3218 22.8103C17.488 24.8217 19.6304 25.9762 21.2669 25.9762C21.7668 25.9762 22.2191 25.8691 22.6118 25.6429C24.2841 24.6789 24.659 21.6736 23.7961 17.9007C27.4857 16.764 29.8959 14.9311 29.8959 13.003ZM22.1477 9.03365C21.9275 9.80133 21.6537 10.5928 21.3443 11.3843C21.1003 10.9082 20.8444 10.4321 20.5647 9.95605C20.2909 9.47997 19.9993 9.01579 19.7077 8.56351C20.5528 8.68849 21.3681 8.84321 22.1477 9.03365ZM19.4221 15.3715C18.9579 16.1749 18.4818 16.9366 17.9879 17.6448C17.1012 17.7221 16.2026 17.7638 15.298 17.7638C14.3994 17.7638 13.5008 17.7221 12.6201 17.6507C12.1262 16.9425 11.6441 16.1868 11.1799 15.3893C10.7277 14.6097 10.317 13.8183 9.94213 13.0208C10.3111 12.2234 10.7277 11.426 11.174 10.6464C11.6382 9.84298 12.1142 9.08125 12.6082 8.37308C13.4949 8.29572 14.3935 8.25406 15.298 8.25406C16.1966 8.25406 17.0952 8.29572 17.976 8.36713C18.4699 9.0753 18.952 9.83108 19.4161 10.6285C19.8684 11.4081 20.279 12.1996 20.654 12.997C20.279 13.7945 19.8684 14.5919 19.4221 15.3715ZM21.3443 14.5978C21.6656 15.3953 21.9394 16.1927 22.1655 16.9664C21.3859 17.1568 20.5647 17.3175 19.7137 17.4424C20.0053 16.9842 20.2969 16.5141 20.5706 16.032C20.8444 15.556 21.1003 15.0739 21.3443 14.5978ZM15.3099 20.9476C14.7565 20.3763 14.2031 19.7395 13.6556 19.0433C14.1912 19.0671 14.7386 19.0849 15.2921 19.0849C15.8515 19.0849 16.4049 19.073 16.9465 19.0433C16.4109 19.7395 15.8574 20.3763 15.3099 20.9476ZM10.8824 17.4424C10.0373 17.3175 9.22205 17.1627 8.44247 16.9723C8.66266 16.2046 8.9364 15.4131 9.24586 14.6217C9.48985 15.0977 9.74574 15.5738 10.0254 16.0499C10.3051 16.526 10.5908 16.9902 10.8824 17.4424ZM15.2802 5.05837C15.8336 5.62966 16.3871 6.26642 16.9346 6.96269C16.399 6.93889 15.8515 6.92103 15.298 6.92103C14.7386 6.92103 14.1852 6.93294 13.6437 6.96269C14.1793 6.26642 14.7327 5.62966 15.2802 5.05837ZM10.8764 8.56351C10.5848 9.02174 10.2932 9.49187 10.0195 9.97391C9.74574 10.45 9.48985 10.9261 9.24586 11.4022C8.9245 10.6047 8.65076 9.80728 8.42462 9.03365C9.2042 8.84916 10.0254 8.68849 10.8764 8.56351ZM5.49077 16.0142C3.38411 15.1156 2.02132 13.9373 2.02132 13.003C2.02132 12.0687 3.38411 10.8844 5.49077 9.99176C6.00255 9.77157 6.56195 9.57519 7.1392 9.39071C7.4784 10.5571 7.92473 11.7711 8.47818 13.0149C7.93068 14.2527 7.49031 15.4607 7.15705 16.6212C6.5679 16.4367 6.0085 16.2344 5.49077 16.0142ZM8.69241 24.5182C7.88307 24.054 7.53196 22.2866 7.80571 20.0133C7.87117 19.4539 7.97829 18.8647 8.10921 18.2637C9.27561 18.5493 10.5491 18.7695 11.8881 18.9123C12.6915 20.0133 13.5246 21.013 14.3637 21.8878C12.4237 23.691 10.6027 24.6789 9.36488 24.6789C9.09708 24.6729 8.87094 24.6194 8.69241 24.5182ZM22.8082 19.9835C23.0879 22.2568 22.7428 24.0243 21.9394 24.4944C21.7608 24.6015 21.5288 24.6491 21.255 24.6491C20.0231 24.6491 18.1962 23.6672 16.2562 21.8759C17.0893 21.0011 17.9224 20.0073 18.7139 18.9064C20.0589 18.7636 21.3324 18.5434 22.4988 18.2518C22.6356 18.8528 22.7428 19.4301 22.8082 19.9835ZM25.0994 16.0142C24.5876 16.2344 24.0282 16.4308 23.4509 16.6152C23.1117 15.4488 22.6654 14.2348 22.112 12.9911C22.6595 11.7533 23.0998 10.5452 23.4331 9.38476C24.0222 9.56924 24.5816 9.77157 25.1053 9.99176C27.212 10.8904 28.5748 12.0687 28.5748 13.003C28.5688 13.9373 27.206 15.1215 25.0994 16.0142Z" fill="#FEC506"/>
</svg>
