<svg width="26" height="23" viewBox="0 0 26 23" fill="none" xmlns="http://www.w3.org/2000/svg">
<g clip-path="url(#clip0_583_7270)">
<path d="M24.9813 17.7155C23.5938 18.4647 16.406 21.5266 14.8758 22.3531C13.3455 23.1795 12.4954 23.1721 11.287 22.573C10.0786 21.9739 2.42921 18.7732 1.05134 18.0909C0.362202 17.75 0 17.4623 0 17.1902V14.4675C0 14.4675 9.95816 12.2216 11.5658 11.624C13.1735 11.0265 13.7311 11.0049 15.0992 11.5241C16.4673 12.0434 24.6483 13.5725 26 14.0856L25.9994 16.7697C25.9994 17.0392 25.6873 17.3341 24.9813 17.7155Z" fill="#BC9207"/>
<path d="M24.9808 15.0088C23.5934 15.7578 16.4058 18.8197 14.8756 19.6461C13.3453 20.4725 12.4953 20.4651 11.2868 19.866C10.0783 19.267 2.42919 16.0661 1.05112 15.3842C-0.326957 14.7022 -0.355459 14.2322 0.997963 13.6833C2.35138 13.1343 9.95805 10.0421 11.5659 9.44421C13.1738 8.84631 13.7311 8.82508 15.0992 9.34442C16.4673 9.86375 23.6121 12.8099 24.964 13.3228C26.3158 13.8357 26.3683 14.2593 24.9808 15.0085" fill="#FEC506"/>
<path d="M24.9813 13.3099C23.5938 14.0594 16.406 17.1211 14.8758 17.948C13.3455 18.7749 12.4954 18.7663 11.287 18.1675C10.0786 17.5687 2.42921 14.3678 1.05134 13.6854C0.362202 13.3445 0 13.057 0 12.7851V10.062C0 10.062 9.95816 7.81624 11.5658 7.21867C13.1735 6.62109 13.7308 6.59922 15.0992 7.11866C16.4676 7.6381 24.6483 9.16626 26 9.67988L25.9994 12.3644C25.9994 12.6338 25.6873 12.9287 24.9813 13.3099Z" fill="#BC9207"/>
<path d="M24.9806 10.6032C23.5932 11.3524 16.4057 14.4142 14.8754 15.241C13.3452 16.0678 12.4952 16.0593 11.2867 15.4605C10.0782 14.8617 2.42877 11.6608 1.05049 10.9787C-0.327789 10.2966 -0.355666 9.82686 0.997752 9.27756C2.35117 8.72826 9.95803 5.63647 11.5663 5.039C13.1746 4.44153 13.7307 4.41987 15.0991 4.93942C16.4675 5.45898 23.6119 8.40463 24.9638 8.91783C26.3157 9.43103 26.3681 9.85435 24.9806 10.6034" fill="#FEC506"/>
<path d="M24.9813 8.74108C23.5938 9.49018 16.406 12.5522 14.8758 13.379C13.3455 14.2058 12.4954 14.1973 11.287 13.5986C10.0786 13 2.42869 9.79872 1.05061 9.11665C0.362202 8.776 0 8.48794 0 8.21625V5.49307C0 5.49307 9.95816 3.24751 11.5658 2.64994C13.1735 2.05236 13.7311 2.03081 15.0992 2.54993C16.4673 3.06905 24.6483 4.59752 26 5.11114L25.9994 7.79531C25.9994 8.06473 25.6873 8.35937 24.9813 8.74087" fill="#BC9207"/>
<path d="M24.9808 6.03454C23.5933 6.78364 16.4058 9.84568 14.8755 10.6721C13.3453 11.4984 12.4953 11.4903 11.2868 10.892C10.0783 10.2937 2.4292 7.09197 1.05113 6.40979C-0.326943 5.72761 -0.355445 5.25796 0.99787 4.70887C2.35118 4.15979 9.95814 1.068 11.5664 0.470424C13.1747 -0.127155 13.7308 -0.148601 15.0992 0.37063C16.4676 0.889861 23.612 3.83605 24.9639 4.34914C26.3158 4.86223 26.3682 5.28533 24.9808 6.03454Z" fill="#FEC506"/>
<path d="M16.1769 3.38572L13.9415 3.62615L13.4412 4.87369L12.6329 3.48153L10.0517 3.2412L11.9777 2.52163L11.3999 1.41699L13.2031 2.14821L14.9031 1.57153L14.4436 2.71389L16.1769 3.38637V3.38572ZM13.3077 9.43783L9.13584 7.64519L15.114 6.69445L13.3077 9.43783ZM7.52414 4.07911C9.28875 4.07911 10.7192 4.65363 10.7192 5.36221C10.7192 6.07079 9.28885 6.64542 7.52372 6.64542C5.75859 6.64542 4.32861 6.07101 4.32861 5.36221C4.32861 4.65341 5.75911 4.07911 7.52372 4.07911" fill="#19191B"/>
<path d="M18.8188 3.72691L22.3569 5.17543L18.822 6.62255L18.8188 3.72681" fill="#BC9207"/>
<path d="M14.9048 5.33094L18.819 3.72681L18.8221 6.62244L18.4383 6.77795L14.9048 5.33094Z" fill="#FEC506"/>
</g>
<defs>
<clipPath id="clip0_583_7270">
<rect width="26" height="23" fill="white" transform="translate(0 0.000488281)"/>
</clipPath>
</defs>
</svg>
