<svg width="54" height="229" viewBox="0 0 54 229" fill="none" xmlns="http://www.w3.org/2000/svg">
<path d="M-60.5063 35.1082C-76.2063 35.1094 -91.5535 39.7656 -104.608 48.4881C-117.664 57.2118 -127.84 69.6111 -133.849 84.1181C-139.858 98.625 -141.43 114.588 -138.366 129.989C-135.303 145.389 -127.742 159.535 -116.638 170.639C-105.535 181.742 -91.3891 189.303 -75.9886 192.366C-60.5881 195.43 -44.625 193.858 -30.118 187.849C-15.6111 181.84 -3.21173 171.664 5.51196 158.608C14.2336 145.555 18.8896 130.21 18.8919 114.511L-60.5063 35.1082ZM-60.5063 35.1082C-39.4564 35.1335 -19.2759 43.5067 -4.39128 58.3913C10.4944 73.277 18.8677 93.4593 18.8919 114.511L-60.5063 35.1082ZM-60.5 219H-60.4892C-32.7861 218.97 -6.22626 207.952 13.3628 188.363C32.9518 168.774 43.9701 142.214 44 114.511V114.5C44 93.8319 37.8711 73.6278 26.3885 56.4429C14.9059 39.258 -1.41464 25.864 -20.5095 17.9546C-39.6044 10.0452 -60.6159 7.97584 -80.8869 12.008C-101.158 16.0401 -119.778 25.9928 -134.393 40.6074C-149.007 55.222 -158.96 73.8421 -162.992 94.1131C-167.024 114.384 -164.955 135.396 -157.045 154.49C-149.136 173.585 -135.742 189.906 -118.557 201.389C-101.372 212.871 -81.1681 219 -60.5 219Z" fill="black" stroke="black" stroke-width="20"/>
</svg>
