<svg width="162" height="188" viewBox="0 0 162 188" fill="none" xmlns="http://www.w3.org/2000/svg">
<path d="M-129.322 187.113L-72.6 171.914C-78.1718 148.661 -74.4446 124.151 -62.2124 103.606C-49.9802 83.0601 -30.2097 68.1021 -7.112 61.918C15.9844 55.7296 40.5842 58.8034 61.4477 70.4847C82.3111 82.166 97.7892 101.532 104.585 124.457L161.307 109.258C150.473 71.2776 125.141 39.0795 90.7783 19.6107C56.4152 0.141957 15.7755 -5.03658 -22.3721 5.19234C-60.493 15.4339 -93.0651 40.2413 -113.07 74.2695C-133.075 108.298 -138.911 148.823 -129.322 187.113Z" fill="url(#paint0_linear_790_686761)"/>
<defs>
<linearGradient id="paint0_linear_790_686761" x1="-86.5482" y1="85.3413" x2="214.148" y2="113.331" gradientUnits="userSpaceOnUse">
<stop stop-color="#FEC506"/>
<stop offset="1" stop-color="#FEC506" stop-opacity="0"/>
</linearGradient>
</defs>
</svg>
