<svg width="356" height="309" viewBox="0 0 356 309" fill="none" xmlns="http://www.w3.org/2000/svg">
<path d="M135.5 118V252.5L137 252L198 190.5V55.5L135.5 118Z" fill="url(#paint0_linear_582_6062)"/>
<path d="M64.8339 55.3837L2.64404 117.891V252.562H136.376L198.057 190.534V55.3837H64.8339Z" stroke="black" stroke-miterlimit="10"/>
<path d="M2.64404 117.891H135.167L197.707 55.032" stroke="black" stroke-miterlimit="10"/>
<path d="M2.64404 252.562L66.8697 188.008H197.357" stroke="black" stroke-miterlimit="10"/>
<path d="M135.39 117.188V252.082" stroke="black" stroke-miterlimit="10"/>
<path d="M66.2974 55.6075V188.232" stroke="black" stroke-miterlimit="10"/>
<path d="M220.134 55.3837L157.944 117.891V252.562H291.676L353.357 190.534V55.3837H220.134Z" stroke="black" stroke-miterlimit="10"/>
<path d="M157.944 117.891H290.467L353.007 55.032" stroke="black" stroke-miterlimit="10"/>
<path d="M157.944 252.562L222.17 188.008H352.657" stroke="black" stroke-miterlimit="10"/>
<path d="M290.689 117.188V252.082" stroke="black" stroke-miterlimit="10"/>
<path d="M221.597 55.6075V188.232" stroke="black" stroke-miterlimit="10"/>
<g style="mix-blend-mode:multiply">
<g style="mix-blend-mode:multiply">
</g>
</g>
<g style="mix-blend-mode:multiply">
<g style="mix-blend-mode:multiply">
<path d="M123 185C138.464 185 151 172.24 151 156.5C151 140.76 138.464 128 123 128C107.536 128 95 140.76 95 156.5C95 172.24 107.536 185 123 185Z" fill="url(#paint1_linear_582_6062)"/>
</g>
</g>
<defs>
<linearGradient id="paint0_linear_582_6062" x1="167" y1="85" x2="166.75" y2="252.5" gradientUnits="userSpaceOnUse">
<stop stop-color="#FEC506"/>
<stop offset="1" stop-color="#FEC506" stop-opacity="0"/>
</linearGradient>
</defs>
</svg>
