<svg width="187" height="187" viewBox="0 0 187 187" fill="none" xmlns="http://www.w3.org/2000/svg">
<path d="M186.011 102.521V0C161.58 -6.95551e-07 137.388 4.81281 114.818 14.1635C92.2467 23.5142 71.739 37.2197 54.4657 54.4971C37.1924 71.7745 23.4918 92.2855 14.1465 114.859C4.8012 137.432 -0.00582446 161.624 5.29621e-06 186.055H102.521C102.515 175.088 104.67 164.226 108.863 154.092C113.057 143.957 119.206 134.748 126.959 126.99C134.712 119.233 143.918 113.079 154.051 108.88C164.183 104.682 175.043 102.521 186.011 102.521Z" fill="url(#paint0_linear_731_682117)"/>
<defs>
<linearGradient id="paint0_linear_731_682117" x1="93.0056" y1="0" x2="93.0056" y2="186.055" gradientUnits="userSpaceOnUse">
<stop stop-color="#FEC506"/>
<stop offset="1" stop-color="#FEC506" stop-opacity="0"/>
</linearGradient>
</defs>
</svg>
