<svg width="96" height="96" viewBox="0 0 96 96" fill="none"
    xmlns="http://www.w3.org/2000/svg">
    <path d="M15.937 96L31.5621 80.3747C25.3713 73.8453 21.9744 65.1567 22.0951 56.1597C22.2157 47.1627 25.8443 38.5683 32.2079 32.2072C38.5703 25.8449 47.1654 22.2181 56.1623 22.0995C65.1591 21.9808 73.8469 25.3795 80.3749 31.5718L96 15.9465C85.3234 5.60783 71.0102 -0.118939 56.1487 0.00188529C41.2873 0.12271 27.0691 6.08143 16.562 16.5923C6.06587 27.1023 0.118659 41.3151 0.00175089 56.1683C-0.115157 71.0215 5.6076 85.3261 15.937 96Z" fill="url(#paint0_linear_223_2475)"/>
    <defs>
        <linearGradient id="paint0_linear_223_2475" x1="21.1651" y1="70.2236" x2="56.4158" y2="-18.5122" gradientUnits="userSpaceOnUse">
            <stop stop-color="#FEC506"/>
            <stop offset="1" stop-color="#FEC506" stop-opacity="0">
                <animate attributeName="offset" values="0.01; 1" dur="0.5s" />
                <animate attributeName="stop-opacity" values="0.01; 0" dur="0.5s" />
            </stop>
        </linearGradient>
    </defs>
</svg>
