<svg width="300" height="86" viewBox="0 0 300 86" fill="none" xmlns="http://www.w3.org/2000/svg">
<path d="M72.6522 71.5029C72.348 71.5029 72.196 71.3122 72.196 70.9692V35.7102C72.196 35.3291 72.348 35.1383 72.6522 35.1383H75.4845C75.7507 35.1383 75.9027 35.3291 75.9027 35.7102V70.9692C75.9027 71.3122 75.7507 71.5029 75.4845 71.5029H72.6522Z" fill="black"/>
<path d="M113.883 71.5029C113.693 71.5029 113.579 71.4265 113.541 71.3122L86.0917 38.9502H84.9512V70.9692C84.959 71.0413 84.9507 71.1139 84.9267 71.1824C84.9027 71.2507 84.8637 71.3127 84.8127 71.3638C84.7615 71.4151 84.6997 71.4541 84.6315 71.4781C84.5635 71.5022 84.4907 71.5108 84.419 71.5029H80.8072C80.7355 71.5108 80.6627 71.5022 80.5947 71.4781C80.5265 71.4541 80.4647 71.4151 80.4137 71.3638C80.3625 71.3127 80.3235 71.2507 80.2995 71.1824C80.2757 71.1139 80.2672 71.0413 80.275 70.9692V35.7102C80.275 35.329 80.4652 35.1383 80.8072 35.1383H88.791C88.954 35.1598 89.103 35.2415 89.2092 35.367L114.871 65.9757V35.7102C114.861 35.6326 114.868 35.5534 114.893 35.4793C114.918 35.4049 114.959 35.3374 115.015 35.282C115.07 35.2266 115.137 35.1849 115.211 35.1598C115.285 35.135 115.364 35.1277 115.442 35.1383H119.053C119.395 35.1383 119.586 35.329 119.586 35.7102V70.9692C119.593 71.0413 119.585 71.1139 119.561 71.1824C119.537 71.2507 119.498 71.3127 119.447 71.3638C119.396 71.4151 119.334 71.4541 119.266 71.4781C119.198 71.5022 119.125 71.5108 119.053 71.5029H113.883Z" fill="black"/>
<path d="M165.378 60.8298C165.432 60.8933 165.459 60.9753 165.454 61.0585C165.454 64.9464 164.238 67.729 161.805 69.5206C159.79 70.8549 156.71 71.5409 152.566 71.5409H139.564C137.387 71.5737 135.211 71.4078 133.063 71.0454C131.486 70.8008 129.966 70.2714 128.577 69.4824C127.507 68.7661 126.6 67.8307 125.916 66.738C125.155 65.5156 124.638 64.156 124.395 62.7357C124.053 60.8678 123.863 57.1323 123.863 51.5289C123.863 45.0109 125.041 40.5892 127.398 38.2639H127.36C129.68 35.9768 134.052 34.8333 140.477 34.8333H152.528C156.824 34.8333 160.018 35.71 162.185 37.4254C164.352 39.1406 165.417 41.7707 165.417 45.2395V45.3539C165.417 45.6969 165.264 45.8876 164.96 45.8876H161.349C161.277 45.8954 161.204 45.8871 161.136 45.863C161.068 45.839 161.006 45.7998 160.955 45.7487C160.904 45.6974 160.865 45.6354 160.841 45.5671C160.817 45.4988 160.808 45.426 160.816 45.3539V45.2395C160.816 41.4659 158.041 39.56 152.49 39.56H140.115C138.358 39.5382 136.602 39.6786 134.869 39.9794C133.723 40.1625 132.609 40.509 131.561 41.0083C130.117 41.8853 129.166 43.5243 128.748 45.8876C128.546 46.9555 128.444 48.0404 128.444 49.1275C128.406 50.6522 128.406 52.5581 128.406 54.8834C128.382 56.975 128.522 59.0651 128.824 61.1346C129.129 62.7737 129.508 63.9172 130.041 64.6034C131.371 66.1282 134.413 66.8905 139.089 66.8905H152.433C155.133 66.8905 157.148 66.5476 158.44 65.8995C159.999 65.1751 160.797 63.6124 160.797 61.2489V61.0585C160.789 60.9864 160.798 60.9135 160.822 60.8452C160.846 60.777 160.885 60.715 160.936 60.6639C160.987 60.6125 161.049 60.5736 161.117 60.5496C161.185 60.5255 161.258 60.5169 161.33 60.5248H165.018C165.056 60.5248 165.055 60.563 165.055 60.6012L165.378 60.8298Z" fill="black"/>
<path d="M210.448 61.0967C210.282 62.6424 209.898 64.1568 209.308 65.5945C208.748 66.7249 207.973 67.7349 207.027 68.5678C206.044 69.4073 204.889 70.0192 203.643 70.3591V70.4355C202.239 70.8352 200.801 71.103 199.347 71.2361C197.212 71.4526 195.068 71.5543 192.922 71.5409H187.372C181.542 71.5409 177.512 71.0072 175.282 69.94C172.773 68.8346 171.062 66.7762 170.187 63.8029C169.817 62.2787 169.6 60.7205 169.541 59.1526C169.389 57.1705 169.351 54.6927 169.351 51.7578C169.343 49.6448 169.444 47.5324 169.655 45.4303C169.8 43.9091 170.171 42.4187 170.758 41.0083C171.318 39.8779 172.093 38.8682 173.039 38.0353C174.051 37.1715 175.228 36.5229 176.499 36.1294H176.536C178.665 35.4052 182.277 35.024 187.372 35.024H192.922C198.511 35.024 202.503 35.5956 204.974 36.7013C206.186 37.2284 207.255 38.0386 208.092 39.0645C208.999 40.1924 209.648 41.5066 209.992 42.9143C210.28 44.438 210.47 45.9786 210.562 47.5266C210.715 49.5087 210.791 51.9865 210.791 54.9214C210.804 56.9849 210.69 59.0473 210.448 61.0967ZM206.19 51.6814C206.202 49.9888 206.126 48.2966 205.963 46.6117C205.876 45.4621 205.579 44.3381 205.088 43.2954C204.556 41.7328 203.339 40.7417 201.476 40.3224C199.993 39.9412 197.104 39.7505 192.808 39.7505H187.295C182.999 39.7505 180.11 39.9412 178.589 40.3224C176.764 40.7417 175.51 41.7328 174.864 43.2954C174.141 44.9727 173.761 47.7935 173.761 51.6814V54.8452C173.761 58.7332 174.141 61.554 174.864 63.2312C175.548 64.756 176.803 65.747 178.627 66.1664C180.11 66.5476 182.999 66.738 187.295 66.738H192.808C197.066 66.738 199.917 66.5476 201.4 66.1664C203.263 65.747 204.48 64.756 205.05 63.2312C205.541 62.1886 205.837 61.0645 205.924 59.9149C206.09 58.2303 206.166 56.5379 206.152 54.8452V51.6814H206.19Z" fill="black"/>
<path d="M250.577 71.5029C250.505 71.5108 250.433 71.5022 250.365 71.4781C250.295 71.4541 250.235 71.4152 250.182 71.3638C250.132 71.3127 250.092 71.2507 250.067 71.1824C250.045 71.1139 250.037 71.0413 250.045 70.9692C250.045 69.9782 250.082 68.4535 250.235 66.4332C250.31 65.4422 250.387 64.6034 250.425 63.9175C250.462 63.2312 250.462 62.6975 250.462 62.3164C250.482 61.2391 250.367 60.1633 250.12 59.1146C249.946 58.3657 249.637 57.6552 249.208 57.018C248.559 56.3292 247.728 55.8401 246.812 55.6076C245.584 55.2917 244.317 55.1505 243.049 55.1885H219.782V70.9692C219.789 71.0413 219.781 71.1139 219.757 71.1824C219.733 71.2507 219.694 71.3127 219.643 71.3638C219.592 71.4152 219.53 71.4541 219.462 71.4781C219.394 71.5022 219.321 71.5108 219.249 71.5029H215.6C215.528 71.5108 215.455 71.5022 215.387 71.4781C215.319 71.4541 215.257 71.4152 215.206 71.3638C215.155 71.3127 215.116 71.2507 215.092 71.1824C215.068 71.1139 215.06 71.0413 215.068 70.9692V35.7102C215.068 35.3291 215.257 35.1383 215.6 35.1383H241.034C249.17 35.1383 253.237 38.3783 253.237 44.8584C253.262 46.2953 253.045 47.7262 252.592 49.0896C252.257 50.159 251.575 51.0853 250.652 51.7196C252.02 52.3295 253.122 53.473 253.922 55.1121C254.28 55.9124 254.522 56.7592 254.645 57.6278C254.787 58.6378 254.85 59.6574 254.835 60.6773V71.0074C254.835 71.3504 254.682 71.5409 254.415 71.5409H250.577V71.5029ZM242.022 40.1319H219.782V50.1949H241.794C246.356 50.1949 248.599 48.4797 248.599 45.087C248.637 41.771 246.432 40.1319 242.022 40.1319Z" fill="black"/>
<path d="M295.4 71.5027H295.058C295.058 71.4647 295.02 71.4265 294.982 71.3122L295.058 71.3883L290.763 62.9262H266.62L262.363 71.3883V71.5027H258.028C257.958 71.5105 257.885 71.5022 257.815 71.4781C257.748 71.4541 257.685 71.4151 257.635 71.3638C257.583 71.3127 257.545 71.2505 257.52 71.1822C257.498 71.1139 257.488 71.041 257.495 70.9692V70.931C257.5 70.8873 257.51 70.8443 257.53 70.8051C257.55 70.7658 257.578 70.7309 257.61 70.7024V70.8167L275.593 35.2527C275.64 35.2117 275.693 35.1803 275.753 35.1608C275.81 35.1411 275.873 35.1335 275.935 35.1383H281.563C281.675 35.1383 281.752 35.1383 281.752 35.1765C281.752 35.2145 281.79 35.2145 281.828 35.2527L299.925 70.8167V70.7099C299.968 70.7795 299.992 70.8577 300 70.9386V70.9768C300 71.3198 299.848 71.5105 299.545 71.5105L295.4 71.5027ZM269.015 58.3902H288.328L278.748 39.3313L269.015 58.3902Z" fill="black"/>
<path d="M50.526 26.7523H37.6378L31.0227 48.3651H28.3995L24.7878 43.3336L0 57.2467L12.698 83.7005H28.1713L35.6227 65.1372L37.6378 67.3479H41.6678L62.1975 56.4461V50.9952L50.526 26.7523ZM20.4537 73.4086C19.4272 74.9715 18.4007 76.5344 17.2982 78.0589L16.804 78.7833L16.3097 77.9446C12.622 71.922 9.35243 65.747 6.27298 59.4956L5.66468 58.2759L6.84325 57.5896C12.5459 54.3115 18.3627 51.1859 24.2935 48.3272L25.092 47.946L25.32 48.6702C26.0803 50.8429 26.8407 53.0155 27.487 55.2264C26.3845 53.5112 25.396 51.7576 24.4075 50.0042C19.5412 53.3205 14.5229 56.4461 9.42847 59.4194C12.1657 65.0228 14.751 70.7024 17.0321 76.5344C18.1346 75.467 19.2751 74.4378 20.4537 73.4086ZM58.4338 54.1972C52.731 57.4753 46.9143 60.6012 40.9835 63.4599L40.185 63.8411L39.957 63.1169C39.1965 60.9441 38.4363 58.7714 37.79 56.5604C38.8925 58.2759 39.881 60.0293 40.8693 61.7826C45.7358 58.4663 50.754 55.3407 55.8485 52.3677C53.1112 46.7643 50.526 41.0847 48.2447 35.2527C47.1422 36.3198 46.0017 37.3872 44.8612 38.4165C45.8877 36.8535 46.9142 35.2909 48.0167 33.7661L48.511 33.0417L49.0053 33.8805C52.655 39.8648 55.8865 46.0401 59.004 52.2913L59.6123 53.5112L58.4338 54.1972Z" fill="black"/>
<path d="M43.5105 0.229279L32.4077 11.3611L43.5105 22.4928L54.613 11.3611L43.5105 0.229279Z" fill="#FEC602"/>
<path d="M44.8233 38.4164L48.2067 35.2527L55.8105 52.3677L40.8313 61.7827L37.79 56.5607L44.8233 38.4164Z" fill="#FEC506"/>
<path d="M40.7935 62.0495L37.6 56.5989L44.7095 38.3021L48.2833 34.9858L56.0388 52.482L40.7935 62.0495ZM37.9803 56.5607L40.9078 61.5161L55.5825 52.2915L48.169 35.5577L45.0135 38.4928L37.9803 56.5607Z" fill="black"/>
<path d="M20.4156 73.4086L17.032 76.5724L9.4284 59.4576L24.4075 50.0424L27.487 55.2264L20.4156 73.4086Z" fill="#FEC506"/>
<path d="M16.9561 76.8774L9.20045 59.3812L24.4837 49.7755L27.6772 55.2264L20.5678 73.5611L16.9561 76.8774ZM9.65665 59.4958L17.0702 76.2294L20.2256 73.2943L27.221 55.2646L24.2936 50.3092L9.65665 59.4958Z" fill="black"/>
</svg>
