<svg width="120" height="34" viewBox="0 0 120 34" fill="none" xmlns="http://www.w3.org/2000/svg">
<path d="M29.0614 28.2686C28.9397 28.2686 28.8789 28.1932 28.8789 28.0576V14.118C28.8789 13.9673 28.9397 13.8919 29.0614 13.8919H30.1943C30.3008 13.8919 30.3616 13.9673 30.3616 14.118V28.0576C30.3616 28.1932 30.3008 28.2686 30.1943 28.2686H29.0614Z" fill="black"/>
<path d="M45.5537 28.2686C45.4776 28.2686 45.432 28.2384 45.4168 28.1932L34.4372 15.3989H33.981V28.0576C33.9841 28.0861 33.9808 28.1148 33.9712 28.1419C33.9616 28.1689 33.946 28.1934 33.9256 28.2136C33.9051 28.2339 33.8804 28.2493 33.8531 28.2588C33.8259 28.2683 33.7968 28.2717 33.7681 28.2686H32.3234C32.2947 28.2717 32.2656 28.2683 32.2384 28.2588C32.2111 28.2493 32.1864 28.2339 32.1659 28.2136C32.1455 28.1934 32.1299 28.1689 32.1203 28.1419C32.1107 28.1148 32.1074 28.0861 32.1105 28.0576V14.118C32.1105 13.9673 32.1865 13.8919 32.3234 13.8919H35.5169C35.5821 13.9004 35.6417 13.9327 35.6842 13.9823L45.9491 26.0834V14.118C45.9448 14.0873 45.9477 14.056 45.9576 14.0267C45.9676 13.9973 45.9843 13.9706 46.0064 13.9487C46.0285 13.9268 46.0554 13.9103 46.085 13.9004C46.1147 13.8906 46.1462 13.8877 46.1772 13.8919H47.6218C47.7587 13.8919 47.8347 13.9673 47.8347 14.118V28.0576C47.8379 28.0861 47.8345 28.1148 47.8249 28.1419C47.8153 28.1689 47.7997 28.1934 47.7793 28.2136C47.7589 28.2339 47.7341 28.2493 47.7069 28.2588C47.6796 28.2683 47.6506 28.2717 47.6218 28.2686H45.5537Z" fill="black"/>
<path d="M66.1531 24.049C66.1746 24.0741 66.1855 24.1065 66.1835 24.1394C66.1835 25.6765 65.6969 26.7766 64.7236 27.4849C63.9177 28.0124 62.6859 28.2836 61.0283 28.2836H55.8274C54.9564 28.2966 54.086 28.231 53.227 28.0877C52.5961 27.991 51.9881 27.7817 51.4326 27.4698C51.0045 27.1866 50.6417 26.8168 50.3681 26.3848C50.0636 25.9015 49.857 25.364 49.7598 24.8025C49.6229 24.064 49.5469 22.5872 49.5469 20.3719C49.5469 17.795 50.0183 16.0469 50.9611 15.1276H50.9459C51.8736 14.2234 53.6224 13.7713 56.1924 13.7713H61.0131C62.7315 13.7713 64.0089 14.1179 64.8757 14.7961C65.7425 15.4742 66.1683 16.514 66.1683 17.8854V17.9306C66.1683 18.0662 66.1075 18.1416 65.9858 18.1416H64.5412C64.5124 18.1447 64.4834 18.1414 64.4561 18.1319C64.4289 18.1224 64.4041 18.1069 64.3837 18.0867C64.3633 18.0664 64.3477 18.0419 64.3381 18.0149C64.3285 17.9879 64.3251 17.9591 64.3283 17.9306V17.8854C64.3283 16.3935 63.2181 15.64 60.9979 15.64H56.0479C55.3448 15.6314 54.6423 15.6869 53.9494 15.8058C53.491 15.8782 53.0455 16.0152 52.6263 16.2126C52.0485 16.5593 51.6683 17.2073 51.501 18.1416C51.42 18.5638 51.3793 18.9927 51.3793 19.4225C51.3641 20.0253 51.3641 20.7788 51.3641 21.6981C51.3545 22.525 51.4104 23.3513 51.5314 24.1695C51.6531 24.8175 51.8051 25.2696 52.018 25.5409C52.5503 26.1437 53.7669 26.4451 55.6374 26.4451H60.9751C62.0548 26.4451 62.8608 26.3095 63.3778 26.0533C64.0013 25.7669 64.3207 25.1491 64.3207 24.2147V24.1394C64.3175 24.1109 64.3209 24.0821 64.3305 24.0551C64.3401 24.0281 64.3557 24.0036 64.3761 23.9834C64.3965 23.9631 64.4213 23.9477 64.4485 23.9382C64.4758 23.9287 64.5048 23.9253 64.5336 23.9284H66.0087C66.0239 23.9284 66.0239 23.9435 66.0239 23.9586L66.1531 24.049Z" fill="black"/>
<path d="M84.1814 24.1545C84.1149 24.7656 83.9613 25.3643 83.7252 25.9327C83.5011 26.3796 83.1911 26.7789 82.8127 27.1082C82.4197 27.4401 81.9576 27.682 81.4593 27.8164V27.8466C80.8976 28.0046 80.3223 28.1105 79.7409 28.1631C78.887 28.2487 78.0291 28.2889 77.1709 28.2836H74.9506C72.6188 28.2836 71.0069 28.0726 70.1147 27.6507C69.111 27.2137 68.4267 26.3999 68.077 25.2244C67.9287 24.6218 67.8421 24.0058 67.8184 23.3859C67.7576 22.6023 67.7424 21.6227 67.7424 20.4624C67.7389 19.627 67.7795 18.7919 67.8641 17.9608C67.9218 17.3594 68.0705 16.7702 68.3051 16.2126C68.5291 15.7657 68.8391 15.3665 69.2175 15.0372C69.6225 14.6957 70.0933 14.4393 70.6013 14.2837H70.6166C71.4682 13.9974 72.9128 13.8467 74.9506 13.8467H77.1709C79.4063 13.8467 81.0031 14.0727 81.9915 14.5098C82.4764 14.7182 82.904 15.0385 83.2385 15.4441C83.6017 15.89 83.8613 16.4096 83.9989 16.9661C84.1139 17.5685 84.1901 18.1776 84.227 18.7896C84.2878 19.5732 84.3182 20.5528 84.3182 21.7131C84.3238 22.5289 84.2781 23.3443 84.1814 24.1545ZM82.4782 20.4322C82.4828 19.763 82.4523 19.094 82.3869 18.4279C82.3522 17.9734 82.2336 17.529 82.0372 17.1168C81.8243 16.499 81.3376 16.1072 80.5925 15.9414C79.9994 15.7907 78.8436 15.7153 77.1252 15.7153H74.9202C73.2018 15.7153 72.046 15.7907 71.4377 15.9414C70.7078 16.1072 70.206 16.499 69.9474 17.1168C69.6585 17.7799 69.5064 18.8951 69.5064 20.4322V21.683C69.5064 23.2201 69.6585 24.3353 69.9474 24.9984C70.2212 25.6012 70.723 25.993 71.4529 26.1588C72.046 26.3095 73.2018 26.3848 74.9202 26.3848H77.1252C78.8284 26.3848 79.969 26.3095 80.5621 26.1588C81.3072 25.993 81.7938 25.6012 82.022 24.9984C82.2184 24.5862 82.337 24.1418 82.3717 23.6873C82.4378 23.0213 82.4683 22.3522 82.463 21.683V20.4322H82.4782Z" fill="black"/>
<path d="M100.232 28.2686C100.203 28.2717 100.174 28.2683 100.147 28.2588C100.12 28.2493 100.095 28.2339 100.075 28.2136C100.054 28.1934 100.039 28.1689 100.029 28.1419C100.019 28.1148 100.016 28.0861 100.019 28.0576C100.019 27.6658 100.034 27.063 100.095 26.2643C100.126 25.8725 100.156 25.5409 100.171 25.2697C100.186 24.9984 100.186 24.7874 100.186 24.6367C100.194 24.2108 100.148 23.7855 100.05 23.3709C99.9799 23.0748 99.8562 22.7939 99.6846 22.542C99.4252 22.2697 99.0928 22.0763 98.7265 21.9844C98.235 21.8595 97.7282 21.8037 97.221 21.8187H87.9142V28.0576C87.9173 28.0861 87.9139 28.1148 87.9043 28.1419C87.8948 28.1689 87.8792 28.1934 87.8587 28.2136C87.8383 28.2339 87.8136 28.2493 87.7863 28.2588C87.759 28.2683 87.73 28.2717 87.7013 28.2686H86.2414C86.2127 28.2717 86.1836 28.2683 86.1563 28.2588C86.1291 28.2493 86.1043 28.2339 86.0839 28.2136C86.0635 28.1934 86.0479 28.1689 86.0383 28.1419C86.0287 28.1148 86.0254 28.0861 86.0285 28.0576V14.118C86.0285 13.9673 86.1045 13.8919 86.2414 13.8919H96.415C99.6693 13.8919 101.297 15.1728 101.297 17.7347C101.307 18.3028 101.219 18.8685 101.038 19.4075C100.904 19.8303 100.631 20.1965 100.262 20.4473C100.81 20.6884 101.251 21.1405 101.57 21.7885C101.713 22.1049 101.811 22.4397 101.859 22.7831C101.916 23.1824 101.942 23.5855 101.935 23.9887V28.0727C101.935 28.2083 101.874 28.2836 101.768 28.2836H100.232V28.2686ZM96.8104 15.8661H87.9142V19.8445H96.7191C98.544 19.8445 99.4412 19.1664 99.4412 17.8251C99.4564 16.5141 98.5744 15.8661 96.8104 15.8661Z" fill="black"/>
<path d="M118.159 28.2685H118.022C118.022 28.2535 118.007 28.2384 117.992 28.1932L118.022 28.2233L116.304 24.8778H106.647L104.944 28.2233V28.2685H103.21C103.181 28.2716 103.152 28.2683 103.125 28.2588C103.098 28.2493 103.073 28.2339 103.053 28.2136C103.032 28.1934 103.017 28.1688 103.007 28.1418C102.997 28.1148 102.994 28.086 102.997 28.0576V28.0425C102.998 28.0252 103.003 28.0082 103.011 27.9927C103.019 27.9772 103.03 27.9634 103.043 27.9521V27.9973L110.236 13.9371C110.254 13.9209 110.276 13.9085 110.3 13.9008C110.323 13.893 110.348 13.89 110.373 13.8919H112.623C112.669 13.8919 112.699 13.8919 112.699 13.907C112.699 13.922 112.715 13.922 112.73 13.9371L119.968 27.9973V27.9551C119.985 27.9826 119.996 28.0135 119.999 28.0455V28.0606C119.999 28.1962 119.938 28.2716 119.816 28.2716L118.159 28.2685ZM107.605 23.0845H115.33L111.498 15.5496L107.605 23.0845Z" fill="black"/>
<path d="M20.2104 10.5765H15.0551L12.4091 19.1211H11.3598L9.9151 17.1319L0 22.6324L5.0792 33.0909H11.2685L14.2491 25.7519L15.0551 26.6259H16.6671L24.879 22.3159V20.1609L20.2104 10.5765ZM8.18147 29.022C7.77088 29.6399 7.36028 30.2578 6.91928 30.8605L6.72158 31.1469L6.52389 30.8153C5.04879 28.4343 3.74097 25.993 2.50919 23.5215L2.26587 23.0393L2.7373 22.768C5.01838 21.472 7.34508 20.2363 9.7174 19.1061L10.0368 18.9554L10.128 19.2417C10.4321 20.1007 10.7363 20.9596 10.9948 21.8337C10.5538 21.1556 10.1584 20.4623 9.76302 19.7691C7.8165 21.0802 5.80915 22.3159 3.77139 23.4914C4.8663 25.7067 5.90039 27.9521 6.81283 30.2578C7.25383 29.8358 7.71005 29.4289 8.18147 29.022ZM23.3735 21.4268C21.0924 22.7228 18.7657 23.9586 16.3934 25.0888L16.074 25.2395L15.9828 24.9532C15.6786 24.0942 15.3745 23.2352 15.116 22.3611C15.557 23.0393 15.9524 23.7325 16.3477 24.4257C18.2943 23.1146 20.3016 21.8789 22.3394 20.7035C21.2445 18.4882 20.2104 16.2428 19.2979 13.9371C18.8569 14.359 18.4007 14.781 17.9445 15.1879C18.3551 14.57 18.7657 13.9522 19.2067 13.3494L19.4044 13.063L19.6021 13.3946C21.062 15.7605 22.3546 18.2019 23.6016 20.6733L23.8449 21.1556L23.3735 21.4268Z" fill="black"/>
<path d="M17.4059 0.0906463L12.9648 4.49158L17.4059 8.89251L21.8469 4.49158L17.4059 0.0906463Z" fill="#FEC602"/>
<path d="M17.9305 15.1879L19.284 13.9371L22.3254 20.7035L16.3338 24.4257L15.1172 22.3612L17.9305 15.1879Z" fill="#FEC506"/>
<path d="M16.3165 24.5312L15.0391 22.3763L17.8828 15.1427L19.3123 13.8316L22.4146 20.7487L16.3165 24.5312ZM15.1911 22.3612L16.3621 24.3203L22.2321 20.6734L19.2667 14.0577L18.0045 15.2181L15.1911 22.3612Z" fill="black"/>
<path d="M8.16441 29.022L6.81097 30.2728L3.76953 23.5065L9.76117 19.7842L10.993 21.8337L8.16441 29.022Z" fill="#FEC506"/>
<path d="M6.78196 30.3934L3.67969 23.4763L9.79298 19.6787L11.0704 21.8337L8.22664 29.0823L6.78196 30.3934ZM3.86217 23.5216L6.82758 30.1372L8.08978 28.9768L10.8879 21.8488L9.71694 19.8897L3.86217 23.5216Z" fill="black"/>
</svg>
