<svg width="268" height="225" viewBox="0 0 268 225" fill="none" xmlns="http://www.w3.org/2000/svg">
<path d="M268 159.564L220.054 128.446C206.867 147.625 186.714 160.898 163.886 165.438C141.058 169.977 117.36 165.425 97.8392 152.75C78.3161 140.079 64.5118 120.286 59.3667 97.587C54.2216 74.8883 58.1423 51.0777 70.2937 31.2269L22.3468 0.108629C1.93872 32.6885 -4.8427 71.9856 3.46584 109.521C11.7744 147.056 34.5068 179.82 66.758 200.744C99.001 221.64 138.163 229.033 175.805 221.33C213.447 213.628 246.557 191.446 268 159.564Z" fill="url(#paint0_linear_790_686887)"/>
<defs>
<linearGradient id="paint0_linear_790_686887" x1="166.533" y1="194.937" x2="-9.13395" y2="-40.7591" gradientUnits="userSpaceOnUse">
<stop stop-color="#FEC506"/>
<stop offset="1" stop-color="#FEC506" stop-opacity="0"/>
</linearGradient>
</defs>
</svg>
