<svg width="481" height="172" viewBox="0 0 481 172" fill="none" xmlns="http://www.w3.org/2000/svg">
<path d="M0.730469 144.4V107.14L71.3405 6.39999H120.79V105.3H138.5V144.4H120.79V172H75.2505V144.4H0.730469ZM78.7005 57.23L46.9605 105.3H78.7005V57.23Z" fill="#2B2B30"/>
<path d="M173.094 85.52C173.094 59.1467 178.461 38.37 189.194 23.19C199.927 8.00998 216.794 0.419983 239.794 0.419983C262.794 0.419983 279.661 8.00998 290.394 23.19C301.281 38.37 306.724 59.1467 306.724 85.52C306.724 112.2 301.357 133.13 290.624 148.31C279.891 163.49 262.947 171.08 239.794 171.08C216.641 171.08 199.697 163.49 188.964 148.31C178.384 133.13 173.094 112.2 173.094 85.52ZM262.104 85.52C262.104 71.72 260.647 61.2167 257.734 54.01C254.821 46.65 248.841 42.97 239.794 42.97C230.747 42.97 224.767 46.65 221.854 54.01C218.941 61.2167 217.484 71.72 217.484 85.52C217.484 99.6267 218.864 110.36 221.624 117.72C224.537 124.927 230.594 128.53 239.794 128.53C248.994 128.53 254.974 124.927 257.734 117.72C260.647 110.36 262.104 99.6267 262.104 85.52Z" fill="#2B2B30"/>
<path d="M343.116 144.4V107.14L413.726 6.39999H463.176V105.3H480.886V144.4H463.176V172H417.636V144.4H343.116ZM421.086 57.23L389.346 105.3H421.086V57.23Z" fill="#2B2B30"/>
</svg>
