<svg width="481" height="172" viewBox="0 0 481 172" fill="none" xmlns="http://www.w3.org/2000/svg">
<g clip-path="url(#clip0_1893_6586)">
<path d="M182 172C217.899 172 247 143.346 247 108C247 72.6538 217.899 44 182 44C146.101 44 117 72.6538 117 108C117 143.346 146.101 172 182 172Z" fill="url(#paint0_linear_1893_6586)"/>
<rect x="420" y="125" width="47" height="103" transform="rotate(90 420 125)" fill="url(#paint1_linear_1893_6586)"/>
<path d="M0.730469 144.4V107.14L71.3405 6.39999H120.79V105.3H138.5V144.4H120.79V172H75.2505V144.4H0.730469ZM78.7005 57.23L46.9605 105.3H78.7005V57.23Z" fill="#2B2B30"/>
<path d="M173.094 85.52C173.094 59.1467 178.461 38.37 189.194 23.19C199.927 8.00998 216.794 0.419983 239.794 0.419983C262.794 0.419983 279.661 8.00998 290.394 23.19C301.281 38.37 306.724 59.1467 306.724 85.52C306.724 112.2 301.357 133.13 290.624 148.31C279.891 163.49 262.947 171.08 239.794 171.08C216.641 171.08 199.697 163.49 188.964 148.31C178.384 133.13 173.094 112.2 173.094 85.52ZM262.104 85.52C262.104 71.72 260.647 61.2167 257.734 54.01C254.821 46.65 248.841 42.97 239.794 42.97C230.747 42.97 224.767 46.65 221.854 54.01C218.941 61.2167 217.484 71.72 217.484 85.52C217.484 99.6267 218.864 110.36 221.624 117.72C224.537 124.927 230.594 128.53 239.794 128.53C248.994 128.53 254.974 124.927 257.734 117.72C260.647 110.36 262.104 99.6267 262.104 85.52Z" fill="#2B2B30"/>
<path d="M343.116 144.4V107.14L413.726 6.39999H463.176V105.3H480.886V144.4H463.176V172H417.636V144.4H343.116ZM421.086 57.23L389.346 105.3H421.086V57.23Z" fill="#2B2B30"/>
<mask id="mask0_1893_6586" style="mask-type:alpha" maskUnits="userSpaceOnUse" x="217" y="4" width="148" height="125">
<path d="M239.794 42.97C248.841 42.97 294.087 -1.86003 297 5.49998C390.5 12.5 363.527 47.2409 353 70C349.448 77.6791 262.104 82.0384 262.104 85.5199C262.104 99.6266 260.648 110.36 257.734 117.72C254.974 124.927 248.994 128.53 239.794 128.53C230.594 128.53 224.538 124.927 221.624 117.72C218.864 110.36 217.484 99.6266 217.484 85.5199C217.484 71.7199 218.941 61.2166 221.854 54.01C224.768 46.65 230.748 42.97 239.794 42.97Z" fill="#2B2B30"/>
</mask>
<g mask="url(#mask0_1893_6586)">
<path d="M260.996 169.811L280.323 142.307C269.338 134.142 261.974 122.01 259.801 108.496C257.628 94.9815 260.817 81.1528 268.689 69.9552C276.559 58.7562 288.49 51.0725 301.942 48.5407C315.393 46.0089 329.301 48.8292 340.704 56.4007L360.031 28.8969C341.327 16.1971 318.379 11.36 296.14 15.4294C273.9 19.4988 254.152 32.1484 241.157 50.6489C228.177 69.145 222.984 91.9999 226.695 114.289C230.406 136.578 242.724 156.517 260.996 169.811Z" fill="url(#paint2_linear_1893_6586)"/>
</g>
<path d="M136.568 138.965L116.805 120.881C109.23 128.729 98.8896 133.31 87.9868 133.648C77.084 133.985 66.4803 130.052 58.4344 122.687C50.387 115.324 45.5328 105.109 44.9055 94.2192C44.2782 83.3294 47.9276 72.6251 55.0762 64.3862L35.3126 46.3023C23.3653 59.7884 17.1988 77.431 18.1438 95.4232C19.0888 113.415 27.0696 130.315 40.364 142.475C53.6568 154.622 71.1896 161.061 89.1846 160.404C107.18 159.748 124.196 152.048 136.568 138.965Z" fill="url(#paint3_linear_1893_6586)"/>
<path d="M421 42L421 105L357 105C357 88.2914 363.743 72.2671 375.745 60.4523C387.748 48.6375 404.026 42 421 42Z" fill="url(#paint4_linear_1893_6586)"/>
</g>
<defs>
<linearGradient id="paint0_linear_1893_6586" x1="182" y1="-7" x2="182" y2="135.5" gradientUnits="userSpaceOnUse">
<stop stop-color="#FEC506"/>
<stop offset="1" stop-color="#FEC506" stop-opacity="0.2"/>
</linearGradient>
<linearGradient id="paint1_linear_1893_6586" x1="443.5" y1="60.5" x2="443.5" y2="236" gradientUnits="userSpaceOnUse">
<stop stop-color="#FEC506"/>
<stop offset="1" stop-color="#FEC506" stop-opacity="0"/>
</linearGradient>
<linearGradient id="paint2_linear_1893_6586" x1="287.85" y1="43.4119" x2="279.928" y2="160.974" gradientUnits="userSpaceOnUse">
<stop stop-color="#FEC506"/>
<stop offset="1" stop-color="#FEC506" stop-opacity="0"/>
</linearGradient>
<linearGradient id="paint3_linear_1893_6586" x1="134.845" y1="100.133" x2="3.94437" y2="81.4446" gradientUnits="userSpaceOnUse">
<stop offset="0.292264" stop-color="#FEC506"/>
<stop offset="1" stop-color="#FEC506" stop-opacity="0"/>
</linearGradient>
<linearGradient id="paint4_linear_1893_6586" x1="359.465" y1="105.002" x2="418.139" y2="47.931" gradientUnits="userSpaceOnUse">
<stop stop-color="#FEC506"/>
<stop offset="1" stop-color="#FEC506" stop-opacity="0"/>
</linearGradient>
<clipPath id="clip0_1893_6586">
<rect width="480.156" height="171.58" fill="white" transform="translate(0.730469 0.419983)"/>
</clipPath>
</defs>
</svg>
