<svg width="85" height="86" viewBox="0 0 85 86" fill="none" xmlns="http://www.w3.org/2000/svg">
<g clip-path="url(#clip0_790_687303)">
<path d="M15.8586 18.325L10.1938 12.1013L14.2771 8.3656L15.0391 9.20217L11.8904 12.0869L13.4575 13.8105L16.4337 11.0916L17.1526 11.9066L14.198 14.6398L16.0311 16.6447L19.1726 13.76L19.9346 14.5965L15.8586 18.325Z" fill="white"/>
<path d="M23.0329 12.6999C22.6855 12.9152 22.3169 13.094 21.933 13.2336C21.5785 13.3666 21.2092 13.4562 20.8332 13.5004L20.4593 12.5269C20.8232 12.4718 21.1817 12.385 21.5305 12.2672C21.8611 12.1566 22.1773 12.0065 22.4722 11.8201C22.7636 11.6663 23.011 11.4404 23.1911 11.1638C23.2494 11.067 23.2803 10.956 23.2803 10.8429C23.2803 10.7298 23.2494 10.6188 23.1911 10.522C23.1248 10.4046 23.0209 10.3131 22.8963 10.2624C22.738 10.2241 22.573 10.2241 22.4147 10.2624C22.1456 10.3157 21.8812 10.3905 21.6239 10.4859C21.1899 10.6333 20.7418 10.7348 20.2868 10.7888C19.9676 10.8277 19.6438 10.7856 19.3451 10.6662C19.0781 10.5439 18.8549 10.3426 18.7053 10.0893C18.5666 9.88649 18.4819 9.65149 18.4593 9.40661C18.4366 9.16174 18.4768 8.91513 18.5759 8.69021C18.8703 8.12559 19.3225 7.65941 19.877 7.34882C20.204 7.14156 20.5508 6.96761 20.9122 6.82957C21.2595 6.69679 21.6216 6.60719 21.9905 6.56274L22.3572 7.52191C22.0186 7.56363 21.6859 7.64346 21.3651 7.7599C21.052 7.87969 20.7511 8.02942 20.4665 8.20702C20.1806 8.35267 19.934 8.56544 19.7476 8.82723C19.6934 8.91359 19.6646 9.0136 19.6646 9.11569C19.6646 9.21779 19.6934 9.31781 19.7476 9.40417C19.8131 9.51299 19.915 9.59481 20.0352 9.63494C20.1907 9.67621 20.3542 9.67621 20.5097 9.63494C20.7547 9.5886 20.9952 9.52104 21.2285 9.43301C21.5744 9.30861 21.9304 9.21451 22.2925 9.15176C22.5664 9.10923 22.8452 9.10923 23.1192 9.15176C23.3443 9.18135 23.5603 9.26013 23.7518 9.38254C23.9399 9.50929 24.0971 9.6769 24.2119 9.87293C24.3543 10.0823 24.441 10.3247 24.4636 10.5772C24.4863 10.8297 24.4442 11.0838 24.3413 11.3153C24.0533 11.8979 23.5975 12.3803 23.0329 12.6999Z" fill="white"/>
<path d="M29.1003 9.62768C28.6013 9.89275 28.0204 9.95721 27.4757 9.80797C27.2319 9.68939 27.015 9.522 26.8382 9.31611C26.6614 9.11023 26.5285 8.87019 26.4477 8.61082L25.2544 5.72612L23.9891 6.2598L23.5938 5.30063L24.859 4.77418L24.1042 2.95682L25.2615 2.47363L26.0164 4.28378L27.9501 3.48327L28.3455 4.44243L26.4117 5.26457L27.5404 7.9834C27.583 8.12199 27.6526 8.25072 27.7451 8.36213C27.8377 8.47355 27.9513 8.56543 28.0795 8.63245C28.3594 8.70695 28.6569 8.67349 28.9134 8.5387C29.0504 8.4792 29.1825 8.40929 29.3088 8.32956C29.4386 8.24654 29.559 8.14984 29.6683 8.0411L30.2074 8.94256C30.0436 9.09113 29.8681 9.22618 29.6826 9.34642C29.4972 9.45715 29.3023 9.55127 29.1003 9.62768Z" fill="white"/>
<path d="M31.1272 1.65869C31.0218 1.69255 30.9106 1.70426 30.8006 1.6931C30.6905 1.68193 30.5839 1.64812 30.4874 1.59378C30.3923 1.53658 30.31 1.4603 30.2457 1.3697C30.1814 1.27911 30.1364 1.17616 30.1136 1.06732C30.0798 0.961615 30.0681 0.850077 30.0793 0.739645C30.0904 0.629213 30.1241 0.522258 30.1783 0.425474C30.2353 0.330087 30.3113 0.247548 30.4016 0.183018C30.4919 0.118487 30.5946 0.0733639 30.7031 0.0504714C30.8084 0.0166088 30.9196 0.00489385 31.0297 0.0160611C31.1398 0.0272284 31.2464 0.0610356 31.3429 0.115374C31.4379 0.172578 31.5202 0.248863 31.5845 0.339454C31.6489 0.430045 31.6939 0.532985 31.7167 0.641828C31.7504 0.747532 31.7621 0.859081 31.751 0.969513C31.7398 1.07994 31.7061 1.18689 31.652 1.28367C31.595 1.37906 31.5189 1.46161 31.4286 1.52614C31.3383 1.59067 31.2357 1.63579 31.1272 1.65869ZM32.2558 8.47378L30.739 2.66833L31.9611 2.3438L33.4851 8.11319L32.2558 8.47378Z" fill="white"/>
<path d="M35.6923 7.42813L35.3257 1.44239L36.4831 1.37028L36.5478 2.17078C36.7204 1.87143 36.9682 1.62275 37.2666 1.44961C37.5771 1.26632 37.9276 1.16231 38.2875 1.1467C38.6447 1.11286 39.0045 1.17509 39.3298 1.327C39.6174 1.45552 39.8495 1.68326 39.984 1.96884C40.1517 1.66574 40.4007 1.41589 40.7029 1.24767C41.0459 1.06895 41.4238 0.968018 41.81 0.951995C42.0701 0.910734 42.3362 0.932402 42.5863 1.01519C42.8364 1.09798 43.0632 1.23949 43.2477 1.42796C43.6164 1.9658 43.8052 2.60726 43.7869 3.25975L44.0169 6.94495L42.802 7.01706L42.5863 3.50495C42.5919 3.08991 42.4851 2.68114 42.2772 2.32222C42.1847 2.20482 42.0627 2.11422 41.9237 2.05973C41.7847 2.00523 41.6338 1.9888 41.4865 2.01212C41.2919 2.01547 41.1011 2.0665 40.9307 2.16078C40.7603 2.25505 40.6154 2.38971 40.5088 2.553C40.2729 2.97616 40.1772 3.46359 40.2356 3.94486L40.4369 7.16851L39.2148 7.24063L38.9848 3.44004C38.9817 3.10491 38.8679 2.78026 38.6613 2.51694C38.567 2.41299 38.4493 2.3332 38.3179 2.28427C38.1866 2.23533 38.0455 2.21868 37.9065 2.23568C37.7131 2.24571 37.5252 2.30366 37.3596 2.40434C37.194 2.50501 37.0559 2.64529 36.9575 2.81263C36.709 3.21549 36.6027 3.69044 36.6556 4.16122L36.8569 7.38487L35.6923 7.42813Z" fill="white"/>
<path d="M47.1941 7.57955C46.9394 7.55154 46.6928 7.47342 46.4683 7.34967C46.2438 7.22592 46.0458 7.05897 45.8857 6.85838C45.7401 6.6597 45.6384 6.43209 45.5876 6.19079C45.5367 5.9495 45.5379 5.7001 45.591 5.4593C45.6348 5.14616 45.7575 4.84939 45.9474 4.59703C46.1374 4.34466 46.3883 4.14502 46.6765 4.01695C47.4486 3.71762 48.2925 3.65733 49.0991 3.84386L49.9474 3.9881C49.9926 3.8267 50.0006 3.65709 49.9707 3.49215C49.9408 3.3272 49.8738 3.17125 49.7748 3.03615C49.481 2.77487 49.1097 2.61775 48.7181 2.58902C48.3526 2.52598 47.9807 2.50902 47.611 2.53854C47.2274 2.57913 46.8505 2.6688 46.4896 2.80537V1.73083C46.8805 1.603 47.2866 1.52781 47.6973 1.50726C48.1398 1.48116 48.5838 1.50779 49.02 1.58658C49.5255 1.65013 50.0138 1.8118 50.4578 2.06256C50.7813 2.25957 51.0198 2.57082 51.1263 2.93519C51.2332 3.39052 51.2332 3.86451 51.1263 4.31984L50.5009 8.0411L49.3291 7.84638L49.437 7.16127C49.1476 7.38513 48.8062 7.53154 48.4449 7.58676C48.0309 7.66002 47.6072 7.65758 47.1941 7.57955ZM47.7979 6.64923C48.0818 6.71464 48.3767 6.71464 48.6606 6.64923C48.9126 6.59227 49.1455 6.47049 49.3363 6.29585C49.5122 6.14065 49.629 5.92915 49.667 5.69729L49.7892 4.94005L49.1135 4.82466C48.5841 4.69861 48.0326 4.69861 47.5032 4.82466C47.3341 4.86553 47.1809 4.95591 47.0631 5.08433C46.9454 5.21274 46.8683 5.37338 46.8418 5.54583C46.8128 5.67123 46.8133 5.80167 46.8432 5.92685C46.8732 6.05202 46.9318 6.16848 47.0143 6.26701C47.2156 6.48044 47.4854 6.6158 47.7764 6.64923H47.7979Z" fill="white"/>
<path d="M54.6563 9.50507C54.1083 9.36943 53.6325 9.02891 53.3264 8.55312C53.2173 8.30424 53.1609 8.03532 53.1609 7.76343C53.1609 7.49154 53.2173 7.22263 53.3264 6.97374L54.3472 4.03135L53.0532 3.57702L53.3911 2.59622L54.6851 3.05056L55.3249 1.19714L56.511 1.60821L55.8712 3.46163L57.8481 4.1828L57.5103 5.1636L55.5262 4.44243L54.5629 7.22616C54.5079 7.35872 54.4796 7.50087 54.4796 7.64444C54.4796 7.78801 54.5079 7.93017 54.5629 8.06272C54.7315 8.31209 54.9886 8.48748 55.2817 8.55312C55.4218 8.60268 55.5662 8.63891 55.7131 8.6613C55.8662 8.67274 56.02 8.67274 56.1731 8.6613L55.9719 9.69257C55.7527 9.69513 55.5338 9.67824 55.3177 9.6421C55.094 9.61383 54.8729 9.56802 54.6563 9.50507Z" fill="white"/>
<path d="M59.6307 11.8489C59.246 11.6714 58.9012 11.4176 58.617 11.1028C58.3329 10.788 58.1152 10.4187 57.9772 10.0171C57.8794 9.60872 57.8652 9.18464 57.9357 8.77058C58.0061 8.35652 58.1596 7.96114 58.387 7.60841C58.7489 6.85059 59.395 6.26724 60.1842 5.98577C60.5629 5.87164 60.9617 5.84027 61.3535 5.89376C61.7454 5.94726 62.1213 6.08437 62.4558 6.29587C62.7938 6.45585 63.093 6.68775 63.3326 6.97544C63.5722 7.26312 63.7464 7.59971 63.8433 7.96179C63.9823 8.75614 63.8208 9.57393 63.3904 10.2551L63.2179 10.5436C63.1603 10.6446 63.1028 10.7311 63.0669 10.7888L58.7536 8.39449L59.2281 7.53629L62.7074 9.46904L62.3911 9.63491C62.6725 9.20982 62.7995 8.70049 62.7506 8.19256C62.7024 7.97835 62.6062 7.778 62.4691 7.60678C62.3321 7.43556 62.1579 7.29799 61.9598 7.20456C61.7615 7.07671 61.537 6.99541 61.303 6.96669C61.069 6.93797 60.8315 6.96258 60.6083 7.03869C60.1269 7.25406 59.7407 7.63889 59.5228 8.12045L59.3503 8.42334C59.2142 8.63454 59.1229 8.8716 59.082 9.11974C59.0412 9.36789 59.0518 9.62181 59.1131 9.86569C59.2992 10.3446 59.666 10.7307 60.1339 10.9402C60.445 11.1173 60.7787 11.2507 61.1259 11.3369C61.4571 11.4207 61.798 11.4595 62.1395 11.4523L61.8448 12.4331C61.4785 12.444 61.1127 12.4003 60.7593 12.3032C60.3646 12.2029 59.985 12.0501 59.6307 11.8489Z" fill="white"/>
<path d="M66.8916 17.2649C66.5113 16.9125 66.2798 16.4274 66.2446 15.9091C66.2461 15.6629 66.2986 15.4197 66.3989 15.195C66.4991 14.9703 66.6449 14.7689 66.8269 14.6038C67.0438 14.3699 67.3174 14.1964 67.6211 14.1004C67.9247 14.0043 68.248 13.9889 68.5594 14.0557C69.3627 14.2719 70.082 14.7269 70.6226 15.361L71.2264 15.974C71.3605 15.8666 71.4675 15.729 71.5386 15.5724C71.6098 15.4158 71.6433 15.2445 71.6362 15.0726C71.5463 14.6865 71.3345 14.34 71.0323 14.0846C70.7742 13.8182 70.4817 13.5878 70.1625 13.3994C69.829 13.2058 69.4712 13.0578 69.0986 12.9595L69.7384 12.0941C70.1308 12.2207 70.5054 12.3977 70.8526 12.6206C71.223 12.863 71.5654 13.146 71.8734 13.4643C72.2408 13.8106 72.5385 14.2243 72.7505 14.6831C72.9007 15.0328 72.9161 15.4261 72.7936 15.7865C72.6177 16.2206 72.3476 16.6099 72.0028 16.926L69.3286 19.5799L68.4947 18.7289L68.9764 18.2385C68.6097 18.2507 68.2459 18.1687 67.9196 18.0005C67.5356 17.8194 67.1873 17.5702 66.8916 17.2649ZM67.9196 16.8611C68.1242 17.0692 68.3688 17.2336 68.6385 17.3443C68.8773 17.4424 69.1367 17.4796 69.3933 17.4524C69.6267 17.4265 69.8445 17.3224 70.0115 17.1568L70.5579 16.6159L70.0691 16.1183C69.7076 15.7123 69.2607 15.3921 68.7607 15.1807C68.5953 15.1198 68.4159 15.1078 68.2438 15.1461C68.0718 15.1845 67.9143 15.2716 67.7902 15.3971C67.69 15.4865 67.6123 15.5985 67.5636 15.7238C67.5148 15.8492 67.4964 15.9844 67.5099 16.1183C67.558 16.4055 67.7025 16.6676 67.9196 16.8611Z" fill="white"/>
<path d="M70.5005 20.9861L75.4751 17.6543L76.1293 18.6423L75.4679 19.0966C75.8533 19.1378 76.2245 19.266 76.5534 19.4717C76.8919 19.6976 77.1766 19.9955 77.3873 20.3443C77.5755 20.5773 77.7061 20.8516 77.7686 21.1449C77.831 21.4381 77.8236 21.742 77.7468 22.0318C77.4641 22.6841 76.9769 23.2259 76.3593 23.5751L73.4838 25.4935L72.765 24.455L75.4392 22.6665C75.8578 22.4236 76.2012 22.0692 76.4312 21.6424C76.4986 21.4773 76.522 21.2974 76.4994 21.1204C76.4767 20.9435 76.4086 20.7754 76.3018 20.6327C76.1366 20.3757 75.9024 20.1707 75.6261 20.0414C75.3554 19.9115 75.0556 19.8543 74.7562 19.8755C74.4541 19.8886 74.1621 19.9888 73.9152 20.164L71.1403 22.0174L70.5005 20.9861Z" fill="white"/>
<path d="M75.626 29.7052L84.54 30.4264L85.0001 32.0851L77.7251 37.2919L77.3872 35.9217L83.7637 31.5298L76.0429 31.0754L75.626 29.7052ZM78.1061 30.6788L79.2132 30.3687L80.4568 34.8688L79.3498 35.1789L78.1061 30.6788Z" fill="white"/>
<path d="M84.0583 41.518C84.0928 41.8716 84.0459 42.2284 83.9212 42.561C83.7966 42.8936 83.5976 43.193 83.3394 43.4363C82.7011 43.9522 81.9017 44.2255 81.0822 44.208C80.2698 44.2967 79.4519 44.1005 78.7674 43.6527C78.4836 43.4381 78.2534 43.1602 78.0949 42.8411C77.9365 42.5219 77.8541 42.1702 77.8544 41.8137C77.829 41.4341 77.8829 41.0534 78.0126 40.6959C78.1346 40.3828 78.3293 40.1034 78.5805 39.8809L75.4534 40.0468L75.3887 38.7992L83.778 38.3665L83.857 39.5059L83.1382 39.5492C83.422 39.7622 83.6492 40.0421 83.7995 40.3641C83.9613 40.7277 84.0492 41.1199 84.0583 41.518ZM83.0088 41.28C82.9945 40.9834 82.9108 40.6943 82.7643 40.4362C82.6295 40.2048 82.436 40.0132 82.2036 39.8809C81.9627 39.746 81.6882 39.6834 81.4129 39.7006L80.2627 39.7439C79.9892 39.7559 79.7248 39.846 79.5006 40.0035C79.2788 40.1625 79.1047 40.3795 78.9974 40.6309C78.8743 40.9019 78.8199 41.1992 78.8393 41.4964C78.8392 41.7264 78.894 41.9531 78.999 42.1576C79.104 42.3621 79.2563 42.5384 79.4431 42.6719C79.9088 42.9547 80.4552 43.0739 80.9959 43.0108C81.5375 43.0145 82.0654 42.8397 82.4984 42.5132C82.6762 42.3641 82.8155 42.1741 82.9044 41.9594C82.9932 41.7447 83.0291 41.5116 83.0088 41.28Z" fill="white"/>
<path d="M83.5337 50.0278C83.4965 50.3839 83.3763 50.7261 83.1827 51.0268C82.9891 51.3275 82.7276 51.5782 82.4194 51.7586C81.6975 52.1458 80.8628 52.2658 80.0615 52.0976C79.2462 52.0221 78.4831 51.6623 77.9049 51.0807C77.6712 50.8131 77.5027 50.4946 77.4129 50.1504C77.323 49.8062 77.3143 49.4457 77.3873 49.0975C77.4387 48.7212 77.5685 48.36 77.7683 48.0374C77.9472 47.743 78.1937 47.4957 78.4872 47.3162L75.396 46.8475L75.5757 45.6215L83.8787 46.8691L83.7062 48.0446L82.9873 47.9508C83.2225 48.2187 83.388 48.5408 83.469 48.8884C83.5613 49.2608 83.5832 49.6473 83.5337 50.0278ZM82.556 49.5879C82.6019 49.2931 82.5773 48.9915 82.4841 48.7081C82.4007 48.449 82.2492 48.2173 82.0456 48.0374C81.8434 47.8588 81.5935 47.7435 81.3267 47.7057L80.2125 47.5398C79.9424 47.4928 79.6645 47.5279 79.4145 47.6407C79.1662 47.7524 78.9526 47.9293 78.7963 48.1528C78.6208 48.3922 78.5094 48.6728 78.4728 48.9677C78.4268 49.1921 78.4347 49.4243 78.496 49.645C78.5573 49.8658 78.6701 50.0687 78.825 50.237C79.2214 50.604 79.7261 50.8318 80.2628 50.886C80.7939 50.9985 81.3471 50.9327 81.8371 50.6985C82.0367 50.5845 82.2061 50.4241 82.3311 50.2309C82.4562 50.0376 82.5333 49.8172 82.556 49.5879Z" fill="white"/>
<path d="M69.9537 66.0524L76.0426 71.8218L72.2398 75.8387L71.4203 75.067L74.3533 71.966L72.6639 70.365L69.8962 73.293L69.0911 72.5285L71.866 69.6006L69.8962 67.7255L66.9704 70.8193L66.1509 70.0405L69.9537 66.0524Z" fill="white"/>
<path d="M63.1964 72.1895C63.5233 71.9441 63.878 71.7383 64.2532 71.5765C64.5973 71.4178 64.9594 71.3016 65.3315 71.2303L65.7772 72.1751C65.4153 72.2519 65.0614 72.363 64.7204 72.5068C64.4004 72.6431 64.0966 72.8148 63.8146 73.0189C63.5354 73.1975 63.3075 73.4461 63.1533 73.74C63.106 73.8422 63.0876 73.9555 63.1003 74.0675C63.113 74.1794 63.1562 74.2857 63.2252 74.3747C63.3001 74.4882 63.4119 74.5722 63.5415 74.6127C63.6996 74.6518 63.8649 74.6518 64.0231 74.6127C64.2881 74.54 64.5476 74.4484 64.7995 74.3386C65.2196 74.1564 65.6583 74.0209 66.1079 73.9348C66.4238 73.8713 66.7508 73.8912 67.0568 73.9924C67.3301 74.0951 67.5657 74.2787 67.7325 74.5189C67.8852 74.7109 67.9865 74.9389 68.0268 75.1813C68.067 75.4236 68.0449 75.6722 67.9626 75.9036C67.7114 76.4938 67.291 76.9958 66.7548 77.3459C66.4444 77.5734 66.1121 77.7691 65.7628 77.9301C65.4267 78.0917 65.0716 78.2104 64.706 78.2834L64.2747 77.3459C64.6089 77.2798 64.9345 77.1757 65.2452 77.0358C65.552 76.8986 65.8435 76.7294 66.115 76.531C66.3773 76.3603 66.5964 76.1307 66.7548 75.8603C66.8018 75.7692 66.822 75.6666 66.8131 75.5645C66.8042 75.4623 66.7666 75.3648 66.7045 75.2833C66.6286 75.1832 66.5228 75.1099 66.4026 75.0742C66.2463 75.0394 66.0844 75.0394 65.9281 75.0742C65.6817 75.1404 65.4412 75.2272 65.2093 75.3338C64.8755 75.4825 64.529 75.6008 64.1741 75.6872C63.9041 75.7556 63.6256 75.7847 63.3474 75.7738C63.1216 75.7543 62.9017 75.6906 62.7004 75.5862C62.5055 75.4708 62.3367 75.3161 62.2044 75.1319C62.0448 74.9321 61.9397 74.6941 61.8994 74.4412C61.859 74.1884 61.8849 73.9294 61.9743 73.6896C62.2154 73.0737 62.6428 72.5491 63.1964 72.1895Z" fill="white"/>
<path d="M57.3664 75.6872C57.8461 75.3868 58.421 75.2787 58.9767 75.3843C59.2278 75.4859 59.4559 75.6372 59.6474 75.8293C59.8388 76.0214 59.9897 76.2502 60.0909 76.5021L61.4855 79.2859L62.7076 78.6657L63.1749 79.596L61.9528 80.2162L62.837 81.9614L61.7156 82.5312L60.8529 80.7787L58.9838 81.7235L58.5238 80.8004L60.3928 79.8556L59.0701 77.2233C58.9625 76.9544 58.7531 76.7392 58.4878 76.6247C58.2008 76.5669 57.9025 76.6211 57.6539 76.7762C57.5232 76.8454 57.3982 76.9249 57.2801 77.0142C57.1572 77.1056 57.0439 77.2096 56.9422 77.3243L56.3384 76.4589C56.4928 76.3025 56.6586 76.1579 56.8344 76.0262C57.002 75.8985 57.18 75.7852 57.3664 75.6872Z" fill="white"/>
<path d="M54.2969 77.0863L56.2378 82.762L55.0445 83.173L53.1035 77.4974L54.2969 77.0863ZM55.9215 83.8004C56.0235 83.7556 56.1336 83.7324 56.245 83.7324C56.3564 83.7324 56.4665 83.7556 56.5685 83.8004C56.7649 83.9059 56.9121 84.0846 56.9783 84.2981C57.0214 84.4008 57.0436 84.5111 57.0436 84.6226C57.0436 84.734 57.0214 84.8444 56.9783 84.9471C56.9272 85.0454 56.8569 85.1324 56.7717 85.203C56.6865 85.2737 56.5881 85.3264 56.4822 85.3582C56.3811 85.4016 56.2723 85.424 56.1623 85.424C56.0524 85.424 55.9435 85.4016 55.8424 85.3582C55.7426 85.3094 55.6544 85.2398 55.5838 85.154C55.5131 85.0681 55.4616 84.9681 55.4327 84.8606C55.3877 84.7596 55.3644 84.6503 55.3644 84.5397C55.3644 84.4291 55.3877 84.3197 55.4327 84.2187C55.4808 84.1188 55.5491 84.0301 55.6333 83.958C55.7174 83.886 55.8156 83.8324 55.9215 83.8004Z" fill="white"/>
<path d="M50.9467 78.3628L51.7447 84.3053L50.5945 84.4639L50.4723 83.6634C50.321 83.977 50.0936 84.2473 49.8109 84.4495C49.5135 84.6496 49.1739 84.7779 48.8188 84.8245C48.4632 84.8793 48.0994 84.8421 47.7621 84.7163C47.4612 84.6091 47.207 84.4 47.0432 84.125C46.8977 84.4485 46.6633 84.7236 46.3675 84.9183C46.0363 85.1192 45.6662 85.2471 45.282 85.2933C45.0248 85.3534 44.7572 85.3514 44.501 85.2874C44.2448 85.2235 44.0074 85.0994 43.8083 84.9255C43.4051 84.4138 43.1714 83.7885 43.1397 83.137L42.6509 79.4734L43.8586 79.3147L44.3259 82.798C44.3486 83.212 44.48 83.6126 44.7069 83.9591C44.809 84.068 44.9375 84.1485 45.0799 84.1927C45.2222 84.237 45.3736 84.2434 45.5192 84.2115C45.7148 84.1966 45.9035 84.1326 46.068 84.0255C46.2325 83.9184 46.3676 83.7716 46.4609 83.5985C46.6678 83.1632 46.7284 82.6722 46.6335 82.1994L46.2021 78.9974L47.4098 78.8316L47.9202 82.6033C47.9406 82.9401 48.0779 83.2591 48.3084 83.5048C48.4098 83.6006 48.5324 83.6709 48.6661 83.7098C48.7999 83.7487 48.9409 83.755 49.0776 83.7283C49.2688 83.7048 49.4513 83.6347 49.6092 83.5241C49.7671 83.4134 49.8956 83.2657 49.9834 83.0937C50.2024 82.6702 50.2757 82.1859 50.1919 81.7163L49.7606 78.5142L50.9467 78.3628Z" fill="white"/>
<path d="M39.4661 79.0334C39.9836 79.0552 40.4718 79.2807 40.8248 79.6609C40.9813 79.8508 41.0967 80.0714 41.1635 80.3086C41.2304 80.5457 41.2472 80.7943 41.213 81.0383C41.1944 81.3568 41.0947 81.6652 40.9236 81.9341C40.7524 82.203 40.5155 82.4234 40.2353 82.5744C39.4867 82.9256 38.6504 83.0437 37.8343 82.9134L36.9716 82.834C36.9407 82.9987 36.9465 83.1682 36.9888 83.3304C37.0311 83.4925 37.1087 83.6432 37.216 83.7716C37.5289 84.0083 37.9097 84.1373 38.3016 84.1394C38.669 84.1871 39.0411 84.1871 39.4086 84.1394C39.7915 84.0745 40.1639 83.958 40.5157 83.7932L40.5732 84.8605C40.1912 85.019 39.7899 85.1257 39.3799 85.1778C38.9402 85.2251 38.4968 85.2251 38.0571 85.1778C37.5592 85.1411 37.0721 85.0141 36.6194 84.8028C36.2865 84.6276 36.0303 84.3346 35.9005 83.9807C35.7581 83.5364 35.7164 83.0658 35.7783 82.6033L36.1377 78.8459L37.3167 78.9541L37.2592 79.6753C37.5348 79.4343 37.8658 79.2658 38.2225 79.1849C38.6252 79.0629 39.046 79.0117 39.4661 79.0334ZM38.9342 80.007C38.6437 79.977 38.3503 80.0064 38.0715 80.0936C37.8258 80.1722 37.6034 80.311 37.4245 80.4974C37.2586 80.6636 37.1568 80.8833 37.137 81.1176L37.0651 81.8893L37.784 81.9542C38.3229 82.0406 38.8745 81.9986 39.3942 81.8316C39.561 81.775 39.7074 81.6702 39.8148 81.5303C39.9223 81.3904 39.9861 81.2217 39.9981 81.0455C40.0193 80.9162 40.0103 80.7837 39.9716 80.6585C39.9329 80.5334 39.8657 80.4189 39.7752 80.3244C39.5423 80.1201 39.2435 80.0073 38.9342 80.007Z" fill="white"/>
<path d="M31.8823 77.6632C32.4396 77.7601 32.9401 78.0639 33.2841 78.5142C33.403 78.7585 33.4712 79.0243 33.4848 79.2958C33.4984 79.5672 33.457 79.8386 33.3632 80.0936L32.5652 83.1009L33.8808 83.4615L33.6148 84.4639L32.2921 84.1033L31.7889 86L30.574 85.6755L31.0844 83.7788L29.0571 83.2379L29.3303 82.2355L31.3503 82.7763L32.1124 79.9349C32.1685 79.8027 32.1975 79.6604 32.1975 79.5167C32.1975 79.3729 32.1685 79.2306 32.1124 79.0984C31.9383 78.8642 31.6807 78.7066 31.3935 78.6585C31.25 78.6187 31.1032 78.5922 30.955 78.5791C30.8018 78.5685 30.6481 78.5685 30.4949 78.5791L30.6171 77.5334C30.8372 77.5152 31.0584 77.5152 31.2785 77.5334C31.4831 77.5589 31.6852 77.6024 31.8823 77.6632Z" fill="white"/>
<path d="M26.7423 75.6872C27.1341 75.8368 27.4919 76.0639 27.7945 76.3551C28.0971 76.6462 28.3382 76.9954 28.5035 77.3819C28.6313 77.7828 28.6768 78.2054 28.6372 78.6243C28.5977 79.0433 28.4739 79.4498 28.2735 79.8195C27.9706 80.5979 27.3739 81.225 26.6129 81.5647C26.2449 81.7056 25.851 81.7657 25.4579 81.7408C25.0647 81.7159 24.6815 81.6067 24.334 81.4205C23.9849 81.2861 23.6691 81.0771 23.4085 80.8082C23.1478 80.5392 22.9485 80.2166 22.8244 79.8628C22.6284 79.0791 22.7336 78.25 23.1191 77.5406C23.161 77.4368 23.209 77.3357 23.2629 77.2377C23.3033 77.1509 23.3489 77.0666 23.3995 76.9853L27.8637 79.0551L27.454 79.9493L23.8596 78.269L24.1615 78.0815C23.9097 78.5355 23.8185 79.0616 23.9027 79.5743C23.9679 79.7846 24.0801 79.9771 24.2309 80.1371C24.3817 80.2971 24.567 80.4204 24.7726 80.4974C24.9773 80.6125 25.2056 80.6789 25.4399 80.6914C25.6743 80.7039 25.9083 80.6622 26.1241 80.5695C26.589 80.316 26.9484 79.9042 27.1377 79.4084L27.2814 79.0983C27.4008 78.8799 27.4744 78.6393 27.4979 78.3913C27.5214 78.1433 27.4942 77.8931 27.418 77.656C27.1881 77.19 26.7856 76.8328 26.2966 76.6608C25.9724 76.5086 25.6289 76.4019 25.2758 76.3434C24.9418 76.2793 24.6003 76.2647 24.2622 76.3002L24.4778 75.2977C24.8425 75.2585 25.211 75.2756 25.5705 75.3482C25.9746 75.4077 26.3687 75.5217 26.7423 75.6872Z" fill="white"/>
<path d="M19.158 70.8192C19.5591 71.1397 19.8176 71.6064 19.8769 72.1174C19.8967 72.3636 19.864 72.6112 19.781 72.8438C19.6979 73.0763 19.5664 73.2884 19.3952 73.466C19.1955 73.7148 18.9349 73.9075 18.6388 74.025C18.3427 74.1426 18.0212 74.181 17.7059 74.1367C16.8913 73.9857 16.1403 73.5939 15.5492 73.0116L14.9022 72.4419C14.7778 72.5544 14.6811 72.6944 14.62 72.8509C14.5588 73.0074 14.5349 73.176 14.55 73.3434C14.6674 73.7194 14.9017 74.048 15.2185 74.2809C15.4967 74.5274 15.8061 74.7359 16.1387 74.9011C16.4832 75.0762 16.8513 75.2001 17.2314 75.2689L16.6563 76.1704C16.2551 76.0757 15.8683 75.9277 15.5061 75.7305C15.1171 75.5168 14.7531 75.2604 14.4206 74.966C14.0301 74.6474 13.7053 74.2555 13.4645 73.8121C13.2865 73.4756 13.2428 73.0836 13.3423 72.7159C13.4887 72.2697 13.7346 71.8627 14.0612 71.526L16.5413 68.6846L17.4327 69.4634L16.987 69.9971C17.3522 69.9625 17.7203 70.0195 18.0581 70.163C18.4626 70.3104 18.8358 70.533 19.158 70.8192ZM18.1588 71.2952C17.9529 71.1009 17.7077 70.9533 17.4399 70.8625C17.1939 70.7836 16.9329 70.7638 16.6779 70.8048C16.4492 70.8486 16.2416 70.9679 16.0884 71.1438L15.578 71.7279L16.0956 72.1823C16.463 72.5688 16.9127 72.8671 17.4111 73.0549C17.5799 73.1075 17.7605 73.1081 17.9297 73.0566C18.0988 73.0052 18.2487 72.9041 18.36 72.7664C18.4532 72.6735 18.5227 72.5595 18.5627 72.434C18.6028 72.3085 18.6122 72.1752 18.5901 72.0452C18.5308 71.7464 18.3646 71.4796 18.1228 71.2952H18.1588Z" fill="white"/>
<path d="M15.2547 67.3577L10.5317 71.0429L9.81281 70.1053L10.4382 69.6005C10.0515 69.5881 9.67281 69.487 9.33117 69.3048C8.98127 69.1071 8.67545 68.8396 8.43257 68.5187C8.23032 68.2983 8.08212 68.0336 7.99975 67.7457C7.91738 67.4577 7.90313 67.1545 7.95811 66.86C8.19261 66.1896 8.63953 65.6146 9.23053 65.223L11.9551 63.0594L12.7171 64.0475L10.1794 66.0307C9.77677 66.2977 9.45969 66.6759 9.26647 67.1197C9.20952 67.2898 9.19814 67.472 9.23347 67.6479C9.26879 67.8238 9.34958 67.9873 9.46775 68.1221C9.65289 68.3639 9.90196 68.5488 10.1866 68.6558C10.4657 68.7633 10.7669 68.8005 11.0637 68.7639C11.3636 68.7226 11.6469 68.6005 11.8832 68.4106L14.5215 66.3624L15.2547 67.3577Z" fill="white"/>
<path d="M9.51074 59.0281L0.575104 58.9849L0 57.3622L6.87247 51.6433L7.33973 52.9559L1.30117 57.8021L9.03628 57.694L9.51074 59.0281ZM6.99467 58.2421L5.90917 58.6315L4.34202 54.2323L5.42752 53.8429L6.99467 58.2421Z" fill="white"/>
<path d="M0.251825 47.8643C0.192852 47.5127 0.215351 47.1523 0.317575 46.8108C0.419798 46.4694 0.599002 46.1562 0.841304 45.8954C1.42658 45.3341 2.18999 44.9971 2.99793 44.9435C3.80277 44.7911 4.6354 44.929 5.34867 45.3329C5.64788 45.526 5.89839 45.786 6.08051 46.0926C6.26262 46.3992 6.37138 46.7439 6.39822 47.0998C6.44886 47.4763 6.42195 47.8592 6.31915 48.2248C6.22314 48.5603 6.05089 48.8689 5.81594 49.1263L8.92148 48.7369L9.09401 49.9773L0.762233 51.0158L0.618454 49.8331L1.33733 49.7321C1.03784 49.5384 0.790854 49.2733 0.618454 48.9604C0.426883 48.6222 0.302383 48.25 0.251825 47.8643ZM1.31577 48.0229C1.34691 48.3178 1.45066 48.6004 1.61769 48.845C1.76795 49.0738 1.97644 49.258 2.22155 49.3787C2.47041 49.4952 2.74731 49.5377 3.01951 49.5013L4.13376 49.3571C4.39736 49.3224 4.6462 49.215 4.85264 49.047C5.06389 48.8725 5.22309 48.6429 5.31272 48.3835C5.41362 48.1044 5.44568 47.8051 5.40618 47.5109C5.3857 47.2791 5.30963 47.0557 5.18445 46.8598C5.05927 46.6639 4.8887 46.5013 4.6873 46.3858C4.20269 46.1355 3.64872 46.0543 3.11296 46.1551C2.58025 46.1925 2.0748 46.4055 1.6752 46.7609C1.52005 46.9277 1.40658 47.1291 1.34409 47.3485C1.28161 47.5679 1.2719 47.799 1.31577 48.0229Z" fill="white"/>
<path d="M0.172716 39.3256C0.181581 38.9694 0.2733 38.6203 0.44055 38.306C0.607801 37.9917 0.845956 37.721 1.13601 37.5154C1.82967 37.0791 2.65383 36.9005 3.46517 37.0106C4.28304 37.0264 5.06935 37.3302 5.68651 37.8688C5.94133 38.1175 6.13502 38.4222 6.2523 38.7589C6.36957 39.0956 6.40721 39.455 6.36225 39.8088C6.33876 40.189 6.2359 40.56 6.06032 40.8977C5.90103 41.2083 5.66918 41.4755 5.38457 41.6766L8.5045 41.9218L8.41105 43.1622L0.0361328 42.5132L0.129585 41.3232L0.848462 41.3737C0.594079 41.1266 0.406133 40.819 0.302114 40.4794C0.181465 40.1076 0.137441 39.715 0.172716 39.3256ZM1.17914 39.6934C1.15418 39.988 1.1985 40.2844 1.30854 40.5588C1.41024 40.8134 1.57926 41.0353 1.79738 41.2006C2.01553 41.3676 2.27832 41.4655 2.5522 41.4819L3.67365 41.5684C3.94679 41.5899 4.22053 41.535 4.46441 41.4098C4.70273 41.2778 4.90324 41.0866 5.04671 40.8545C5.19994 40.6011 5.28881 40.3138 5.3055 40.0179C5.33604 39.7893 5.3115 39.5568 5.23395 39.3397C5.1564 39.1226 5.0281 38.9273 4.8598 38.7703C4.43468 38.4341 3.91283 38.2444 3.37172 38.2294C2.83263 38.1538 2.2838 38.2604 1.81176 38.5323C1.62294 38.6619 1.46768 38.8349 1.3589 39.0368C1.25012 39.2388 1.19096 39.4639 1.18633 39.6934H1.17914Z" fill="white"/>
</g>
<defs>
<clipPath id="clip0_790_687303">
<rect width="85" height="86" fill="white"/>
</clipPath>
</defs>
</svg>
