<svg width="130" height="190" viewBox="0 0 130 190" fill="none" xmlns="http://www.w3.org/2000/svg">
  <path d="M64.5012 168.466L0.527344 131.736V58.2643" stroke="#FEC506" stroke-linejoin="round"/>
  <path d="M128.475 58.2642L64.5012 21.5233L0.527344 58.2642" stroke="#FEC506" stroke-linejoin="round"/>
  <path d="M128.475 58.2642L64.5012 21.5233L0.527344 58.2642V131.736L64.5012 168.466L128.475 131.736V58.2642Z" stroke="#FEC506" stroke-linejoin="round"/>
  <path d="M64.5012 21.5233V94.9947L0.527344 131.736V58.2642L64.5012 21.5233Z" stroke="#FEC506" stroke-linejoin="round"/>
  <path d="M64.5012 94.9948L128.475 131.736L64.5012 168.466L0.527344 131.736L64.5012 94.9948Z" stroke="#FEC506" stroke-linecap="round" stroke-linejoin="round"/>
  <path d="M25.8198 92.2507C24.7524 92.8916 23.5368 93.2425 22.293 93.2688C21.2719 93.2721 20.281 92.9219 19.4875 92.2775C18.6427 91.568 18.0055 90.642 17.644 89.5982C17.1901 88.2527 16.9731 86.8384 17.0027 85.4184C17.0072 83.772 17.2227 82.1332 17.644 80.542C18.0668 78.9014 18.6858 77.318 19.4875 75.8263C20.2286 74.3523 21.173 72.9903 22.293 71.7805C23.2934 70.6338 24.4873 69.6724 25.8198 68.9404C26.8873 68.2995 28.1028 67.9486 29.3467 67.9222C30.3245 67.9345 31.2682 68.2846 32.0185 68.9136C32.8497 69.63 33.4766 70.5545 33.8354 71.593C34.3145 72.9234 34.5411 74.3319 34.5033 75.7459C34.503 77.3943 34.2783 79.0349 33.8354 80.6223C33.4098 82.2582 32.8003 83.8402 32.0185 85.338C31.2976 86.7919 30.4002 88.1508 29.3467 89.3838C28.3428 90.5342 27.1499 91.5038 25.8198 92.2507ZM25.8198 87.4279C26.825 86.8849 27.6651 86.0795 28.2512 85.0968C28.9046 84.0859 29.3833 82.9718 29.6673 81.8013C29.9595 80.6358 30.1119 79.4395 30.1215 78.2377C30.1455 77.1638 29.9828 76.0939 29.6405 75.0761C29.5274 74.7077 29.3412 74.3659 29.0933 74.0713C28.8454 73.7767 28.5408 73.5352 28.1977 73.3613C27.7997 73.2329 27.3773 73.2 26.9643 73.2651C26.5513 73.3303 26.1593 73.4917 25.8198 73.7364C25.0726 74.1414 24.4103 74.6873 23.8693 75.344C23.3213 76.0474 22.8718 76.8227 22.5334 77.6483C22.1813 78.5136 21.913 79.4108 21.7319 80.3276C21.5748 81.2121 21.4943 82.1086 21.4914 83.007C21.474 84.0433 21.6274 85.0753 21.9456 86.0614C22.1716 86.8272 22.6902 87.4724 23.3884 87.8566C23.7982 87.9865 24.2332 88.0153 24.6564 87.9407C25.0797 87.8661 25.4788 87.6901 25.8198 87.4279Z" fill="#FEC506"/>
  <path d="M39.9013 84.1323V66.4486L36.8555 68.1098L38.1379 62.5904L44.7107 59V81.5065L39.9013 84.1323Z" fill="#FEC506"/>
</svg>