<svg width="130" height="190" viewBox="835 87 130 190" fill="none" xmlns="http://www.w3.org/2000/svg">
  <path d="M899.501 254.466L835.527 217.736V144.264" stroke="#FEC506" stroke-linejoin="round"/>
  <path d="M963.475 144.264L899.501 107.523L835.527 144.264" stroke="#FEC506" stroke-linejoin="round"/>
  <path d="M963.475 144.264L899.501 107.523L835.527 144.264V217.736L899.501 254.466L963.475 217.736V144.264Z" stroke="#FEC506" stroke-linejoin="round"/>
  <path d="M899.501 107.523V180.995L835.527 217.736V144.264L899.501 107.523Z" stroke="#FEC506" stroke-linejoin="round"/>
  <path d="M899.501 180.995L963.475 217.736L899.501 254.466L835.527 217.736L899.501 180.995Z" stroke="#FEC506" stroke-linecap="round" stroke-linejoin="round"/>
  <path d="M858.029 179.739C856.954 180.384 855.729 180.735 854.476 180.757C853.5 180.732 852.561 180.384 851.804 179.766C850.959 179.056 850.322 178.13 849.96 177.086C849.507 175.741 849.289 174.327 849.319 172.907C849.324 171.26 849.539 169.621 849.96 168.03C850.383 166.39 851.002 164.806 851.804 163.315C852.512 161.853 853.411 160.493 854.476 159.269C855.49 158.126 856.692 157.165 858.029 156.429C859.097 155.788 860.312 155.437 861.556 155.411C862.534 155.423 863.478 155.773 864.228 156.402C865.059 157.118 865.686 158.043 866.045 159.081C866.511 160.415 866.737 161.821 866.713 163.234C866.699 164.882 866.475 166.52 866.045 168.111C865.624 169.748 865.014 171.33 864.228 172.826C863.507 174.28 862.61 175.639 861.556 176.872C860.552 178.022 859.359 178.992 858.029 179.739ZM858.029 174.916C859.022 174.368 859.859 173.575 860.461 172.612C861.11 171.589 861.589 170.467 861.877 169.29C862.169 168.124 862.321 166.928 862.331 165.726C862.355 164.652 862.192 163.582 861.85 162.564C861.737 162.196 861.551 161.854 861.303 161.56C861.055 161.265 860.75 161.023 860.407 160.85C860.009 160.721 859.587 160.688 859.174 160.753C858.761 160.819 858.369 160.98 858.029 161.225C857.275 161.631 856.612 162.187 856.079 162.859C855.526 163.549 855.075 164.316 854.743 165.137C854.388 166.001 854.12 166.899 853.941 167.816C853.782 168.7 853.701 169.597 853.701 170.495C853.683 171.532 853.837 172.564 854.155 173.55C854.381 174.315 854.9 174.961 855.598 175.345C856.012 175.467 856.449 175.487 856.873 175.404C857.296 175.32 857.693 175.134 858.029 174.863V174.916Z" fill="#FEC506"/>
  <path d="M878.657 168.057V163.073L869.172 168.271V163.449L877.561 146.14L883.466 142.925V155.625L885.096 154.741V159.564L883.466 160.448V165.431L878.657 168.057ZM874.703 160.421L878.657 158.251V152.061L874.703 160.421Z" fill="#FEC506"/>
</svg>