<svg width="1115" height="295" viewBox="0 0 1115 295" fill="none" xmlns="http://www.w3.org/2000/svg">
<path d="M64.5012 168.466L0.527344 131.736V58.2643" stroke="#FEC506" stroke-linejoin="round"/>
<path d="M128.475 58.2642L64.5012 21.5233L0.527344 58.2642" stroke="#FEC506" stroke-linejoin="round"/>
<path d="M128.475 58.2642L64.5012 21.5233L0.527344 58.2642V131.736L64.5012 168.466L128.475 131.736V58.2642Z" stroke="#FEC506" stroke-linejoin="round"/>
<path d="M64.5012 21.5233V94.9947L0.527344 131.736V58.2642L64.5012 21.5233Z" stroke="#FEC506" stroke-linejoin="round"/>
<path d="M64.5012 94.9948L128.475 131.736L64.5012 168.466L0.527344 131.736L64.5012 94.9948Z" stroke="#FEC506" stroke-linecap="round" stroke-linejoin="round"/>
<path d="M69.536 127.31V140H66.008V127.31H69.536ZM79.0511 129.812C80.2151 129.812 81.1391 130.202 81.8231 130.982C82.5071 131.75 82.8491 132.794 82.8491 134.114V140H79.3211V134.582C79.3211 134.006 79.1711 133.556 78.8711 133.232C78.5711 132.896 78.1691 132.728 77.6651 132.728C77.1371 132.728 76.7231 132.896 76.4231 133.232C76.1231 133.556 75.9731 134.006 75.9731 134.582V140H72.4451V129.902H75.9731V131.342C76.2851 130.886 76.7051 130.52 77.2331 130.244C77.7611 129.956 78.3671 129.812 79.0511 129.812ZM87.467 128.966C86.843 128.966 86.339 128.798 85.955 128.462C85.583 128.114 85.397 127.682 85.397 127.166C85.397 126.638 85.583 126.2 85.955 125.852C86.339 125.504 86.843 125.33 87.467 125.33C88.079 125.33 88.571 125.504 88.943 125.852C89.327 126.2 89.519 126.638 89.519 127.166C89.519 127.682 89.327 128.114 88.943 128.462C88.571 128.798 88.079 128.966 87.467 128.966ZM89.213 129.902V140H85.685V129.902H89.213ZM98.0801 136.994V140H96.5501C93.9701 140 92.6801 138.722 92.6801 136.166V132.836H91.4381V129.902H92.6801V127.454H96.2261V129.902H98.0621V132.836H96.2261V136.22C96.2261 136.496 96.2861 136.694 96.4061 136.814C96.5381 136.934 96.7541 136.994 97.0541 136.994H98.0801ZM102.38 128.966C101.756 128.966 101.252 128.798 100.868 128.462C100.496 128.114 100.31 127.682 100.31 127.166C100.31 126.638 100.496 126.2 100.868 125.852C101.252 125.504 101.756 125.33 102.38 125.33C102.992 125.33 103.484 125.504 103.856 125.852C104.24 126.2 104.432 126.638 104.432 127.166C104.432 127.682 104.24 128.114 103.856 128.462C103.484 128.798 102.992 128.966 102.38 128.966ZM104.126 129.902V140H100.598V129.902H104.126ZM106.459 134.942C106.459 133.898 106.645 132.986 107.017 132.206C107.401 131.426 107.917 130.826 108.565 130.406C109.225 129.986 109.957 129.776 110.761 129.776C111.457 129.776 112.057 129.914 112.561 130.19C113.065 130.466 113.455 130.838 113.731 131.306V129.902H117.259V140H113.731V138.596C113.455 139.064 113.059 139.436 112.543 139.712C112.039 139.988 111.445 140.126 110.761 140.126C109.957 140.126 109.225 139.916 108.565 139.496C107.917 139.076 107.401 138.476 107.017 137.696C106.645 136.904 106.459 135.986 106.459 134.942ZM113.731 134.942C113.731 134.294 113.551 133.784 113.191 133.412C112.843 133.04 112.411 132.854 111.895 132.854C111.367 132.854 110.929 133.04 110.581 133.412C110.233 133.772 110.059 134.282 110.059 134.942C110.059 135.59 110.233 136.106 110.581 136.49C110.929 136.862 111.367 137.048 111.895 137.048C112.411 137.048 112.843 136.862 113.191 136.49C113.551 136.118 113.731 135.602 113.731 134.942ZM123.698 126.68V140H120.17V126.68H123.698ZM134.48 127.31V140H130.952V127.31H134.48ZM143.995 129.812C145.159 129.812 146.083 130.202 146.767 130.982C147.451 131.75 147.793 132.794 147.793 134.114V140H144.265V134.582C144.265 134.006 144.115 133.556 143.815 133.232C143.515 132.896 143.113 132.728 142.609 132.728C142.081 132.728 141.667 132.896 141.367 133.232C141.067 133.556 140.917 134.006 140.917 134.582V140H137.389V129.902H140.917V131.342C141.229 130.886 141.649 130.52 142.177 130.244C142.705 129.956 143.311 129.812 143.995 129.812ZM156.587 136.994V140H155.057C152.477 140 151.187 138.722 151.187 136.166V132.836H149.945V129.902H151.187V127.454H154.733V129.902H156.569V132.836H154.733V136.22C154.733 136.496 154.793 136.694 154.913 136.814C155.045 136.934 155.261 136.994 155.561 136.994H156.587ZM168.753 134.834C168.753 135.11 168.735 135.386 168.699 135.662H162.021C162.057 136.214 162.207 136.628 162.471 136.904C162.747 137.168 163.095 137.3 163.515 137.3C164.103 137.3 164.523 137.036 164.775 136.508H168.537C168.381 137.204 168.075 137.828 167.619 138.38C167.175 138.92 166.611 139.346 165.927 139.658C165.243 139.97 164.487 140.126 163.659 140.126C162.663 140.126 161.775 139.916 160.995 139.496C160.227 139.076 159.621 138.476 159.177 137.696C158.745 136.916 158.529 135.998 158.529 134.942C158.529 133.886 158.745 132.974 159.177 132.206C159.609 131.426 160.209 130.826 160.977 130.406C161.757 129.986 162.651 129.776 163.659 129.776C164.655 129.776 165.537 129.98 166.305 130.388C167.073 130.796 167.673 131.384 168.105 132.152C168.537 132.908 168.753 133.802 168.753 134.834ZM165.153 133.952C165.153 133.52 165.009 133.184 164.721 132.944C164.433 132.692 164.073 132.566 163.641 132.566C163.209 132.566 162.855 132.686 162.579 132.926C162.303 133.154 162.123 133.496 162.039 133.952H165.153ZM174.625 131.684C175.021 131.108 175.501 130.652 176.065 130.316C176.629 129.98 177.235 129.812 177.883 129.812V133.574H176.893C176.125 133.574 175.555 133.724 175.183 134.024C174.811 134.324 174.625 134.846 174.625 135.59V140H171.097V129.902H174.625V131.684ZM184.89 136.67L186.78 129.902H190.542L187.068 140H182.676L179.202 129.902H182.964L184.89 136.67ZM194.419 128.966C193.795 128.966 193.291 128.798 192.907 128.462C192.535 128.114 192.349 127.682 192.349 127.166C192.349 126.638 192.535 126.2 192.907 125.852C193.291 125.504 193.795 125.33 194.419 125.33C195.031 125.33 195.523 125.504 195.895 125.852C196.279 126.2 196.471 126.638 196.471 127.166C196.471 127.682 196.279 128.114 195.895 128.462C195.523 128.798 195.031 128.966 194.419 128.966ZM196.165 129.902V140H192.637V129.902H196.165ZM208.722 134.834C208.722 135.11 208.704 135.386 208.668 135.662H201.99C202.026 136.214 202.176 136.628 202.44 136.904C202.716 137.168 203.064 137.3 203.484 137.3C204.072 137.3 204.492 137.036 204.744 136.508H208.506C208.35 137.204 208.044 137.828 207.588 138.38C207.144 138.92 206.58 139.346 205.896 139.658C205.212 139.97 204.456 140.126 203.628 140.126C202.632 140.126 201.744 139.916 200.964 139.496C200.196 139.076 199.59 138.476 199.146 137.696C198.714 136.916 198.498 135.998 198.498 134.942C198.498 133.886 198.714 132.974 199.146 132.206C199.578 131.426 200.178 130.826 200.946 130.406C201.726 129.986 202.62 129.776 203.628 129.776C204.624 129.776 205.506 129.98 206.274 130.388C207.042 130.796 207.642 131.384 208.074 132.152C208.506 132.908 208.722 133.802 208.722 134.834ZM205.122 133.952C205.122 133.52 204.978 133.184 204.69 132.944C204.402 132.692 204.042 132.566 203.61 132.566C203.178 132.566 202.824 132.686 202.548 132.926C202.272 133.154 202.092 133.496 202.008 133.952H205.122ZM225.988 129.902L223.414 140H219.454L218.05 133.88L216.592 140H212.65L210.094 129.902H213.604L214.738 136.598L216.232 129.902H220.012L221.56 136.616L222.676 129.902H225.988ZM75.674 167L74.648 166.028C73.508 166.808 72.146 167.198 70.562 167.198C69.566 167.198 68.696 167.036 67.952 166.712C67.22 166.388 66.65 165.932 66.242 165.344C65.846 164.756 65.648 164.078 65.648 163.31C65.648 162.542 65.846 161.846 66.242 161.222C66.65 160.586 67.256 160.07 68.06 159.674C67.76 159.29 67.544 158.924 67.412 158.576C67.28 158.228 67.214 157.856 67.214 157.46C67.214 156.836 67.376 156.266 67.7 155.75C68.024 155.234 68.498 154.826 69.122 154.526C69.758 154.214 70.508 154.058 71.372 154.058C72.248 154.058 72.992 154.22 73.604 154.544C74.216 154.856 74.672 155.276 74.972 155.804C75.284 156.32 75.434 156.884 75.422 157.496H72.164C72.164 157.22 72.086 157.01 71.93 156.866C71.774 156.722 71.582 156.65 71.354 156.65C71.114 156.65 70.91 156.722 70.742 156.866C70.586 156.998 70.508 157.184 70.508 157.424C70.508 157.844 70.808 158.354 71.408 158.954L74.378 161.852C74.486 161.636 74.6 161.378 74.72 161.078L75.08 160.43H78.572L78.05 161.438C77.618 162.47 77.144 163.34 76.628 164.048L79.652 167H75.674ZM70.796 164.372C71.432 164.372 71.996 164.234 72.488 163.958L69.986 161.564C69.674 161.756 69.44 161.978 69.284 162.23C69.128 162.482 69.05 162.74 69.05 163.004C69.05 163.388 69.206 163.712 69.518 163.976C69.83 164.24 70.256 164.372 70.796 164.372ZM89.4415 157.136V159.206H93.4915V161.888H89.4415V164.174H94.0315V167H85.9135V154.31H94.0315V157.136H89.4415ZM103.281 156.812C104.445 156.812 105.369 157.202 106.053 157.982C106.737 158.75 107.079 159.794 107.079 161.114V167H103.551V161.582C103.551 161.006 103.401 160.556 103.101 160.232C102.801 159.896 102.399 159.728 101.895 159.728C101.367 159.728 100.953 159.896 100.653 160.232C100.353 160.556 100.203 161.006 100.203 161.582V167H96.6748V156.902H100.203V158.342C100.515 157.886 100.935 157.52 101.463 157.244C101.991 156.956 102.597 156.812 103.281 156.812ZM113.641 156.776C114.325 156.776 114.919 156.914 115.423 157.19C115.939 157.466 116.335 157.838 116.611 158.306V156.902H120.139V166.892C120.139 167.84 119.959 168.692 119.599 169.448C119.239 170.216 118.675 170.828 117.907 171.284C117.151 171.74 116.191 171.968 115.027 171.968C113.467 171.968 112.219 171.602 111.283 170.87C110.347 170.138 109.813 169.142 109.681 167.882H113.155C113.227 168.206 113.407 168.458 113.695 168.638C113.983 168.818 114.355 168.908 114.811 168.908C116.011 168.908 116.611 168.236 116.611 166.892V165.596C116.335 166.064 115.939 166.436 115.423 166.712C114.919 166.988 114.325 167.126 113.641 167.126C112.837 167.126 112.105 166.916 111.445 166.496C110.797 166.076 110.281 165.476 109.897 164.696C109.525 163.904 109.339 162.986 109.339 161.942C109.339 160.898 109.525 159.986 109.897 159.206C110.281 158.426 110.797 157.826 111.445 157.406C112.105 156.986 112.837 156.776 113.641 156.776ZM116.611 161.942C116.611 161.294 116.431 160.784 116.071 160.412C115.723 160.04 115.291 159.854 114.775 159.854C114.247 159.854 113.809 160.04 113.461 160.412C113.113 160.772 112.939 161.282 112.939 161.942C112.939 162.59 113.113 163.106 113.461 163.49C113.809 163.862 114.247 164.048 114.775 164.048C115.291 164.048 115.723 163.862 116.071 163.49C116.431 163.118 116.611 162.602 116.611 161.942ZM126.577 153.68V167H123.049V153.68H126.577ZM131.268 155.966C130.644 155.966 130.14 155.798 129.756 155.462C129.384 155.114 129.198 154.682 129.198 154.166C129.198 153.638 129.384 153.2 129.756 152.852C130.14 152.504 130.644 152.33 131.268 152.33C131.88 152.33 132.372 152.504 132.744 152.852C133.128 153.2 133.32 153.638 133.32 154.166C133.32 154.682 133.128 155.114 132.744 155.462C132.372 155.798 131.88 155.966 131.268 155.966ZM133.014 156.902V167H129.486V156.902H133.014ZM140.225 167.126C139.313 167.126 138.497 166.976 137.777 166.676C137.069 166.364 136.505 165.944 136.085 165.416C135.677 164.876 135.449 164.27 135.401 163.598H138.821C138.869 163.922 139.019 164.174 139.271 164.354C139.523 164.534 139.835 164.624 140.207 164.624C140.495 164.624 140.723 164.564 140.891 164.444C141.059 164.324 141.143 164.168 141.143 163.976C141.143 163.724 141.005 163.538 140.729 163.418C140.453 163.298 139.997 163.166 139.361 163.022C138.641 162.878 138.041 162.716 137.561 162.536C137.081 162.356 136.661 162.062 136.301 161.654C135.953 161.246 135.779 160.694 135.779 159.998C135.779 159.398 135.941 158.858 136.265 158.378C136.589 157.886 137.063 157.496 137.687 157.208C138.323 156.92 139.085 156.776 139.973 156.776C141.293 156.776 142.331 157.1 143.087 157.748C143.843 158.396 144.281 159.248 144.401 160.304H141.215C141.155 159.98 141.011 159.734 140.783 159.566C140.567 159.386 140.273 159.296 139.901 159.296C139.613 159.296 139.391 159.35 139.235 159.458C139.091 159.566 139.019 159.716 139.019 159.908C139.019 160.148 139.157 160.334 139.433 160.466C139.709 160.586 140.153 160.712 140.765 160.844C141.497 161 142.103 161.174 142.583 161.366C143.075 161.558 143.501 161.87 143.861 162.302C144.233 162.722 144.419 163.298 144.419 164.03C144.419 164.618 144.245 165.146 143.897 165.614C143.561 166.082 143.075 166.454 142.439 166.73C141.815 166.994 141.077 167.126 140.225 167.126ZM153.696 156.812C154.848 156.812 155.76 157.202 156.432 157.982C157.116 158.75 157.458 159.794 157.458 161.114V167H153.93V161.582C153.93 161.006 153.78 160.556 153.48 160.232C153.18 159.896 152.778 159.728 152.274 159.728C151.746 159.728 151.332 159.896 151.032 160.232C150.732 160.556 150.582 161.006 150.582 161.582V167H147.054V153.68H150.582V158.342C150.894 157.886 151.314 157.52 151.842 157.244C152.382 156.956 153 156.812 153.696 156.812ZM170.597 163.994V167H169.067C166.487 167 165.197 165.722 165.197 163.166V159.836H163.955V156.902H165.197V154.454H168.743V156.902H170.579V159.836H168.743V163.22C168.743 163.496 168.803 163.694 168.923 163.814C169.055 163.934 169.271 163.994 169.571 163.994H170.597ZM182.763 161.834C182.763 162.11 182.745 162.386 182.709 162.662H176.031C176.067 163.214 176.217 163.628 176.481 163.904C176.757 164.168 177.105 164.3 177.525 164.3C178.113 164.3 178.533 164.036 178.785 163.508H182.547C182.391 164.204 182.085 164.828 181.629 165.38C181.185 165.92 180.621 166.346 179.937 166.658C179.253 166.97 178.497 167.126 177.669 167.126C176.673 167.126 175.785 166.916 175.005 166.496C174.237 166.076 173.631 165.476 173.187 164.696C172.755 163.916 172.539 162.998 172.539 161.942C172.539 160.886 172.755 159.974 173.187 159.206C173.619 158.426 174.219 157.826 174.987 157.406C175.767 156.986 176.661 156.776 177.669 156.776C178.665 156.776 179.547 156.98 180.315 157.388C181.083 157.796 181.683 158.384 182.115 159.152C182.547 159.908 182.763 160.802 182.763 161.834ZM179.163 160.952C179.163 160.52 179.019 160.184 178.731 159.944C178.443 159.692 178.083 159.566 177.651 159.566C177.219 159.566 176.865 159.686 176.589 159.926C176.313 160.154 176.133 160.496 176.049 160.952H179.163ZM189.409 167.126C188.497 167.126 187.681 166.976 186.961 166.676C186.253 166.364 185.689 165.944 185.269 165.416C184.861 164.876 184.633 164.27 184.585 163.598H188.005C188.053 163.922 188.203 164.174 188.455 164.354C188.707 164.534 189.019 164.624 189.391 164.624C189.679 164.624 189.907 164.564 190.075 164.444C190.243 164.324 190.327 164.168 190.327 163.976C190.327 163.724 190.189 163.538 189.913 163.418C189.637 163.298 189.181 163.166 188.545 163.022C187.825 162.878 187.225 162.716 186.745 162.536C186.265 162.356 185.845 162.062 185.485 161.654C185.137 161.246 184.963 160.694 184.963 159.998C184.963 159.398 185.125 158.858 185.449 158.378C185.773 157.886 186.247 157.496 186.871 157.208C187.507 156.92 188.269 156.776 189.157 156.776C190.477 156.776 191.515 157.1 192.271 157.748C193.027 158.396 193.465 159.248 193.585 160.304H190.399C190.339 159.98 190.195 159.734 189.967 159.566C189.751 159.386 189.457 159.296 189.085 159.296C188.797 159.296 188.575 159.35 188.419 159.458C188.275 159.566 188.203 159.716 188.203 159.908C188.203 160.148 188.341 160.334 188.617 160.466C188.893 160.586 189.337 160.712 189.949 160.844C190.681 161 191.287 161.174 191.767 161.366C192.259 161.558 192.685 161.87 193.045 162.302C193.417 162.722 193.603 163.298 193.603 164.03C193.603 164.618 193.429 165.146 193.081 165.614C192.745 166.082 192.259 166.454 191.623 166.73C190.999 166.994 190.261 167.126 189.409 167.126ZM202.195 163.994V167H200.665C198.085 167 196.795 165.722 196.795 163.166V159.836H195.553V156.902H196.795V154.454H200.341V156.902H202.177V159.836H200.341V163.22C200.341 163.496 200.401 163.694 200.521 163.814C200.653 163.934 200.869 163.994 201.169 163.994H202.195Z" fill="white"/>
<path d="M25.8198 92.2507C24.7524 92.8916 23.5368 93.2425 22.293 93.2688C21.2719 93.2721 20.281 92.9219 19.4875 92.2775C18.6427 91.568 18.0055 90.642 17.644 89.5982C17.1901 88.2527 16.9731 86.8384 17.0027 85.4184C17.0072 83.772 17.2227 82.1332 17.644 80.542C18.0668 78.9014 18.6858 77.318 19.4875 75.8263C20.2286 74.3523 21.173 72.9903 22.293 71.7805C23.2934 70.6338 24.4873 69.6724 25.8198 68.9404C26.8873 68.2995 28.1028 67.9486 29.3467 67.9222C30.3245 67.9345 31.2682 68.2846 32.0185 68.9136C32.8497 69.63 33.4766 70.5545 33.8354 71.593C34.3145 72.9234 34.5411 74.3319 34.5033 75.7459C34.503 77.3943 34.2783 79.0349 33.8354 80.6223C33.4098 82.2582 32.8003 83.8402 32.0185 85.338C31.2976 86.7919 30.4002 88.1508 29.3467 89.3838C28.3428 90.5342 27.1499 91.5038 25.8198 92.2507ZM25.8198 87.4279C26.825 86.8849 27.6651 86.0795 28.2512 85.0968C28.9046 84.0859 29.3833 82.9718 29.6673 81.8013C29.9595 80.6358 30.1119 79.4395 30.1215 78.2377C30.1455 77.1638 29.9828 76.0939 29.6405 75.0761C29.5274 74.7077 29.3412 74.3659 29.0933 74.0713C28.8454 73.7767 28.5408 73.5352 28.1977 73.3613C27.7997 73.2329 27.3773 73.2 26.9643 73.2651C26.5513 73.3303 26.1593 73.4917 25.8198 73.7364C25.0726 74.1414 24.4103 74.6873 23.8693 75.344C23.3213 76.0474 22.8718 76.8227 22.5334 77.6483C22.1813 78.5136 21.913 79.4108 21.7319 80.3276C21.5748 81.2121 21.4943 82.1086 21.4914 83.007C21.474 84.0433 21.6274 85.0753 21.9456 86.0614C22.1716 86.8272 22.6902 87.4724 23.3884 87.8566C23.7982 87.9865 24.2332 88.0153 24.6564 87.9407C25.0797 87.8661 25.4788 87.6901 25.8198 87.4279Z" fill="#FEC506"/>
<path d="M39.9013 84.1323V66.4486L36.8555 68.1098L38.1379 62.5904L44.7107 59V81.5065L39.9013 84.1323Z" fill="#FEC506"/>
<path d="M358.501 254.466L294.527 217.736V144.264" stroke="#FEC506" stroke-linejoin="round"/>
<path d="M422.475 144.264L358.501 107.523L294.527 144.264" stroke="#FEC506" stroke-linejoin="round"/>
<path d="M422.475 144.264L358.501 107.523L294.527 144.264V217.736L358.501 254.466L422.475 217.736V144.264Z" stroke="#FEC506" stroke-linejoin="round"/>
<path d="M358.501 107.523V180.995L294.527 217.736V144.264L358.501 107.523Z" stroke="#FEC506" stroke-linejoin="round"/>
<path d="M358.501 180.995L422.475 217.736L358.501 254.466L294.527 217.736L358.501 180.995Z" stroke="#FEC506" stroke-linecap="round" stroke-linejoin="round"/>
<path d="M369.566 213.31V216.118H366.182V226H362.654V216.118H359.306V213.31H369.566ZM381.419 220.834C381.419 221.11 381.401 221.386 381.365 221.662H374.687C374.723 222.214 374.873 222.628 375.137 222.904C375.413 223.168 375.761 223.3 376.181 223.3C376.769 223.3 377.189 223.036 377.441 222.508H381.203C381.047 223.204 380.741 223.828 380.285 224.38C379.841 224.92 379.277 225.346 378.593 225.658C377.909 225.97 377.153 226.126 376.325 226.126C375.329 226.126 374.441 225.916 373.661 225.496C372.893 225.076 372.287 224.476 371.843 223.696C371.411 222.916 371.195 221.998 371.195 220.942C371.195 219.886 371.411 218.974 371.843 218.206C372.275 217.426 372.875 216.826 373.643 216.406C374.423 215.986 375.317 215.776 376.325 215.776C377.321 215.776 378.203 215.98 378.971 216.388C379.739 216.796 380.339 217.384 380.771 218.152C381.203 218.908 381.419 219.802 381.419 220.834ZM377.819 219.952C377.819 219.52 377.675 219.184 377.387 218.944C377.099 218.692 376.739 218.566 376.307 218.566C375.875 218.566 375.521 218.686 375.245 218.926C374.969 219.154 374.789 219.496 374.705 219.952H377.819ZM383.187 220.942C383.187 219.898 383.403 218.986 383.835 218.206C384.267 217.426 384.867 216.826 385.635 216.406C386.415 215.986 387.303 215.776 388.299 215.776C389.583 215.776 390.663 216.13 391.539 216.838C392.415 217.534 392.979 218.512 393.231 219.772H389.487C389.271 219.112 388.851 218.782 388.227 218.782C387.783 218.782 387.429 218.968 387.165 219.34C386.913 219.7 386.787 220.234 386.787 220.942C386.787 221.65 386.913 222.19 387.165 222.562C387.429 222.934 387.783 223.12 388.227 223.12C388.863 223.12 389.283 222.79 389.487 222.13H393.231C392.979 223.378 392.415 224.356 391.539 225.064C390.663 225.772 389.583 226.126 388.299 226.126C387.303 226.126 386.415 225.916 385.635 225.496C384.867 225.076 384.267 224.476 383.835 223.696C383.403 222.916 383.187 221.998 383.187 220.942ZM402.239 215.812C403.391 215.812 404.303 216.202 404.975 216.982C405.659 217.75 406.001 218.794 406.001 220.114V226H402.473V220.582C402.473 220.006 402.323 219.556 402.023 219.232C401.723 218.896 401.321 218.728 400.817 218.728C400.289 218.728 399.875 218.896 399.575 219.232C399.275 219.556 399.125 220.006 399.125 220.582V226H395.597V212.68H399.125V217.342C399.437 216.886 399.857 216.52 400.385 216.244C400.925 215.956 401.543 215.812 402.239 215.812ZM415.443 215.812C416.607 215.812 417.531 216.202 418.215 216.982C418.899 217.75 419.241 218.794 419.241 220.114V226H415.713V220.582C415.713 220.006 415.563 219.556 415.263 219.232C414.963 218.896 414.561 218.728 414.057 218.728C413.529 218.728 413.115 218.896 412.815 219.232C412.515 219.556 412.365 220.006 412.365 220.582V226H408.837V215.902H412.365V217.342C412.677 216.886 413.097 216.52 413.625 216.244C414.153 215.956 414.759 215.812 415.443 215.812ZM423.858 214.966C423.234 214.966 422.73 214.798 422.346 214.462C421.974 214.114 421.788 213.682 421.788 213.166C421.788 212.638 421.974 212.2 422.346 211.852C422.73 211.504 423.234 211.33 423.858 211.33C424.47 211.33 424.962 211.504 425.334 211.852C425.718 212.2 425.91 212.638 425.91 213.166C425.91 213.682 425.718 214.114 425.334 214.462C424.962 214.798 424.47 214.966 423.858 214.966ZM425.604 215.902V226H422.076V215.902H425.604ZM427.937 220.942C427.937 219.898 428.153 218.986 428.585 218.206C429.017 217.426 429.617 216.826 430.385 216.406C431.165 215.986 432.053 215.776 433.049 215.776C434.333 215.776 435.413 216.13 436.289 216.838C437.165 217.534 437.729 218.512 437.981 219.772H434.237C434.021 219.112 433.601 218.782 432.977 218.782C432.533 218.782 432.179 218.968 431.915 219.34C431.663 219.7 431.537 220.234 431.537 220.942C431.537 221.65 431.663 222.19 431.915 222.562C432.179 222.934 432.533 223.12 432.977 223.12C433.613 223.12 434.033 222.79 434.237 222.13H437.981C437.729 223.378 437.165 224.356 436.289 225.064C435.413 225.772 434.333 226.126 433.049 226.126C432.053 226.126 431.165 225.916 430.385 225.496C429.617 225.076 429.017 224.476 428.585 223.696C428.153 222.916 427.937 221.998 427.937 220.942ZM439.771 220.942C439.771 219.898 439.957 218.986 440.329 218.206C440.713 217.426 441.229 216.826 441.877 216.406C442.537 215.986 443.269 215.776 444.073 215.776C444.769 215.776 445.369 215.914 445.873 216.19C446.377 216.466 446.767 216.838 447.043 217.306V215.902H450.571V226H447.043V224.596C446.767 225.064 446.371 225.436 445.855 225.712C445.351 225.988 444.757 226.126 444.073 226.126C443.269 226.126 442.537 225.916 441.877 225.496C441.229 225.076 440.713 224.476 440.329 223.696C439.957 222.904 439.771 221.986 439.771 220.942ZM447.043 220.942C447.043 220.294 446.863 219.784 446.503 219.412C446.155 219.04 445.723 218.854 445.207 218.854C444.679 218.854 444.241 219.04 443.893 219.412C443.545 219.772 443.371 220.282 443.371 220.942C443.371 221.59 443.545 222.106 443.893 222.49C444.241 222.862 444.679 223.048 445.207 223.048C445.723 223.048 446.155 222.862 446.503 222.49C446.863 222.118 447.043 221.602 447.043 220.942ZM457.009 212.68V226H453.481V212.68H457.009ZM363.536 240.31V253H360.008V240.31H363.536ZM373.051 242.812C374.215 242.812 375.139 243.202 375.823 243.982C376.507 244.75 376.849 245.794 376.849 247.114V253H373.321V247.582C373.321 247.006 373.171 246.556 372.871 246.232C372.571 245.896 372.169 245.728 371.665 245.728C371.137 245.728 370.723 245.896 370.423 246.232C370.123 246.556 369.973 247.006 369.973 247.582V253H366.445V242.902H369.973V244.342C370.285 243.886 370.705 243.52 371.233 243.244C371.761 242.956 372.367 242.812 373.051 242.812ZM385.643 249.994V253H384.113C381.533 253 380.243 251.722 380.243 249.166V245.836H379.001V242.902H380.243V240.454H383.789V242.902H385.625V245.836H383.789V249.22C383.789 249.496 383.849 249.694 383.969 249.814C384.101 249.934 384.317 249.994 384.617 249.994H385.643ZM397.809 247.834C397.809 248.11 397.791 248.386 397.755 248.662H391.077C391.113 249.214 391.263 249.628 391.527 249.904C391.803 250.168 392.151 250.3 392.571 250.3C393.159 250.3 393.579 250.036 393.831 249.508H397.593C397.437 250.204 397.131 250.828 396.675 251.38C396.231 251.92 395.667 252.346 394.983 252.658C394.299 252.97 393.543 253.126 392.715 253.126C391.719 253.126 390.831 252.916 390.051 252.496C389.283 252.076 388.677 251.476 388.233 250.696C387.801 249.916 387.585 248.998 387.585 247.942C387.585 246.886 387.801 245.974 388.233 245.206C388.665 244.426 389.265 243.826 390.033 243.406C390.813 242.986 391.707 242.776 392.715 242.776C393.711 242.776 394.593 242.98 395.361 243.388C396.129 243.796 396.729 244.384 397.161 245.152C397.593 245.908 397.809 246.802 397.809 247.834ZM394.209 246.952C394.209 246.52 394.065 246.184 393.777 245.944C393.489 245.692 393.129 245.566 392.697 245.566C392.265 245.566 391.911 245.686 391.635 245.926C391.359 246.154 391.179 246.496 391.095 246.952H394.209ZM403.681 244.684C404.077 244.108 404.557 243.652 405.121 243.316C405.685 242.98 406.291 242.812 406.939 242.812V246.574H405.949C405.181 246.574 404.611 246.724 404.239 247.024C403.867 247.324 403.681 247.846 403.681 248.59V253H400.153V242.902H403.681V244.684ZM413.946 249.67L415.836 242.902H419.598L416.124 253H411.732L408.258 242.902H412.02L413.946 249.67ZM423.475 241.966C422.851 241.966 422.347 241.798 421.963 241.462C421.591 241.114 421.405 240.682 421.405 240.166C421.405 239.638 421.591 239.2 421.963 238.852C422.347 238.504 422.851 238.33 423.475 238.33C424.087 238.33 424.579 238.504 424.951 238.852C425.335 239.2 425.527 239.638 425.527 240.166C425.527 240.682 425.335 241.114 424.951 241.462C424.579 241.798 424.087 241.966 423.475 241.966ZM425.221 242.902V253H421.693V242.902H425.221ZM437.778 247.834C437.778 248.11 437.76 248.386 437.724 248.662H431.046C431.082 249.214 431.232 249.628 431.496 249.904C431.772 250.168 432.12 250.3 432.54 250.3C433.128 250.3 433.548 250.036 433.8 249.508H437.562C437.406 250.204 437.1 250.828 436.644 251.38C436.2 251.92 435.636 252.346 434.952 252.658C434.268 252.97 433.512 253.126 432.684 253.126C431.688 253.126 430.8 252.916 430.02 252.496C429.252 252.076 428.646 251.476 428.202 250.696C427.77 249.916 427.554 248.998 427.554 247.942C427.554 246.886 427.77 245.974 428.202 245.206C428.634 244.426 429.234 243.826 430.002 243.406C430.782 242.986 431.676 242.776 432.684 242.776C433.68 242.776 434.562 242.98 435.33 243.388C436.098 243.796 436.698 244.384 437.13 245.152C437.562 245.908 437.778 246.802 437.778 247.834ZM434.178 246.952C434.178 246.52 434.034 246.184 433.746 245.944C433.458 245.692 433.098 245.566 432.666 245.566C432.234 245.566 431.88 245.686 431.604 245.926C431.328 246.154 431.148 246.496 431.064 246.952H434.178ZM455.044 242.902L452.47 253H448.51L447.106 246.88L445.648 253H441.706L439.15 242.902H442.66L443.794 249.598L445.288 242.902H449.068L450.616 249.616L451.732 242.902H455.044Z" fill="white"/>
<path d="M316.82 179.751C315.752 180.392 314.537 180.743 313.293 180.769C312.271 180.777 311.279 180.426 310.488 179.778C309.645 179.067 309.008 178.141 308.644 177.099C308.19 175.753 307.973 174.339 308.003 172.919C308.009 171.273 308.224 169.634 308.644 168.042C309.083 166.407 309.702 164.826 310.488 163.327C311.254 161.868 312.196 160.509 313.293 159.281C314.293 158.134 315.487 157.173 316.82 156.441C317.887 155.8 319.103 155.449 320.347 155.423C321.323 155.443 322.264 155.793 323.019 156.414C323.859 157.128 324.495 158.053 324.862 159.093C325.314 160.43 325.531 161.835 325.503 163.246C325.499 164.902 325.283 166.549 324.862 168.15C324.423 169.785 323.804 171.366 323.019 172.865C322.313 174.32 321.414 175.672 320.347 176.884C319.348 178.041 318.155 179.011 316.82 179.751ZM316.82 174.928C317.82 174.381 318.666 173.588 319.278 172.624C319.908 171.595 320.377 170.474 320.667 169.302C320.961 168.137 321.113 166.94 321.121 165.738C321.148 164.673 320.985 163.611 320.641 162.603C320.538 162.23 320.356 161.883 320.107 161.587C319.858 161.291 319.548 161.053 319.198 160.889C318.802 160.756 318.38 160.719 317.968 160.78C317.555 160.84 317.162 160.997 316.82 161.237C316.066 161.643 315.402 162.199 314.869 162.871C314.316 163.561 313.866 164.329 313.533 165.149C313.175 166.01 312.915 166.909 312.759 167.828C312.579 168.71 312.489 169.608 312.491 170.507C312.478 171.543 312.632 172.575 312.946 173.562C313.18 174.316 313.697 174.95 314.388 175.33C314.796 175.464 315.23 175.497 315.653 175.427C316.076 175.357 316.476 175.186 316.82 174.928Z" fill="#FEC506"/>
<path d="M327.854 173.347V169.034C328.441 168.337 329.19 167.399 330.098 166.354C331.006 165.309 331.942 163.916 332.93 162.55C333.919 161.183 334.827 159.87 335.602 158.477C336.365 157.312 337.06 156.104 337.686 154.86C338.134 154.126 338.417 153.303 338.514 152.449C338.537 151.986 338.395 151.53 338.114 151.162C337.977 151.014 337.812 150.895 337.628 150.812C337.445 150.729 337.246 150.684 337.045 150.68C336.526 150.668 336.016 150.808 335.575 151.082C335.008 151.39 334.501 151.799 334.079 152.288C333.635 152.795 333.266 153.363 332.984 153.976C332.731 154.513 332.594 155.097 332.583 155.691L327.773 158.37C327.795 156.783 328.159 155.22 328.842 153.788C329.606 152.128 330.615 150.592 331.835 149.233C332.924 147.96 334.237 146.897 335.709 146.099C336.884 145.38 338.233 144.999 339.61 145C340.118 145.025 340.616 145.152 341.075 145.373C341.534 145.594 341.944 145.904 342.282 146.286C343.029 147.246 343.399 148.447 343.324 149.662C343.316 150.413 343.218 151.159 343.03 151.886C342.825 152.695 342.548 153.484 342.201 154.244C341.785 155.16 341.321 156.055 340.812 156.923C340.278 157.861 339.663 158.906 338.942 160.004C338.22 161.103 337.446 162.335 336.591 163.621L343.324 159.951V164.774L327.854 173.347Z" fill="#FEC506"/>
<path d="M622.501 168.466L558.527 131.736V58.2643" stroke="#FEC506" stroke-linejoin="round"/>
<path d="M686.475 58.2642L622.501 21.5233L558.527 58.2642" stroke="#FEC506" stroke-linejoin="round"/>
<path d="M686.475 58.2642L622.501 21.5233L558.527 58.2642V131.736L622.501 168.466L686.475 131.736V58.2642Z" stroke="#FEC506" stroke-linejoin="round"/>
<path d="M622.501 21.5233V94.9947L558.527 131.736V58.2642L622.501 21.5233Z" stroke="#FEC506" stroke-linejoin="round"/>
<path d="M622.501 94.9948L686.475 131.736L622.501 168.466L558.527 131.736L622.501 94.9948Z" stroke="#FEC506" stroke-linecap="round" stroke-linejoin="round"/>
<path d="M632.414 127.31V135.716C632.414 137.144 632.024 138.236 631.244 138.992C630.476 139.748 629.414 140.126 628.058 140.126C626.618 140.126 625.466 139.724 624.602 138.92C623.75 138.116 623.324 136.958 623.324 135.446H626.816C626.828 136.442 627.194 136.94 627.914 136.94C628.562 136.94 628.886 136.532 628.886 135.716V127.31H632.414ZM640.118 140.126C639.11 140.126 638.204 139.916 637.4 139.496C636.608 139.076 635.984 138.476 635.528 137.696C635.072 136.916 634.844 135.998 634.844 134.942C634.844 133.898 635.072 132.986 635.528 132.206C635.996 131.426 636.626 130.826 637.418 130.406C638.222 129.986 639.128 129.776 640.136 129.776C641.144 129.776 642.044 129.986 642.836 130.406C643.64 130.826 644.27 131.426 644.726 132.206C645.194 132.986 645.428 133.898 645.428 134.942C645.428 135.986 645.194 136.904 644.726 137.696C644.27 138.476 643.64 139.076 642.836 139.496C642.032 139.916 641.126 140.126 640.118 140.126ZM640.118 137.066C640.61 137.066 641.018 136.886 641.342 136.526C641.678 136.154 641.846 135.626 641.846 134.942C641.846 134.258 641.678 133.736 641.342 133.376C641.018 133.016 640.616 132.836 640.136 132.836C639.656 132.836 639.254 133.016 638.93 133.376C638.606 133.736 638.444 134.258 638.444 134.942C638.444 135.638 638.6 136.166 638.912 136.526C639.224 136.886 639.626 137.066 640.118 137.066ZM651.291 131.306C651.567 130.826 651.957 130.454 652.461 130.19C652.965 129.914 653.559 129.776 654.243 129.776C655.047 129.776 655.773 129.986 656.421 130.406C657.081 130.826 657.597 131.426 657.969 132.206C658.353 132.986 658.545 133.898 658.545 134.942C658.545 135.986 658.353 136.904 657.969 137.696C657.597 138.476 657.081 139.076 656.421 139.496C655.773 139.916 655.047 140.126 654.243 140.126C653.559 140.126 652.965 139.994 652.461 139.73C651.957 139.454 651.567 139.076 651.291 138.596V140H647.763V126.68H651.291V131.306ZM654.963 134.942C654.963 134.282 654.783 133.772 654.423 133.412C654.075 133.04 653.643 132.854 653.127 132.854C652.611 132.854 652.173 133.04 651.813 133.412C651.465 133.784 651.291 134.294 651.291 134.942C651.291 135.602 651.465 136.118 651.813 136.49C652.173 136.862 652.611 137.048 653.127 137.048C653.643 137.048 654.075 136.862 654.423 136.49C654.783 136.106 654.963 135.59 654.963 134.942ZM671.327 140.126C670.139 140.126 669.047 139.85 668.051 139.298C667.055 138.734 666.263 137.96 665.675 136.976C665.099 135.98 664.811 134.858 664.811 133.61C664.811 132.362 665.099 131.246 665.675 130.262C666.263 129.266 667.055 128.492 668.051 127.94C669.047 127.388 670.139 127.112 671.327 127.112C672.527 127.112 673.619 127.388 674.603 127.94C675.599 128.492 676.385 129.266 676.961 130.262C677.537 131.246 677.825 132.362 677.825 133.61C677.825 134.858 677.537 135.98 676.961 136.976C676.385 137.96 675.599 138.734 674.603 139.298C673.607 139.85 672.515 140.126 671.327 140.126ZM671.327 136.85C672.227 136.85 672.935 136.556 673.451 135.968C673.979 135.38 674.243 134.594 674.243 133.61C674.243 132.602 673.979 131.81 673.451 131.234C672.935 130.646 672.227 130.352 671.327 130.352C670.415 130.352 669.701 130.646 669.185 131.234C668.669 131.81 668.411 132.602 668.411 133.61C668.411 134.606 668.669 135.398 669.185 135.986C669.701 136.562 670.415 136.85 671.327 136.85ZM685.765 132.836H684.181V140H680.635V132.836H679.537V129.902H680.635V129.812C680.635 128.516 681.013 127.526 681.769 126.842C682.537 126.146 683.635 125.798 685.063 125.798C685.351 125.798 685.573 125.804 685.729 125.816V128.822C685.633 128.81 685.501 128.804 685.333 128.804C684.949 128.804 684.667 128.894 684.487 129.074C684.307 129.242 684.205 129.518 684.181 129.902H685.765V132.836ZM693.38 132.836H691.796V140H688.25V132.836H687.152V129.902H688.25V129.812C688.25 128.516 688.628 127.526 689.384 126.842C690.152 126.146 691.25 125.798 692.678 125.798C692.966 125.798 693.188 125.804 693.344 125.816V128.822C693.248 128.81 693.116 128.804 692.948 128.804C692.564 128.804 692.282 128.894 692.102 129.074C691.922 129.242 691.82 129.518 691.796 129.902H693.38V132.836ZM705.188 134.834C705.188 135.11 705.17 135.386 705.134 135.662H698.456C698.492 136.214 698.642 136.628 698.906 136.904C699.182 137.168 699.53 137.3 699.95 137.3C700.538 137.3 700.958 137.036 701.21 136.508H704.972C704.816 137.204 704.51 137.828 704.054 138.38C703.61 138.92 703.046 139.346 702.362 139.658C701.678 139.97 700.922 140.126 700.094 140.126C699.098 140.126 698.21 139.916 697.43 139.496C696.662 139.076 696.056 138.476 695.612 137.696C695.18 136.916 694.964 135.998 694.964 134.942C694.964 133.886 695.18 132.974 695.612 132.206C696.044 131.426 696.644 130.826 697.412 130.406C698.192 129.986 699.086 129.776 700.094 129.776C701.09 129.776 701.972 129.98 702.74 130.388C703.508 130.796 704.108 131.384 704.54 132.152C704.972 132.908 705.188 133.802 705.188 134.834ZM701.588 133.952C701.588 133.52 701.444 133.184 701.156 132.944C700.868 132.692 700.508 132.566 700.076 132.566C699.644 132.566 699.29 132.686 699.014 132.926C698.738 133.154 698.558 133.496 698.474 133.952H701.588ZM711.06 131.684C711.456 131.108 711.936 130.652 712.5 130.316C713.064 129.98 713.67 129.812 714.318 129.812V133.574H713.328C712.56 133.574 711.99 133.724 711.618 134.024C711.246 134.324 711.06 134.846 711.06 135.59V140H707.532V129.902H711.06V131.684Z" fill="white"/>
<path d="M581.685 92.0547C580.618 92.6956 579.402 93.0465 578.158 93.0729C577.185 93.0383 576.248 92.6908 575.487 92.0815C574.655 91.3652 574.028 90.4407 573.67 89.4022C573.204 88.0684 572.978 86.6622 573.002 85.2492C573.016 83.6017 573.24 81.963 573.67 80.3728C574.095 78.7284 574.705 77.1374 575.487 75.6303C576.218 74.1824 577.114 72.8247 578.158 71.5846C579.173 70.4531 580.364 69.494 581.685 68.7445C582.767 68.1145 583.988 67.7646 585.239 67.7263C586.219 67.7482 587.163 68.1077 587.911 68.7445C588.74 69.4625 589.366 70.3865 589.728 71.4238C590.181 72.7692 590.398 74.1836 590.369 75.6036C590.364 77.2499 590.149 78.8887 589.728 80.4799C589.302 82.1157 588.692 83.6978 587.911 85.1956C587.19 86.6495 586.292 88.0084 585.239 89.2414C584.219 90.3717 583.018 91.3226 581.685 92.0547ZM581.685 87.2319C582.693 86.6823 583.54 85.8789 584.143 84.9009C584.787 83.8882 585.257 82.7741 585.533 81.6053C585.84 80.4335 585.992 79.2265 585.987 78.015C586.013 76.9497 585.851 75.8881 585.506 74.8801C585.397 74.5134 585.216 74.1725 584.972 73.8778C584.729 73.5831 584.429 73.3408 584.09 73.1654C583.688 73.0409 583.264 73.0076 582.848 73.0678C582.433 73.1281 582.035 73.2804 581.685 73.5137C580.946 73.9306 580.293 74.4853 579.761 75.1481C579.211 75.845 578.753 76.6105 578.399 77.4255C578.044 78.2878 577.785 79.1862 577.624 80.1049C577.458 80.9886 577.369 81.8851 577.357 82.7842C577.339 83.8227 577.501 84.8563 577.838 85.8386C577.93 86.2193 578.105 86.575 578.35 86.8805C578.595 87.186 578.903 87.434 579.254 87.607C579.659 87.7444 580.092 87.782 580.515 87.7167C580.938 87.6514 581.34 87.4852 581.685 87.2319Z" fill="#FEC506"/>
<path d="M599.801 82.1679C598.687 82.8362 597.413 83.1882 596.114 83.1861C595.608 83.1787 595.109 83.0653 594.648 82.853C594.188 82.6408 593.778 82.3344 593.442 81.9536C592.718 81.0559 592.355 79.918 592.427 78.7652L597.237 76.0858C597.221 76.4897 597.343 76.8868 597.584 77.2111C597.707 77.3442 597.856 77.4508 598.021 77.5245C598.186 77.5982 598.365 77.6374 598.546 77.6398C598.997 77.644 599.441 77.5235 599.828 77.2916C600.323 77.0132 600.766 76.6505 601.137 76.2198C601.531 75.7862 601.848 75.2877 602.073 74.7462C602.306 74.2798 602.434 73.7674 602.447 73.2457C602.48 72.9965 602.445 72.7428 602.347 72.5117C602.248 72.2806 602.088 72.0806 601.885 71.9329C601.655 71.8042 601.401 71.7258 601.138 71.7027C600.876 71.6796 600.611 71.7124 600.363 71.7989C599.546 71.996 598.763 72.312 598.038 72.7366V69.066C599.044 68.5211 599.948 67.8049 600.71 66.9493C601.325 66.3143 601.686 65.4754 601.725 64.5914C601.742 64.2618 601.638 63.9374 601.431 63.6804C601.338 63.5707 601.224 63.4809 601.095 63.4164C600.967 63.352 600.827 63.3143 600.683 63.3054C600.316 63.3086 599.956 63.4103 599.641 63.6001C599.201 63.8463 598.804 64.1631 598.466 64.5379C598.099 64.93 597.776 65.3612 597.504 65.8239C597.277 66.206 597.148 66.6388 597.13 67.0832L592.32 69.7625C592.345 68.736 592.543 67.7212 592.908 66.7617C593.325 65.6686 593.862 64.626 594.511 63.6536C595.202 62.6905 595.98 61.7936 596.836 60.9743C597.644 60.1936 598.541 59.5103 599.508 58.938C600.559 58.3154 601.76 57.9912 602.981 58.0003C603.457 57.9945 603.929 58.0892 604.367 58.2785C604.804 58.4678 605.197 58.7473 605.519 59.0988C606.204 59.9429 606.547 61.0138 606.481 62.0996C606.465 63.0128 606.302 63.9174 606 64.779C605.703 65.7037 605.211 66.5534 604.557 67.2708C604.802 67.2245 605.054 67.2342 605.295 67.2991C605.535 67.3641 605.758 67.4826 605.947 67.6459C606.343 68.0211 606.637 68.4914 606.802 69.0123C606.994 69.6004 607.094 70.2153 607.096 70.8343C607.062 72.3191 606.716 73.78 606.08 75.1212C605.404 76.633 604.503 78.0332 603.408 79.2743C602.377 80.4354 601.158 81.4136 599.801 82.1679Z" fill="#FEC506"/>
<path d="M899.501 254.466L835.527 217.736V144.264" stroke="#FEC506" stroke-linejoin="round"/>
<path d="M963.475 144.264L899.501 107.523L835.527 144.264" stroke="#FEC506" stroke-linejoin="round"/>
<path d="M963.475 144.264L899.501 107.523L835.527 144.264V217.736L899.501 254.466L963.475 217.736V144.264Z" stroke="#FEC506" stroke-linejoin="round"/>
<path d="M899.501 107.523V180.995L835.527 217.736V144.264L899.501 107.523Z" stroke="#FEC506" stroke-linejoin="round"/>
<path d="M899.501 180.995L963.475 217.736L899.501 254.466L835.527 217.736L899.501 180.995Z" stroke="#FEC506" stroke-linecap="round" stroke-linejoin="round"/>
<path d="M905.796 226.126C904.32 226.126 903.108 225.778 902.16 225.082C901.212 224.374 900.702 223.366 900.63 222.058H904.392C904.428 222.502 904.56 222.826 904.788 223.03C905.016 223.234 905.31 223.336 905.67 223.336C905.994 223.336 906.258 223.258 906.462 223.102C906.678 222.934 906.786 222.706 906.786 222.418C906.786 222.046 906.612 221.758 906.264 221.554C905.916 221.35 905.352 221.122 904.572 220.87C903.744 220.594 903.072 220.33 902.556 220.078C902.052 219.814 901.608 219.436 901.224 218.944C900.852 218.44 900.666 217.786 900.666 216.982C900.666 216.166 900.87 215.47 901.278 214.894C901.686 214.306 902.25 213.862 902.97 213.562C903.69 213.262 904.506 213.112 905.418 213.112C906.894 213.112 908.07 213.46 908.946 214.156C909.834 214.84 910.308 215.806 910.368 217.054H906.534C906.522 216.67 906.402 216.382 906.174 216.19C905.958 215.998 905.676 215.902 905.328 215.902C905.064 215.902 904.848 215.98 904.68 216.136C904.512 216.292 904.428 216.514 904.428 216.802C904.428 217.042 904.518 217.252 904.698 217.432C904.89 217.6 905.124 217.75 905.4 217.882C905.676 218.002 906.084 218.158 906.624 218.35C907.428 218.626 908.088 218.902 908.604 219.178C909.132 219.442 909.582 219.82 909.954 220.312C910.338 220.792 910.53 221.404 910.53 222.148C910.53 222.904 910.338 223.582 909.954 224.182C909.582 224.782 909.036 225.256 908.316 225.604C907.608 225.952 906.768 226.126 905.796 226.126ZM919.028 222.994V226H917.498C914.918 226 913.628 224.722 913.628 222.166V218.836H912.386V215.902H913.628V213.454H917.174V215.902H919.01V218.836H917.174V222.22C917.174 222.496 917.234 222.694 917.354 222.814C917.486 222.934 917.702 222.994 918.002 222.994H919.028ZM920.97 220.942C920.97 219.898 921.156 218.986 921.528 218.206C921.912 217.426 922.428 216.826 923.076 216.406C923.736 215.986 924.468 215.776 925.272 215.776C925.968 215.776 926.568 215.914 927.072 216.19C927.576 216.466 927.966 216.838 928.242 217.306V215.902H931.77V226H928.242V224.596C927.966 225.064 927.57 225.436 927.054 225.712C926.55 225.988 925.956 226.126 925.272 226.126C924.468 226.126 923.736 225.916 923.076 225.496C922.428 225.076 921.912 224.476 921.528 223.696C921.156 222.904 920.97 221.986 920.97 220.942ZM928.242 220.942C928.242 220.294 928.062 219.784 927.702 219.412C927.354 219.04 926.922 218.854 926.406 218.854C925.878 218.854 925.44 219.04 925.092 219.412C924.744 219.772 924.57 220.282 924.57 220.942C924.57 221.59 924.744 222.106 925.092 222.49C925.44 222.862 925.878 223.048 926.406 223.048C926.922 223.048 927.354 222.862 927.702 222.49C928.062 222.118 928.242 221.602 928.242 220.942ZM938.209 217.684C938.605 217.108 939.085 216.652 939.649 216.316C940.213 215.98 940.819 215.812 941.467 215.812V219.574H940.477C939.709 219.574 939.139 219.724 938.767 220.024C938.395 220.324 938.209 220.846 938.209 221.59V226H934.681V215.902H938.209V217.684ZM949.589 222.994V226H948.059C945.479 226 944.189 224.722 944.189 222.166V218.836H942.947V215.902H944.189V213.454H947.735V215.902H949.571V218.836H947.735V222.22C947.735 222.496 947.795 222.694 947.915 222.814C948.047 222.934 948.263 222.994 948.563 222.994H949.589ZM971.375 215.902L968.801 226H964.841L963.437 219.88L961.979 226H958.037L955.481 215.902H958.991L960.125 222.598L961.619 215.902H965.399L966.947 222.616L968.063 215.902H971.375ZM975.061 214.966C974.437 214.966 973.933 214.798 973.549 214.462C973.177 214.114 972.991 213.682 972.991 213.166C972.991 212.638 973.177 212.2 973.549 211.852C973.933 211.504 974.437 211.33 975.061 211.33C975.673 211.33 976.165 211.504 976.537 211.852C976.921 212.2 977.113 212.638 977.113 213.166C977.113 213.682 976.921 214.114 976.537 214.462C976.165 214.798 975.673 214.966 975.061 214.966ZM976.807 215.902V226H973.279V215.902H976.807ZM985.674 222.994V226H984.144C981.564 226 980.274 224.722 980.274 222.166V218.836H979.032V215.902H980.274V213.454H983.82V215.902H985.656V218.836H983.82V222.22C983.82 222.496 983.88 222.694 984 222.814C984.132 222.934 984.348 222.994 984.648 222.994H985.674ZM994.834 215.812C995.986 215.812 996.898 216.202 997.57 216.982C998.254 217.75 998.596 218.794 998.596 220.114V226H995.068V220.582C995.068 220.006 994.918 219.556 994.618 219.232C994.318 218.896 993.916 218.728 993.412 218.728C992.884 218.728 992.47 218.896 992.17 219.232C991.87 219.556 991.72 220.006 991.72 220.582V226H988.192V212.68H991.72V217.342C992.032 216.886 992.452 216.52 992.98 216.244C993.52 215.956 994.138 215.812 994.834 215.812ZM904.536 240.31V253H901.008V240.31H904.536ZM914.051 242.812C915.215 242.812 916.139 243.202 916.823 243.982C917.507 244.75 917.849 245.794 917.849 247.114V253H914.321V247.582C914.321 247.006 914.171 246.556 913.871 246.232C913.571 245.896 913.169 245.728 912.665 245.728C912.137 245.728 911.723 245.896 911.423 246.232C911.123 246.556 910.973 247.006 910.973 247.582V253H907.445V242.902H910.973V244.342C911.285 243.886 911.705 243.52 912.233 243.244C912.761 242.956 913.367 242.812 914.051 242.812ZM920.109 247.942C920.109 246.898 920.325 245.986 920.757 245.206C921.189 244.426 921.789 243.826 922.557 243.406C923.337 242.986 924.225 242.776 925.221 242.776C926.505 242.776 927.585 243.13 928.461 243.838C929.337 244.534 929.901 245.512 930.153 246.772H926.409C926.193 246.112 925.773 245.782 925.149 245.782C924.705 245.782 924.351 245.968 924.087 246.34C923.835 246.7 923.709 247.234 923.709 247.942C923.709 248.65 923.835 249.19 924.087 249.562C924.351 249.934 924.705 250.12 925.149 250.12C925.785 250.12 926.205 249.79 926.409 249.13H930.153C929.901 250.378 929.337 251.356 928.461 252.064C927.585 252.772 926.505 253.126 925.221 253.126C924.225 253.126 923.337 252.916 922.557 252.496C921.789 252.076 921.189 251.476 920.757 250.696C920.325 249.916 920.109 248.998 920.109 247.942ZM937.217 253.126C936.209 253.126 935.303 252.916 934.499 252.496C933.707 252.076 933.083 251.476 932.627 250.696C932.171 249.916 931.943 248.998 931.943 247.942C931.943 246.898 932.171 245.986 932.627 245.206C933.095 244.426 933.725 243.826 934.517 243.406C935.321 242.986 936.227 242.776 937.235 242.776C938.243 242.776 939.143 242.986 939.935 243.406C940.739 243.826 941.369 244.426 941.825 245.206C942.293 245.986 942.527 246.898 942.527 247.942C942.527 248.986 942.293 249.904 941.825 250.696C941.369 251.476 940.739 252.076 939.935 252.496C939.131 252.916 938.225 253.126 937.217 253.126ZM937.217 250.066C937.709 250.066 938.117 249.886 938.441 249.526C938.777 249.154 938.945 248.626 938.945 247.942C938.945 247.258 938.777 246.736 938.441 246.376C938.117 246.016 937.715 245.836 937.235 245.836C936.755 245.836 936.353 246.016 936.029 246.376C935.705 246.736 935.543 247.258 935.543 247.942C935.543 248.638 935.699 249.166 936.011 249.526C936.323 249.886 936.725 250.066 937.217 250.066ZM948.39 244.684C948.786 244.108 949.266 243.652 949.83 243.316C950.394 242.98 951 242.812 951.648 242.812V246.574H950.658C949.89 246.574 949.32 246.724 948.948 247.024C948.576 247.324 948.39 247.846 948.39 248.59V253H944.862V242.902H948.39V244.684ZM953.237 247.942C953.237 246.898 953.423 245.986 953.795 245.206C954.179 244.426 954.695 243.826 955.343 243.406C956.003 242.986 956.735 242.776 957.539 242.776C958.235 242.776 958.835 242.914 959.339 243.19C959.843 243.466 960.233 243.838 960.509 244.306V242.902H964.037V253H960.509V251.596C960.233 252.064 959.837 252.436 959.321 252.712C958.817 252.988 958.223 253.126 957.539 253.126C956.735 253.126 956.003 252.916 955.343 252.496C954.695 252.076 954.179 251.476 953.795 250.696C953.423 249.904 953.237 248.986 953.237 247.942ZM960.509 247.942C960.509 247.294 960.329 246.784 959.969 246.412C959.621 246.04 959.189 245.854 958.673 245.854C958.145 245.854 957.707 246.04 957.359 246.412C957.011 246.772 956.837 247.282 956.837 247.942C956.837 248.59 957.011 249.106 957.359 249.49C957.707 249.862 958.145 250.048 958.673 250.048C959.189 250.048 959.621 249.862 959.969 249.49C960.329 249.118 960.509 248.602 960.509 247.942ZM971.663 239.662L971.249 248.248H968.243L967.829 239.662H971.663ZM969.755 253.144C969.131 253.144 968.627 252.976 968.243 252.64C967.871 252.292 967.685 251.854 967.685 251.326C967.685 250.798 967.871 250.36 968.243 250.012C968.627 249.664 969.131 249.49 969.755 249.49C970.367 249.49 970.859 249.664 971.231 250.012C971.615 250.36 971.807 250.798 971.807 251.326C971.807 251.842 971.615 252.274 971.231 252.622C970.859 252.97 970.367 253.144 969.755 253.144Z" fill="white"/>
<path d="M858.029 179.739C856.954 180.384 855.729 180.735 854.476 180.757C853.5 180.732 852.561 180.384 851.804 179.766C850.959 179.056 850.322 178.13 849.96 177.086C849.507 175.741 849.289 174.327 849.319 172.907C849.324 171.26 849.539 169.621 849.96 168.03C850.383 166.39 851.002 164.806 851.804 163.315C852.512 161.853 853.411 160.493 854.476 159.269C855.49 158.126 856.692 157.165 858.029 156.429C859.097 155.788 860.312 155.437 861.556 155.411C862.534 155.423 863.478 155.773 864.228 156.402C865.059 157.118 865.686 158.043 866.045 159.081C866.511 160.415 866.737 161.821 866.713 163.234C866.699 164.882 866.475 166.52 866.045 168.111C865.624 169.748 865.014 171.33 864.228 172.826C863.507 174.28 862.61 175.639 861.556 176.872C860.552 178.022 859.359 178.992 858.029 179.739ZM858.029 174.916C859.022 174.368 859.859 173.575 860.461 172.612C861.11 171.589 861.589 170.467 861.877 169.29C862.169 168.124 862.321 166.928 862.331 165.726C862.355 164.652 862.192 163.582 861.85 162.564C861.737 162.196 861.551 161.854 861.303 161.56C861.055 161.265 860.75 161.023 860.407 160.85C860.009 160.721 859.587 160.688 859.174 160.753C858.761 160.819 858.369 160.98 858.029 161.225C857.275 161.631 856.612 162.187 856.079 162.859C855.526 163.549 855.075 164.316 854.743 165.137C854.388 166.001 854.12 166.899 853.941 167.816C853.782 168.7 853.701 169.597 853.701 170.495C853.683 171.532 853.837 172.564 854.155 173.55C854.381 174.315 854.9 174.961 855.598 175.345C856.012 175.467 856.449 175.487 856.873 175.404C857.296 175.32 857.693 175.134 858.029 174.863V174.916Z" fill="#FEC506"/>
<path d="M878.657 168.057V163.073L869.172 168.271V163.449L877.561 146.14L883.466 142.925V155.625L885.096 154.741V159.564L883.466 160.448V165.431L878.657 168.057ZM874.703 160.421L878.657 158.251V152.061L874.703 160.421Z" fill="#FEC506"/>
</svg>
