<svg width="130" height="190" viewBox="558 0 130 190" fill="none" xmlns="http://www.w3.org/2000/svg">
  <path d="M622.501 168.466L558.527 131.736V58.2643" stroke="#FEC506" stroke-linejoin="round"/>
  <path d="M686.475 58.2642L622.501 21.5233L558.527 58.2642" stroke="#FEC506" stroke-linejoin="round"/>
  <path d="M686.475 58.2642L622.501 21.5233L558.527 58.2642V131.736L622.501 168.466L686.475 131.736V58.2642Z" stroke="#FEC506" stroke-linejoin="round"/>
  <path d="M622.501 21.5233V94.9947L558.527 131.736V58.2642L622.501 21.5233Z" stroke="#FEC506" stroke-linejoin="round"/>
  <path d="M622.501 94.9948L686.475 131.736L622.501 168.466L558.527 131.736L622.501 94.9948Z" stroke="#FEC506" stroke-linecap="round" stroke-linejoin="round"/>
  <path d="M581.685 92.055a7.145 7.145 0 0 1-3.527 1.018 4.532 4.532 0 0 1-2.671-.991 6.203 6.203 0 0 1-1.817-2.68 11.975 11.975 0 0 1-.668-4.153c.014-1.647.238-3.286.668-4.876a22.55 22.55 0 0 1 1.817-4.743 20.922 20.922 0 0 1 2.671-4.045 14.057 14.057 0 0 1 3.527-2.84 7.519 7.519 0 0 1 3.554-1.019 4.27 4.27 0 0 1 2.672 1.019 6.281 6.281 0 0 1 1.817 2.679c.453 1.345.67 2.76.641 4.18a19.293 19.293 0 0 1-.641 4.876 22.423 22.423 0 0 1-1.817 4.716 19.725 19.725 0 0 1-2.672 4.045 13.617 13.617 0 0 1-3.554 2.814Zm0-4.823a6.599 6.599 0 0 0 2.458-2.331 10.743 10.743 0 0 0 1.39-3.296c.307-1.172.459-2.379.454-3.59a9.002 9.002 0 0 0-.481-3.135 2.839 2.839 0 0 0-1.416-1.715 2.828 2.828 0 0 0-2.405.349 6.67 6.67 0 0 0-1.924 1.634 10.3 10.3 0 0 0-1.362 2.278c-.355.862-.614 1.76-.775 2.679-.166.884-.255 1.78-.267 2.68a8.934 8.934 0 0 0 .481 3.054 2.667 2.667 0 0 0 1.416 1.768 2.663 2.663 0 0 0 2.431-.375ZM599.801 82.168a7.143 7.143 0 0 1-3.687 1.018 3.63 3.63 0 0 1-2.672-1.232 4.622 4.622 0 0 1-1.015-3.189l4.81-2.68c-.016.405.106.802.347 1.126a1.339 1.339 0 0 0 .962.429 2.45 2.45 0 0 0 1.282-.348 4.895 4.895 0 0 0 1.309-1.072c.394-.434.711-.932.936-1.474.233-.466.361-.979.374-1.5a1.396 1.396 0 0 0-.562-1.313 1.862 1.862 0 0 0-1.522-.134c-.817.197-1.6.513-2.325.938v-3.671a9.879 9.879 0 0 0 2.672-2.117 3.618 3.618 0 0 0 1.015-2.358 1.341 1.341 0 0 0-.294-.91 1.064 1.064 0 0 0-.748-.376 2.054 2.054 0 0 0-1.042.295 4.62 4.62 0 0 0-1.175.938c-.367.392-.69.823-.962 1.286a2.679 2.679 0 0 0-.374 1.26l-4.81 2.678a9.06 9.06 0 0 1 .588-3 15.637 15.637 0 0 1 1.603-3.108 19.207 19.207 0 0 1 2.325-2.68 14.401 14.401 0 0 1 2.672-2.036 6.717 6.717 0 0 1 3.473-.938 3.389 3.389 0 0 1 2.538 1.099 4.344 4.344 0 0 1 .962 3 8.554 8.554 0 0 1-.481 2.68 6.772 6.772 0 0 1-1.443 2.492 1.655 1.655 0 0 1 1.39.375c.396.375.69.845.855 1.366.192.588.292 1.203.294 1.822a10.57 10.57 0 0 1-1.016 4.287 16.39 16.39 0 0 1-2.672 4.153 13.77 13.77 0 0 1-3.607 2.894Z" fill="#FEC506"/>
</svg>