<svg width="130" height="190" viewBox="294 85 130 190" fill="none" xmlns="http://www.w3.org/2000/svg">
  <path d="M358.501 254.466L294.527 217.736V144.264" stroke="#FEC506" stroke-linejoin="round"/>
  <path d="M422.475 144.264L358.501 107.523L294.527 144.264" stroke="#FEC506" stroke-linejoin="round"/>
  <path d="M422.475 144.264L358.501 107.523L294.527 144.264V217.736L358.501 254.466L422.475 217.736V144.264Z" stroke="#FEC506" stroke-linejoin="round"/>
  <path d="M358.501 107.523V180.995L294.527 217.736V144.264L358.501 107.523Z" stroke="#FEC506" stroke-linejoin="round"/>
  <path d="M358.501 180.995L422.475 217.736L358.501 254.466L294.527 217.736L358.501 180.995Z" stroke="#FEC506" stroke-linecap="round" stroke-linejoin="round"/>
  <path d="M316.82 179.751a7.142 7.142 0 0 1-3.527 1.018 4.372 4.372 0 0 1-2.805-.991 6.165 6.165 0 0 1-1.844-2.679 12.267 12.267 0 0 1-.641-4.18c.006-1.646.221-3.285.641-4.877a22.994 22.994 0 0 1 1.844-4.715 20.092 20.092 0 0 1 2.805-4.046c1-1.147 2.194-2.108 3.527-2.84a7.14 7.14 0 0 1 3.527-1.018c.976.02 1.917.37 2.672.991a6.243 6.243 0 0 1 1.843 2.679 12.21 12.21 0 0 1 .641 4.153 19.463 19.463 0 0 1-.641 4.904 23.048 23.048 0 0 1-1.843 4.715 17.923 17.923 0 0 1-2.672 4.019 12.96 12.96 0 0 1-3.527 2.867Zm0-4.823a6.75 6.75 0 0 0 2.458-2.304 11.786 11.786 0 0 0 1.389-3.322c.294-1.165.446-2.362.454-3.564a9.003 9.003 0 0 0-.48-3.135 2.665 2.665 0 0 0-1.443-1.714 2.666 2.666 0 0 0-2.378.348 6.307 6.307 0 0 0-1.951 1.634 9.145 9.145 0 0 0-1.336 2.278c-.358.861-.618 1.76-.774 2.679-.18.882-.27 1.78-.268 2.679a9.68 9.68 0 0 0 .455 3.055 3.049 3.049 0 0 0 1.442 1.768 2.661 2.661 0 0 0 2.432-.402ZM327.854 173.347v-4.313c.587-.697 1.336-1.635 2.244-2.68.908-1.045 1.844-2.438 2.832-3.804.989-1.367 1.897-2.68 2.672-4.073a36.759 36.759 0 0 0 2.084-3.617 5.91 5.91 0 0 0 .828-2.411 1.96 1.96 0 0 0-.4-1.287 1.506 1.506 0 0 0-1.069-.482 2.667 2.667 0 0 0-1.47.402 5.35 5.35 0 0 0-1.496 1.206 7.007 7.007 0 0 0-1.095 1.688 4.206 4.206 0 0 0-.401 1.715l-4.81 2.679c.022-1.587.386-3.15 1.069-4.582a18.225 18.225 0 0 1 2.993-4.555 13.679 13.679 0 0 1 3.874-3.134A7.462 7.462 0 0 1 339.61 145a3.809 3.809 0 0 1 2.672 1.286 4.996 4.996 0 0 1 1.042 3.376 9.272 9.272 0 0 1-.294 2.224 13.892 13.892 0 0 1-.829 2.358c-.416.916-.88 1.811-1.389 2.679a56.228 56.228 0 0 1-1.87 3.081c-.722 1.099-1.496 2.331-2.351 3.617l6.733-3.67v4.823l-15.47 8.573Z" fill="#FEC506"/>
</svg>