<svg width="104" height="30" viewBox="0 0 104 30" fill="none" xmlns="http://www.w3.org/2000/svg">
<g clip-path="url(#clip0_218_2018)">
<path d="M26.9766 0H31.6924V30H26.9766V0ZM48.198 20.43C48.198 25.0212 44.4052 25.3872 43.277 25.3872C40.4581 25.3872 39.9452 22.7016 39.9452 21.0816V9.6H35.2293V21.0576C35.2293 23.9016 36.1065 26.2488 37.6439 27.8136C39.002 29.1972 41.0369 29.9532 43.2416 29.9532C44.8049 29.9532 47.019 29.4576 48.198 28.362V30H52.9139V9.6H48.198V20.43ZM62.3456 2.4H57.6297V9.6H54.0928V14.4H57.6297V30H62.3456V14.4H65.8825V9.6H62.3456V2.4ZM80.734 23.9004C79.7071 24.84 78.3513 25.3608 76.8634 25.3608C73.5835 25.3608 71.1749 22.9092 71.1749 19.5432C71.1749 16.1772 73.5069 13.8288 76.8634 13.8288C78.3253 13.8288 79.7071 14.3244 80.7599 15.264L81.4755 15.8904L84.6552 12.6552L83.8594 11.9244C81.9884 10.2048 79.5043 9.24 76.8622 9.24C70.9674 9.24 66.6866 13.5696 66.6866 19.518C66.6866 25.4412 71.07 29.9256 76.8622 29.9256C79.5538 29.9256 82.0638 28.9608 83.9113 27.2136L84.68 26.4828L81.4508 23.25L80.734 23.9004ZM101.487 11.3784C100.129 9.996 98.5376 9.24 96.3329 9.24C94.7696 9.24 92.9988 9.7356 91.8198 10.83V0H87.1039V30H91.8198V18.762C91.8198 14.1708 95.0242 13.806 96.1525 13.806C98.9714 13.806 98.8936 16.4928 98.8936 18.1104V30H103.609V18.1356C103.609 15.2916 103.026 12.9444 101.487 11.3784Z" fill="#C0C3C9"/>
<path d="M76.7104 16.1255C77.6146 16.1255 78.4819 16.4911 79.1213 17.1419C79.7607 17.7928 80.1199 18.6755 80.1199 19.5959C80.1199 20.5163 79.7607 21.399 79.1213 22.0498C78.4819 22.7007 77.6146 23.0663 76.7104 23.0663C75.8061 23.0663 74.9388 22.7007 74.2994 22.0498C73.66 21.399 73.3008 20.5163 73.3008 19.5959C73.3008 18.6755 73.66 17.7928 74.2994 17.1419C74.9388 16.4911 75.8061 16.1255 76.7104 16.1255Z" fill="#C0C3C9"/>
<path d="M20.3775 22.4653C18.5843 24.3433 16.1485 25.3609 13.5855 25.3609C8.33199 25.3609 4.51214 21.1609 4.51214 15.3961C4.51214 9.60489 8.33199 5.40489 13.5855 5.40489C16.1238 5.40489 18.5324 6.42129 20.3527 8.27409L21.0696 9.00489L24.2221 5.79609L23.5301 5.06529C20.9163 2.32569 17.3794 0.840088 13.5855 0.840088C5.84555 0.840088 0.0273438 7.10049 0.0273438 15.4213C0.0273438 23.7169 5.87148 29.9521 13.5855 29.9521C17.4053 29.9521 20.9422 28.4401 23.556 25.7005L24.2481 24.9697L21.1214 21.7093L20.3775 22.4653Z" fill="#C0C3C9"/>
</g>
<defs>
<clipPath id="clip0_218_2018">
<rect width="103.636" height="30" fill="white"/>
</clipPath>
</defs>
</svg>
