<svg id="Layer_1" data-name="Layer 1" xmlns="http://www.w3.org/2000/svg" xmlns:xlink="http://www.w3.org/1999/xlink" viewBox="0 0 710 380"><defs><style>.cls-1{fill:none;}.cls-2{fill:#18181a;}.cls-3{clip-path:url(#clip-path);}.cls-4{fill:#fdc514;}</style><clipPath id="clip-path"><rect class="cls-1" x="247" y="278.03" width="595.28" height="841.89"/></clipPath></defs><title>deepen-to-the-core</title><path class="cls-2" d="M493.72,320c-5.52,0-9.84,4-9.84,11.4s4.32,11.4,9.84,11.4,9.84-4,9.84-11.4S499.24,320,493.72,320Z"/><ellipse class="cls-2" cx="451.76" cy="203.21" rx="8.76" ry="11.64"/><path class="cls-2" d="M42.82,47.17H36.46V85.09h6.36c11.76,0,19.56-6.6,19.56-19S54.58,47.17,42.82,47.17Z"/><path class="cls-2" d="M244.28,189.41c-4.44,0-7.44,2.16-8.28,6.84h15.84C251.84,191.57,248.24,189.41,244.28,189.41Z"/><path class="cls-2" d="M282.29,319.74c-4.68,0-8.76,3.6-8.76,11.64s4,11.64,8.76,11.64,8.76-3.6,8.76-11.64S287,319.74,282.29,319.74Z"/><path class="cls-2" d="M388.18,61.21c-4.44,0-7.44,2.16-8.28,6.84h15.84C395.74,63.37,392.14,61.21,388.18,61.21Z"/><path class="cls-2" d="M137.14,61.21c-4.44,0-7.44,2.16-8.28,6.84H144.7C144.7,63.37,141.1,61.21,137.14,61.21Z"/><path class="cls-2" d="M648.46,86.65c4.68,0,8.76-3.6,8.76-11.64s-4.08-11.64-8.76-11.64S639.7,67,639.7,75,643.66,86.65,648.46,86.65Z"/><path class="cls-2" d="M663.64,320c-5.52,0-9.84,4-9.84,11.4s4.32,11.4,9.84,11.4,9.84-4,9.84-11.4S669.16,320,663.64,320Z"/><path class="cls-2" d="M0,0V380H710V0ZM648.46,40.33c20.4,0,35.76,13.08,35.76,34.68s-15.36,34.68-35.76,34.68S612.7,96.61,612.7,75,628.06,40.33,648.46,40.33Zm-95.88.84H561V24.85h26.64V41.17h11v22.2h-11V81.61c0,3.12,1.44,4.56,4.92,4.56h6.36v22.68H588.82C573,108.85,561,102.13,561,81.13V63.37h-8.4Zm-114.24,0H465V51.49c3.84-5.88,10.56-10.8,20.76-10.8,15.6,0,24.72,11.4,24.72,28.92v39.24H483.94V73c0-6.48-3.72-10.44-9.48-10.44S465,66.49,465,73v35.88H438.34Zm-169.92,0h26.64v9.24c3.24-6.12,9.6-10.08,18.6-10.08,15.6,0,28,12.84,28,34.68s-12.36,34.68-28,34.68c-9,0-15.36-4-18.6-10.08v41.64H268.42Zm-50.16-.84c20.28,0,34.56,12.84,34.56,34.08a39,39,0,0,1-.36,5.28H209.74c.36,6.84,3.6,8.76,7.2,8.76a6.45,6.45,0,0,0,6.24-4h28.2c-2.88,14.4-16.08,25.2-33.12,25.2C198,109.69,183.7,96.61,183.7,75S198,40.33,218.26,40.33ZM9.83,108.85v-85H45.22c27.12,0,44.16,17.76,44.16,42.24,0,24.24-17,42.72-44.16,42.72Zm95.25,128.2H95c-15.84,0-27.84-6.72-27.84-27.72V191.57h-8.4v-22.2h8.4V153.05H93.8v16.32h11v22.2h-11v18.24c0,3.12,1.44,4.56,4.92,4.56h6.36Zm-2.5-162c0-21.6,14.28-34.68,34.56-34.68S171.7,53.17,171.7,74.41a39,39,0,0,1-.36,5.28H128.62c.36,6.84,3.6,8.76,7.2,8.76a6.45,6.45,0,0,0,6.24-4h28.2c-2.88,14.4-16.08,25.2-33.12,25.2C116.86,109.69,102.58,96.61,102.58,75Zm92,162H168.08V201.17c0-6.48-3.72-10.44-9.48-10.44s-9.48,4-9.48,10.44v35.88H122.48v-88.8h26.64v31.44c3.84-5.88,10.56-10.8,20.76-10.8,15.6,0,24.72,11.4,24.72,28.92Zm15.12-33.84c0-21.6,14.28-34.68,34.56-34.68s34.56,12.84,34.56,34.08a39,39,0,0,1-.36,5.28H235.76c.36,6.84,3.6,8.76,7.2,8.76a6.45,6.45,0,0,0,6.24-4h28.2c-2.88,14.4-16.08,25.2-33.12,25.2C224,237.89,209.72,224.81,209.72,203.21Zm72.57,162.85c-20.4,0-35.76-13.08-35.76-34.68s15.36-34.68,35.76-34.68S318,309.78,318,331.38,302.69,366.06,282.29,366.06Zm90.35-73.32c-6.11-.72-8.87.48-9.71,4.8h9.71v22.2h-9.95v45.48H336.05V319.74h-7.2v-22.2h7.2c.24-19.2,13.68-29.52,36.59-27.48Zm-11.48-79.69a14.46,14.46,0,0,0,13.56-8.88H402.8c-3.48,20-18.72,33.48-41.16,33.48-26,0-42-17.88-42-43.2s16-43.2,42-43.2c22.44,0,37.68,13.44,41.16,33.48H374.72a14.46,14.46,0,0,0-13.56-8.88c-9,0-14.52,7.32-14.52,18.6S352.16,213.05,361.16,213.05Zm27-103.36c-20.28,0-34.56-13.08-34.56-34.68s14.28-34.68,34.56-34.68,34.56,12.84,34.56,34.08a39,39,0,0,1-.36,5.28H379.66c.36,6.84,3.6,8.76,7.2,8.76a6.45,6.45,0,0,0,6.24-4h28.2C418.42,98.89,405.22,109.69,388.18,109.69Zm53.1,255.53H414.65v-85h26.63ZM416,203.21c0-21.6,15.36-34.68,35.76-34.68s35.76,13.08,35.76,34.68-15.36,34.68-35.76,34.68S416,224.81,416,203.21Zm114.08,162H503.44V356c-3.24,6.12-9.6,10.08-18.6,10.08-15.6,0-28-12.84-28-34.68s12.36-34.68,28-34.68c9,0,15.36,4,18.6,10.08V276.42h26.64Zm-.32-155.89v27.72H503.12V169.37h26.64v12.48c5.28-7.56,13.44-13,22.2-13v28.44H544.4C534.8,197.33,529.76,200.09,529.76,209.33Zm84.68,126.73H571.72c.36,6.84,3.6,8.76,7.2,8.76a6.45,6.45,0,0,0,6.24-4h28.2c-2.88,14.4-16.08,25.2-33.12,25.2-20.28,0-34.56-13.08-34.56-34.68S560,296.7,580.24,296.7s34.56,12.84,34.56,34.08A39,39,0,0,1,614.44,336.06Zm-17.12-98.17c-20.28,0-34.56-13.08-34.56-34.68s14.28-34.68,34.56-34.68,34.55,12.84,34.55,34.08a39,39,0,0,1-.36,5.28H588.8c.36,6.84,3.6,8.76,7.2,8.76a6.45,6.45,0,0,0,6.24-4h28.19C627.55,227.09,614.36,237.89,597.32,237.89ZM700,365.22H673.48V356c-3.24,6.12-9.72,10.08-18.72,10.08-15.6,0-28-12.84-28-34.68s12.36-34.68,28-34.68c9,0,15.48,4,18.72,10.08v-9.24H700Z"/><path class="cls-2" d="M304.78,86.41c5.52,0,9.84-4,9.84-11.4s-4.32-11.4-9.84-11.4-9.84,4-9.84,11.4S299.26,86.41,304.78,86.41Z"/><path class="cls-2" d="M218.26,61.21c-4.44,0-7.44,2.16-8.28,6.84h15.84C225.82,63.37,222.22,61.21,218.26,61.21Z"/><path class="cls-2" d="M580.24,317.58c-4.44,0-7.44,2.16-8.28,6.84H587.8C587.8,319.74,584.2,317.58,580.24,317.58Z"/><path class="cls-2" d="M597.32,189.41c-4.44,0-7.44,2.16-8.28,6.84h15.84C604.88,191.57,601.28,189.41,597.32,189.41Z"/><g class="cls-3"><path class="cls-4" d="M611.09,313.81c.4.79.79,1.59,1.13,2.42a29,29,0,0,1,4.71,6.26,35.58,35.58,0,0,1,4.44,18.12,37.33,37.33,0,0,1-.36,5.28h-9.08c-.13.34-.28.67-.43,1h10.38L622,346a37.93,37.93,0,0,0,.37-5.42A36.61,36.61,0,0,0,617.8,322a29.84,29.84,0,0,0-6.71-8.18"/><polygon class="cls-4" points="335.34 329.65 335.34 319.74 334.34 319.74 334.34 330.65 336.04 330.65 336.04 329.65 335.34 329.65"/><path class="cls-4" d="M530.17,286.34h6.5v88.8H510V365.9c-.31.57-.64,1.12-1,1.65a19.05,19.05,0,0,1-6.32,5.79A22.62,22.62,0,0,1,491.43,376a25.88,25.88,0,0,1-14.28-4.08,28.83,28.83,0,0,1-10.08-12c-.19-.43-.36-.87-.54-1.3a24.61,24.61,0,0,1-1.8-2,36.53,36.53,0,0,0,1.43,3.71h0a29.83,29.83,0,0,0,10.43,12.4h0A26.88,26.88,0,0,0,491.43,377a23.63,23.63,0,0,0,11.77-2.77h0a20,20,0,0,0,5.82-5v6.9h28.64v-90.8h-7.5Z"/><path class="cls-4" d="M700,306.42v1h6.5V375.1H680v-9.24c-.31.57-.64,1.12-1,1.65a18.85,18.85,0,0,1-6.32,5.79,23.31,23.31,0,0,1-11.4,2.64A25.88,25.88,0,0,1,647,371.86a28.83,28.83,0,0,1-10.08-12c-.19-.42-.37-.86-.54-1.3a24.47,24.47,0,0,1-1.8-2,36.53,36.53,0,0,0,1.43,3.71h0a29.85,29.85,0,0,0,10.43,12.41h0a26.88,26.88,0,0,0,14.82,4.24,24.28,24.28,0,0,0,11.88-2.76h0a20.21,20.21,0,0,0,5.82-5v6.9h28.52V306.42Z"/><path class="cls-4" d="M619.84,350.83c-.07.34-.14.67-.22,1a29.32,29.32,0,0,1-5.9,12,32.76,32.76,0,0,1-11.64,9A36,36,0,0,1,586.72,376a37.83,37.83,0,0,1-18-4.2,30.46,30.46,0,0,1-12.24-12,32.73,32.73,0,0,1-1.58-3.39c-.63-.63-1.22-1.3-1.79-2a33.83,33.83,0,0,0,2.49,5.86h0a31.43,31.43,0,0,0,12.64,12.38h0A38.9,38.9,0,0,0,586.72,377a36.89,36.89,0,0,0,15.78-3.33h0a33.77,33.77,0,0,0,12-9.28A30.37,30.37,0,0,0,620.82,351l.24-1.2H610c-.19.34-.39.68-.59,1Z"/><path class="cls-4" d="M314.16,314.37q.68,1.25,1.23,2.55a31,31,0,0,1,4.55,6.08,35.11,35.11,0,0,1,4.67,18.39,35.75,35.75,0,0,1-4.67,18.51,30.7,30.7,0,0,1-12.7,12,42.1,42.1,0,0,1-36.66,0,30.41,30.41,0,0,1-14.76-16c-.62-.63-1.21-1.28-1.78-2a34.17,34.17,0,0,0,2.85,6.48h0a32.57,32.57,0,0,0,13.22,12.4,43,43,0,0,0,37.58,0,31.67,31.67,0,0,0,13.1-12.41,36.78,36.78,0,0,0,4.81-19,36.17,36.17,0,0,0-4.81-18.9,31.49,31.49,0,0,0-6.64-8.12"/><path class="cls-4" d="M491.38,341.29c0-3.43.88-6,2.5-7.72a8.19,8.19,0,0,1,6.34-2.68,9.11,9.11,0,0,1,3.34.6v-.11c0-.33,0-.64,0-1a10,10,0,0,0-3.31-.53,9.19,9.19,0,0,0-7.08,3q-2.76,3-2.76,8.4c0,.33,0,.65,0,1,.33.11.67.2,1,.28,0-.4,0-.82,0-1.25"/><path class="cls-4" d="M281,341.29c0-3.72.81-6.32,2.27-8h0a6.83,6.83,0,0,1,5.48-2.64,7.26,7.26,0,0,1,2.25.35c0-.35,0-.7,0-1a8,8,0,0,0-2.21-.31,7.84,7.84,0,0,0-6.24,3q-2.52,2.88-2.52,8.64c0,.5,0,1,0,1.45a8.36,8.36,0,0,0,1,.2c0-.53-.06-1.07-.06-1.65"/><polygon class="cls-4" points="441.27 290.19 447.77 290.19 447.77 375.15 421.13 375.15 421.13 365.24 420.13 365.24 420.13 376.15 448.77 376.15 448.77 289.19 441.27 289.19 441.27 290.19"/><path class="cls-4" d="M661.3,341.31c0-3.43.87-6,2.5-7.73a8.17,8.17,0,0,1,6.34-2.67,8.91,8.91,0,0,1,3.34.6v-.11c0-.33,0-.65,0-1a10.39,10.39,0,0,0-3.31-.52,9.19,9.19,0,0,0-7.08,3q-2.76,3-2.76,8.4c0,.33,0,.65,0,1a8.89,8.89,0,0,0,1,.28c0-.4,0-.81,0-1.24"/><path class="cls-4" d="M373.62,278.93l-1,0v1l1,0q1.68,0,5.52.24v22.68l-1-.1c-.91-.09-1.58-.14-2-.14a8.89,8.89,0,0,0-3.5.61v1.1a7.25,7.25,0,0,1,3.5-.71c.5,0,1.45.08,2.89.24l1.11.12V279.24l-.93-.06c-2.56-.16-4.43-.25-5.59-.25"/><polygon class="cls-4" points="379.17 307.45 379.17 329.65 369.21 329.65 369.21 375.13 342.57 375.13 342.57 365.23 341.57 365.23 341.57 376.13 370.21 376.13 370.21 330.65 380.17 330.65 380.17 306.45 372.67 306.45 372.67 307.45 379.17 307.45"/></g></svg>