<svg width="202" height="30" viewBox="0 0 202 30" fill="none" xmlns="http://www.w3.org/2000/svg">
<g clip-path="url(#clip0_218_2023)">
<path d="M12.3694 10.5571C12.3694 10.5571 10.7067 10.3857 10.7067 11.8714V18.4571H21.7431V20.4429C21.7494 20.5752 21.7277 20.7074 21.6793 20.8308C21.6309 20.9541 21.557 21.066 21.4623 21.159C21.3676 21.252 21.2544 21.3241 21.1299 21.3705C21.0054 21.417 20.8725 21.4368 20.7398 21.4286H10.7067V30H22.7464C22.7464 30 30.0993 28.8857 30.0993 21.4286V10.5571H12.3694ZM29.7696 0H8.02647C0.171996 1.84286 0 8.27143 0 8.27143V30H8.35613V10.2143C8.36479 9.74337 8.53645 9.2899 8.84204 8.93064C9.14764 8.57139 9.5684 8.32841 10.0331 8.24286H29.7696V0ZM58.4356 23.7857C57.8623 24.1714 57.4323 24.4429 57.1313 24.6286C56.159 25.2269 55.1433 25.7521 54.0927 26.2C52.9303 26.7133 51.6798 26.9995 50.4091 27.0429C46.9394 27.1602 43.5624 25.9134 41.0067 23.5714C39.7868 22.4728 38.8207 21.1234 38.1748 19.6165C37.529 18.1095 37.2188 16.4809 37.2658 14.8429C37.2112 11.5816 38.4291 8.42665 40.6627 6.04286C41.678 4.85698 42.9426 3.90823 44.3668 3.26387C45.7911 2.61951 47.3401 2.29532 48.9041 2.31429C50.3661 2.32697 51.817 2.56799 53.204 3.02857C54.9775 3.54434 56.6065 4.46375 57.9626 5.71429L55.7983 8.14286C54.7954 7.22095 53.5868 6.5501 52.2724 6.18571C51.1489 5.86775 49.9861 5.70905 48.8181 5.71429C47.7164 5.69919 46.6259 5.93751 45.6316 6.41074C44.6373 6.88397 43.7658 7.57936 43.0849 8.44286C41.5625 10.2816 40.7491 12.602 40.7917 14.9857C40.7607 16.152 40.9785 17.3116 41.4306 18.3878C41.8828 19.464 42.559 20.4323 43.4146 21.2286C45.2135 22.9026 47.6054 23.7967 50.0651 23.7143C51.285 23.6816 52.4735 23.3213 53.505 22.6714C54.4797 21.9286 54.9383 21.5714 54.9383 21.5571V16.3429H47.7432L48.7321 13.0857H58.4069L58.4356 23.7857ZM80.4224 17.4143C80.4398 18.6297 80.21 19.8361 79.7469 20.9606C79.2838 22.0851 78.597 23.1044 77.7278 23.9571C76.878 24.8302 75.861 25.5244 74.7371 25.9984C73.6132 26.4724 72.4052 26.7166 71.1848 26.7166C69.9644 26.7166 68.7564 26.4724 67.6324 25.9984C66.5085 25.5244 65.4915 24.8302 64.6418 23.9571C63.7537 23.1105 63.0518 22.0892 62.5806 20.958C62.1093 19.8268 61.879 18.6103 61.9042 17.3857C61.8889 14.9485 62.8182 12.5994 64.4984 10.8286C65.2958 9.91921 66.2814 9.19291 67.3875 8.69967C68.4935 8.20643 69.6937 7.95798 70.9053 7.97143C72.1576 7.92815 73.4056 8.14068 74.5724 8.59592C75.7393 9.05117 76.8004 9.73951 77.6905 10.6186C78.5806 11.4977 79.2808 12.5491 79.7482 13.7079C80.2155 14.8667 80.4401 16.1086 80.408 17.3571L80.4224 17.4143ZM77.0111 17.4143C77.0249 16.6218 76.8799 15.8346 76.5845 15.0986C76.2892 14.3627 75.8495 13.693 75.2912 13.1286C74.7437 12.5425 74.0767 12.0799 73.3351 11.7719C72.5935 11.4639 71.7943 11.3176 70.9913 11.3429C70.2226 11.3364 69.4617 11.4966 68.7613 11.8124C68.0609 12.1281 67.4378 12.5918 66.935 13.1714C65.8545 14.3041 65.2538 15.8085 65.2581 17.3714C65.2375 18.1635 65.378 18.9516 65.6712 19.6881C65.9643 20.4247 66.404 21.0945 66.9637 21.6571C67.4971 22.234 68.1472 22.6915 68.8711 22.9994C69.5951 23.3072 70.3764 23.4584 71.1633 23.4429C71.9271 23.4483 72.6836 23.2949 73.3846 22.9923C74.0855 22.6898 74.7153 22.2447 75.2338 21.6857C75.7946 21.1455 76.239 20.4969 76.5396 19.7797C76.8403 19.0624 76.991 18.2916 76.9825 17.5143L77.0111 17.4143ZM102.123 17.4143C102.137 18.6293 101.905 19.8347 101.442 20.9587C100.98 22.0828 100.294 23.1025 99.4279 23.9571C98.5782 24.8302 97.5612 25.5244 96.4372 25.9984C95.3133 26.4724 94.1053 26.7166 92.8849 26.7166C91.6645 26.7166 90.4565 26.4724 89.3326 25.9984C88.2086 25.5244 87.1917 24.8302 86.3419 23.9571C85.452 23.1112 84.7479 22.0904 84.2742 20.9592C83.8005 19.8281 83.5675 18.6112 83.59 17.3857C83.5614 14.9237 84.5032 12.5487 86.2129 10.7714C87.0097 9.86133 87.9952 9.13451 89.1013 8.6412C90.2075 8.1479 91.408 7.89988 92.6198 7.91429C93.8721 7.87101 95.12 8.08353 96.2869 8.53878C97.4538 8.99402 98.5149 9.68237 99.405 10.5615C100.295 11.4406 100.995 12.4919 101.463 13.6507C101.93 14.8096 102.155 16.0515 102.123 17.3V17.4143ZM98.7113 17.4143C98.7256 16.6205 98.5794 15.8319 98.2815 15.0956C97.9835 14.3593 97.5399 13.6903 96.977 13.1286C96.4306 12.541 95.7639 12.0774 95.022 11.7693C94.2801 11.4612 93.4804 11.3158 92.6771 11.3429C91.9066 11.3382 91.1441 11.4991 90.4417 11.8146C89.7392 12.1302 89.1133 12.593 88.6065 13.1714C87.5299 14.3055 86.9343 15.8102 86.9439 17.3714C86.9239 18.1622 87.0633 18.949 87.3538 19.6851C87.6443 20.4212 88.08 21.0918 88.6352 21.6571C89.1713 22.2344 89.824 22.692 90.5503 22.9998C91.2766 23.3076 92.06 23.4586 92.8491 23.4429C93.6129 23.4483 94.3694 23.2949 95.0704 22.9923C95.7713 22.6898 96.4011 22.2447 96.9196 21.6857C97.4805 21.1455 97.9248 20.4969 98.2254 19.7797C98.5261 19.0624 98.6768 18.2916 98.6683 17.5143L98.7113 17.4143ZM122.203 26.1714L119.05 26.6571V23.6857L118.376 24.4429C116.923 25.8275 114.982 26.5869 112.973 26.5571C111.8 26.5787 110.636 26.3487 109.561 25.8829C108.485 25.417 107.522 24.7262 106.738 23.8571C105.071 22.127 104.155 19.8126 104.186 17.4143C104.146 14.9688 105.049 12.6011 106.709 10.8C107.471 9.91856 108.418 9.21474 109.483 8.73831C110.548 8.26188 111.705 8.02446 112.872 8.04286C114.121 8.01352 115.361 8.24718 116.513 8.72857C117.206 9.04926 117.837 9.48934 118.376 10.0286C118.562 10.2571 118.734 10.5143 118.906 10.7429V2.85714L122.246 2.37143L122.203 26.1714ZM119.25 17.6C119.278 16.7801 119.141 15.9629 118.845 15.1971C118.55 14.4314 118.103 13.7328 117.53 13.1429C117.007 12.5598 116.367 12.0931 115.651 11.7732C114.934 11.4532 114.159 11.2871 113.374 11.2857C112.586 11.2551 111.8 11.3965 111.072 11.7C110.344 12.0035 109.692 12.4618 109.16 13.0429C108.097 14.1455 107.502 15.6139 107.497 17.1429C107.44 18.778 108.003 20.3747 109.074 21.6143C109.568 22.1841 110.184 22.6373 110.875 22.9412C111.567 23.245 112.317 23.392 113.073 23.3714C114.639 23.3851 116.151 22.8026 117.301 21.7429C117.907 21.2451 118.394 20.6187 118.727 19.9093C119.059 19.2 119.228 18.4257 119.222 17.6429L119.25 17.6ZM139.847 6.11429H130.502V12.4571H137.754V15.7143H130.502V26.2L126.861 26.7429V2.85714H139.13L139.847 6.11429ZM147.357 4.28571L145.121 7.14286L142.972 4.28571L145.236 1.42857L147.357 4.28571ZM146.684 26.2571L143.344 26.7143V8.98571L146.684 8.48571V26.2286V26.2571ZM161.776 8.3L160.2 11.9143C159.995 11.9001 159.789 11.9001 159.583 11.9143C159.259 11.8859 158.933 11.8859 158.609 11.9143C158.244 11.9816 157.892 12.1019 157.562 12.2714C156.74 12.7122 156.096 13.4242 155.742 14.2857C155.154 15.4098 154.854 16.6611 154.868 17.9286V26.2286L151.528 26.7714V8.98571L154.624 8.42857V12.1143C155.011 11.4857 155.441 10.8429 155.843 10.1857C156.379 9.55377 157.063 9.06314 157.835 8.75714C158.56 8.55191 159.304 8.42264 160.056 8.37143C160.627 8.30267 161.202 8.27879 161.776 8.3ZM186.658 26.2286L183.319 26.7143V14.5714C183.393 13.6877 183.127 12.809 182.574 12.1143C182.267 11.8595 181.913 11.6678 181.532 11.5501C181.15 11.4324 180.749 11.3911 180.352 11.4286C179.825 11.4032 179.302 11.5231 178.839 11.7752C178.376 12.0272 177.992 12.4016 177.729 12.8571C177.331 13.4815 177.112 14.2031 177.098 14.9429V26.2429L173.759 26.8571V14.6429C173.818 13.7696 173.564 12.9036 173.042 12.2C172.78 11.9269 172.46 11.7159 172.105 11.5824C171.75 11.4489 171.37 11.3963 170.993 11.4286H170.677C170.159 11.3946 169.642 11.5116 169.189 11.7652C168.736 12.0188 168.367 12.3982 168.126 12.8571C167.702 13.7483 167.5 14.7286 167.538 15.7143V26.2571L164.07 26.8714V8.98571L167.18 8.45714V10.7286C167.475 10.2633 167.821 9.83215 168.212 9.44286C169.045 8.63856 170.162 8.1923 171.322 8.2C172.353 8.12645 173.382 8.34959 174.289 8.84286C175.012 9.39008 175.588 10.1065 175.966 10.9286C176.466 10.1617 177.134 9.51887 177.921 9.04902C178.708 8.57918 179.593 8.29481 180.507 8.21763C181.421 8.14044 182.34 8.27249 183.195 8.60368C184.05 8.93487 184.818 9.45645 185.44 10.1286C186.345 11.5282 186.772 13.1817 186.658 14.8429V26.2286ZM201.923 20.8571C201.945 21.6105 201.803 22.3597 201.506 23.0529C201.209 23.746 200.765 24.3665 200.203 24.8714C199.032 25.938 197.489 26.5069 195.903 26.4571C194.653 26.4751 193.421 26.1594 192.334 25.5429C191.381 25.0357 190.56 24.3113 189.941 23.4286L192.291 21.3429C192.433 21.5548 192.591 21.7554 192.764 21.9429C193.166 22.3711 193.653 22.7126 194.193 22.946C194.732 23.1795 195.315 23.2999 195.903 23.3C196.627 23.3398 197.339 23.105 197.896 22.6429C198.147 22.4088 198.343 22.1221 198.469 21.8034C198.595 21.4847 198.649 21.142 198.627 20.8C198.627 19.9143 198.053 19.3 196.907 18.9714C194.628 18.2857 193.409 17.9 193.237 17.8286C192.363 17.4264 191.59 16.836 190.973 16.1C190.4 15.2231 190.119 14.1882 190.17 13.1429C190.157 12.4228 190.302 11.7085 190.594 11.0498C190.886 10.3911 191.318 9.80373 191.861 9.32857C192.952 8.32504 194.391 7.78221 195.875 7.81429C197.014 7.79924 198.139 8.0746 199.142 8.61429C199.999 9.00586 200.739 9.61109 201.292 10.3714L199.228 12.5286C198.927 12.2303 198.601 11.9579 198.254 11.7143C197.594 11.2066 196.793 10.9125 195.961 10.8714C195.354 10.8475 194.755 11.0068 194.241 11.3286C193.987 11.527 193.786 11.7846 193.657 12.0786C193.527 12.3726 193.471 12.6939 193.495 13.0143C193.472 13.3212 193.532 13.6286 193.668 13.9049C193.804 14.1811 194.012 14.4162 194.269 14.5857C195.177 15.0233 196.142 15.3311 197.136 15.5C198.468 15.7529 199.695 16.3942 200.662 17.3429C201.103 17.8108 201.443 18.3643 201.66 18.969C201.877 19.5737 201.967 20.2164 201.923 20.8571Z" fill="#C0C3C9"/>
</g>
<defs>
<clipPath id="clip0_218_2023">
<rect width="201.923" height="30" fill="white"/>
</clipPath>
</defs>
</svg>
