<svg width="67" height="19" viewBox="0 0 67 19" fill="none" xmlns="http://www.w3.org/2000/svg">
<g clip-path="url(#clip0_75_1705)">
<path d="M17.4409 0H20.4897V19H17.4409V0ZM31.1604 12.939C31.1604 15.8468 28.7084 16.0786 27.979 16.0786C26.1566 16.0786 25.825 14.3777 25.825 13.3517V6.08H22.7763V13.3365C22.7763 15.1377 23.3433 16.6242 24.3372 17.6153C25.2153 18.4916 26.5308 18.9704 27.9561 18.9704C28.9668 18.9704 30.3982 18.6565 31.1604 17.9626V19H34.2091V6.08H31.1604V12.939ZM40.3067 1.52H37.2579V6.08H34.9713V9.12H37.2579V19H40.3067V9.12H42.5933V6.08H40.3067V1.52ZM52.1946 15.1369C51.5307 15.732 50.6542 16.0618 49.6923 16.0618C47.5719 16.0618 46.0147 14.5092 46.0147 12.3774C46.0147 10.2456 47.5224 8.75824 49.6923 8.75824C50.6374 8.75824 51.5307 9.07212 52.2114 9.6672L52.674 10.0639L54.7296 8.01496L54.2152 7.55212C53.0056 6.46304 51.3996 5.852 49.6916 5.852C45.8806 5.852 43.1131 8.59408 43.1131 12.3614C43.1131 16.1128 45.9469 18.9529 49.6916 18.9529C51.4316 18.9529 53.0544 18.3418 54.2487 17.2353L54.7457 16.7724L52.658 14.725L52.1946 15.1369ZM65.6115 7.20632C64.7334 6.3308 63.7045 5.852 62.2792 5.852C61.2685 5.852 60.1237 6.16588 59.3615 6.859V0H56.3127V19H59.3615V11.8826C59.3615 8.97484 61.4331 8.7438 62.1626 8.7438C63.985 8.7438 63.9346 10.4454 63.9346 11.4699V19H66.9834V11.4859C66.9834 9.68468 66.6061 8.19812 65.6115 7.20632Z" fill="white"/>
<path d="M49.592 10.2129C50.1766 10.2129 50.7372 10.4445 51.1506 10.8566C51.564 11.2688 51.7962 11.8279 51.7962 12.4108C51.7962 12.9937 51.564 13.5528 51.1506 13.965C50.7372 14.3772 50.1766 14.6087 49.592 14.6087C49.0073 14.6087 48.4467 14.3772 48.0333 13.965C47.6199 13.5528 47.3877 12.9937 47.3877 12.4108C47.3877 11.8279 47.6199 11.2688 48.0333 10.8566C48.4467 10.4445 49.0073 10.2129 49.592 10.2129Z" fill="#FF3D2E"/>
<path d="M13.1728 14.2282C12.0135 15.4176 10.4388 16.0621 8.78181 16.0621C5.38548 16.0621 2.91598 13.4021 2.91598 9.75103C2.91598 6.08327 5.38548 3.42327 8.78181 3.42327C10.4228 3.42327 11.98 4.06699 13.1568 5.24043L13.6202 5.70327L15.6583 3.67103L15.2109 3.20819C13.5211 1.47311 11.2345 0.532227 8.78181 0.532227C3.77802 0.532227 0.0166016 4.49715 0.0166016 9.76699C0.0166016 15.0209 3.79479 18.9698 8.78181 18.9698C11.2513 18.9698 13.5379 18.0122 15.2277 16.2771L15.6751 15.8143L13.6537 13.7494L13.1728 14.2282Z" fill="white"/>
</g>
<defs>
<clipPath id="clip0_75_1705">
<rect width="67" height="19" fill="white"/>
</clipPath>
</defs>
</svg>
