<svg width="15" height="14" viewBox="0 0 15 14" fill="none" xmlns="http://www.w3.org/2000/svg">
<path d="M5.71939 11.4303C6.9983 11.4316 8.24039 11.0014 9.24469 10.2096L13.035 14L14.0043 13.0308L10.2139 9.24041C11.285 7.87332 11.6767 6.09351 11.2778 4.40326C10.8792 2.71294 9.73359 1.29559 8.16442 0.551384C6.59526 -0.192824 4.77291 -0.183271 3.21174 0.577536C1.65058 1.33836 0.519937 2.76762 0.139137 4.46195C-0.241667 6.15645 0.168638 7.93209 1.2541 9.28767C2.33959 10.6433 3.98273 11.4317 5.71935 11.4304L5.71939 11.4303ZM5.71939 1.37148C6.87138 1.37148 7.97631 1.82915 8.79085 2.6437C9.6054 3.45825 10.0631 4.56305 10.0631 5.715C10.0631 6.86695 9.6054 7.97191 8.79085 8.78646C7.97631 9.60101 6.87134 10.0587 5.71939 10.0587C4.56744 10.0587 3.46264 9.60101 2.64809 8.78646C1.83355 7.97191 1.37588 6.86695 1.37588 5.715C1.37588 4.56305 1.83355 3.45825 2.64809 2.6437C3.46264 1.82915 4.56744 1.37148 5.71939 1.37148Z" fill="black"/>
</svg>
