<svg width="118" height="207" viewBox="0 0 118 207" fill="none" xmlns="http://www.w3.org/2000/svg">
<path d="M103.5 202.5H103.505C129.751 202.472 154.915 192.033 173.474 173.474C192.033 154.915 202.472 129.751 202.5 103.505V103.5C202.5 83.9197 196.694 64.779 185.815 48.4985C174.937 32.2181 159.476 19.529 141.386 12.0359C123.296 4.54287 103.39 2.58237 84.1861 6.40231C64.982 10.2222 47.3418 19.6511 33.4964 33.4965C19.651 47.3419 10.2222 64.982 6.40229 84.1861C2.58235 103.39 4.54293 123.296 12.036 141.386C19.5291 159.476 32.2181 174.937 48.4986 185.815C64.7791 196.694 83.9197 202.5 103.5 202.5ZM56.3367 32.915C70.2963 23.5875 86.7083 18.6087 103.497 18.6082C126.005 18.6345 147.583 27.5871 163.498 43.5022C179.414 59.418 188.366 80.997 188.392 103.505C188.391 120.293 183.412 136.704 174.085 150.663C164.757 164.624 151.499 175.505 135.987 181.93C120.475 188.355 103.406 190.036 86.9384 186.761C70.471 183.485 55.3448 175.4 43.4725 163.528C31.6001 151.655 23.5148 136.529 20.2393 120.062C16.9637 103.594 18.6448 86.5253 25.0701 71.0133C31.4953 55.5014 42.3763 42.2431 56.3367 32.915Z" fill="black" stroke="black" stroke-width="9"/>
</svg>
