<svg width="54" height="116" viewBox="0 0 54 116" fill="none" xmlns="http://www.w3.org/2000/svg">
<path d="M119.124 93.5199L99.3606 75.4361C91.7854 83.2847 81.4452 87.8656 70.5425 88.203C59.6397 88.5404 49.036 84.6077 40.99 77.2426C32.9427 69.879 28.0884 59.6644 27.4612 48.7746C26.8339 37.8849 30.4833 27.1805 37.6319 18.9416L17.8683 0.85772C5.92092 14.3439 -0.245543 31.9864 0.699484 49.9786C1.64451 67.9708 9.62526 84.8703 22.9197 97.0306C36.2125 109.178 53.7452 115.616 71.7402 114.96C89.7352 114.303 106.752 106.603 119.124 93.5199Z" fill="url(#paint0_linear_223_2474)"/>
<defs>
<linearGradient id="paint0_linear_223_2474" x1="117.401" y1="54.6883" x2="-13.5" y2="36" gradientUnits="userSpaceOnUse">
<stop offset="0.60594" stop-color="#1C1C1E"/>
<stop offset="1" stop-color="#1C1C1E" stop-opacity="0"/>
</linearGradient>
</defs>
</svg>
