<svg width="291" height="291" viewBox="0 0 291 291" fill="none" xmlns="http://www.w3.org/2000/svg">
<g clip-path="url(#clip0_223_2472)">
<path d="M118.172 150.062L160.432 125.663C150.959 108.196 148.679 87.7213 154.079 68.5989C159.478 49.4765 172.13 33.2179 189.34 23.2862C206.548 13.3514 226.955 10.5278 246.214 15.4169C265.473 20.306 282.062 32.5214 292.448 49.4611L334.708 25.0617C317.843 -3.09389 290.585 -23.4904 258.815 -31.7269C227.046 -39.9633 193.311 -35.3794 164.891 -18.9642C136.495 -2.54457 115.686 24.3733 106.947 55.9896C98.2079 87.6059 102.239 121.39 118.172 150.062Z" fill="url(#paint0_linear_223_2472)"/>
<path d="M356.124 169.52L336.361 151.436C328.785 159.285 318.445 163.866 307.542 164.203C296.64 164.54 286.036 160.608 277.99 153.243C269.943 145.879 265.088 135.664 264.461 124.775C263.834 113.885 267.483 103.18 274.632 94.9416L254.868 76.8577C242.921 90.3439 236.754 107.986 237.699 125.979C238.645 143.971 246.625 160.87 259.92 173.031C273.212 185.178 290.745 191.616 308.74 190.96C326.735 190.303 343.752 182.603 356.124 169.52Z" fill="url(#paint1_linear_223_2472)"/>
</g>
<defs>
<linearGradient id="paint0_linear_223_2472" x1="154" y1="53.5" x2="148.5" y2="150" gradientUnits="userSpaceOnUse">
<stop stop-color="#1C1C1E"/>
<stop offset="1" stop-color="#1C1C1E" stop-opacity="0"/>
</linearGradient>
<linearGradient id="paint1_linear_223_2472" x1="354.401" y1="130.688" x2="223.5" y2="112" gradientUnits="userSpaceOnUse">
<stop offset="0.60594" stop-color="#1C1C1E"/>
<stop offset="1" stop-color="#1C1C1E" stop-opacity="0"/>
</linearGradient>
<clipPath id="clip0_223_2472">
<rect width="291" height="291" fill="white"/>
</clipPath>
</defs>
</svg>
