<svg width="47" height="44" viewBox="0 0 47 44" fill="none" xmlns="http://www.w3.org/2000/svg">
<path d="M39.5 40C43.6421 40 47 36.6421 47 32.5C47 28.3579 43.6421 25 39.5 25C35.3579 25 32 28.3579 32 32.5C32 36.6421 35.3579 40 39.5 40Z" fill="url(#paint0_linear_223_2146)"/>
<path d="M25 36C33.8366 36 41 28.8366 41 20C41 11.1634 33.8366 4 25 4C16.1634 4 9 11.1634 9 20C9 28.8366 16.1634 36 25 36Z" stroke="white" stroke-width="5" stroke-miterlimit="10"/>
<path d="M13.5 40C19.8513 40 25 34.8513 25 28.5C25 22.1487 19.8513 17 13.5 17C7.14872 17 2 22.1487 2 28.5C2 34.8513 7.14872 40 13.5 40Z" fill="url(#paint1_linear_223_2146)"/>
<defs>
<linearGradient id="paint0_linear_223_2146" x1="39.4294" y1="27.0565" x2="39.4294" y2="39.9093" gradientUnits="userSpaceOnUse">
<stop stop-color="#FEC506"/>
<stop offset="1" stop-color="#FEC506" stop-opacity="0.2"/>
</linearGradient>
<linearGradient id="paint1_linear_223_2146" x1="13.3918" y1="20.1533" x2="13.3918" y2="39.8609" gradientUnits="userSpaceOnUse">
<stop stop-color="#FEC506"/>
<stop offset="1" stop-color="#FEC506" stop-opacity="0.2"/>
</linearGradient>
</defs>
</svg>
