<svg width="85" height="85" viewBox="0 0 85 85" fill="none" xmlns="http://www.w3.org/2000/svg">
<g clip-path="url(#clip0_790_687303)">
<path d="M15.8586 18.1119L10.1938 11.9605L14.2771 8.26831L15.0391 9.09515L11.8904 11.9463L13.4575 13.6499L16.4337 10.9626L17.1526 11.7681L14.198 14.4696L16.0311 16.4511L19.1726 13.6L19.9346 14.4268L15.8586 18.1119Z" fill="white"/>
<path d="M23.0329 12.5522C22.6855 12.7649 22.3169 12.9416 21.933 13.0796C21.5785 13.2111 21.2092 13.2997 20.8332 13.3433L20.4593 12.3811C20.8232 12.3267 21.1817 12.2409 21.5305 12.1245C21.8611 12.0151 22.1773 11.8667 22.4722 11.6825C22.7636 11.5305 23.011 11.3073 23.1911 11.0339C23.2494 10.9382 23.2803 10.8285 23.2803 10.7167C23.2803 10.6049 23.2494 10.4952 23.1911 10.3995C23.1248 10.2835 23.0209 10.1931 22.8963 10.1429C22.738 10.1051 22.573 10.1051 22.4147 10.1429C22.1456 10.1956 21.8812 10.2695 21.6239 10.3639C21.1899 10.5095 20.7418 10.6099 20.2868 10.6633C19.9676 10.7017 19.6438 10.6601 19.3451 10.5421C19.0781 10.4212 18.8549 10.2222 18.7053 9.97186C18.5666 9.77143 18.4819 9.53915 18.4593 9.29713C18.4366 9.0551 18.4768 8.81136 18.5759 8.58905C18.8703 8.031 19.3225 7.57024 19.877 7.26326C20.204 7.05841 20.5508 6.88648 20.9122 6.75006C21.2595 6.61882 21.6216 6.53025 21.9905 6.48633L22.3572 7.43434C22.0186 7.47557 21.6859 7.55448 21.3651 7.66956C21.052 7.78796 20.7511 7.93595 20.4665 8.11148C20.1806 8.25545 19.934 8.46574 19.7476 8.72448C19.6934 8.80984 19.6646 8.90868 19.6646 9.00959C19.6646 9.1105 19.6934 9.20936 19.7476 9.29472C19.8131 9.40226 19.915 9.48314 20.0352 9.5228C20.1907 9.5636 20.3542 9.5636 20.5097 9.5228C20.7547 9.477 20.9952 9.41022 21.2285 9.32322C21.5744 9.20027 21.9304 9.10726 22.2925 9.04523C22.5664 9.0032 22.8452 9.0032 23.1192 9.04523C23.3443 9.07449 23.5603 9.15235 23.7518 9.27333C23.9399 9.39861 24.0971 9.56427 24.2119 9.75802C24.3543 9.96496 24.441 10.2046 24.4636 10.4541C24.4863 10.7036 24.4442 10.9548 24.3413 11.1836C24.0533 11.7595 23.5975 12.2363 23.0329 12.5522Z" fill="white"/>
<path d="M29.1003 9.51568C28.6013 9.77767 28.0204 9.84138 27.4757 9.69388C27.2319 9.57668 27.015 9.41124 26.8382 9.20774C26.6614 9.00425 26.5285 8.76701 26.4477 8.51065L25.2544 5.6595L23.9891 6.18696L23.5938 5.23895L24.859 4.71862L24.1042 2.92239L25.2615 2.44482L26.0164 4.23392L27.9501 3.44272L28.3455 4.39073L26.4117 5.20331L27.5404 7.89053C27.583 8.0275 27.6526 8.15474 27.7451 8.26486C27.8377 8.37497 27.9513 8.46578 28.0795 8.53203C28.3594 8.60566 28.6569 8.57259 28.9134 8.43937C29.0504 8.38056 29.1825 8.31146 29.3088 8.23266C29.4386 8.15061 29.559 8.05503 29.6683 7.94755L30.2074 8.83854C30.0436 8.98537 29.8681 9.11885 29.6826 9.2377C29.4972 9.34714 29.3023 9.44016 29.1003 9.51568Z" fill="white"/>
<path d="M31.1272 1.63942C31.0218 1.67289 30.9106 1.68446 30.8006 1.67343C30.6905 1.66239 30.5839 1.62898 30.4874 1.57527C30.3923 1.51873 30.31 1.44333 30.2457 1.35379C30.1814 1.26426 30.1364 1.1625 30.1136 1.05492C30.0798 0.950451 30.0681 0.840209 30.0793 0.731062C30.0904 0.621914 30.1241 0.516203 30.1783 0.420544C30.2353 0.326266 30.3113 0.244687 30.4016 0.180906C30.4919 0.117126 30.5946 0.0725278 30.7031 0.0499015C30.8084 0.0164327 30.9196 0.00485398 31.0297 0.0158914C31.1398 0.0269288 31.2464 0.0603429 31.3429 0.11405C31.4379 0.170588 31.5202 0.245986 31.5845 0.335524C31.6489 0.425061 31.6939 0.526805 31.7167 0.634382C31.7504 0.738857 31.7621 0.849109 31.751 0.958256C31.7398 1.0674 31.7061 1.1731 31.652 1.26876C31.595 1.36304 31.5189 1.44463 31.4286 1.50841C31.3383 1.57219 31.2357 1.61679 31.1272 1.63942ZM32.2558 8.37527L30.739 2.63732L31.9611 2.31656L33.4851 8.01887L32.2558 8.37527Z" fill="white"/>
<path d="M35.6923 7.34173L35.3257 1.42559L36.4831 1.35431L36.5478 2.14551C36.7204 1.84963 36.9682 1.60385 37.2666 1.43272C37.5771 1.25157 37.9276 1.14876 38.2875 1.13334C38.6447 1.09988 39.0045 1.16139 39.3298 1.31154C39.6174 1.43857 39.8495 1.66365 39.984 1.94592C40.1517 1.64634 40.4007 1.39939 40.7029 1.23313C41.0459 1.05649 41.4238 0.956731 41.81 0.940894C42.0701 0.900113 42.3362 0.921529 42.5863 1.00336C42.8364 1.08518 43.0632 1.22505 43.2477 1.41133C43.6164 1.94291 43.8052 2.57691 43.7869 3.22181L44.0169 6.86416L42.802 6.93544L42.5863 3.46416C42.5919 3.05395 42.4851 2.64993 42.2772 2.29519C42.1847 2.17915 42.0627 2.08961 41.9237 2.03574C41.7847 1.98188 41.6338 1.96565 41.4865 1.98869C41.2919 1.99201 41.1011 2.04244 40.9307 2.13562C40.7603 2.2288 40.6154 2.36189 40.5088 2.52329C40.2729 2.94152 40.1772 3.42328 40.2356 3.89896L40.4369 7.08513L39.2148 7.15641L38.9848 3.40001C38.9817 3.06878 38.8679 2.7479 38.6613 2.48764C38.567 2.3849 38.4493 2.30604 38.3179 2.25768C38.1866 2.20931 38.0455 2.19285 37.9065 2.20966C37.7131 2.21957 37.5252 2.27684 37.3596 2.37635C37.194 2.47586 37.0559 2.6145 36.9575 2.77989C36.709 3.17807 36.6027 3.6475 36.6556 4.1128L36.8569 7.29896L35.6923 7.34173Z" fill="white"/>
<path d="M47.1941 7.49137C46.9394 7.46369 46.6928 7.38648 46.4683 7.26417C46.2438 7.14186 46.0458 6.97685 45.8857 6.77859C45.7401 6.58222 45.6384 6.35725 45.5876 6.11876C45.5367 5.88028 45.5379 5.63378 45.591 5.39577C45.6348 5.08627 45.7575 4.79296 45.9474 4.54353C46.1374 4.2941 46.3883 4.09678 46.6765 3.9702C47.4486 3.67435 48.2925 3.61476 49.0991 3.79912L49.9474 3.94168C49.9926 3.78216 50.0006 3.61453 49.9707 3.4515C49.9408 3.28847 49.8738 3.13433 49.7748 3.00081C49.481 2.74256 49.1097 2.58727 48.7181 2.55887C48.3526 2.49656 47.9807 2.47981 47.611 2.50898C47.2274 2.5491 46.8505 2.63773 46.4896 2.77271V1.71066C46.8805 1.58432 47.2866 1.51 47.6973 1.48969C48.1398 1.46389 48.5838 1.49021 49.02 1.56809C49.5255 1.6309 50.0138 1.79069 50.4578 2.03854C50.7813 2.23325 51.0198 2.54089 51.1263 2.90102C51.2332 3.35105 51.2332 3.81953 51.1263 4.26957L50.5009 7.94756L49.3291 7.7551L49.437 7.07796C49.1476 7.29921 48.8062 7.44392 48.4449 7.4985C48.0309 7.57091 47.6072 7.5685 47.1941 7.49137ZM47.7979 6.57187C48.0818 6.63652 48.3767 6.63652 48.6606 6.57187C48.9126 6.51558 49.1455 6.39521 49.3363 6.2226C49.5122 6.0692 49.629 5.86016 49.667 5.631L49.7892 4.88257L49.1135 4.76852C48.5841 4.64393 48.0326 4.64393 47.5032 4.76852C47.3341 4.80891 47.1809 4.89824 47.0631 5.02517C46.9454 5.15209 46.8683 5.31086 46.8418 5.48131C46.8128 5.60524 46.8133 5.73417 46.8432 5.85789C46.8732 5.9816 46.9318 6.09671 47.0143 6.19409C47.2156 6.40505 47.4854 6.53883 47.7764 6.57187H47.7979Z" fill="white"/>
<path d="M54.6563 9.39455C54.1083 9.26049 53.6325 8.92392 53.3264 8.45367C53.2173 8.20768 53.1609 7.94189 53.1609 7.67316C53.1609 7.40444 53.2173 7.13865 53.3264 6.89266L54.3472 3.98448L53.0532 3.53543L53.3911 2.56604L54.6851 3.01509L55.3249 1.18323L56.511 1.58951L55.8712 3.42138L57.8481 4.13417L57.5103 5.10356L55.5262 4.39078L54.5629 7.14214C54.5079 7.27315 54.4796 7.41366 54.4796 7.55556C54.4796 7.69746 54.5079 7.83796 54.5629 7.96898C54.7315 8.21544 54.9886 8.3888 55.2817 8.45367C55.4218 8.50266 55.5662 8.53846 55.7131 8.56059C55.8662 8.5719 56.02 8.5719 56.1731 8.56059L55.9719 9.57987C55.7527 9.5824 55.5338 9.56571 55.3177 9.52998C55.094 9.50205 54.8729 9.45676 54.6563 9.39455Z" fill="white"/>
<path d="M59.6307 11.7111C59.246 11.5357 58.9012 11.2849 58.617 10.9737C58.3329 10.6625 58.1152 10.2975 57.9772 9.90065C57.8794 9.497 57.8652 9.07784 57.9357 8.6686C58.0061 8.25936 58.1596 7.86856 58.387 7.51994C58.7489 6.77094 59.395 6.19436 60.1842 5.91617C60.5629 5.80337 60.9617 5.77236 61.3535 5.82523C61.7454 5.8781 62.1213 6.01362 62.4558 6.22266C62.7938 6.38078 63.093 6.60998 63.3326 6.89433C63.5722 7.17867 63.7464 7.51134 63.8433 7.86921C63.9823 8.65432 63.8208 9.4626 63.3904 10.1359L63.2179 10.421C63.1603 10.5208 63.1028 10.6063 63.0669 10.6633L58.7536 8.29688L59.2281 7.44866L62.7074 9.35894L62.3911 9.52287C62.6725 9.10273 62.7995 8.59932 62.7506 8.0973C62.7024 7.88558 62.6062 7.68756 62.4691 7.51833C62.3321 7.3491 62.1579 7.21313 61.9598 7.12078C61.7615 6.99443 61.537 6.91406 61.303 6.88568C61.069 6.85729 60.8315 6.88162 60.6083 6.95684C60.1269 7.16971 59.7407 7.55006 59.5228 8.02603L59.3503 8.3254C59.2142 8.53414 59.1229 8.76844 59.082 9.0137C59.0412 9.25896 59.0518 9.50993 59.1131 9.75097C59.2992 10.2243 59.666 10.6059 60.1339 10.813C60.445 10.988 60.7787 11.1199 61.1259 11.2051C61.4571 11.2879 61.798 11.3262 62.1395 11.3191L61.8448 12.2885C61.4785 12.2993 61.1127 12.2561 60.7593 12.1602C60.3646 12.061 59.985 11.91 59.6307 11.7111Z" fill="white"/>
<path d="M66.8916 17.0642C66.5113 16.7158 66.2798 16.2363 66.2446 15.7241C66.2461 15.4808 66.2986 15.2404 66.3989 15.0183C66.4991 14.7962 66.6449 14.5972 66.8269 14.434C67.0438 14.2028 67.3174 14.0314 67.6211 13.9364C67.9247 13.8414 68.248 13.8262 68.5594 13.8923C69.3627 14.1059 70.082 14.5557 70.6226 15.1824L71.2264 15.7883C71.3605 15.6821 71.4675 15.5461 71.5386 15.3913C71.6098 15.2365 71.6433 15.0673 71.6362 14.8973C71.5463 14.5158 71.3345 14.1732 71.0323 13.9208C70.7742 13.6575 70.4817 13.4298 70.1625 13.2436C69.829 13.0522 69.4712 12.906 69.0986 12.8088L69.7384 11.9535C70.1308 12.0786 70.5054 12.2535 70.8526 12.4738C71.223 12.7134 71.5654 12.9931 71.8734 13.3078C72.2408 13.65 72.5385 14.0589 72.7505 14.5124C72.9007 14.8581 72.9161 15.2467 72.7936 15.603C72.6177 16.032 72.3476 16.4167 72.0028 16.7292L69.3286 19.3522L68.4947 18.5111L68.9764 18.0264C68.6097 18.0384 68.2459 17.9575 67.9196 17.7912C67.5356 17.6123 67.1873 17.3659 66.8916 17.0642ZM67.9196 16.665C68.1242 16.8707 68.3688 17.0332 68.6385 17.1426C68.8773 17.2396 69.1367 17.2763 69.3933 17.2495C69.6267 17.2239 69.8445 17.1209 70.0115 16.9573L70.5579 16.4227L70.0691 15.9308C69.7076 15.5296 69.2607 15.2131 68.7607 15.0042C68.5953 14.944 68.4159 14.9321 68.2438 14.97C68.0718 15.0079 67.9143 15.094 67.7902 15.2181C67.69 15.3064 67.6123 15.4171 67.5636 15.541C67.5148 15.6649 67.4964 15.7985 67.5099 15.9308C67.558 16.2148 67.7025 16.4738 67.9196 16.665Z" fill="white"/>
<path d="M70.5005 20.7422L75.4751 17.4491L76.1293 18.4256L75.4679 18.8747C75.8533 18.9154 76.2245 19.0421 76.5534 19.2453C76.8919 19.4686 77.1766 19.7631 77.3873 20.1078C77.5755 20.3381 77.7061 20.6092 77.7686 20.8991C77.831 21.1889 77.8236 21.4893 77.7468 21.7757C77.4641 22.4204 76.9769 22.9559 76.3593 23.3011L73.4838 25.1971L72.765 24.1707L75.4392 22.403C75.8578 22.163 76.2012 21.8126 76.4312 21.3908C76.4986 21.2276 76.522 21.0498 76.4994 20.8749C76.4767 20.7 76.4086 20.5339 76.3018 20.3929C76.1366 20.1388 75.9024 19.9362 75.6261 19.8084C75.3554 19.68 75.0556 19.6235 74.7562 19.6445C74.4541 19.6574 74.1621 19.7564 73.9152 19.9296L71.1403 21.7615L70.5005 20.7422Z" fill="white"/>
<path d="M75.626 29.3597L84.54 30.0725L85.0001 31.7119L77.7251 36.8583L77.3872 35.504L83.7637 31.1631L76.0429 30.714L75.626 29.3597ZM78.1061 30.322L79.2132 30.0155L80.4568 34.4633L79.3498 34.7698L78.1061 30.322Z" fill="white"/>
<path d="M84.0583 41.0352C84.0928 41.3847 84.0459 41.7374 83.9212 42.0661C83.7966 42.3948 83.5976 42.6907 83.3394 42.9312C82.7011 43.4411 81.9017 43.7112 81.0822 43.6939C80.2698 43.7816 79.4519 43.5876 78.7674 43.145C78.4836 42.9329 78.2534 42.6583 78.0949 42.3429C77.9365 42.0274 77.8541 41.6798 77.8544 41.3274C77.829 40.9522 77.8829 40.5759 78.0126 40.2226C78.1346 39.9131 78.3293 39.637 78.5805 39.4171L75.4534 39.5811L75.3887 38.348L83.778 37.9203L83.857 39.0465L83.1382 39.0893C83.422 39.2998 83.6492 39.5764 83.7995 39.8947C83.9613 40.2541 84.0492 40.6418 84.0583 41.0352ZM83.0088 40.8C82.9945 40.5068 82.9108 40.2211 82.7643 39.966C82.6295 39.7373 82.436 39.5479 82.2036 39.4171C81.9627 39.2837 81.6882 39.2219 81.4129 39.2389L80.2627 39.2817C79.9892 39.2936 79.7248 39.3826 79.5006 39.5383C79.2788 39.6954 79.1047 39.9099 78.9974 40.1584C78.8743 40.4262 78.8199 40.7201 78.8393 41.0138C78.8392 41.2412 78.894 41.4653 78.999 41.6674C79.104 41.8695 79.2563 42.0438 79.4431 42.1756C79.9088 42.4552 80.4552 42.573 80.9959 42.5106C81.5375 42.5143 82.0654 42.3415 82.4984 42.0188C82.6762 41.8715 82.8155 41.6837 82.9044 41.4715C82.9932 41.2593 83.0291 41.0289 83.0088 40.8Z" fill="white"/>
<path d="M83.5337 49.4461C83.4965 49.798 83.3763 50.1362 83.1827 50.4334C82.9891 50.7306 82.7276 50.9784 82.4194 51.1568C81.6975 51.5394 80.8628 51.658 80.0615 51.4918C79.2462 51.4171 78.4831 51.0615 77.9049 50.4867C77.6712 50.2222 77.5027 49.9074 77.4129 49.5672C77.323 49.227 77.3143 48.8707 77.3873 48.5266C77.4387 48.1547 77.5685 47.7976 77.7683 47.4788C77.9472 47.1878 78.1937 46.9434 78.4872 46.766L75.396 46.3027L75.5757 45.0909L83.8787 46.3241L83.7062 47.4859L82.9873 47.3932C83.2225 47.658 83.388 47.9763 83.469 48.3199C83.5613 48.688 83.5832 49.07 83.5337 49.4461ZM82.556 49.0113C82.6019 48.7199 82.5773 48.4218 82.4841 48.1417C82.4007 47.8856 82.2492 47.6566 82.0456 47.4788C81.8434 47.3023 81.5935 47.1883 81.3267 47.1509L80.2125 46.987C79.9424 46.9405 79.6645 46.9753 79.4145 47.0867C79.1662 47.1971 78.9526 47.372 78.7963 47.5928C78.6208 47.8295 78.5094 48.1068 78.4728 48.3983C78.4268 48.6201 78.4347 48.8496 78.496 49.0677C78.5573 49.2859 78.6701 49.4864 78.825 49.6528C79.2214 50.0155 79.7261 50.2407 80.2628 50.2943C80.7939 50.4055 81.3471 50.3404 81.8371 50.109C82.0367 49.9962 82.2061 49.8377 82.3311 49.6468C82.4562 49.4558 82.5333 49.2379 82.556 49.0113Z" fill="white"/>
<path d="M69.9537 65.2843L76.0426 70.9866L72.2398 74.9568L71.4203 74.1942L74.3533 71.1292L72.6639 69.5468L69.8962 72.4407L69.0911 71.6852L71.866 68.7912L69.8962 66.938L66.9704 69.9958L66.1509 69.226L69.9537 65.2843Z" fill="white"/>
<path d="M63.1964 71.3501C63.5233 71.1075 63.878 70.9042 64.2532 70.7442C64.5973 70.5874 64.9594 70.4725 65.3315 70.4021L65.7772 71.3359C65.4153 71.4118 65.0614 71.5216 64.7204 71.6637C64.4004 71.7984 64.0966 71.9681 63.8146 72.1698C63.5354 72.3464 63.3075 72.5921 63.1533 72.8826C63.106 72.9836 63.0876 73.0956 63.1003 73.2063C63.113 73.3169 63.1562 73.422 63.2252 73.5099C63.3001 73.622 63.4119 73.7051 63.5415 73.7451C63.6996 73.7837 63.8649 73.7837 64.0231 73.7451C64.2881 73.6733 64.5476 73.5828 64.7995 73.4742C65.2196 73.2941 65.6583 73.1602 66.1079 73.0751C66.4238 73.0123 66.7508 73.032 67.0568 73.1321C67.3301 73.2335 67.5657 73.415 67.7325 73.6524C67.8852 73.8422 67.9865 74.0676 68.0268 74.3071C68.067 74.5466 68.0449 74.7923 67.9626 75.021C67.7114 75.6043 67.291 76.1005 66.7548 76.4466C66.4444 76.6714 66.1121 76.8648 65.7628 77.0239C65.4267 77.1837 65.0716 77.301 64.706 77.3732L64.2747 76.4466C64.6089 76.3812 64.9345 76.2784 65.2452 76.1401C65.552 76.0044 65.8435 75.8372 66.115 75.6411C66.3773 75.4724 66.5964 75.2454 66.7548 74.9782C66.8018 74.8882 66.822 74.7868 66.8131 74.6859C66.8042 74.5849 66.7666 74.4885 66.7045 74.408C66.6286 74.309 66.5228 74.2366 66.4026 74.2013C66.2463 74.1668 66.0844 74.1668 65.9281 74.2013C65.6817 74.2666 65.4412 74.3525 65.2093 74.4579C64.8755 74.6048 64.529 74.7217 64.1741 74.8071C63.9041 74.8747 63.6256 74.9035 63.3474 74.8927C63.1216 74.8735 62.9017 74.8105 62.7004 74.7073C62.5055 74.5932 62.3367 74.4403 62.2044 74.2583C62.0448 74.0608 61.9397 73.8255 61.8994 73.5756C61.859 73.3257 61.8849 73.0697 61.9743 72.8327C62.2154 72.224 62.6428 71.7056 63.1964 71.3501Z" fill="white"/>
<path d="M57.3664 74.8071C57.8461 74.5102 58.421 74.4034 58.9767 74.5078C59.2278 74.6081 59.4559 74.7577 59.6474 74.9476C59.8388 75.1374 59.9897 75.3636 60.0909 75.6126L61.4855 78.364L62.7076 77.751L63.1749 78.6705L61.9528 79.2835L62.837 81.0084L61.7156 81.5715L60.8529 79.8394L58.9838 80.7732L58.5238 79.8608L60.3928 78.9271L59.0701 76.3254C58.9625 76.0596 58.7531 75.8469 58.4878 75.7338C58.2008 75.6766 57.9025 75.7301 57.6539 75.8835C57.5232 75.9518 57.3982 76.0305 57.2801 76.1187C57.1572 76.2091 57.0439 76.3118 56.9422 76.4252L56.3384 75.5698C56.4928 75.4153 56.6586 75.2723 56.8344 75.1421C57.002 75.016 57.18 74.9039 57.3664 74.8071Z" fill="white"/>
<path d="M54.2969 76.1899L56.2378 81.7996L55.0445 82.2059L53.1035 76.5962L54.2969 76.1899ZM55.9215 82.826C56.0235 82.7816 56.1336 82.7587 56.245 82.7587C56.3564 82.7587 56.4665 82.7816 56.5685 82.826C56.7649 82.9302 56.9121 83.1069 56.9783 83.3178C57.0214 83.4194 57.0436 83.5284 57.0436 83.6386C57.0436 83.7488 57.0214 83.8578 56.9783 83.9594C56.9272 84.0565 56.8569 84.1425 56.7717 84.2123C56.6865 84.2821 56.5881 84.3342 56.4822 84.3656C56.3811 84.4086 56.2723 84.4307 56.1623 84.4307C56.0524 84.4307 55.9435 84.4086 55.8424 84.3656C55.7426 84.3175 55.6544 84.2486 55.5838 84.1638C55.5131 84.079 55.4616 83.9801 55.4327 83.8738C55.3877 83.774 55.3644 83.6659 55.3644 83.5566C55.3644 83.4473 55.3877 83.3392 55.4327 83.2394C55.4808 83.1407 55.5491 83.053 55.6333 82.9818C55.7174 82.9106 55.8156 82.8576 55.9215 82.826Z" fill="white"/>
<path d="M50.9467 77.4515L51.7447 83.3249L50.5945 83.4817L50.4723 82.6905C50.321 83.0004 50.0936 83.2676 49.8109 83.4675C49.5135 83.6652 49.1739 83.7921 48.8188 83.8381C48.4632 83.8923 48.0994 83.8555 47.7621 83.7312C47.4612 83.6252 47.207 83.4185 47.0432 83.1467C46.8977 83.4664 46.6633 83.7384 46.3675 83.9308C46.0363 84.1294 45.6662 84.2557 45.282 84.3014C45.0248 84.3608 44.7572 84.3589 44.501 84.2957C44.2448 84.2325 44.0074 84.1099 43.8083 83.9379C43.4051 83.4322 43.1714 82.8141 43.1397 82.1702L42.6509 78.5492L43.8586 78.3924L44.3259 81.8352C44.3486 82.2443 44.48 82.6403 44.7069 82.9828C44.809 83.0904 44.9375 83.17 45.0799 83.2137C45.2222 83.2574 45.3736 83.2638 45.5192 83.2323C45.7148 83.2175 45.9035 83.1543 46.068 83.0484C46.2325 82.9426 46.3676 82.7975 46.4609 82.6264C46.6678 82.1961 46.7284 81.7109 46.6335 81.2436L46.2021 78.0788L47.4098 77.9148L47.9202 81.6427C47.9406 81.9756 48.0779 82.2909 48.3084 82.5337C48.4098 82.6285 48.5324 82.6979 48.6661 82.7363C48.7999 82.7748 48.9409 82.7811 49.0776 82.7547C49.2688 82.7315 49.4513 82.6621 49.6092 82.5528C49.7671 82.4434 49.8956 82.2974 49.9834 82.1274C50.2024 81.7088 50.2757 81.2302 50.1919 80.766L49.7606 77.6012L50.9467 77.4515Z" fill="white"/>
<path d="M39.4661 78.1145C39.9836 78.1361 40.4718 78.3589 40.8248 78.7347C40.9813 78.9224 41.0967 79.1404 41.1635 79.3748C41.2304 79.6092 41.2472 79.8549 41.213 80.0961C41.1944 80.4109 41.0947 80.7157 40.9236 80.9815C40.7524 81.2472 40.5155 81.4651 40.2353 81.6143C39.4867 81.9615 38.6504 82.0781 37.8343 81.9493L36.9716 81.8709C36.9407 82.0337 36.9465 82.2012 36.9888 82.3615C37.0311 82.5217 37.1087 82.6706 37.216 82.7975C37.5289 83.0315 37.9097 83.159 38.3016 83.1611C38.669 83.2082 39.0411 83.2082 39.4086 83.1611C39.7915 83.0969 40.1639 82.9819 40.5157 82.8189L40.5732 83.8738C40.1912 84.0305 39.7899 84.136 39.3799 84.1875C38.9402 84.2342 38.4968 84.2342 38.0571 84.1875C37.5592 84.1512 37.0721 84.0256 36.6194 83.8168C36.2865 83.6436 36.0303 83.3541 35.9005 83.0042C35.7581 82.5651 35.7164 82.1 35.7783 81.6428L36.1377 77.9292L37.3167 78.0361L37.2592 78.7489C37.5348 78.5107 37.8658 78.3442 38.2225 78.2642C38.6252 78.1437 39.046 78.093 39.4661 78.1145ZM38.9342 79.0768C38.6437 79.0471 38.3503 79.0762 38.0715 79.1623C37.8258 79.24 37.6034 79.3772 37.4245 79.5615C37.2586 79.7257 37.1568 79.9429 37.137 80.1745L37.0651 80.9372L37.784 81.0013C38.3229 81.0867 38.8745 81.0452 39.3942 80.8801C39.561 80.8242 39.7074 80.7206 39.8148 80.5823C39.9223 80.4441 39.9861 80.2774 39.9981 80.1032C40.0193 79.9754 40.0103 79.8444 39.9716 79.7207C39.9329 79.597 39.8657 79.4839 39.7752 79.3904C39.5423 79.1885 39.2435 79.0771 38.9342 79.0768Z" fill="white"/>
<path d="M31.8823 76.7602C32.4396 76.8559 32.9401 77.1562 33.2841 77.6013C33.403 77.8427 33.4712 78.1055 33.4848 78.3738C33.4984 78.6421 33.457 78.9103 33.3632 79.1623L32.5652 82.1346L33.8808 82.491L33.6148 83.4818L32.2921 83.1254L31.7889 85L30.574 84.6793L31.0844 82.8046L29.0571 82.27L29.3303 81.2793L31.3503 81.8139L32.1124 79.0055C32.1685 78.8748 32.1975 78.7341 32.1975 78.5921C32.1975 78.45 32.1685 78.3094 32.1124 78.1786C31.9383 77.9472 31.6807 77.7914 31.3935 77.7438C31.25 77.7046 31.1032 77.6783 30.955 77.6654C30.8018 77.6549 30.6481 77.6549 30.4949 77.6654L30.6171 76.6319C30.8372 76.6139 31.0584 76.6139 31.2785 76.6319C31.4831 76.6571 31.6852 76.7001 31.8823 76.7602Z" fill="white"/>
<path d="M26.7423 74.8072C27.1341 74.955 27.4919 75.1795 27.7945 75.4673C28.0971 75.7551 28.3382 76.1002 28.5035 76.4822C28.6313 76.8784 28.6768 77.2961 28.6372 77.7102C28.5977 78.1242 28.4739 78.5261 28.2735 78.8914C27.9706 79.6608 27.3739 80.2806 26.6129 80.6164C26.2449 80.7556 25.851 80.815 25.4579 80.7904C25.0647 80.7658 24.6815 80.6578 24.334 80.4738C23.9849 80.341 23.6691 80.1345 23.4085 79.8686C23.1478 79.6028 22.9485 79.284 22.8244 78.9342C22.6284 78.1596 22.7336 77.3402 23.1191 76.639C23.161 76.5365 23.209 76.4365 23.2629 76.3397C23.3033 76.2538 23.3489 76.1705 23.3995 76.0902L27.8637 78.1359L27.454 79.0197L23.8596 77.3589L24.1615 77.1736C23.9097 77.6224 23.8185 78.1424 23.9027 78.6491C23.9679 78.8569 24.0801 79.0472 24.2309 79.2053C24.3817 79.3635 24.567 79.4853 24.7726 79.5615C24.9773 79.6752 25.2056 79.7408 25.4399 79.7532C25.6743 79.7656 25.9083 79.7243 26.1241 79.6327C26.589 79.3821 26.9484 78.9752 27.1377 78.4852L27.2814 78.1787C27.4008 77.9627 27.4744 77.7249 27.4979 77.4798C27.5214 77.2347 27.4942 76.9874 27.418 76.7531C27.1881 76.2926 26.7856 75.9395 26.2966 75.7694C25.9724 75.6191 25.6289 75.5135 25.2758 75.4558C24.9418 75.3924 24.6003 75.378 24.2622 75.413L24.4778 74.4223C24.8425 74.3835 25.211 74.4003 25.5705 74.4721C25.9746 74.5309 26.3687 74.6436 26.7423 74.8072Z" fill="white"/>
<path d="M19.158 69.9958C19.5591 70.3126 19.8176 70.7738 19.8769 71.2789C19.8967 71.5222 19.864 71.767 19.781 71.9968C19.6979 72.2267 19.5664 72.4363 19.3952 72.6118C19.1955 72.8578 18.9349 73.0482 18.6388 73.1643C18.3427 73.2805 18.0212 73.3186 17.7059 73.2747C16.8913 73.1255 16.1403 72.7382 15.5492 72.1627L14.9022 71.5996C14.7778 71.7108 14.6811 71.8492 14.62 72.0039C14.5588 72.1585 14.5349 72.3252 14.55 72.4906C14.6674 72.8623 14.9017 73.187 15.2185 73.4172C15.4967 73.6609 15.8061 73.867 16.1387 74.0302C16.4832 74.2033 16.8513 74.3258 17.2314 74.3938L16.6563 75.2847C16.2551 75.1911 15.8683 75.0449 15.5061 74.8499C15.1171 74.6388 14.7531 74.3854 14.4206 74.0944C14.0301 73.7795 13.7053 73.3921 13.4645 72.9539C13.2865 72.6213 13.2428 72.2339 13.3423 71.8705C13.4887 71.4294 13.7346 71.0272 14.0612 70.6944L16.5413 67.886L17.4327 68.6558L16.987 69.1833C17.3522 69.1491 17.7203 69.2054 18.0581 69.3472C18.4626 69.4929 18.8358 69.713 19.158 69.9958ZM18.1588 70.4663C17.9529 70.2742 17.7077 70.1284 17.4399 70.0386C17.1939 69.9606 16.9329 69.9411 16.6779 69.9816C16.4492 70.0248 16.2416 70.1428 16.0884 70.3166L15.578 70.894L16.0956 71.343C16.463 71.725 16.9127 72.0198 17.4111 72.2055C17.5799 72.2574 17.7605 72.258 17.9297 72.2072C18.0988 72.1564 18.2487 72.0565 18.36 71.9204C18.4532 71.8285 18.5227 71.7159 18.5627 71.5918C18.6028 71.4678 18.6122 71.336 18.5901 71.2076C18.5308 70.9122 18.3646 70.6485 18.1228 70.4663H18.1588Z" fill="white"/>
<path d="M15.2547 66.5744L10.5317 70.2167L9.81281 69.2901L10.4382 68.7912C10.0515 68.779 9.67281 68.679 9.33117 68.4989C8.98127 68.3035 8.67545 68.0391 8.43257 67.722C8.23032 67.5041 8.08212 67.2425 7.99975 66.9579C7.91738 66.6733 7.90313 66.3736 7.95811 66.0826C8.19261 65.4199 8.63953 64.8516 9.23053 64.4645L11.9551 62.3262L12.7171 63.3027L10.1794 65.2629C9.77677 65.5268 9.45969 65.9006 9.26647 66.3392C9.20952 66.5073 9.19814 66.6874 9.23347 66.8613C9.26879 67.0351 9.34958 67.1968 9.46775 67.3299C9.65289 67.569 9.90196 67.7517 10.1866 67.8574C10.4657 67.9637 10.7669 68.0004 11.0637 67.9643C11.3636 67.9235 11.6469 67.8028 11.8832 67.6151L14.5215 65.5907L15.2547 66.5744Z" fill="white"/>
<path d="M9.51074 58.3417L0.575104 58.2989L0 56.6951L6.87247 51.0427L7.33973 52.34L1.30117 57.1299L9.03628 57.023L9.51074 58.3417ZM6.99467 57.5647L5.90917 57.9496L4.34202 53.6016L5.42752 53.2167L6.99467 57.5647Z" fill="white"/>
<path d="M0.251825 47.3077C0.192852 46.9603 0.215351 46.604 0.317575 46.2666C0.419798 45.9291 0.599002 45.6195 0.841304 45.3618C1.42658 44.807 2.18999 44.474 2.99793 44.4209C3.80277 44.2703 4.6354 44.4067 5.34867 44.8058C5.64788 44.9966 5.89839 45.2537 6.08051 45.5567C6.26262 45.8597 6.37138 46.2004 6.39822 46.5522C6.44886 46.9243 6.42195 47.3028 6.31915 47.6641C6.22314 47.9957 6.05089 48.3007 5.81594 48.5551L8.92148 48.1702L9.09401 49.3962L0.762233 50.4226L0.618454 49.2537L1.33733 49.1539C1.03784 48.9624 0.790854 48.7004 0.618454 48.3912C0.426883 48.0569 0.302383 47.689 0.251825 47.3077ZM1.31577 47.4645C1.34691 47.756 1.45066 48.0353 1.61769 48.2771C1.76795 48.5032 1.97644 48.6853 2.22155 48.8046C2.47041 48.9197 2.74731 48.9618 3.01951 48.9258L4.13376 48.7832C4.39736 48.7489 4.6462 48.6428 4.85264 48.4767C5.06389 48.3042 5.22309 48.0773 5.31272 47.8209C5.41362 47.5451 5.44568 47.2492 5.40618 46.9585C5.3857 46.7294 5.30963 46.5086 5.18445 46.315C5.05927 46.1213 4.8887 45.9606 4.6873 45.8465C4.20269 45.599 3.64872 45.5188 3.11296 45.6184C2.58025 45.6554 2.0748 45.8659 1.6752 46.2172C1.52005 46.3821 1.40658 46.5811 1.34409 46.798C1.28161 47.0148 1.2719 47.2433 1.31577 47.4645Z" fill="white"/>
<path d="M0.172716 38.8683C0.181581 38.5163 0.2733 38.1712 0.44055 37.8606C0.607801 37.55 0.845956 37.2824 1.13601 37.0793C1.82967 36.648 2.65383 36.4715 3.46517 36.5803C4.28304 36.5959 5.06935 36.8962 5.68651 37.4285C5.94133 37.6743 6.13502 37.9755 6.2523 38.3083C6.36957 38.641 6.40721 38.9962 6.36225 39.3459C6.33876 39.7217 6.2359 40.0884 6.06032 40.4222C5.90103 40.7292 5.66918 40.9933 5.38457 41.192L8.5045 41.4344L8.41105 42.6604L0.0361328 42.0189L0.129585 40.8428L0.848462 40.8927C0.594079 40.6485 0.406133 40.3444 0.302114 40.0088C0.181465 39.6413 0.137441 39.2533 0.172716 38.8683ZM1.17914 39.2319C1.15418 39.5231 1.1985 39.8161 1.30854 40.0872C1.41024 40.3388 1.57926 40.5582 1.79738 40.7216C2.01553 40.8866 2.27832 40.9834 2.5522 40.9996L3.67365 41.0851C3.94679 41.1064 4.22053 41.0521 4.46441 40.9283C4.70273 40.7978 4.90324 40.6089 5.04671 40.3795C5.19994 40.129 5.28881 39.8451 5.3055 39.5526C5.33604 39.3267 5.3115 39.0969 5.23395 38.8823C5.1564 38.6677 5.0281 38.4748 4.8598 38.3195C4.43468 37.9872 3.91283 37.7998 3.37172 37.7849C2.83263 37.7102 2.2838 37.8155 1.81176 38.0843C1.62294 38.2124 1.46768 38.3834 1.3589 38.583C1.25012 38.7826 1.19096 39.005 1.18633 39.2319H1.17914Z" fill="white"/>
</g>
<defs>
<clipPath id="clip0_790_687303">
<rect width="85" height="85" fill="white"/>
</clipPath>
</defs>
</svg>
