<svg width="189" height="151" viewBox="0 0 189 151" fill="none" xmlns="http://www.w3.org/2000/svg">
<path d="M16.1718 150.062L58.4322 125.663C48.9587 108.196 46.6789 87.7213 52.0786 68.5989C57.4782 49.4765 70.1305 33.2179 87.3404 23.2862C104.548 13.3514 124.955 10.5278 144.214 15.4169C163.473 20.306 180.062 32.5214 190.448 49.4611L232.708 25.0617C215.843 -3.09388 188.585 -23.4904 156.815 -31.7269C125.046 -39.9633 91.3113 -35.3794 62.8911 -18.9642C34.4949 -2.54457 13.6856 24.3733 4.94675 55.9896C-3.79209 87.6059 0.239135 121.39 16.1718 150.062Z" fill="url(#paint0_linear_223_2473)"/>
<defs>
<linearGradient id="paint0_linear_223_2473" x1="51.9998" y1="53.5" x2="46.4998" y2="150" gradientUnits="userSpaceOnUse">
<stop stop-color="#1C1C1E"/>
<stop offset="1" stop-color="#1C1C1E" stop-opacity="0"/>
</linearGradient>
</defs>
</svg>
