<svg width="224" height="247" viewBox="0 0 224 247" fill="none" xmlns="http://www.w3.org/2000/svg">
<path d="M164.976 100.478L222.84 180.169L95.3625 245.919L37.4985 166.228L164.976 100.478Z" stroke="#181819" stroke-linecap="round" stroke-linejoin="round"/>
<path d="M164.976 100.478L222.84 180.169L95.3625 245.919L37.4985 166.228L164.976 100.478Z" stroke="#181819" stroke-linecap="round" stroke-linejoin="round"/>
<path d="M128.478 1L186.351 80.6909L58.8735 146.441L1 66.7505L128.478 1Z" stroke="#181819" stroke-linecap="round" stroke-linejoin="round"/>
<path d="M128.478 1L186.351 80.6909L58.8735 146.441L1 66.7505L128.478 1Z" stroke="#181819" stroke-linecap="round" stroke-linejoin="round"/>
<path d="M128.478 1L186.351 80.6909L222.84 180.169L164.977 100.478L128.478 1Z" stroke="#181819" stroke-linecap="round" stroke-linejoin="round"/>
<path d="M128.478 1L186.351 80.6909L222.84 180.169L164.977 100.478L128.478 1Z" stroke="#181819" stroke-linecap="round" stroke-linejoin="round"/>
<path d="M186.351 80.6909L222.84 180.169L95.3625 245.919L58.8735 146.441L186.351 80.6909Z" stroke="#181819" stroke-linecap="round" stroke-linejoin="round"/>
<path d="M186.351 80.6909L222.84 180.169L95.3625 245.919L58.8735 146.441L186.351 80.6909Z" stroke="#181819" stroke-linecap="round" stroke-linejoin="round"/>
<path d="M58.8735 146.441L95.3624 245.919L37.4985 166.228L1 66.7505L58.8735 146.441Z" stroke="#181819" stroke-linecap="round" stroke-linejoin="round"/>
<path d="M58.8735 146.441L95.3624 245.919L37.4985 166.228L1 66.7505L58.8735 146.441Z" stroke="#181819" stroke-linecap="round" stroke-linejoin="round"/>
<path d="M1 66.7505L128.478 1L164.976 100.478L37.4985 166.228L1 66.7505Z" stroke="#181819" stroke-linecap="round" stroke-linejoin="round"/>
<path d="M1 66.7505L128.478 1L164.976 100.478L37.4985 166.228L1 66.7505Z" stroke="#181819" stroke-linecap="round" stroke-linejoin="round"/>
</svg>
