<svg width="156" height="128" viewBox="0 0 156 128" fill="none" xmlns="http://www.w3.org/2000/svg">
<path d="M84.5391 102.287L23.6493 127.298L0.987793 34.2527L61.8647 9.2417L84.5391 102.287Z" stroke="#181819" stroke-linecap="round" stroke-linejoin="round"/>
<path d="M84.5391 102.287L23.6493 127.298L0.987793 34.2527L61.8647 9.2417L84.5391 102.287Z" stroke="#181819" stroke-linecap="round" stroke-linejoin="round"/>
<path d="M154.918 94.2584L94.0284 119.269L71.354 26.2245L132.244 1.2135L154.918 94.2584Z" stroke="#181819" stroke-linecap="round" stroke-linejoin="round"/>
<path d="M154.918 94.2584L94.0284 119.269L71.354 26.2245L132.244 1.2135L154.918 94.2584Z" stroke="#181819" stroke-linecap="round" stroke-linejoin="round"/>
<path d="M154.919 94.2584L94.0287 119.269L23.6494 127.298L84.5392 102.287L154.919 94.2584Z" stroke="#181819" stroke-linecap="round" stroke-linejoin="round"/>
<path d="M154.919 94.2584L94.0287 119.269L23.6494 127.298L84.5392 102.287L154.919 94.2584Z" stroke="#181819" stroke-linecap="round" stroke-linejoin="round"/>
<path d="M94.0286 119.269L23.6493 127.298L0.987793 34.2527L71.3542 26.2245L94.0286 119.269Z" stroke="#181819" stroke-linecap="round" stroke-linejoin="round"/>
<path d="M94.0286 119.269L23.6493 127.298L0.987793 34.2527L71.3542 26.2245L94.0286 119.269Z" stroke="#181819" stroke-linecap="round" stroke-linejoin="round"/>
<path d="M71.3542 26.2245L0.987793 34.2527L61.8647 9.24171L132.244 1.2135L71.3542 26.2245Z" stroke="#181819" stroke-linecap="round" stroke-linejoin="round"/>
<path d="M71.3542 26.2245L0.987793 34.2527L61.8647 9.24171L132.244 1.2135L71.3542 26.2245Z" stroke="#181819" stroke-linecap="round" stroke-linejoin="round"/>
<path d="M132.244 1.2135L154.918 94.2584L84.5391 102.287L61.8647 9.24171L132.244 1.2135Z" stroke="#181819" stroke-linecap="round" stroke-linejoin="round"/>
<path d="M132.244 1.2135L154.918 94.2584L84.5391 102.287L61.8647 9.24171L132.244 1.2135Z" stroke="#181819" stroke-linecap="round" stroke-linejoin="round"/>
</svg>
