<svg width="184" height="176" viewBox="0 0 184 176" fill="none" xmlns="http://www.w3.org/2000/svg">
<path d="M70.7097 102.536L156.913 151.542L87.2037 174.584L1 125.579L70.7097 102.536Z" stroke="#181819" stroke-linecap="round" stroke-linejoin="round"/>
<path d="M70.7097 102.536L156.913 151.542L87.2037 174.584L1 125.579L70.7097 102.536Z" stroke="#181819" stroke-linecap="round" stroke-linejoin="round"/>
<path d="M97.2339 1L183.438 50.0055L113.715 73.048L27.5112 24.0425L97.2339 1Z" stroke="#181819" stroke-linecap="round" stroke-linejoin="round"/>
<path d="M97.2339 1L183.438 50.0055L113.715 73.048L27.5112 24.0425L97.2339 1Z" stroke="#181819" stroke-linecap="round" stroke-linejoin="round"/>
<path d="M97.2342 1L183.438 50.0055L156.914 151.542L70.71 102.536L97.2342 1Z" stroke="#181819" stroke-linecap="round" stroke-linejoin="round"/>
<path d="M97.2342 1L183.438 50.0055L156.914 151.542L70.71 102.536L97.2342 1Z" stroke="#181819" stroke-linecap="round" stroke-linejoin="round"/>
<path d="M113.715 73.048L87.2037 174.584L1 125.579L27.5113 24.0425L113.715 73.048Z" stroke="#181819" stroke-linecap="round" stroke-linejoin="round"/>
<path d="M113.715 73.048L87.2037 174.584L1 125.579L27.5113 24.0425L113.715 73.048Z" stroke="#181819" stroke-linecap="round" stroke-linejoin="round"/>
<path d="M27.5113 24.0425L97.234 1L70.7097 102.536L1 125.579L27.5113 24.0425Z" stroke="#181819" stroke-linecap="round" stroke-linejoin="round"/>
<path d="M27.5113 24.0425L97.234 1L70.7097 102.536L1 125.579L27.5113 24.0425Z" stroke="#181819" stroke-linecap="round" stroke-linejoin="round"/>
<path d="M183.438 50.0056L156.913 151.542L87.2036 174.584L113.715 73.048L183.438 50.0056Z" stroke="#181819" stroke-linecap="round" stroke-linejoin="round"/>
<path d="M183.438 50.0056L156.913 151.542L87.2036 174.584L113.715 73.048L183.438 50.0056Z" stroke="#181819" stroke-linecap="round" stroke-linejoin="round"/>
</svg>
