<svg width="47" height="39" viewBox="0 0 47 39" fill="none" xmlns="http://www.w3.org/2000/svg">
<path d="M33.0766 27.9999C40.7668 27.9999 47.0009 21.8651 47.0009 14.2975C47.0009 6.72996 40.7668 0.595215 33.0766 0.595215C25.3865 0.595215 19.1523 6.72996 19.1523 14.2975C19.1523 21.8651 25.3865 27.9999 33.0766 27.9999Z" fill="url(#paint0_linear_374_6775)"/>
<path d="M32.313 34H12.4157C7.23445 34 3 29.8463 3 24.7085C3 19.5707 7.17857 15.417 12.4157 15.417H12.6944C13.8086 10.6072 18.0987 7 23.2801 7C29.2972 7 34.1443 11.8098 34.1443 17.7672C34.1443 18.0951 34.1443 18.3684 34.0888 18.6963H34.3114C38.5456 18.6963 42 22.1397 42 26.3481C42 30.5567 38.5458 33.9999 34.3114 33.9999H30.7457" stroke="white" stroke-width="5" stroke-miterlimit="10"/>
<defs>
<linearGradient id="paint0_linear_374_6775" x1="32.9456" y1="4.35238" x2="32.9456" y2="27.8342" gradientUnits="userSpaceOnUse">
<stop stop-color="#FEC506"/>
<stop offset="1" stop-color="#FEC506" stop-opacity="0.2"/>
</linearGradient>
</defs>
</svg>
