<svg width="298" height="246" viewBox="0 0 298 246" fill="none" xmlns="http://www.w3.org/2000/svg">
<g clip-path="url(#clip0_790_686305)">
<path d="M148.334 238.545L26.4367 118.363C20.3432 112.345 15.5097 105.2 12.2119 97.3361C8.91418 89.4726 7.2168 81.0446 7.2168 72.5331C7.2168 64.0217 8.91418 55.5937 12.2119 47.7302C15.5097 39.8667 20.3432 32.7216 26.4367 26.7032C32.5301 20.6847 39.7641 15.9103 47.7256 12.6531C55.6871 9.39595 64.2201 7.71979 72.8375 7.71979C81.455 7.71979 89.988 9.39595 97.9495 12.6531C105.911 15.9103 113.145 20.6847 119.238 26.7032L241.355 146.562L148.334 238.545Z" fill="url(#paint0_linear_790_686305)"/>
<path d="M144.911 232.905C123.608 211.89 111.641 183.395 111.641 153.684C111.641 123.972 123.608 95.4766 144.911 74.4618V74.4618L194.676 25.3978C200.293 19.853 206.964 15.4541 214.307 12.4529C221.649 9.45173 229.52 7.90717 237.468 7.90717C245.417 7.90717 253.287 9.45173 260.63 12.4529C267.972 15.4541 274.643 19.853 280.26 25.3978C285.884 30.9356 290.346 37.512 293.39 44.7512C296.434 51.9903 298 59.7502 298 67.5868C298 75.4233 296.434 83.1832 293.39 90.4223C290.346 97.6615 285.884 104.238 280.26 109.776L150.173 238.093L144.911 232.905Z" stroke="#1D1D1B" stroke-width="2" stroke-miterlimit="10"/>
</g>
<defs>
<linearGradient id="paint0_linear_790_686305" x1="29.7996" y1="33.5454" x2="201.256" y2="208.623" gradientUnits="userSpaceOnUse">
<stop offset="0.181555" stop-color="#FEC506"/>
<stop offset="1" stop-color="#FEC506" stop-opacity="0"/>
</linearGradient>
<clipPath id="clip0_790_686305">
<rect width="298" height="246" fill="white"/>
</clipPath>
</defs>
</svg>
