<svg width="120" height="34" viewBox="0 0 120 34" fill="none" xmlns="http://www.w3.org/2000/svg">
<path d="M29.0609 28.2686C28.9392 28.2686 28.8784 28.1932 28.8784 28.0576V14.118C28.8784 13.9673 28.9392 13.8919 29.0609 13.8919H30.1938C30.3003 13.8919 30.3611 13.9673 30.3611 14.118V28.0576C30.3611 28.1932 30.3003 28.2686 30.1938 28.2686H29.0609Z" fill="white"/>
<path d="M45.5532 28.2686C45.4771 28.2686 45.4315 28.2384 45.4163 28.1932L34.4367 15.3989H33.9805V28.0576C33.9836 28.0861 33.9803 28.1148 33.9707 28.1419C33.9611 28.1689 33.9455 28.1934 33.9251 28.2136C33.9046 28.2339 33.8799 28.2493 33.8526 28.2588C33.8254 28.2683 33.7963 28.2717 33.7676 28.2686H32.3229C32.2942 28.2717 32.2651 28.2683 32.2379 28.2588C32.2106 28.2493 32.1859 28.2339 32.1655 28.2136C32.145 28.1934 32.1294 28.1689 32.1198 28.1419C32.1103 28.1148 32.1069 28.0861 32.11 28.0576V14.118C32.11 13.9673 32.1861 13.8919 32.3229 13.8919H35.5164C35.5816 13.9004 35.6412 13.9327 35.6837 13.9823L45.9486 26.0834V14.118C45.9443 14.0873 45.9472 14.056 45.9572 14.0267C45.9671 13.9973 45.9838 13.9706 46.0059 13.9487C46.028 13.9268 46.0549 13.9103 46.0845 13.9004C46.1142 13.8906 46.1457 13.8877 46.1767 13.8919H47.6214C47.7582 13.8919 47.8343 13.9673 47.8343 14.118V28.0576C47.8374 28.0861 47.834 28.1148 47.8244 28.1419C47.8148 28.1689 47.7993 28.1934 47.7788 28.2136C47.7584 28.2339 47.7336 28.2493 47.7064 28.2588C47.6791 28.2683 47.6501 28.2717 47.6214 28.2686H45.5532Z" fill="white"/>
<path d="M66.1512 24.049C66.1727 24.0741 66.1836 24.1065 66.1816 24.1394C66.1816 25.6765 65.695 26.7766 64.7217 27.4849C63.9157 28.0124 62.6839 28.2836 61.0264 28.2836H55.8255C54.9545 28.2966 54.0841 28.231 53.2251 28.0877C52.5941 27.991 51.9861 27.7817 51.4306 27.4698C51.0025 27.1866 50.6398 26.8168 50.3661 26.3848C50.0616 25.9015 49.855 25.364 49.7578 24.8025C49.621 24.064 49.5449 22.5872 49.5449 20.3719C49.5449 17.795 50.0163 16.0469 50.9592 15.1276H50.944C51.8716 14.2234 53.6205 13.7713 56.1905 13.7713H61.0111C62.7296 13.7713 64.007 14.1179 64.8738 14.7961C65.7406 15.4742 66.1664 16.514 66.1664 17.8854V17.9306C66.1664 18.0662 66.1056 18.1416 65.9839 18.1416H64.5392C64.5105 18.1447 64.4814 18.1414 64.4542 18.1319C64.4269 18.1224 64.4022 18.1069 64.3817 18.0867C64.3613 18.0664 64.3457 18.0419 64.3361 18.0149C64.3265 17.9879 64.3232 17.9591 64.3263 17.9306V17.8854C64.3263 16.3935 63.2162 15.64 60.9959 15.64H56.046C55.3428 15.6314 54.6403 15.6869 53.9474 15.8058C53.4891 15.8782 53.0436 16.0152 52.6244 16.2126C52.0465 16.5593 51.6663 17.2073 51.499 18.1416C51.4181 18.5638 51.3773 18.9927 51.3774 19.4225C51.3622 20.0253 51.3622 20.7788 51.3622 21.6981C51.3525 22.525 51.4084 23.3513 51.5295 24.1695C51.6511 24.8175 51.8032 25.2696 52.0161 25.5409C52.5483 26.1437 53.7649 26.4451 55.6354 26.4451H60.9731C62.0528 26.4451 62.8588 26.3095 63.3759 26.0533C63.9994 25.7669 64.3187 25.1491 64.3187 24.2147V24.1394C64.3156 24.1109 64.3189 24.0821 64.3285 24.0551C64.3381 24.0281 64.3537 24.0036 64.3741 23.9834C64.3946 23.9631 64.4193 23.9477 64.4466 23.9382C64.4738 23.9287 64.5029 23.9253 64.5316 23.9284H66.0067C66.0219 23.9284 66.0219 23.9435 66.0219 23.9586L66.1512 24.049Z" fill="white"/>
<path d="M84.1794 24.1545C84.113 24.7656 83.9594 25.3643 83.7232 25.9327C83.4991 26.3796 83.1892 26.7789 82.8108 27.1082C82.4178 27.4401 81.9556 27.682 81.4573 27.8164V27.8466C80.8956 28.0046 80.3204 28.1105 79.7389 28.1631C78.885 28.2487 78.0271 28.2889 77.1689 28.2836H74.9487C72.6169 28.2836 71.0049 28.0726 70.1128 27.6507C69.1091 27.2137 68.4248 26.3999 68.075 25.2244C67.9267 24.6218 67.8401 24.0058 67.8165 23.3859C67.7556 22.6023 67.7404 21.6227 67.7404 20.4624C67.737 19.627 67.7776 18.7919 67.8621 17.9608C67.9199 17.3594 68.0686 16.7702 68.3031 16.2126C68.5272 15.7657 68.8371 15.3665 69.2155 15.0372C69.6205 14.6957 70.0913 14.4393 70.5994 14.2837H70.6146C71.4662 13.9974 72.9109 13.8467 74.9487 13.8467H77.1689C79.4044 13.8467 81.0011 14.0727 81.9896 14.5098C82.4745 14.7182 82.9021 15.0385 83.2366 15.4441C83.5997 15.89 83.8593 16.4096 83.9969 16.9661C84.112 17.5685 84.1882 18.1776 84.225 18.7896C84.2859 19.5732 84.3163 20.5528 84.3163 21.7131C84.3218 22.5289 84.2761 23.3443 84.1794 24.1545ZM82.4762 20.4322C82.4808 19.763 82.4504 19.094 82.385 18.4279C82.3502 17.9734 82.2317 17.529 82.0352 17.1168C81.8223 16.499 81.3357 16.1072 80.5905 15.9414C79.9974 15.7907 78.8417 15.7153 77.1233 15.7153H74.9182C73.1998 15.7153 72.0441 15.7907 71.4358 15.9414C70.7058 16.1072 70.204 16.499 69.9455 17.1168C69.6565 17.7799 69.5045 18.8951 69.5045 20.4322V21.683C69.5045 23.2201 69.6565 24.3353 69.9455 24.9984C70.2192 25.6012 70.7211 25.993 71.451 26.1588C72.0441 26.3095 73.1998 26.3848 74.9182 26.3848H77.1233C78.8265 26.3848 79.967 26.3095 80.5601 26.1588C81.3053 25.993 81.7919 25.6012 82.02 24.9984C82.2165 24.5862 82.335 24.1418 82.3698 23.6873C82.4359 23.0213 82.4664 22.3522 82.461 21.683V20.4322H82.4762Z" fill="white"/>
<path d="M100.231 28.2686C100.202 28.2717 100.173 28.2683 100.146 28.2588C100.118 28.2493 100.094 28.2339 100.073 28.2136C100.053 28.1934 100.037 28.1689 100.027 28.1419C100.018 28.1148 100.015 28.0861 100.018 28.0576C100.018 27.6658 100.033 27.063 100.094 26.2643C100.124 25.8725 100.155 25.5409 100.17 25.2697C100.185 24.9984 100.185 24.7874 100.185 24.6367C100.193 24.2108 100.147 23.7855 100.048 23.3709C99.9784 23.0748 99.8547 22.7939 99.6831 22.542C99.4237 22.2697 99.0914 22.0763 98.725 21.9844C98.2335 21.8595 97.7267 21.8037 97.2195 21.8187H87.9127V28.0576C87.9158 28.0861 87.9125 28.1148 87.9029 28.1419C87.8933 28.1689 87.8777 28.1934 87.8573 28.2136C87.8368 28.2339 87.8121 28.2493 87.7848 28.2588C87.7576 28.2683 87.7285 28.2717 87.6998 28.2686H86.2399C86.2112 28.2717 86.1821 28.2683 86.1549 28.2588C86.1276 28.2493 86.1029 28.2339 86.0824 28.2136C86.062 28.1934 86.0464 28.1689 86.0368 28.1419C86.0272 28.1148 86.0239 28.0861 86.027 28.0576V14.118C86.027 13.9673 86.103 13.8919 86.2399 13.8919H96.4135C99.6679 13.8919 101.295 15.1728 101.295 17.7347C101.305 18.3028 101.218 18.8685 101.037 19.4075C100.903 19.8303 100.63 20.1965 100.261 20.4473C100.808 20.6884 101.249 21.1405 101.569 21.7885C101.712 22.1049 101.809 22.4397 101.858 22.7831C101.915 23.1824 101.94 23.5855 101.934 23.9887V28.0727C101.934 28.2083 101.873 28.2836 101.766 28.2836H100.231V28.2686ZM96.8089 15.8661H87.9127V19.8445H96.7177C98.5425 19.8445 99.4398 19.1664 99.4398 17.8251C99.455 16.5141 98.573 15.8661 96.8089 15.8661Z" fill="white"/>
<path d="M118.16 28.2685H118.023C118.023 28.2535 118.008 28.2384 117.992 28.1932L118.023 28.2233L116.305 24.8778H106.648L104.945 28.2233V28.2685H103.211C103.182 28.2716 103.153 28.2683 103.126 28.2588C103.099 28.2493 103.074 28.2339 103.054 28.2136C103.033 28.1934 103.018 28.1688 103.008 28.1418C102.998 28.1148 102.995 28.086 102.998 28.0576V28.0425C102.999 28.0252 103.004 28.0082 103.012 27.9927C103.02 27.9772 103.03 27.9634 103.044 27.9521V27.9973L110.237 13.9371C110.255 13.9209 110.277 13.9085 110.301 13.9008C110.324 13.893 110.349 13.89 110.374 13.8919H112.624C112.67 13.8919 112.7 13.8919 112.7 13.907C112.7 13.922 112.716 13.922 112.731 13.9371L119.969 27.9973V27.9551C119.986 27.9826 119.997 28.0135 120 28.0455V28.0606C120 28.1962 119.939 28.2716 119.817 28.2716L118.16 28.2685ZM107.606 23.0845H115.331L111.499 15.5496L107.606 23.0845Z" fill="white"/>
<path d="M20.2104 10.5765H15.0551L12.4091 19.1211H11.3598L9.9151 17.1319L0 22.6324L5.0792 33.0909H11.2685L14.2491 25.7519L15.0551 26.6259H16.6671L24.879 22.3159V20.1609L20.2104 10.5765ZM8.18147 29.022C7.77088 29.6399 7.36028 30.2578 6.91928 30.8605L6.72158 31.1469L6.52389 30.8153C5.04879 28.4343 3.74097 25.993 2.50919 23.5215L2.26587 23.0393L2.7373 22.768C5.01838 21.472 7.34508 20.2363 9.7174 19.1061L10.0368 18.9554L10.128 19.2417C10.4321 20.1007 10.7363 20.9596 10.9948 21.8337C10.5538 21.1556 10.1584 20.4623 9.76302 19.7691C7.8165 21.0802 5.80915 22.3159 3.77139 23.4914C4.8663 25.7067 5.90039 27.9521 6.81283 30.2578C7.25383 29.8358 7.71005 29.4289 8.18147 29.022ZM23.3735 21.4268C21.0924 22.7228 18.7657 23.9586 16.3934 25.0888L16.074 25.2395L15.9828 24.9532C15.6786 24.0942 15.3745 23.2352 15.116 22.3611C15.557 23.0393 15.9524 23.7325 16.3477 24.4257C18.2943 23.1146 20.3016 21.8789 22.3394 20.7035C21.2445 18.4882 20.2104 16.2428 19.2979 13.9371C18.8569 14.359 18.4007 14.781 17.9445 15.1879C18.3551 14.57 18.7657 13.9522 19.2067 13.3494L19.4044 13.063L19.6021 13.3946C21.062 15.7605 22.3546 18.2019 23.6016 20.6733L23.8449 21.1556L23.3735 21.4268Z" fill="white"/>
<path d="M17.4039 0.0906463L12.9629 4.49158L17.4039 8.89251L21.845 4.49158L17.4039 0.0906463Z" fill="#FEC602"/>
<path d="M17.9291 15.1879L19.2825 13.9371L22.3239 20.7035L16.3323 24.4257L15.1157 22.3612L17.9291 15.1879Z" fill="#FEC506"/>
<path d="M16.3174 24.5312L15.04 22.3763L17.8838 15.1427L19.3133 13.8316L22.4155 20.7487L16.3174 24.5312ZM15.1921 22.3612L16.3631 24.3203L22.233 20.6734L19.2676 14.0577L18.0054 15.2181L15.1921 22.3612Z" fill="white"/>
<path d="M8.16637 29.022L6.81292 30.2728L3.77148 23.5065L9.76312 19.7842L10.9949 21.8337L8.16637 29.022Z" fill="#FEC506"/>
<path d="M6.78244 30.3934L3.68018 23.4763L9.79347 19.6787L11.0709 21.8337L8.22713 29.0823L6.78244 30.3934ZM3.86266 23.5216L6.82807 30.1372L8.09026 28.9768L10.8884 21.8488L9.71743 19.8897L3.86266 23.5216Z" fill="white"/>
</svg>
