<svg width="42" height="35" viewBox="0 0 42 35" fill="none" xmlns="http://www.w3.org/2000/svg">
<path d="M16.1818 31.909C24.0142 31.909 30.3636 25.5596 30.3636 17.7272C30.3636 9.89483 24.0142 3.54541 16.1818 3.54541C8.34942 3.54541 2 9.89483 2 17.7272C2 25.5596 8.34942 31.909 16.1818 31.909Z" stroke="url(#paint0_linear_769_685483)" stroke-width="4" stroke-miterlimit="10"/>
<line x1="15.5" y1="33" x2="15.5" y2="18" stroke="black" stroke-width="5"/>
<line x1="27.5" y1="33" x2="27.5" y2="9" stroke="black" stroke-width="5"/>
<line x1="39.5" y1="33" x2="39.5" y2="8.19588e-08" stroke="black" stroke-width="5"/>
<path d="M30.1932 34.3864C35.8227 34.3864 40.3864 29.8227 40.3864 24.1932C40.3864 18.5636 35.8227 14 30.1932 14C24.5636 14 20 18.5636 20 24.1932C20 29.8227 24.5636 34.3864 30.1932 34.3864Z" fill="url(#paint1_linear_769_685483)"/>
<defs>
<linearGradient id="paint0_linear_769_685483" x1="16.1818" y1="3.54541" x2="16.1818" y2="31.909" gradientUnits="userSpaceOnUse">
<stop stop-color="#FEC506"/>
<stop offset="1" stop-color="#FEC506" stop-opacity="0"/>
</linearGradient>
<linearGradient id="paint1_linear_769_685483" x1="30.0973" y1="16.795" x2="30.0973" y2="34.2631" gradientUnits="userSpaceOnUse">
<stop stop-color="#FEC506"/>
<stop offset="1" stop-color="#FEC506" stop-opacity="0.2"/>
</linearGradient>
</defs>
</svg>
