<svg width="150" height="31" viewBox="0 0 150 31" fill="none" xmlns="http://www.w3.org/2000/svg">
<path d="M6.08399 21.3659C5.81375 20.5604 5.67969 19.5436 5.67969 18.1765C5.67969 16.8089 5.81375 15.7901 6.08399 14.9867C6.83897 12.6814 8.83892 11.4218 11.4577 11.4218C13.4024 11.4218 14.9424 12.1993 15.9697 13.4326C16.0491 13.539 16.0759 13.6997 15.9423 13.8066L14.2415 15.2812C14.1059 15.3892 13.9713 15.3623 13.8625 15.2285C13.2137 14.5052 12.5386 14.1022 11.4582 14.1022C10.2974 14.1022 9.40673 14.6653 9.02767 15.7911C8.81316 16.4359 8.75796 17.1856 8.75796 18.1771C8.75796 19.1685 8.81264 19.9456 9.02767 20.5893C9.40621 21.6872 10.2974 22.2504 11.4582 22.2504C12.5386 22.2504 13.2137 21.8479 13.8625 21.1261C13.9713 20.9903 14.1059 20.9903 14.2415 21.0977L15.9423 22.5723C16.0759 22.6792 16.0491 22.8135 15.9697 22.9479C14.9429 24.1548 13.403 24.9313 11.4577 24.9313C8.83892 24.9303 6.83897 23.6696 6.08399 21.3659Z" fill="#FEC506"/>
<path d="M65.0938 21.3659C64.8235 20.5604 64.6895 19.5436 64.6895 18.1765C64.6895 16.8089 64.8235 15.7901 65.0938 14.9867C65.8503 12.6814 67.8482 11.4218 70.4669 11.4218C72.4122 11.4218 73.9527 12.1993 74.9784 13.4326C75.0588 13.539 75.0867 13.6997 74.9505 13.8066L73.2492 15.2812C73.1141 15.3892 72.98 15.3623 72.8717 15.2285C72.224 14.5052 71.5484 14.1022 70.4669 14.1022C69.3066 14.1022 68.4149 14.6653 68.0374 15.7911C67.8208 16.4359 67.7682 17.1856 67.7682 18.1771C67.7682 19.1685 67.8208 19.9456 68.0374 20.5893C68.4149 21.6872 69.3066 22.2504 70.4669 22.2504C71.5484 22.2504 72.224 21.8479 72.8717 21.1261C72.98 20.9903 73.1146 20.9903 73.2492 21.0977L74.9505 22.5723C75.0867 22.6792 75.0588 22.8135 74.9784 22.9479C73.9527 24.1548 72.4122 24.9313 70.4669 24.9313C67.8482 24.9303 65.8503 23.6696 65.0938 21.3659Z" fill="#FEC506"/>
<path d="M133.299 24.6363C133.137 24.6363 133.029 24.5299 133.029 24.3676V16.9169C133.029 15.2548 132.191 14.1017 130.57 14.1017C129.004 14.1017 128.086 15.2543 128.086 16.9169V24.3676C128.086 24.5294 127.977 24.6363 127.816 24.6363H125.331C125.169 24.6363 125.06 24.5299 125.06 24.3676V16.9169C125.06 15.2548 124.223 14.1017 122.605 14.1017C121.037 14.1017 120.118 15.2543 120.118 16.9169V24.3676C120.118 24.5294 120.011 24.6363 119.848 24.6363H117.363C117.2 24.6363 117.094 24.5299 117.094 24.3676V11.9844C117.094 11.8232 117.2 11.7157 117.363 11.7157H119.848C120.011 11.7157 120.118 11.8232 120.118 11.9844V12.9226H120.146C120.714 12.1182 121.847 11.4218 123.575 11.4218C125.115 11.4218 126.357 12.0371 127.139 13.1365H127.167C128.166 12.0655 129.463 11.4218 131.327 11.4218C134.35 11.4218 136.053 13.4584 136.053 16.2194V24.3671C136.053 24.5294 135.945 24.6363 135.782 24.6363H133.299Z" fill="#FEC506"/>
<path d="M139.804 29.4605C139.642 29.4605 139.534 29.353 139.534 29.1913V27.0477C139.534 26.8875 139.642 26.7785 139.804 26.7785H140.291C141.316 26.7785 141.831 26.3249 142.235 25.2518L142.614 24.1528L137.86 11.984C137.805 11.8228 137.914 11.7153 138.077 11.7153H140.75C140.912 11.7153 141.02 11.8228 141.073 11.984L144.018 20.4272H144.071L146.881 11.984C146.935 11.8228 147.043 11.7153 147.204 11.7153H149.769C149.932 11.7153 150.041 11.8228 149.985 11.984L145.017 25.4393C143.883 28.4953 142.801 29.4594 140.642 29.4594L139.804 29.4605Z" fill="#FEC506"/>
<path d="M18.4556 21.3669C18.1586 20.454 18.0234 19.5969 18.0234 18.1766C18.0234 16.7584 18.1586 15.9002 18.4556 14.9909C19.1848 12.7393 21.1816 11.4254 23.8277 11.4254C26.446 11.4254 28.4438 12.7388 29.173 14.9909C29.4685 15.9002 29.6047 16.7584 29.6047 18.1766C29.6047 19.5969 29.4685 20.454 29.173 21.3669C28.4433 23.617 26.446 24.9298 23.8277 24.9298C21.1816 24.9303 19.1848 23.6175 18.4556 21.3669ZM26.2572 20.563C26.4738 19.894 26.5275 19.2765 26.5275 18.1771C26.5275 17.0807 26.4738 16.4902 26.2572 15.7943C25.8797 14.7232 25.0422 14.1053 23.8277 14.1053C22.6138 14.1053 21.7484 14.7232 21.3714 15.7943C21.1564 16.4907 21.1017 17.0807 21.1017 18.1771C21.1017 19.2765 21.1564 19.894 21.3714 20.563C21.7484 21.6361 22.6143 22.2504 23.8277 22.2504C25.0422 22.2499 25.8797 21.6356 26.2572 20.563Z" fill="#FEC506"/>
<path d="M82.2146 11.4218C80.0806 11.4218 78.65 11.9307 77.5959 12.6814C77.4891 12.763 77.4613 12.8953 77.5433 13.0291L78.5401 14.7991C78.6237 14.9335 78.7835 14.9603 78.9197 14.8529C79.5411 14.3714 80.4312 13.9678 81.8907 13.9678C84.0184 13.9678 84.7408 14.6023 84.7776 15.9968H84.7781V16.0138C84.7792 16.0464 84.7792 16.0794 84.7792 16.114V20.2959C84.7792 21.7699 83.7535 22.4922 81.8907 22.4922C80.4312 22.4922 79.6489 21.9574 79.6489 20.8859C79.6489 19.679 80.5138 19.1417 82.4575 19.1417L83.0484 19.1427C83.2103 19.1427 83.3192 19.0352 83.3192 18.8756V17.1572C83.3192 16.997 83.2103 16.8901 83.0484 16.8901H82.9186L81.9717 16.8895C78.7583 16.8895 76.7578 18.1781 76.7578 20.9908C76.7578 23.6986 78.7583 24.9308 81.1336 24.9308C82.9685 24.9308 84.1846 24.3149 84.806 23.4304H84.8323V24.3687C84.8323 24.5299 84.9416 24.6373 85.1031 24.6373H87.3711C87.5336 24.6373 87.6419 24.5304 87.6419 24.3687V15.9255C87.6424 12.763 86.1845 11.4218 82.2146 11.4218Z" fill="#FEC506"/>
<path d="M49.9501 16.8885C49.8796 16.8885 49.8334 16.9345 49.8334 17.0037V17.0802V17.3044V18.7242V18.9148V19.0249C49.8334 19.0941 49.8796 19.1406 49.9501 19.1406H50.0174H56.6376C56.8269 19.1406 56.9352 19.0342 56.9352 18.8745C56.9352 16.782 56.799 15.897 56.503 14.9867C55.7728 12.7888 53.8291 11.4222 51.1551 11.4222C48.5626 11.4222 46.5648 12.7351 45.8345 14.9867C45.5659 15.8174 45.4023 16.8363 45.4023 18.1765C45.4023 19.5167 45.5916 20.5077 45.8634 21.3395C46.5921 23.59 48.5358 24.9303 51.2902 24.9303C53.6929 24.9303 55.5309 24.0189 56.6371 22.7324C56.7444 22.5991 56.7444 22.4653 56.6098 22.3568L55.0178 20.9634C54.8816 20.8564 54.747 20.8843 54.6114 21.0171C53.9642 21.7146 53.0189 22.2504 51.5605 22.2504C50.1036 22.2504 49.0763 21.5539 48.6441 20.2948C48.5789 20.1186 48.5248 19.9337 48.4906 19.7327H48.4901C48.3918 19.1871 48.3339 18.656 48.3339 17.8758C48.355 17.1406 48.3981 16.671 48.5043 16.0742C48.5053 16.066 48.5069 16.0587 48.5085 16.051C48.5095 16.0448 48.5106 16.0401 48.5116 16.0339V16.0344C48.5374 15.8939 48.5726 15.7616 48.6163 15.6299C48.9675 14.5847 49.9396 13.9683 51.183 13.9683C52.3985 13.9683 53.369 14.5847 53.7202 15.6299C53.8291 15.9533 53.8822 16.2731 53.8822 16.7299C53.8822 16.8368 53.8286 16.8895 53.7202 16.8895H50.172L50.1725 16.889L49.9501 16.8885Z" fill="#FEC506"/>
<path d="M42.8934 6.41077H40.4129C40.2494 6.41077 40.1416 6.51771 40.1416 6.67685V12.9393V18.1182C40.1416 18.1322 40.1416 18.1461 40.1416 18.1596C40.1416 18.1735 40.1416 18.1875 40.1416 18.2009V18.8886H40.1279C40.099 19.6274 40.0175 20.113 39.8729 20.5682C39.5222 21.6377 38.6847 22.2262 37.4455 22.2262C36.2321 22.2262 35.3967 21.6377 35.0444 20.5682C34.8562 19.9787 34.7763 19.337 34.7763 18.1596C34.7763 16.9826 34.8562 16.3394 35.0444 15.7519C35.3898 14.7026 36.1984 14.11 37.3719 14.0867H38.4308C38.4823 14.0743 38.516 14.0346 38.516 13.9767L38.5296 11.5298C38.5296 11.4673 38.4897 11.4254 38.4308 11.4182L37.5854 11.4151H36.5917V11.4156C34.4177 11.4384 32.8263 12.4799 32.1596 14.5182C31.8358 15.5096 31.7012 16.421 31.7012 18.1596C31.7012 19.8986 31.8358 20.809 32.1596 21.7984C32.8336 23.8598 34.4519 24.9035 36.6627 24.9035C38.4166 24.9035 39.4954 24.2623 40.1142 23.3778H40.1405V24.3414C40.1405 24.5026 40.2488 24.6095 40.4118 24.6095H42.8923C43.0542 24.6095 43.1625 24.5031 43.1625 24.3414V6.67685C43.1636 6.5172 43.0553 6.41077 42.8934 6.41077Z" fill="#FEC506"/>
<path d="M107.921 16.8885C107.852 16.8885 107.804 16.9345 107.804 17.0037V17.0802V17.3044V18.7242V18.9148V19.0249C107.804 19.0941 107.852 19.1406 107.921 19.1406H107.99H114.61C114.799 19.1406 114.907 19.0342 114.907 18.8745C114.907 16.782 114.772 15.897 114.476 14.9867C113.745 12.7888 111.801 11.4222 109.128 11.4222C106.535 11.4222 104.537 12.7351 103.807 14.9867C103.538 15.8174 103.375 16.8363 103.375 18.1765C103.375 19.5167 103.564 20.5077 103.836 21.3395C104.564 23.59 106.508 24.9303 109.263 24.9303C111.666 24.9303 113.504 24.0189 114.61 22.7324C114.718 22.5991 114.718 22.4653 114.582 22.3568L112.99 20.9634C112.855 20.8564 112.72 20.8843 112.585 21.0171C111.937 21.7146 110.993 22.2504 109.533 22.2504C108.076 22.2504 107.049 21.5539 106.617 20.2948C106.552 20.1186 106.497 19.9337 106.464 19.7327H106.464C106.365 19.1871 106.307 18.656 106.307 17.8758C106.327 17.1406 106.37 16.671 106.477 16.0742C106.479 16.066 106.48 16.0587 106.481 16.051C106.482 16.0448 106.483 16.0401 106.484 16.0339V16.0344C106.511 15.8939 106.546 15.7616 106.589 15.6299C106.94 14.5847 107.913 13.9683 109.156 13.9683C110.372 13.9683 111.342 14.5847 111.693 15.6299C111.802 15.9533 111.856 16.2731 111.856 16.7299C111.856 16.8368 111.802 16.8895 111.693 16.8895H108.145V16.889L107.921 16.8885Z" fill="#FEC506"/>
<path d="M100.994 6.41077H98.5088C98.3463 6.41077 98.238 6.51823 98.238 6.67736V12.9486V18.1358V18.1766V18.2185V18.9072H98.2249C98.1954 19.647 98.1134 20.1332 97.9688 20.5889C97.6176 21.6604 96.7785 22.2505 95.5383 22.2505C94.3238 22.2505 93.4868 21.6604 93.134 20.5889C92.9463 19.9983 92.8643 19.3561 92.8643 18.1766C92.8643 16.9981 92.9453 16.3533 93.134 15.7654C93.4795 14.7145 94.2896 14.1265 95.4652 14.1033L96.5257 14.1038C96.6881 14.1038 96.7964 13.9969 96.7964 13.8372V11.6895C96.7964 11.5293 96.6881 11.4223 96.5257 11.4223H96.3958L94.7928 11.4218C94.7802 11.4218 94.7675 11.4218 94.7555 11.4218C94.7434 11.4218 94.7323 11.4218 94.7208 11.4218H94.6839V11.4223C92.5073 11.4446 90.9133 12.4882 90.2461 14.5295C89.9217 15.5225 89.7871 16.4344 89.7871 18.1756C89.7871 19.9172 89.9217 20.8296 90.2461 21.8206C90.9206 23.8841 92.542 24.9298 94.756 24.9298C96.512 24.9298 97.5924 24.2882 98.2128 23.4021H98.2391V24.3667C98.2391 24.5289 98.3474 24.6353 98.5104 24.6353H100.995C101.157 24.6353 101.266 24.5294 101.266 24.3667V6.67736C101.264 6.51771 101.155 6.41077 100.994 6.41077Z" fill="#FEC506"/>
<path d="M64.8906 28.2906V30.7328C64.8906 30.8935 64.9989 30.9999 65.1614 30.9999H74.3704C74.535 30.9999 74.6438 30.893 74.6438 30.7328V28.2906C74.6438 28.132 74.535 28.025 74.3704 28.025H65.1614C64.9989 28.025 64.8906 28.132 64.8906 28.2906Z" fill="#FEC506"/>
<path d="M62.5533 0.0862818C62.5491 0.0821486 62.5465 0.076982 62.5428 0.0733654C62.5423 0.0728487 62.5417 0.0728487 62.5417 0.0728487C62.4944 0.0268662 62.4271 0 62.3472 0H62.3441H0.271287C0.250783 0 0.23133 0.00206663 0.212403 0.00516658C0.207146 0.00619989 0.202414 0.00826652 0.196631 0.00929984C0.184539 0.0123998 0.171395 0.0149831 0.160354 0.019633C0.158251 0.0201496 0.156674 0.021183 0.155096 0.0222163C0.0588841 0.0609656 0 0.149314 0 0.266079V0.267112V30.7292V30.7313C0 30.8243 0.0368025 30.8972 0.0988411 30.9437C0.103573 30.9483 0.107779 30.9524 0.114088 30.9555V30.9561C0.157199 30.9829 0.209775 30.9974 0.271287 30.9974H62.3435H62.3467C62.4382 30.9974 62.5123 30.9628 62.5591 30.9034C62.5959 30.8589 62.6174 30.8005 62.6174 30.7308V30.7287V0.267112V0.266079C62.6174 0.19323 62.5938 0.131748 62.5533 0.0862818ZM3.29435 28.024C3.2749 28.024 3.25597 28.0225 3.23915 28.0199C3.23389 28.0189 3.22811 28.0163 3.22285 28.0147C3.21023 28.0121 3.19762 28.0096 3.18605 28.0049C3.18395 28.0044 3.1829 28.0028 3.18079 28.0023C3.08511 27.9641 3.02675 27.8763 3.02622 27.7605V5.68065V3.23944C3.02622 3.12216 3.08511 3.03485 3.18079 2.99558C3.18342 2.99506 3.185 2.99351 3.18658 2.993C3.19762 2.98886 3.23337 2.98008 3.23915 2.97853C3.25703 2.97595 3.27595 2.9744 3.29541 2.9744H59.3215C59.3415 2.9744 59.3599 2.97595 59.3778 2.97853C59.3835 2.98008 59.3888 2.98215 59.3935 2.9837C59.4062 2.98628 59.4188 2.98886 59.4303 2.99351C59.433 2.99403 59.434 2.99558 59.4361 2.9961C59.5323 3.03485 59.5907 3.12268 59.5907 3.23996V27.761C59.5902 27.8773 59.5313 27.9651 59.4366 28.0034C59.4345 28.0039 59.4335 28.0054 59.4309 28.0059C59.4198 28.0101 59.4067 28.0132 59.3946 28.0158C59.3888 28.0173 59.3841 28.0199 59.3783 28.0209C59.3604 28.024 59.3431 28.0251 59.3236 28.0251H3.29435V28.024Z" fill="#FEC506"/>
</svg>
