<svg width="150" height="30" viewBox="0 0 150 30" fill="none" xmlns="http://www.w3.org/2000/svg">
<path d="M17.4 5.63738L8.7 11.2748L17.4 16.9121L8.7 22.5495L0 16.8817L8.7 11.2443L0 5.63738L8.7 0L17.4 5.63738ZM8.655 24.3626L17.355 18.7252L26.055 24.3626L17.355 30L8.655 24.3626ZM17.4 16.8817L26.1 11.2443L17.4 5.63738L26.055 0L34.755 5.63738L26.055 11.2748L34.755 16.9121L26.055 22.5495L17.4 16.8817Z" fill="#FEC506"/>
<path d="M41.5801 5.63743H48.6151C53.1001 5.63743 56.8051 8.27329 56.8051 14.2916V15.5562C56.8051 21.6202 53.3401 24.3474 48.7501 24.3474H41.5801V5.63743ZM45.5101 9.03509V20.9345H48.5251C51.0751 20.9345 52.7851 19.2433 52.7851 15.48V14.4896C52.7851 10.7263 50.9851 9.03509 48.3901 9.03509H45.5101ZM58.8901 9.21793H62.0401L62.5501 12.7375C63.1501 10.3454 64.6801 9.06557 67.4551 9.06557H68.4301V13.1032H66.8101C63.6151 13.1032 62.8351 14.2306 62.8351 17.4302V24.3931H58.9501V9.21793H58.8901ZM69.2101 17.1103V16.6836C69.2101 11.61 72.4051 8.83702 76.7551 8.83702C81.1951 8.83702 84.3001 11.61 84.3001 16.6836V17.1103C84.3001 22.0925 81.2851 24.7741 76.7551 24.7741C71.9401 24.7283 69.2101 22.1077 69.2101 17.1103ZM80.3251 17.0646V16.6836C80.3251 13.865 78.9301 12.1737 76.7101 12.1737C74.5351 12.1737 73.0951 13.7278 73.0951 16.6836V17.0646C73.0951 19.7918 74.4901 21.3459 76.7101 21.3459C78.9301 21.3002 80.3251 19.7918 80.3251 17.0646ZM86.3401 9.21793H89.5801L89.9551 12.0823C90.7351 10.1626 92.4001 8.83702 94.8601 8.83702C98.6551 8.83702 101.16 11.61 101.16 16.7446V17.1712C101.16 22.1534 98.3851 24.7893 94.8601 24.7893C92.5051 24.7893 90.8851 23.7075 90.0901 21.9706V29.6344H86.2951L86.3401 9.21793ZM97.2151 17.0646V16.7294C97.2151 13.7126 95.6851 12.2195 93.6451 12.2195C91.4701 12.2195 90.0301 13.9107 90.0301 16.7294V17.0188C90.0301 19.7004 91.4251 21.3916 93.6001 21.3916C95.8351 21.3459 97.2151 19.8985 97.2151 17.0646ZM106.905 21.5897L106.575 24.3627H103.245V4.14429H107.04V11.8995C107.88 9.91879 109.545 8.83702 111.9 8.83702C115.47 8.88273 118.11 11.3815 118.11 16.4094V16.8817C118.11 21.9097 115.605 24.7893 111.81 24.7893C109.305 24.7283 107.685 23.5552 106.905 21.5897ZM114.12 16.8817V16.5008C114.12 13.7278 112.635 12.1737 110.55 12.1737C108.42 12.1737 106.935 13.9107 106.935 16.5465V16.8817C106.935 19.7004 108.375 21.3459 110.505 21.3459C112.785 21.3459 114.12 19.8985 114.12 16.8817ZM119.775 17.1103V16.6836C119.775 11.61 122.97 8.83702 127.32 8.83702C131.76 8.83702 134.865 11.61 134.865 16.6836V17.1103C134.865 22.0925 131.805 24.7741 127.32 24.7741C122.505 24.7283 119.775 22.1077 119.775 17.1103ZM130.92 17.0646V16.6836C130.92 13.865 129.525 12.1737 127.305 12.1737C125.13 12.1737 123.69 13.7278 123.69 16.6836V17.0646C123.69 19.7918 125.085 21.3459 127.305 21.3459C129.54 21.3002 130.92 19.7918 130.92 17.0646ZM139.95 16.5008L134.715 9.21793H139.2L142.215 13.7735L145.275 9.21793H149.715L144.405 16.4551L150 24.3627H145.605L142.185 19.3347L138.855 24.3627H134.265L139.95 16.5008Z" fill="#FEC506"/>
</svg>
