<svg width="140" height="28" viewBox="0 0 140 28" fill="none" xmlns="http://www.w3.org/2000/svg">
<path d="M8.869 27.2173H3.59366V13.801H0V9.43296H3.59352V6.32478C3.59352 2.64157 5.18294 0 10.444 0C11.5567 0 13.3036 0.228808 13.3036 0.228808V4.28479H11.4688C9.59924 4.28479 8.86928 4.86495 8.86928 6.46889V9.43296H13.2336L12.845 13.801H8.86914L8.869 27.2173ZM20.9734 9.08389C20.8965 9.08389 20.8174 9.08675 20.7392 9.08875C15.8476 9.08875 13.6095 12.8425 13.6095 18.1711C13.6095 24.8836 16.5126 27.5702 20.7774 27.5702C23.2175 27.5702 24.8206 26.5224 25.795 24.5671V27.2191H30.8126V9.43482H25.795V12.1698C24.9994 10.4102 23.3514 9.10475 20.9734 9.08389ZM22.2492 13.2863C24.3037 13.2863 25.5368 14.7482 25.5368 17.235L25.5416 19.7749C25.5416 21.4509 24.5231 23.4118 22.2492 23.4118C18.7534 23.4118 18.8468 19.5609 18.8468 18.2783C18.8468 13.964 20.7094 13.2863 22.2492 13.2863ZM32.839 18.3279C32.839 16.1668 32.7376 9.09546 41.7682 9.09546C45.3932 9.09546 46.9069 10.2714 46.9069 10.2714L45.6903 14.1209C45.6903 14.1209 44.1785 13.2717 42.2087 13.2717C39.6858 13.2717 38.0759 14.7638 38.0759 17.3891L38.0787 19.2715C38.0787 21.7941 39.632 23.4781 42.2139 23.4781C44.0084 23.4781 45.6624 22.6208 45.6624 22.6208L46.8759 26.39C46.8759 26.39 45.4919 27.5733 41.7935 27.5733C33.195 27.5733 32.8391 21.229 32.8391 18.3279H32.839ZM76.3269 9.08875C81.2186 9.08875 83.4919 12.8425 83.4919 18.1711C83.4919 24.8836 80.5888 27.5702 76.3239 27.5702C73.8839 27.5702 72.0801 26.5226 71.1057 24.5671V27.2191L66.1513 27.2171V0.54074L71.4116 0.0726986V11.9289C72.1708 9.85458 74.6659 9.08875 76.327 9.08875H76.3269ZM74.8521 13.2863C72.7976 13.2863 71.4116 14.7482 71.4116 17.235L71.4067 19.7749C71.4036 21.4509 72.3666 23.4118 74.8521 23.4118C78.3479 23.4118 78.2545 19.5609 78.2545 18.2783C78.2545 13.964 76.3921 13.2863 74.8521 13.2863ZM56.034 9.10346C50.4858 9.10346 47.5567 12.1895 47.5567 17.6738V18.6927C47.5567 25.8107 51.6701 27.6433 56.574 27.6433C61.3406 27.6433 63.4981 26.2832 63.4981 26.2832L62.5138 22.6611C62.5138 22.6611 59.9759 23.7627 57.2047 23.7627C54.3319 23.7627 53.0964 23.0157 52.7797 20.1992H63.9187V17.2934C63.9187 11.3444 60.6313 9.10332 56.0339 9.10332L56.034 9.10346ZM56.1677 12.7304C58.0882 12.7304 59.3327 13.9318 59.2644 16.7182H52.7894C52.9017 13.7856 54.2437 12.7305 56.1677 12.7305V12.7304ZM93.9809 9.07904C88.2833 9.07904 85.2838 12.3546 85.2838 18.2246C85.2838 26.2786 90.4543 27.575 93.9904 27.575C99.167 27.575 102.611 24.7318 102.611 18.2978C102.611 11.6011 98.7386 9.07904 93.9809 9.07904ZM93.9092 13.3008C96.4145 13.3008 97.4072 15.2137 97.4072 17.3911V19.2631C97.4072 21.9008 96.0182 23.4265 93.8997 23.4265C91.9184 23.4265 90.526 21.9994 90.526 19.2631V17.3911C90.526 14.4729 92.1829 13.3008 93.9092 13.3008ZM113.091 9.07904C107.393 9.07904 104.394 12.3546 104.394 18.2246C104.394 26.2786 109.564 27.575 113.1 27.575C118.277 27.575 121.721 24.7318 121.721 18.2978C121.721 11.6011 117.848 9.07904 113.091 9.07904ZM113.019 13.3008C115.524 13.3008 116.517 15.2137 116.517 17.3911V19.2631C116.517 21.9008 115.128 23.4265 113.009 23.4265C111.028 23.4265 109.636 21.9994 109.636 19.2631V17.3911C109.636 14.4729 111.293 13.3008 113.019 13.3008ZM123.709 27.2173V0.54074L128.984 0.0728414V17.9531L134.218 9.4331H139.79L134.33 18.2573L140 27.2173H134.413L128.984 18.5171V27.2173H123.709Z" fill="#FEC506"/>
</svg>
