<svg width="150" height="30" viewBox="0 0 150 30" fill="none" xmlns="http://www.w3.org/2000/svg">
<path d="M38.4434 5.98462H48.7416V9.45883H42.5177V13.5924H47.6668V16.8637H42.5177V23.9897H38.4434V5.98462Z" fill="#FEC506"/>
<path d="M50.166 5.98462H54.2403V20.5408H60.0643V23.9897H50.166V5.98462Z" fill="#FEC506"/>
<path d="M65.6642 5.98462H61.5898V23.9897H65.6642V5.98462Z" fill="#FEC506"/>
<path d="M67.6641 5.98462H72.7382C77.1375 5.98462 79.5621 8.29231 79.5621 12.0962C79.5621 16.0269 77.1125 18.436 72.7382 18.436H71.7384V23.9643H67.6641V5.98462ZM71.7384 9.25596V15.1647H72.5382C74.5129 15.1647 75.4877 14.1757 75.4877 12.1976C75.4877 10.2703 74.4879 9.28132 72.5382 9.28132H71.7384V9.25596Z" fill="#FEC506"/>
<path d="M81.0117 5.98462H86.8607C90.8601 5.98462 92.8097 7.73441 92.8097 10.6761C92.8097 12.3752 91.9849 13.8967 89.9352 14.4039C92.1598 14.8096 93.3596 16.5341 93.3596 18.6389C93.3596 21.7074 91.235 23.9643 87.2357 23.9643H81.0617V5.98462H81.0117ZM85.086 9.25596V13.1613H86.2358C87.9355 13.1613 88.7104 12.4259 88.7104 11.1325C88.7104 9.96602 87.9855 9.25596 86.3108 9.25596H85.086ZM85.086 16.2805V20.7437H86.6108C88.3855 20.7437 89.2603 19.9068 89.2603 18.4614C89.2603 17.0666 88.2855 16.3058 86.6358 16.3058H85.086V16.2805Z" fill="#FEC506"/>
<path d="M101.232 5.70581C105.506 5.70581 107.956 8.87572 107.956 15.0127C107.956 21.0989 105.506 24.3195 101.232 24.3195C96.9574 24.3195 94.5078 21.1496 94.5078 15.0127C94.5078 8.87572 96.9574 5.70581 101.232 5.70581ZM101.232 20.7438C102.856 20.7438 103.881 19.0448 103.881 14.9873C103.881 10.9298 102.856 9.23075 101.232 9.23075C99.607 9.23075 98.6071 10.9298 98.6071 14.9873C98.6071 19.0448 99.607 20.7438 101.232 20.7438Z" fill="#FEC506"/>
<path d="M112.48 5.98462H117.655L122.104 23.9897H117.83L117.08 20.3633H112.755L111.981 23.9897H107.906L112.48 5.98462ZM114.93 9.9153L113.455 17.092H116.48L115.03 9.9153H114.93Z" fill="#FEC506"/>
<path d="M123.154 5.98462H128.253C132.678 5.98462 135.052 7.88656 135.027 11.6905C135.027 14.1503 133.927 15.9762 131.903 16.9145L135.627 23.9897H131.228L128.203 17.5992H127.204V23.9897H123.154V5.98462ZM127.229 9.25596V14.4039H128.253C130.128 14.4039 130.978 13.491 130.978 11.7412C130.978 10.0675 130.128 9.25596 128.253 9.25596H127.229Z" fill="#FEC506"/>
<path d="M137.176 5.98462H142.3C147.549 5.98462 149.999 9.73779 149.999 14.9872C149.999 20.1604 147.549 23.9897 142.3 23.9897H137.176V5.98462ZM141.225 9.45883V20.5155H142.2C144.874 20.5155 145.799 17.9288 145.799 14.9872C145.799 11.868 144.849 9.45883 142.2 9.45883H141.225Z" fill="#FEC506"/>
<path d="M0 30H29.57V0H0V30ZM23.671 11.9949H17.747V18.0051H11.848V24.0152H5.924V6.01015H23.671V11.9949Z" fill="#FEC506"/>
</svg>
