<svg width="140" height="40" viewBox="0 0 140 40" fill="none" xmlns="http://www.w3.org/2000/svg">
<path d="M7.20885 0.137677C4.34235 1.33717 1.19033 4.72234 0.195457 8.98016C-1.06677 14.3703 4.18094 16.6465 4.6097 15.9039C5.11421 15.023 3.66636 14.7274 3.3707 11.9326C2.9903 8.3184 4.66623 4.28048 6.78107 2.50867C7.17555 2.18479 7.15641 2.64185 7.15641 3.4844C7.15641 5.00392 7.07165 18.5988 7.07165 21.4371C7.07165 25.2793 6.91425 26.489 6.62367 27.6836C6.33808 28.8985 5.87602 29.7177 6.22411 30.0366C6.6186 30.3887 8.29453 29.5503 9.26618 28.1942C10.4285 26.5697 10.8381 24.6173 10.9138 22.4985C10.9995 19.9468 10.9946 15.8897 10.9995 13.5802C10.9995 11.4563 11.0328 5.24706 10.9662 1.5088C10.9471 0.594743 8.40449 -0.362826 7.20885 0.137677ZM139.368 20.3081C138.958 20.3081 138.763 20.7369 138.606 21.4563C138.063 23.9657 137.492 24.5317 136.753 24.5317C135.93 24.5317 135.191 23.2897 134.997 20.8035C134.849 18.8511 134.873 15.2511 135.063 11.6703C135.102 10.9368 134.901 10.2092 132.929 9.4899C132.078 9.18516 130.844 8.7281 130.23 10.2133C128.492 14.3996 127.816 17.7322 127.653 19.0802C127.65 19.1508 127.564 19.1609 127.548 18.9994C127.449 17.9179 127.22 15.9513 127.192 11.8176C127.182 11.0185 127.016 10.3273 126.121 9.76535C125.545 9.40409 123.792 8.75632 123.158 9.5232C122.615 10.1517 121.983 11.8377 121.321 13.8376C120.787 15.466 120.416 16.5709 120.416 16.5709C120.416 16.5709 120.42 12.1798 120.43 10.513C120.43 9.88438 120.001 9.67553 119.873 9.63716C119.287 9.46568 118.13 9.18516 117.644 9.18516C117.04 9.18516 116.897 9.5232 116.897 10.0136C116.897 10.0751 116.797 15.7889 116.797 19.7845V20.3464C116.468 22.1848 115.383 24.68 114.207 24.68C113.03 24.68 112.473 23.6367 112.473 18.8753C112.473 16.0987 112.559 14.8899 112.597 12.8801C112.621 11.7227 112.668 10.8328 112.664 10.628C112.654 10.0136 111.582 9.69876 111.087 9.58472C110.588 9.46568 110.154 9.42732 109.812 9.44147C109.335 9.47068 108.997 9.7845 108.997 10.2234V10.8893C108.383 9.91866 107.387 9.24169 106.721 9.04691C104.94 8.51826 103.078 8.9894 101.673 10.9508C100.559 12.5138 99.8873 14.2795 99.626 16.8181C99.4303 18.6756 99.4928 20.5563 99.8399 22.1465C99.4212 23.9414 98.6493 24.68 97.8068 24.68C96.5779 24.68 95.6931 22.6792 95.7929 19.2174C95.8646 16.9422 96.3166 15.347 96.816 13.0324C97.031 12.0466 96.8544 11.5331 96.4215 11.0326C96.026 10.5846 95.1785 10.3515 93.9647 10.632C93.102 10.8369 91.8599 11.0558 90.7309 11.2233C90.7309 11.2233 90.7975 10.9508 90.855 10.4706C91.1456 7.95116 88.4072 8.15601 87.5355 8.96117C87.0118 9.44147 86.6547 10.0085 86.5215 11.0276C86.3075 12.647 87.6263 13.4087 87.6263 13.4087C87.1934 15.3894 86.136 17.9794 85.0362 19.8511C84.45 20.856 84.002 21.5946 83.4219 22.3846C83.4166 22.094 83.4166 21.7984 83.4166 21.5088C83.4065 17.3418 83.459 14.0615 83.4832 12.8801C83.5074 11.7227 83.5548 10.856 83.5548 10.6512C83.5448 10.2032 83.2834 10.0276 82.7305 9.81779C82.2452 9.62808 81.6691 9.4899 81.0738 9.44147C80.3261 9.38494 79.869 9.7845 79.8832 10.2557V10.8893C79.2646 9.91866 78.2688 9.24169 77.6119 9.04691C75.826 8.51826 73.9645 8.9894 72.56 10.9508C71.4502 12.5138 70.7166 14.6992 70.5068 16.7939C70.317 18.7563 70.3503 20.413 70.6167 21.8135C70.3312 23.2129 69.5169 24.68 68.5937 24.68C67.4172 24.68 66.7453 23.6367 66.7453 18.8753C66.7453 16.0987 66.8311 14.8899 66.8744 12.8801C66.8977 11.7227 66.941 10.8328 66.936 10.628C66.9309 10.0136 65.8604 9.69876 65.36 9.58472C64.8413 9.4616 64.3884 9.42331 64.0452 9.44147C63.5882 9.47976 63.2694 9.88438 63.2694 10.1941V10.8893C62.6509 9.91866 61.655 9.24169 60.9931 9.04691C59.2123 8.51826 57.3648 8.99954 55.9503 10.9508C55.027 12.2232 54.2794 13.6368 53.894 16.7706C53.789 17.6757 53.7366 18.5223 53.7416 19.3133C53.3743 21.5602 51.7509 24.1513 50.4271 24.1513C49.6461 24.1513 48.9036 22.6459 48.9036 19.4323C48.9036 15.1563 49.1699 9.06106 49.2174 8.47081C49.2174 8.47081 50.8932 8.44152 51.2222 8.43751C52.0556 8.43244 52.8174 8.45166 53.9273 8.39415C54.4892 8.36593 55.027 6.36104 54.4459 6.10882C54.1886 5.99879 52.3412 5.8989 51.6076 5.88483C50.9891 5.87068 49.2789 5.74256 49.2789 5.74256C49.2789 5.74256 49.4323 1.69957 49.4656 1.2758C49.4938 0.913554 49.0368 0.732998 48.7704 0.622969C48.1266 0.347519 47.5505 0.21842 46.8745 0.0801653C45.9271 -0.114542 45.5033 0.0761547 45.4226 0.870193C45.2985 2.07589 45.2319 5.60938 45.2319 5.60938C44.5367 5.60938 42.1798 5.47014 41.4886 5.47014C40.8469 5.47014 40.1507 8.23267 41.0417 8.26596C42.0657 8.30433 43.8416 8.34269 45.0221 8.37493C45.0221 8.37493 44.9695 14.5711 44.9695 16.4801V17.0703C44.3178 20.4554 42.0365 22.2847 42.0365 22.2847C42.5268 20.0418 41.5269 18.3608 39.7178 16.9422C39.0509 16.4135 37.7372 15.4176 36.2652 14.337C36.2652 14.337 37.1177 13.4945 37.8744 11.8085C38.4082 10.6129 38.4324 9.23761 37.1177 8.93696C34.9464 8.43751 33.1605 10.0327 32.6227 11.7369C32.2131 13.0515 32.428 14.0323 33.2413 15.0463L33.4269 15.2753C32.9416 16.2177 32.2655 17.489 31.6985 18.4748C30.1134 21.2132 28.9177 23.3754 28.0178 23.3754C27.2943 23.3754 27.3034 21.1799 27.3034 19.1226C27.3034 17.3508 27.4366 14.68 27.5416 11.9185C27.5749 11.0084 27.1178 10.4847 26.352 10.0136C25.8848 9.72797 24.894 9.16602 24.3179 9.16602C23.4613 9.16602 20.9751 9.27998 18.6282 16.0654C18.3326 16.923 17.7514 18.4799 17.7514 18.4799L17.8039 10.3182C17.8039 10.1275 17.704 9.94697 17.471 9.81779C17.0754 9.60386 16.014 9.16602 15.0807 9.16602C14.6276 9.16602 14.4036 9.37586 14.4036 9.78957L14.328 22.5511C14.328 23.5227 14.3512 24.6558 14.4471 25.1512C14.5419 25.6466 14.6993 26.0512 14.89 26.2934C15.0807 26.5274 15.3037 26.708 15.6659 26.7888C16.0039 26.8604 17.8654 27.0935 17.9613 26.3842C18.0804 25.5316 18.0844 24.6134 19.0611 21.1708C20.5846 15.8181 22.5663 13.2089 23.4995 12.2797C23.666 12.1183 23.8517 12.1082 23.8416 12.3755C23.7992 13.551 23.661 16.4801 23.5661 18.9702C23.3139 25.6416 24.5226 26.8745 26.2612 26.8745C27.5849 26.8745 29.4515 25.5558 31.4564 22.2231C32.7085 20.1417 33.9182 18.1085 34.7941 16.6375C35.3944 17.1984 36.0795 17.8038 36.7605 18.4516C38.3466 19.951 38.8653 21.3797 38.5182 22.7327C38.2558 23.7699 37.261 24.8364 35.4943 23.7992C34.9797 23.4985 34.7608 23.2654 34.2421 22.9223C33.9657 22.7367 33.5368 22.6843 33.2846 22.875C32.6177 23.3754 32.2413 24.008 32.0224 24.794C31.8175 25.5608 32.5844 25.9604 33.3794 26.3125C34.0605 26.6223 35.5276 26.8937 36.4649 26.927C40.1174 27.0511 43.0414 25.1653 45.0745 20.3081C45.4417 24.5035 46.9885 26.8796 49.6794 26.8796C51.4835 26.8796 53.2886 24.5508 54.0796 22.2605C54.3026 23.1938 54.6406 24.003 55.0745 24.6942C57.151 27.9794 61.1787 27.2751 63.1977 24.4842C63.8263 23.6176 63.9222 23.3078 63.9222 23.3078C64.2168 25.9422 66.3407 26.8695 67.5555 26.8695C68.9216 26.8695 70.3221 26.2228 71.3068 24.003C71.426 24.2462 71.5501 24.4752 71.6933 24.6942C73.7647 27.9794 77.7926 27.2751 79.8166 24.4842C79.9074 24.3461 79.9931 24.232 80.0637 24.1221L80.1263 25.8554C80.1263 25.8554 78.9691 26.9129 78.2598 27.5647C75.141 30.4272 72.7689 32.5984 72.5934 35.1219C72.3744 38.3456 74.9836 39.5412 76.9642 39.6976C79.0599 39.8651 80.8599 38.7078 81.9637 37.0793C82.9353 35.6506 83.574 32.5793 83.5266 29.5413C83.5075 28.3224 83.4782 26.7797 83.4499 25.1179C84.5497 23.8516 85.7877 22.2413 86.9218 20.3566C88.1639 18.3083 89.4876 15.5508 90.1636 13.4037C90.1636 13.4037 91.321 13.4138 92.5499 13.3371C92.9454 13.3129 93.0594 13.3946 92.9827 13.6802C92.8969 14.0273 91.4309 19.6896 92.7688 23.4611C93.688 26.0411 95.7494 26.8745 96.9783 26.8745C98.411 26.8745 99.7832 25.7888 100.516 24.1796C100.607 24.3561 100.697 24.5317 100.802 24.6942C102.874 27.9794 106.887 27.2701 108.926 24.4842C109.388 23.8516 109.645 23.3078 109.645 23.3078C110.083 26.0371 112.207 26.8796 113.421 26.8796C114.692 26.8796 115.892 26.3609 116.868 24.0555C116.907 25.0705 116.968 25.8989 117.073 26.1602C117.135 26.3226 117.497 26.5224 117.754 26.6223C118.915 27.0511 120.097 26.8463 120.53 26.7555C120.834 26.6939 121.073 26.4558 121.102 25.8272C121.187 24.1796 121.134 21.413 121.635 19.3516C122.477 15.904 123.258 14.5661 123.629 13.9041C123.835 13.5318 124.072 13.4703 124.077 13.8608C124.091 14.6558 124.135 16.9896 124.463 20.1326C124.697 22.4371 125.016 23.8032 125.263 24.2371C125.958 25.47 126.825 25.5275 127.525 25.5275C127.973 25.5275 128.906 25.4034 128.825 24.6174C128.782 24.2371 128.854 21.87 129.677 18.4708C130.22 16.247 131.12 14.2422 131.444 13.5086C131.568 13.2372 131.62 13.4471 131.62 13.4895C131.549 15.0181 131.396 20.0226 132.015 22.7559C132.863 26.4659 135.305 26.8796 136.158 26.8796C137.972 26.8796 139.463 25.4983 139.963 21.861C140.087 20.9841 139.905 20.3081 139.367 20.3081H139.368ZM63.231 18.061C63.1311 19.9842 62.7547 21.5945 62.1554 22.7609C61.0596 24.8797 58.9035 25.5466 57.9551 22.4945C57.2649 20.2899 57.498 17.2801 57.7886 15.6557C58.2073 13.2462 59.2697 11.5421 60.9265 11.6984C62.6215 11.866 63.4499 14.0514 63.231 18.061ZM79.845 18.0893C79.7501 19.9034 79.2789 21.7317 78.7644 22.7609C77.7029 24.8939 75.4832 25.5608 74.564 22.4945C73.9364 20.3938 74.0837 17.6847 74.3975 15.9796C74.8031 13.7608 75.7787 11.6984 77.5364 11.6984C79.2456 11.6984 80.0881 13.5751 79.845 18.0893ZM80.2788 30.4886C80.2546 33.8082 79.736 36.713 78.621 37.5605C77.0309 38.7602 74.8929 37.8552 75.3358 35.4366C75.7263 33.2936 77.5788 31.1081 80.2839 28.4363C80.2839 28.4363 80.293 29.0457 80.2786 30.4886H80.2788ZM108.964 18.1085C108.868 20.1042 108.425 21.6611 107.878 22.7609C106.816 24.8939 104.616 25.5557 103.678 22.4945C103.168 20.8226 103.144 18.0318 103.511 15.7041C103.883 13.332 104.926 11.5421 106.649 11.6984C108.354 11.8609 109.15 14.0514 108.964 18.1085Z" fill="#FEC506"/>
</svg>
