<svg width="126" height="34" viewBox="0 0 126 34" fill="none" xmlns="http://www.w3.org/2000/svg">
<path d="M17.2174 31.8085C15.3338 32.1408 13.417 32.2404 11.4343 32.5058L5.38655 14.7091V33.2696C3.50295 33.4688 1.78455 33.7344 0 34V0H5.02326L11.8969 19.2913V0H17.2174V31.8085ZM27.6272 12.4512C29.6762 12.4512 32.8157 12.3515 34.6993 12.3515V17.6639C32.3528 17.6639 29.6101 17.6639 27.6272 17.7636V25.666C30.7337 25.4669 33.8401 25.201 36.9794 25.1014V30.2144L22.3396 31.3767V0H36.9794V5.31251H27.6272V12.4512ZM56.6423 5.31263H51.1566V29.7501C49.372 29.7501 47.5875 29.7501 45.8693 29.8163V5.31263H40.3836V0H56.6425L56.6423 5.31263ZM65.2344 12.086H72.4718V17.3984H65.2344V29.4513H60.0457V0H74.8181V5.31251H65.2344V12.086ZM83.4102 24.8027C86.4176 24.8689 89.4577 25.1018 92.399 25.2675V30.5137C87.6734 30.2146 82.9476 29.9162 78.1228 29.8163V0H83.4102V24.8027ZM96.8603 30.8789C98.5457 30.9787 100.33 31.0783 102.049 31.2772V0H96.8603V30.8789ZM125.215 0L118.506 16.17L125.215 34C123.232 33.7344 121.249 33.3691 119.266 33.037L115.466 23.2091L111.6 32.2404C109.683 31.9081 107.832 31.8085 105.916 31.5428L112.723 15.9706L106.576 0H112.26L115.73 8.93166L119.431 0H125.215Z" fill="#FEC506"/>
</svg>
