<svg width="222" height="30" viewBox="0 0 222 30" fill="none" xmlns="http://www.w3.org/2000/svg">
<path d="M16.641 3.09917C16.641 0.619835 14.3498 0 12.541 0V0.371901C13.6263 0.371901 14.4704 0.743802 14.4704 1.61157C14.4704 2.10744 14.1086 2.85124 13.0234 2.85124C12.1793 2.85124 10.3705 2.35537 9.044 1.8595C7.47637 1.23967 6.02933 0.743802 4.82347 0.743802C2.41173 0.743802 0.72352 2.60331 0.72352 4.71074C0.72352 6.57025 2.04997 7.19008 2.53232 7.43802L2.65291 7.19008C2.41173 6.94215 2.04997 6.69421 2.04997 5.95041C2.04997 5.45454 2.53232 4.58678 3.73819 4.58678C4.82347 4.58678 6.2705 5.08264 8.19989 5.70248C9.8881 6.19835 11.6969 6.57025 12.6616 6.69421V10.5372L10.8528 12.1488V12.2727L12.6616 13.8843V19.2149C11.6969 19.8347 10.6116 19.9587 9.64693 19.9587C7.83813 19.9587 6.2705 19.4628 4.94405 17.9752L9.8881 15.4959V6.94215L3.85877 9.66942C4.34112 8.05785 5.66757 6.94215 6.99402 6.19835L6.87344 5.82645C3.25584 6.81818 0 10.2893 0 14.5041C0 19.4628 3.97936 23.1818 8.44106 23.1818C13.2645 23.1818 16.3998 19.2149 16.3998 15.124H16.1586C15.4351 16.7355 14.3498 18.2231 13.0234 18.9669V13.8843L14.9527 12.2727V12.1488L13.0234 10.5372V6.69421C14.8322 6.69421 16.641 5.45455 16.641 3.09917ZM6.14992 16.7355L4.70288 17.4793C3.85877 16.3636 3.37643 14.876 3.37643 12.7686C3.37643 11.9008 3.37643 10.9091 3.6176 10.1653L6.14992 9.04959V16.7355ZM18.9321 19.5868L17.3645 20.8264L17.6056 21.0744L18.3292 20.4545L20.9821 22.9339L24.5997 20.4545L24.4791 20.2066L23.5144 20.8264L22.3085 19.5868V11.157L23.2732 10.4132L25.3232 12.1488V19.7107C25.3232 24.4215 24.3585 25.1653 22.3085 25.9091V26.281C25.685 26.405 28.8202 25.2893 28.8202 19.2149V11.0331L29.9055 10.1653L29.6643 9.91735L28.6996 10.6612L25.685 8.05785L22.3085 10.6612V0.495868H22.0674L17.8468 3.47107V3.71901C18.3292 3.96694 19.0527 4.21488 19.0527 5.57851L18.9321 19.5868ZM40.9995 18.2231L37.9848 20.5785L34.9701 18.0992V16.6116L40.6377 12.6446V12.5207L37.7436 8.05785L31.4731 11.5289V19.7107L30.2672 20.7025L30.5084 20.9504L31.5937 20.0826L35.6936 23.1818L41.12 18.719L40.9995 18.2231ZM34.9701 16.1157V10.0413L35.2113 9.91735L37.8642 14.2562L34.9701 16.1157ZM64.0315 1.98347C64.0315 1.61157 63.9109 1.23967 63.7903 0.867769H63.5492C63.1874 1.8595 62.705 2.35537 61.4992 2.35537C60.4139 2.35537 59.6904 1.73554 59.208 1.23967L55.711 5.33058L55.9522 5.57851L57.1581 4.46281C57.8816 5.08264 58.4845 5.57851 60.1727 5.70248V15.9917L53.0581 3.47107C52.4552 2.47934 51.6111 1.1157 49.9229 1.1157C47.9935 1.1157 46.3053 2.85124 46.5464 5.57851H46.9082C47.0288 4.83471 47.3905 3.96694 48.2347 3.96694C48.8376 3.96694 49.4405 4.58678 49.8023 5.20661V9.29752C47.6317 9.29752 46.1847 10.2893 46.1847 12.1488C46.1847 13.1405 46.667 14.6281 48.1141 15V14.7521C47.8729 14.5041 47.7523 14.2562 47.7523 13.8843C47.7523 13.2645 48.2347 12.7686 49.0788 12.7686H49.6817V17.9752C47.1494 17.9752 45.0994 19.4628 45.0994 21.9421C45.0994 24.2975 47.0288 25.4132 49.1993 25.2893V25.0413C47.8729 24.9174 47.27 24.2975 47.27 23.4298C47.27 22.314 47.9935 21.8182 48.9582 21.8182C49.9229 21.8182 50.767 22.438 51.3699 23.1818L54.8669 19.2149L54.6257 18.9669L53.7816 19.9587C52.4552 18.719 51.7317 18.3471 50.164 18.0992V5.70248L59.811 23.0578H60.5345V5.70248C62.3433 5.57851 64.0315 4.09091 64.0315 1.98347ZM72.8343 18.2231L69.8197 20.5785L66.805 18.0992V16.6116L72.4726 12.6446V12.5207L69.5785 8.05785L63.308 11.5289V19.7107L62.1021 20.7025L62.3433 20.9504L63.4286 20.0826L67.5285 23.1818L72.9549 18.719L72.8343 18.2231ZM66.805 16.1157V10.0413L67.0462 9.91735L69.6991 14.2562L66.805 16.1157ZM92.4899 9.42149L91.6458 10.0413L89.3547 8.05785L86.7018 10.5372L87.7871 11.6529V20.9504L84.893 19.0909V11.405L85.8577 10.7851L83.0842 8.05785L80.4313 10.5372L81.5166 11.6529V20.5785L81.1548 20.8264L78.6225 18.9669V11.5289C78.6225 9.79339 77.7784 9.29752 76.8137 8.67768C75.9696 8.05785 75.4872 7.68595 75.4872 6.81818C75.4872 6.07438 76.2108 5.70248 76.5725 5.45455V5.20661C75.6078 5.20661 73.0755 6.19835 73.0755 8.55372C73.0755 9.79339 73.6784 10.2893 74.2814 10.9091C74.8843 11.5289 75.4872 12.0248 75.4872 13.1405V20.3306L74.1608 21.3223L74.402 21.5702L75.6078 20.5785L78.3813 23.0578L81.396 20.9504L84.7724 23.0578L91.1635 19.2149V10.9091L92.7311 9.66942L92.4899 9.42149ZM114.919 2.60331L113.713 3.71901L111.06 1.23967L107.081 4.21488V1.4876H106.719L106.84 21.5702C106.478 21.5702 105.393 21.3223 104.549 21.0744L104.307 4.33884C104.307 3.09917 103.463 1.36364 101.293 1.36364C99.1222 1.36364 97.6752 3.09917 97.6752 4.83471H98.0369C98.1575 4.09091 98.5193 3.47107 99.2428 3.47107C99.9663 3.47107 100.569 3.96694 100.569 5.57851V10.4132C98.3987 10.5372 97.0722 11.7769 97.0722 13.3884C97.0722 14.3802 97.5546 15.8678 99.0016 15.8678V15.6198C98.5193 15.3719 98.3987 15 98.3987 14.7521C98.3987 14.0083 99.0016 13.7603 99.9663 13.7603H100.449V21.4463C98.6399 22.0661 97.9163 23.4298 97.9163 24.9174C97.9163 27.0248 99.484 28.5124 101.896 28.5124C103.584 28.5124 105.031 28.2645 106.478 27.8926C107.684 27.6446 109.251 27.2727 109.975 27.2727C110.94 27.2727 111.301 27.7686 111.301 28.3884C111.301 29.2562 110.94 29.6281 110.457 29.7521V30C112.387 29.6281 113.593 28.3884 113.593 26.5289C113.593 24.6694 111.784 23.5537 109.854 23.5537C108.89 23.5537 106.84 23.9256 105.393 24.1736C103.705 24.5455 102.016 24.7934 101.534 24.7934C100.69 24.7934 99.7251 24.4215 99.7251 23.1818C99.7251 22.1901 100.569 21.3223 102.619 21.3223C103.705 21.3223 105.031 21.4463 106.357 21.8182C107.804 22.1901 109.131 22.562 110.337 22.562C112.146 22.562 113.713 21.9421 113.713 19.3388V4.09091L115.16 2.85124L114.919 2.60331ZM109.975 10.1653C109.613 10.5372 109.131 10.9091 108.528 10.9091C107.925 10.9091 107.322 10.5372 107.081 10.1653V4.71074L108.287 3.84297L109.975 5.45455V10.1653ZM109.975 13.8843C109.734 13.6364 109.131 13.2645 108.528 13.2645C107.925 13.2645 107.322 13.6364 107.081 13.8843V10.6612C107.322 10.9091 107.925 11.281 108.528 11.281C109.131 11.281 109.734 10.9091 109.975 10.6612V13.8843ZM109.975 19.7107C109.975 20.7025 109.372 21.6942 108.046 21.6942H107.081V14.3802C107.322 14.1322 107.925 13.7603 108.528 13.7603C109.131 13.7603 109.613 14.1322 109.975 14.3802V19.7107ZM126.495 10.9091L122.637 8.05785L116.728 11.5289V19.5868L115.522 20.5785L115.643 20.8264L116.607 20.0826L120.466 23.0578L126.495 19.3388V10.9091ZM119.984 18.719V9.79339L122.998 12.0248V20.8264L119.984 18.719ZM137.951 8.30578H137.71C137.348 8.55372 136.986 8.80165 136.625 8.80165C136.142 8.80165 135.539 8.55372 135.298 8.18182H135.057L133.007 10.5372L130.957 8.18182L127.339 10.6612L127.46 10.9091L128.425 10.2893L129.631 11.6529V19.4628L128.063 20.7025L128.304 20.9504L129.028 20.3306L131.922 22.8099L135.66 20.2066L135.539 19.9587L134.454 20.5785L133.007 19.3388V10.6612C133.61 11.281 134.334 11.9008 135.178 11.9008C136.866 12.0248 137.831 10.2893 137.951 8.30578ZM152.422 20.2066L148.322 23.0578L142.775 14.3802L146.754 8.05785H146.995C147.477 8.55372 148.201 9.04959 149.045 9.04959C149.889 9.04959 150.492 8.55372 150.854 8.05785H151.095C150.974 10.5372 149.286 12.0248 148.08 12.0248C146.875 12.0248 146.272 11.405 145.548 11.0331L145.186 11.6529L151.216 20.8264L152.422 20.0826V20.2066ZM139.157 19.5868L137.589 20.8264L137.831 21.0744L138.554 20.4545L141.207 22.9339L144.825 20.4545L144.583 20.2066L143.619 20.8264L142.413 19.5868V0.495868H142.292L137.951 3.47107V3.71901C138.433 3.96694 139.157 4.09091 139.157 5.57851V19.5868ZM172.439 3.09917C172.439 0.619835 170.148 0 168.339 0V0.371901C169.424 0.371901 170.268 0.743802 170.268 1.61157C170.268 2.10744 169.907 2.85124 168.821 2.85124C167.977 2.85124 166.168 2.35537 164.842 1.8595C163.274 1.36364 161.827 0.867769 160.621 0.867769C158.21 0.867769 156.521 2.72727 156.521 4.83471C156.521 6.69421 157.848 7.31405 158.33 7.56198L158.451 7.31405C158.089 7.06612 157.727 6.81818 157.727 6.07438C157.727 5.57851 158.21 4.71074 159.416 4.71074C160.501 4.71074 161.948 5.20661 163.877 5.82645C165.565 6.32231 167.374 6.69421 168.339 6.81818V10.6612L166.53 12.2727V12.3967L168.339 14.0083V19.3388C167.374 19.9587 166.289 20.0826 165.324 20.0826C163.515 20.0826 161.948 19.5868 160.621 18.0992L165.565 15.6198V6.94215L159.536 9.66942C160.139 8.05785 161.465 6.94215 162.671 6.07438L162.551 5.82645C158.933 6.81818 155.677 10.1653 155.677 14.3802C155.677 19.3388 159.657 23.0578 164.118 23.0578C168.942 23.0578 172.077 19.0909 172.077 15H171.836C171.112 16.6116 170.027 18.0992 168.701 18.843V13.7603L170.63 12.1488V12.0248L168.821 10.4132V6.69421C170.63 6.69421 172.439 5.45455 172.439 3.09917ZM161.948 16.7355L160.501 17.4793C159.657 16.3636 159.174 14.876 159.174 12.7686C159.174 11.9008 159.295 10.9091 159.536 10.1653L162.068 9.04959L161.948 16.7355ZM176.659 1.8595H176.539L174.127 3.96694V4.09091L176.177 6.44628H176.418L178.83 4.33884V4.21488L176.659 1.8595ZM180.277 20.2066L179.312 20.8264L178.106 19.5868V11.0331L179.312 10.1653L179.071 9.91735L178.227 10.6612L176.056 8.05785L172.559 10.5372L172.801 10.9091L173.645 10.2893L174.73 11.6529V19.7107L173.162 20.9504L173.283 21.1983L174.127 20.5785L176.78 23.0578L180.398 20.5785L180.277 20.2066ZM200.415 20.0826L199.571 20.7025L198.244 19.4628V11.0331L199.45 10.0413L199.209 9.79339L198.244 10.6612L195.471 8.05785L191.853 10.6612L189.08 8.05785L185.703 10.6612L183.533 8.05785L180.036 10.5372L180.156 10.9091L181.001 10.2893L182.206 11.6529V19.7107L181.242 20.7025L184.015 23.0578L186.668 20.5785L185.583 19.4628V11.0331L186.668 10.2893L188.477 12.0248V19.4628L187.512 20.4545L190.286 22.8099L192.939 20.3306L191.853 19.2149V11.0331L192.818 10.4132L194.747 12.1488V19.5868L193.903 20.4545L196.677 23.0578L200.415 20.4545V20.0826ZM210.906 18.2231L207.891 20.5785L204.877 18.0992V16.6116L210.544 12.6446V12.5207L207.65 8.05785L201.38 11.5289V19.9587L205.6 23.0578L211.027 18.595L210.906 18.2231ZM204.877 16.1157V10.0413L205.118 9.91735L207.771 14.2562L204.877 16.1157ZM221.879 15L219.588 13.1405C221.156 11.7769 221.759 9.91735 221.759 8.67768V7.93388H221.518C221.276 8.55372 220.794 9.17355 219.829 9.17355C218.865 9.17355 218.262 8.67769 217.659 7.93388L212.232 11.0331V15.4959L214.282 17.1074C212.232 18.9669 211.871 20.2066 211.871 21.1983C211.871 22.438 212.474 23.3058 213.438 23.6777L213.559 23.4298C213.318 23.1818 213.077 23.0578 213.077 22.438C213.077 22.0661 213.559 21.4463 214.524 21.4463C215.729 21.4463 216.453 22.314 216.815 22.6859L222 19.4628V15H221.879ZM220.553 11.281C219.709 12.7686 217.9 14.2562 216.815 15L215.488 13.8843V9.54545C215.971 10.7851 217.297 11.7769 218.624 11.7769C219.468 11.7769 219.95 11.6529 220.553 11.281ZM218.503 21.1983C217.9 19.8347 216.453 18.843 215.006 18.843C214.644 18.843 213.68 18.843 212.715 19.4628C213.318 18.4711 214.885 16.7355 216.935 15.4959L218.382 16.7355L218.503 21.1983Z" fill="#FEC506"/>
</svg>
