<svg width="167" height="30" viewBox="0 0 167 30" fill="none" xmlns="http://www.w3.org/2000/svg">
<path d="M111.316 24.1614H105.418V7.96541H111.23V9.94684C111.23 9.94684 112.529 7.52954 115.577 7.52954C118.79 7.52954 120.001 10.1457 120.001 10.1457C120.001 10.1457 121.446 7.52954 125.04 7.52954C128.582 7.52954 130.747 9.82347 130.747 13.9805V24.1614H124.848V15.1158C124.848 14.0539 124.221 12.9482 122.954 12.9482C121.639 12.9482 121.032 14.1829 121.032 15.4478V24.1614H115.133V15.2881C115.133 14.0241 114.482 12.9482 113.203 12.9482C112.016 12.9482 111.316 13.9764 111.316 15.4604V24.1614Z" fill="#FEC506"/>
<path d="M139.923 7.52954C135.385 7.52954 132.344 11.387 132.344 16.0903C132.344 21.3898 135.847 24.6012 139.851 24.6012C143.119 24.6012 144.537 22.5245 144.537 22.5245V24.1614H150.349V7.96533H144.537V9.60216C144.537 9.60216 142.977 7.52954 139.923 7.52954ZM141.402 12.8597C143.376 12.8597 144.72 14.4312 144.72 16.0795C144.72 17.7324 143.377 19.3538 141.413 19.3538C139.806 19.3538 138.116 18.0679 138.116 16.1229C138.116 14.2472 139.599 12.8597 141.402 12.8597Z" fill="#FEC506"/>
<path d="M152.795 24.1616V7.96558H158.693V24.1616H152.795Z" fill="#FEC506"/>
<path d="M155.749 6.59318C157.582 6.59318 159.068 5.11725 159.068 3.29659C159.068 1.47593 157.582 0 155.749 0C153.916 0 152.43 1.47593 152.43 3.29659C152.43 5.11725 153.916 6.59318 155.749 6.59318Z" fill="#FEC506"/>
<path d="M161.102 24.1611V0.814697H167V24.1611H161.102Z" fill="#FEC506"/>
<path d="M0 8.05127H6.26645L9.91533 17.3227L13.6116 8.05127H19.713L10.5256 29.9999H4.38552L6.90042 24.1838L0 8.05127Z" fill="#FEC506"/>
<path d="M26.0675 7.68262C21.3593 7.68262 18.3828 11.8763 18.3828 16.0526C18.3828 20.7522 21.6461 24.4781 25.9782 24.4781C29.2098 24.4781 30.4283 22.5227 30.4283 22.5227V24.0459H35.8938V8.0518H30.4283V9.50581C30.4283 9.50581 29.0689 7.68262 26.0675 7.68262ZM27.2301 12.8225C29.4025 12.8225 30.5236 14.5297 30.5236 16.0702C30.5236 17.729 29.3225 19.3569 27.2301 19.3569C25.4959 19.3569 23.9287 17.9493 23.9287 16.1408C23.9287 14.3067 25.1893 12.8225 27.2301 12.8225Z" fill="#FEC506"/>
<path d="M37.7773 24.0457V0.989258H43.494V9.56107C43.494 9.56107 44.8518 7.68448 47.6956 7.68448C51.1742 7.68448 53.2122 10.2586 53.2122 13.9369V24.0457H47.5374V15.3216C47.5374 14.0768 46.9404 12.8743 45.5881 12.8743C44.2114 12.8743 43.494 14.095 43.494 15.3216V24.0457H37.7773Z" fill="#FEC506"/>
<path d="M62.9579 7.68408C57.5661 7.68408 54.3555 11.756 54.3555 16.1187C54.3555 21.0836 58.2428 24.4777 62.9783 24.4777C67.5683 24.4777 71.5846 21.2376 71.5846 16.202C71.5846 10.6922 67.3794 7.68408 62.9579 7.68408ZM63.0094 12.8691C64.914 12.8691 66.2318 14.4446 66.2318 16.1247C66.2318 17.5577 65.0039 19.3251 63.0094 19.3251C61.1819 19.3251 59.8104 17.8692 59.8104 16.109C59.8104 14.4134 60.9507 12.8691 63.0094 12.8691Z" fill="#FEC506"/>
<path d="M81.1103 7.68408C75.7184 7.68408 72.5078 11.756 72.5078 16.1187C72.5078 21.0836 76.3951 24.4777 81.1307 24.4777C85.7206 24.4777 89.737 21.2376 89.737 16.202C89.737 10.6922 85.5317 7.68408 81.1103 7.68408ZM81.1618 12.8691C83.0663 12.8691 84.3842 14.4446 84.3842 16.1247C84.3842 17.5577 83.1562 19.3251 81.1618 19.3251C79.3342 19.3251 77.9628 17.8692 77.9628 16.109C77.9628 14.4134 79.103 12.8691 81.1618 12.8691Z" fill="#FEC506"/>
<path d="M94.2472 24.3852C96.3437 24.3852 98.0433 22.6973 98.0433 20.6151C98.0433 18.5329 96.3437 16.845 94.2472 16.845C92.1507 16.845 90.4512 18.5329 90.4512 20.6151C90.4512 22.6973 92.1507 24.3852 94.2472 24.3852Z" fill="#FEC506"/>
<path d="M99.2909 15.4601H92.457L98.5222 0.989258H105.331L99.2909 15.4601Z" fill="#FEC506"/>
</svg>
