<svg width="102" height="558" viewBox="0 0 102 558" fill="none" xmlns="http://www.w3.org/2000/svg">
<path d="M0.5 3.5C1.32843 3.5 2 2.82843 2 2C2 1.17157 1.32843 0.5 0.5 0.5V3.5ZM9.5 0.5C8.67157 0.5 8 1.17157 8 2C8 2.82843 8.67157 3.5 9.5 3.5V0.5ZM10.5 3.5C11.3284 3.5 12 2.82843 12 2C12 1.17157 11.3284 0.5 10.5 0.5V3.5ZM19.5 0.5C18.6716 0.5 18 1.17157 18 2C18 2.82843 18.6716 3.5 19.5 3.5V0.5ZM20.5 3.5C21.3284 3.5 22 2.82843 22 2C22 1.17157 21.3284 0.5 20.5 0.5V3.5ZM29.5 0.5C28.6716 0.5 28 1.17157 28 2C28 2.82843 28.6716 3.5 29.5 3.5V0.5ZM30.5 3.5C31.3284 3.5 32 2.82843 32 2C32 1.17157 31.3284 0.5 30.5 0.5V3.5ZM39.5 0.5C38.6716 0.5 38 1.17157 38 2C38 2.82843 38.6716 3.5 39.5 3.5V0.5ZM40.5 3.5C41.3284 3.5 42 2.82843 42 2C42 1.17157 41.3284 0.5 40.5 0.5V3.5ZM49.5 0.5C48.6716 0.5 48 1.17157 48 2C48 2.82843 48.6716 3.5 49.5 3.5V0.5ZM50.4787 3.50231C51.3071 3.51032 51.9851 2.84526 51.9931 2.01688C52.0011 1.18849 51.3361 0.510457 50.5077 0.502452L50.4787 3.50231ZM59.5537 1.38472C58.7394 1.23196 57.9556 1.76817 57.8028 2.58239C57.65 3.39661 58.1862 4.18051 59.0005 4.33327L59.5537 1.38472ZM59.9331 4.51778C60.7441 4.68656 61.5384 4.16589 61.7072 3.35484C61.876 2.54379 61.3553 1.74948 60.5443 1.5807L59.9331 4.51778ZM69.2464 4.21723C68.478 3.90747 67.6041 4.27921 67.2943 5.04755C66.9845 5.81588 67.3563 6.68985 68.1246 6.99962L69.2464 4.21723ZM69.0033 7.36401C69.7654 7.68888 70.6466 7.33446 70.9714 6.57239C71.2963 5.81032 70.9419 4.92918 70.1798 4.60431L69.0033 7.36401ZM78.194 8.89621C77.5011 8.44211 76.5713 8.63567 76.1172 9.32855C75.6631 10.0214 75.8566 10.9512 76.5495 11.4053L78.194 8.89621ZM77.3407 11.9351C78.0246 12.4027 78.958 12.2273 79.4256 11.5435C79.8932 10.8597 79.7179 9.92622 79.034 9.45863L77.3407 11.9351ZM86.0568 15.2283C85.4653 14.6482 84.5156 14.6575 83.9356 15.249C83.3555 15.8404 83.3648 16.7901 83.9563 17.3702L86.0568 15.2283ZM84.6298 18.0437C85.2098 18.6352 86.1595 18.6445 86.751 18.0644C87.3425 17.4844 87.3518 16.5347 86.7717 15.9432L84.6298 18.0437ZM92.5414 22.9659C92.0738 22.2821 91.1403 22.1068 90.4565 22.5744C89.7726 23.042 89.5973 23.9754 90.0649 24.6592L92.5414 22.9659ZM90.5947 25.4505C91.0488 26.1433 91.9786 26.3369 92.6714 25.8828C93.3643 25.4287 93.5579 24.4989 93.1038 23.806L90.5947 25.4505ZM97.3957 31.8202C97.0708 31.0581 96.1897 30.7037 95.4276 31.0286C94.6655 31.3534 94.3111 32.2346 94.636 32.9966L97.3957 31.8202ZM95.0004 33.8754C95.3101 34.6437 96.1841 35.0155 96.9524 34.7057C97.7208 34.3959 98.0925 33.522 97.7828 32.7536L95.0004 33.8754ZM100.419 41.4557C100.251 40.6447 99.4562 40.124 98.6452 40.2928C97.8341 40.4615 97.3134 41.2559 97.4822 42.0669L100.419 41.4557ZM97.6667 42.9995C97.8195 43.8137 98.6034 44.35 99.4176 44.1972C100.232 44.0444 100.768 43.2605 100.615 42.4463L97.6667 42.9995ZM101.498 51.4923C101.49 50.6639 100.812 49.9989 99.9831 50.0069C99.1547 50.0149 98.4897 50.6929 98.4977 51.5213L101.498 51.4923ZM98.5 52.5044C98.5 53.3329 99.1716 54.0044 100 54.0044C100.828 54.0044 101.5 53.3329 101.5 52.5044H98.5ZM101.5 61.5844C101.5 60.756 100.828 60.0844 100 60.0844C99.1716 60.0844 98.5 60.756 98.5 61.5844H101.5ZM98.5 62.5933C98.5 63.4218 99.1716 64.0933 100 64.0933C100.828 64.0933 101.5 63.4218 101.5 62.5933H98.5ZM101.5 71.6733C101.5 70.8449 100.828 70.1733 100 70.1733C99.1716 70.1733 98.5 70.8449 98.5 71.6733H101.5ZM98.5 72.6822C98.5 73.5106 99.1716 74.1822 100 74.1822C100.828 74.1822 101.5 73.5106 101.5 72.6822H98.5ZM101.5 81.7622C101.5 80.9338 100.828 80.2622 100 80.2622C99.1716 80.2622 98.5 80.9338 98.5 81.7622H101.5ZM98.5 82.7711C98.5 83.5995 99.1716 84.2711 100 84.2711C100.828 84.2711 101.5 83.5995 101.5 82.7711H98.5ZM101.5 91.8511C101.5 91.0227 100.828 90.3511 100 90.3511C99.1716 90.3511 98.5 91.0227 98.5 91.8511H101.5ZM98.5 92.86C98.5 93.6884 99.1716 94.36 100 94.36C100.828 94.36 101.5 93.6884 101.5 92.86H98.5ZM101.5 101.94C101.5 101.112 100.828 100.44 100 100.44C99.1716 100.44 98.5 101.112 98.5 101.94H101.5ZM98.5 102.949C98.5 103.777 99.1716 104.449 100 104.449C100.828 104.449 101.5 103.777 101.5 102.949H98.5ZM101.5 112.029C101.5 111.2 100.828 110.529 100 110.529C99.1716 110.529 98.5 111.2 98.5 112.029H101.5ZM98.5 113.038C98.5 113.866 99.1716 114.538 100 114.538C100.828 114.538 101.5 113.866 101.5 113.038H98.5ZM101.5 122.118C101.5 121.289 100.828 120.618 100 120.618C99.1716 120.618 98.5 121.289 98.5 122.118H101.5ZM98.5 123.127C98.5 123.955 99.1716 124.627 100 124.627C100.828 124.627 101.5 123.955 101.5 123.127H98.5ZM101.5 132.207C101.5 131.378 100.828 130.707 100 130.707C99.1716 130.707 98.5 131.378 98.5 132.207H101.5ZM98.5 133.216C98.5 134.044 99.1716 134.716 100 134.716C100.828 134.716 101.5 134.044 101.5 133.216H98.5ZM101.5 142.296C101.5 141.467 100.828 140.796 100 140.796C99.1716 140.796 98.5 141.467 98.5 142.296H101.5ZM98.5 143.304C98.5 144.133 99.1716 144.804 100 144.804C100.828 144.804 101.5 144.133 101.5 143.304H98.5ZM101.5 152.384C101.5 151.556 100.828 150.884 100 150.884C99.1716 150.884 98.5 151.556 98.5 152.384H101.5ZM98.5 153.393C98.5 154.222 99.1716 154.893 100 154.893C100.828 154.893 101.5 154.222 101.5 153.393H98.5ZM101.5 162.473C101.5 161.645 100.828 160.973 100 160.973C99.1716 160.973 98.5 161.645 98.5 162.473H101.5ZM98.5 163.482C98.5 164.311 99.1716 164.982 100 164.982C100.828 164.982 101.5 164.311 101.5 163.482H98.5ZM101.5 172.562C101.5 171.734 100.828 171.062 100 171.062C99.1716 171.062 98.5 171.734 98.5 172.562H101.5ZM98.5 173.571C98.5 174.4 99.1716 175.071 100 175.071C100.828 175.071 101.5 174.4 101.5 173.571H98.5ZM101.5 182.651C101.5 181.823 100.828 181.151 100 181.151C99.1716 181.151 98.5 181.823 98.5 182.651H101.5ZM98.5 183.66C98.5 184.488 99.1716 185.16 100 185.16C100.828 185.16 101.5 184.488 101.5 183.66H98.5ZM101.5 192.74C101.5 191.912 100.828 191.24 100 191.24C99.1716 191.24 98.5 191.912 98.5 192.74H101.5ZM98.5 193.749C98.5 194.577 99.1716 195.249 100 195.249C100.828 195.249 101.5 194.577 101.5 193.749H98.5ZM101.5 202.829C101.5 202 100.828 201.329 100 201.329C99.1716 201.329 98.5 202 98.5 202.829H101.5ZM98.5 203.838C98.5 204.666 99.1716 205.338 100 205.338C100.828 205.338 101.5 204.666 101.5 203.838H98.5ZM101.5 212.918C101.5 212.089 100.828 211.418 100 211.418C99.1716 211.418 98.5 212.089 98.5 212.918H101.5ZM98.5 213.927C98.5 214.755 99.1716 215.427 100 215.427C100.828 215.427 101.5 214.755 101.5 213.927H98.5ZM101.5 223.007C101.5 222.178 100.828 221.507 100 221.507C99.1716 221.507 98.5 222.178 98.5 223.007H101.5ZM98.5 224.016C98.5 224.844 99.1716 225.516 100 225.516C100.828 225.516 101.5 224.844 101.5 224.016H98.5ZM101.5 233.096C101.5 232.267 100.828 231.596 100 231.596C99.1716 231.596 98.5 232.267 98.5 233.096H101.5ZM98.5 234.104C98.5 234.933 99.1716 235.604 100 235.604C100.828 235.604 101.5 234.933 101.5 234.104H98.5ZM101.5 243.184C101.5 242.356 100.828 241.684 100 241.684C99.1716 241.684 98.5 242.356 98.5 243.184H101.5ZM98.5 244.193C98.5 245.022 99.1716 245.693 100 245.693C100.828 245.693 101.5 245.022 101.5 244.193H98.5ZM101.5 253.273C101.5 252.445 100.828 251.773 100 251.773C99.1716 251.773 98.5 252.445 98.5 253.273H101.5ZM98.5 254.282C98.5 255.111 99.1716 255.782 100 255.782C100.828 255.782 101.5 255.111 101.5 254.282H98.5ZM101.5 263.362C101.5 262.534 100.828 261.862 100 261.862C99.1716 261.862 98.5 262.534 98.5 263.362H101.5ZM98.5 264.371C98.5 265.2 99.1716 265.871 100 265.871C100.828 265.871 101.5 265.2 101.5 264.371H98.5ZM101.5 273.451C101.5 272.623 100.828 271.951 100 271.951C99.1716 271.951 98.5 272.623 98.5 273.451H101.5ZM98.5 274.46C98.5 275.289 99.1716 275.96 100 275.96C100.828 275.96 101.5 275.289 101.5 274.46H98.5ZM101.5 283.54C101.5 282.712 100.828 282.04 100 282.04C99.1716 282.04 98.5 282.712 98.5 283.54H101.5ZM98.5 284.549C98.5 285.377 99.1716 286.049 100 286.049C100.828 286.049 101.5 285.377 101.5 284.549H98.5ZM101.5 293.629C101.5 292.801 100.828 292.129 100 292.129C99.1716 292.129 98.5 292.801 98.5 293.629H101.5ZM98.5 294.638C98.5 295.466 99.1716 296.138 100 296.138C100.828 296.138 101.5 295.466 101.5 294.638H98.5ZM101.5 303.718C101.5 302.889 100.828 302.218 100 302.218C99.1716 302.218 98.5 302.889 98.5 303.718H101.5ZM98.5 304.727C98.5 305.555 99.1716 306.227 100 306.227C100.828 306.227 101.5 305.555 101.5 304.727H98.5ZM101.5 313.807C101.5 312.978 100.828 312.307 100 312.307C99.1716 312.307 98.5 312.978 98.5 313.807H101.5ZM98.5 314.816C98.5 315.644 99.1716 316.316 100 316.316C100.828 316.316 101.5 315.644 101.5 314.816H98.5ZM101.5 323.896C101.5 323.067 100.828 322.396 100 322.396C99.1716 322.396 98.5 323.067 98.5 323.896H101.5ZM98.5 324.905C98.5 325.733 99.1716 326.405 100 326.405C100.828 326.405 101.5 325.733 101.5 324.905H98.5ZM101.5 333.984C101.5 333.156 100.828 332.484 100 332.484C99.1716 332.484 98.5 333.156 98.5 333.984H101.5ZM98.5 334.993C98.5 335.822 99.1716 336.493 100 336.493C100.828 336.493 101.5 335.822 101.5 334.993H98.5ZM101.5 344.073C101.5 343.245 100.828 342.573 100 342.573C99.1716 342.573 98.5 343.245 98.5 344.073H101.5ZM98.5 345.082C98.5 345.911 99.1716 346.582 100 346.582C100.828 346.582 101.5 345.911 101.5 345.082H98.5ZM101.5 354.162C101.5 353.334 100.828 352.662 100 352.662C99.1716 352.662 98.5 353.334 98.5 354.162H101.5ZM98.5 355.171C98.5 356 99.1716 356.671 100 356.671C100.828 356.671 101.5 356 101.5 355.171H98.5ZM101.5 364.251C101.5 363.423 100.828 362.751 100 362.751C99.1716 362.751 98.5 363.423 98.5 364.251H101.5ZM98.5 365.26C98.5 366.088 99.1716 366.76 100 366.76C100.828 366.76 101.5 366.088 101.5 365.26H98.5ZM101.5 374.34C101.5 373.512 100.828 372.84 100 372.84C99.1716 372.84 98.5 373.512 98.5 374.34H101.5ZM98.5 375.349C98.5 376.177 99.1716 376.849 100 376.849C100.828 376.849 101.5 376.177 101.5 375.349H98.5ZM101.5 384.429C101.5 383.6 100.828 382.929 100 382.929C99.1716 382.929 98.5 383.6 98.5 384.429H101.5ZM98.5 385.438C98.5 386.266 99.1716 386.938 100 386.938C100.828 386.938 101.5 386.266 101.5 385.438H98.5ZM101.5 394.518C101.5 393.689 100.828 393.018 100 393.018C99.1716 393.018 98.5 393.689 98.5 394.518H101.5ZM98.5 395.527C98.5 396.355 99.1716 397.027 100 397.027C100.828 397.027 101.5 396.355 101.5 395.527H98.5ZM101.5 404.607C101.5 403.778 100.828 403.107 100 403.107C99.1716 403.107 98.5 403.778 98.5 404.607H101.5ZM98.5 405.615C98.5 406.444 99.1716 407.115 100 407.115C100.828 407.115 101.5 406.444 101.5 405.615H98.5ZM101.5 414.695C101.5 413.867 100.828 413.195 100 413.195C99.1716 413.195 98.5 413.867 98.5 414.695H101.5ZM98.5 415.704C98.5 416.533 99.1716 417.204 100 417.204C100.828 417.204 101.5 416.533 101.5 415.704H98.5ZM101.5 424.784C101.5 423.956 100.828 423.284 100 423.284C99.1716 423.284 98.5 423.956 98.5 424.784H101.5ZM98.5 425.793C98.5 426.622 99.1716 427.293 100 427.293C100.828 427.293 101.5 426.622 101.5 425.793H98.5ZM101.5 434.873C101.5 434.045 100.828 433.373 100 433.373C99.1716 433.373 98.5 434.045 98.5 434.873H101.5ZM98.5 435.882C98.5 436.71 99.1716 437.382 100 437.382C100.828 437.382 101.5 436.71 101.5 435.882H98.5ZM101.5 444.962C101.5 444.134 100.828 443.462 100 443.462C99.1716 443.462 98.5 444.134 98.5 444.962H101.5ZM98.5 445.971C98.5 446.799 99.1716 447.471 100 447.471C100.828 447.471 101.5 446.799 101.5 445.971H98.5ZM101.5 455.051C101.5 454.222 100.828 453.551 100 453.551C99.1716 453.551 98.5 454.222 98.5 455.051H101.5ZM98.5 456.06C98.5 456.888 99.1716 457.56 100 457.56C100.828 457.56 101.5 456.888 101.5 456.06H98.5ZM101.5 465.14C101.5 464.311 100.828 463.64 100 463.64C99.1716 463.64 98.5 464.311 98.5 465.14H101.5ZM98.5 466.149C98.5 466.977 99.1716 467.649 100 467.649C100.828 467.649 101.5 466.977 101.5 466.149H98.5ZM101.5 475.229C101.5 474.4 100.828 473.729 100 473.729C99.1716 473.729 98.5 474.4 98.5 475.229H101.5ZM98.5 476.238C98.5 477.066 99.1716 477.738 100 477.738C100.828 477.738 101.5 477.066 101.5 476.238H98.5ZM101.5 485.318C101.5 484.489 100.828 483.818 100 483.818C99.1716 483.818 98.5 484.489 98.5 485.318H101.5ZM98.5 486.326C98.5 487.155 99.1716 487.826 100 487.826C100.828 487.826 101.5 487.155 101.5 486.326H98.5ZM101.5 495.406C101.5 494.578 100.828 493.906 100 493.906C99.1716 493.906 98.5 494.578 98.5 495.406H101.5ZM98.5 496.415C98.5 497.244 99.1716 497.915 100 497.915C100.828 497.915 101.5 497.244 101.5 496.415H98.5ZM101.5 505.495C101.5 504.667 100.828 503.995 100 503.995C99.1716 503.995 98.5 504.667 98.5 505.495H101.5ZM98.4977 506.479C98.4897 507.307 99.1547 507.985 99.9831 507.993C100.812 508.001 101.49 507.336 101.498 506.508L98.4977 506.479ZM100.615 515.554C100.768 514.739 100.232 513.956 99.4176 513.803C98.6034 513.65 97.8195 514.186 97.6667 515L100.615 515.554ZM97.4822 515.933C97.3134 516.744 97.8341 517.538 98.6452 517.707C99.4562 517.876 100.251 517.355 100.419 516.544L97.4822 515.933ZM97.7828 525.246C98.0925 524.478 97.7208 523.604 96.9524 523.294C96.1841 522.985 95.3101 523.356 95.0004 524.125L97.7828 525.246ZM94.636 525.003C94.3111 525.765 94.6655 526.647 95.4276 526.971C96.1897 527.296 97.0708 526.942 97.3957 526.18L94.636 525.003ZM93.1038 534.194C93.5579 533.501 93.3643 532.571 92.6714 532.117C91.9786 531.663 91.0488 531.857 90.5947 532.549L93.1038 534.194ZM90.0649 533.341C89.5973 534.025 89.7727 534.958 90.4565 535.426C91.1404 535.893 92.0738 535.718 92.5414 535.034L90.0649 533.341ZM86.7717 542.057C87.3518 541.465 87.3425 540.516 86.751 539.936C86.1596 539.356 85.2099 539.365 84.6298 539.956L86.7717 542.057ZM83.9563 540.63C83.3648 541.21 83.3555 542.16 83.9356 542.751C84.5156 543.342 85.4653 543.352 86.0568 542.772L83.9563 540.63ZM79.0341 548.541C79.7179 548.074 79.8932 547.14 79.4256 546.456C78.958 545.773 78.0246 545.597 77.3408 546.065L79.0341 548.541ZM76.5495 546.595C75.8567 547.049 75.6631 547.979 76.1172 548.671C76.5713 549.364 77.5011 549.558 78.194 549.104L76.5495 546.595ZM70.1798 553.396C70.9419 553.071 71.2963 552.19 70.9714 551.428C70.6466 550.666 69.7654 550.311 69.0034 550.636L70.1798 553.396ZM68.1246 551C67.3563 551.31 66.9845 552.184 67.2943 552.952C67.6041 553.721 68.478 554.093 69.2464 553.783L68.1246 551ZM60.5443 556.419C61.3553 556.251 61.876 555.456 61.7072 554.645C61.5385 553.834 60.7441 553.313 59.9331 553.482L60.5443 556.419ZM59.0005 553.667C58.1862 553.819 57.65 554.603 57.8028 555.418C57.9556 556.232 58.7395 556.768 59.5537 556.615L59.0005 553.667ZM50.5077 557.498C51.3361 557.49 52.0011 556.812 51.9931 555.983C51.9851 555.155 51.3071 554.49 50.4787 554.498L50.5077 557.498ZM49.5 554.5C48.6716 554.5 48 555.172 48 556C48 556.828 48.6716 557.5 49.5 557.5V554.5ZM40.5 557.5C41.3284 557.5 42 556.828 42 556C42 555.172 41.3284 554.5 40.5 554.5V557.5ZM39.5 554.5C38.6716 554.5 38 555.172 38 556C38 556.828 38.6716 557.5 39.5 557.5V554.5ZM30.5 557.5C31.3284 557.5 32 556.828 32 556C32 555.172 31.3284 554.5 30.5 554.5V557.5ZM29.5 554.5C28.6716 554.5 28 555.172 28 556C28 556.828 28.6716 557.5 29.5 557.5V554.5ZM20.5 557.5C21.3284 557.5 22 556.828 22 556C22 555.172 21.3284 554.5 20.5 554.5V557.5ZM19.5 554.5C18.6716 554.5 18 555.172 18 556C18 556.828 18.6716 557.5 19.5 557.5V554.5ZM10.5 557.5C11.3284 557.5 12 556.828 12 556C12 555.172 11.3284 554.5 10.5 554.5V557.5ZM9.5 554.5C8.67157 554.5 8 555.172 8 556C8 556.828 8.67157 557.5 9.5 557.5V554.5ZM0.5 557.5C1.32843 557.5 2 556.828 2 556C2 555.172 1.32843 554.5 0.5 554.5V557.5ZM0 3.5H0.5V0.5H0V3.5ZM9.5 3.5H10.5V0.5H9.5V3.5ZM19.5 3.5H20.5V0.5H19.5V3.5ZM29.5 3.5H30.5V0.5H29.5V3.5ZM39.5 3.5H40.5V0.5H39.5V3.5ZM49.5 3.5H50V0.5H49.5V3.5ZM50 3.5C50.1598 3.5 50.3193 3.50077 50.4787 3.50231L50.5077 0.502452C50.3386 0.500819 50.1694 0.5 50 0.5V3.5ZM59.0005 4.33327C59.3124 4.3918 59.6233 4.45331 59.9331 4.51778L60.5443 1.5807C60.2152 1.51222 59.885 1.44689 59.5537 1.38472L59.0005 4.33327ZM68.1246 6.99962C68.419 7.11829 68.7119 7.23976 69.0033 7.36401L70.1798 4.60431C69.8702 4.47233 69.5591 4.34329 69.2464 4.21723L68.1246 6.99962ZM76.5495 11.4053C76.8151 11.5794 77.0788 11.756 77.3407 11.9351L79.034 9.45863C78.756 9.26849 78.4759 9.08101 78.194 8.89621L76.5495 11.4053ZM83.9563 17.3702C84.183 17.5925 84.4075 17.817 84.6298 18.0437L86.7717 15.9432C86.5357 15.7026 86.2974 15.4643 86.0568 15.2283L83.9563 17.3702ZM90.0649 24.6592C90.244 24.9212 90.4206 25.1849 90.5947 25.4505L93.1038 23.806C92.919 23.5241 92.7315 23.244 92.5414 22.9659L90.0649 24.6592ZM94.636 32.9966C94.7602 33.2881 94.8817 33.581 95.0004 33.8754L97.7828 32.7536C97.6567 32.4409 97.5277 32.1298 97.3957 31.8202L94.636 32.9966ZM97.4822 42.0669C97.5467 42.3767 97.6082 42.6876 97.6667 42.9995L100.615 42.4463C100.553 42.115 100.488 41.7848 100.419 41.4557L97.4822 42.0669ZM98.4977 51.5213C98.4992 51.6807 98.5 51.8402 98.5 52H101.5C101.5 51.8306 101.499 51.6614 101.498 51.4923L98.4977 51.5213ZM98.5 52V52.5044H101.5V52H98.5ZM98.5 61.5844V62.5933H101.5V61.5844H98.5ZM98.5 71.6733V72.6822H101.5V71.6733H98.5ZM98.5 81.7622V82.7711H101.5V81.7622H98.5ZM98.5 91.8511V92.86H101.5V91.8511H98.5ZM98.5 101.94V102.949H101.5V101.94H98.5ZM98.5 112.029V113.038H101.5V112.029H98.5ZM98.5 122.118V123.127H101.5V122.118H98.5ZM98.5 132.207V133.216H101.5V132.207H98.5ZM98.5 142.296V143.304H101.5V142.296H98.5ZM98.5 152.384V153.393H101.5V152.384H98.5ZM98.5 162.473V163.482H101.5V162.473H98.5ZM98.5 172.562V173.571H101.5V172.562H98.5ZM98.5 182.651V183.66H101.5V182.651H98.5ZM98.5 192.74V193.749H101.5V192.74H98.5ZM98.5 202.829V203.838H101.5V202.829H98.5ZM98.5 212.918V213.927H101.5V212.918H98.5ZM98.5 223.007V224.016H101.5V223.007H98.5ZM98.5 233.096V234.104H101.5V233.096H98.5ZM98.5 243.184V244.193H101.5V243.184H98.5ZM98.5 253.273V254.282H101.5V253.273H98.5ZM98.5 263.362V264.371H101.5V263.362H98.5ZM98.5 273.451V274.46H101.5V273.451H98.5ZM98.5 283.54V284.549H101.5V283.54H98.5ZM98.5 293.629V294.638H101.5V293.629H98.5ZM98.5 303.718V304.727H101.5V303.718H98.5ZM98.5 313.807V314.816H101.5V313.807H98.5ZM98.5 323.896V324.905H101.5V323.896H98.5ZM98.5 333.984V334.993H101.5V333.984H98.5ZM98.5 344.073V345.082H101.5V344.073H98.5ZM98.5 354.162V355.171H101.5V354.162H98.5ZM98.5 364.251V365.26H101.5V364.251H98.5ZM98.5 374.34V375.349H101.5V374.34H98.5ZM98.5 384.429V385.438H101.5V384.429H98.5ZM98.5 394.518V395.527H101.5V394.518H98.5ZM98.5 404.607V405.615H101.5V404.607H98.5ZM98.5 414.695V415.704H101.5V414.695H98.5ZM98.5 424.784V425.793H101.5V424.784H98.5ZM98.5 434.873V435.882H101.5V434.873H98.5ZM98.5 444.962V445.971H101.5V444.962H98.5ZM98.5 455.051V456.06H101.5V455.051H98.5ZM98.5 465.14V466.149H101.5V465.14H98.5ZM98.5 475.229V476.238H101.5V475.229H98.5ZM98.5 485.318V486.326H101.5V485.318H98.5ZM98.5 495.406V496.415H101.5V495.406H98.5ZM98.5 505.495V506H101.5V505.495H98.5ZM98.5 506C98.5 506.16 98.4992 506.319 98.4977 506.479L101.498 506.508C101.499 506.339 101.5 506.169 101.5 506H98.5ZM97.6667 515C97.6082 515.312 97.5467 515.623 97.4822 515.933L100.419 516.544C100.488 516.215 100.553 515.885 100.615 515.554L97.6667 515ZM95.0004 524.125C94.8817 524.419 94.7602 524.712 94.636 525.003L97.3957 526.18C97.5277 525.87 97.6567 525.559 97.7828 525.246L95.0004 524.125ZM90.5947 532.549C90.4206 532.815 90.244 533.079 90.0649 533.341L92.5414 535.034C92.7315 534.756 92.919 534.476 93.1038 534.194L90.5947 532.549ZM84.6298 539.956C84.4075 540.183 84.183 540.407 83.9563 540.63L86.0568 542.772C86.2974 542.536 86.5357 542.297 86.7717 542.057L84.6298 539.956ZM77.3408 546.065C77.0788 546.244 76.8151 546.421 76.5495 546.595L78.194 549.104C78.4759 548.919 78.756 548.732 79.0341 548.541L77.3408 546.065ZM69.0034 550.636C68.7119 550.76 68.419 550.882 68.1246 551L69.2464 553.783C69.5591 553.657 69.8702 553.528 70.1798 553.396L69.0034 550.636ZM59.9331 553.482C59.6233 553.547 59.3124 553.608 59.0005 553.667L59.5537 556.615C59.885 556.553 60.2152 556.488 60.5443 556.419L59.9331 553.482ZM50.4787 554.498C50.3193 554.499 50.1598 554.5 50 554.5V557.5C50.1694 557.5 50.3386 557.499 50.5077 557.498L50.4787 554.498ZM50 554.5H49.5V557.5H50V554.5ZM40.5 554.5H39.5V557.5H40.5V554.5ZM30.5 554.5H29.5V557.5H30.5V554.5ZM20.5 554.5H19.5V557.5H20.5V554.5ZM10.5 554.5H9.5V557.5H10.5V554.5ZM0.5 554.5H0V557.5H0.5V554.5Z" fill="black"/>
</svg>
