<svg width="33" height="175" viewBox="0 0 33 175" fill="none" xmlns="http://www.w3.org/2000/svg">
<path d="M0.55 3.5C1.37843 3.5 2.05 2.82843 2.05 2C2.05 1.17157 1.37843 0.5 0.55 0.5V3.5ZM10.45 0.5C9.62157 0.5 8.95 1.17157 8.95 2C8.95 2.82843 9.62157 3.5 10.45 3.5V0.5ZM11.4864 3.50626C12.3146 3.5276 13.0032 2.87355 13.0246 2.0454C13.0459 1.21725 12.3919 0.528599 11.5637 0.507256L11.4864 3.50626ZM21.2616 3.10254C20.5339 2.70662 19.623 2.97557 19.2271 3.70326C18.8312 4.43095 19.1001 5.34182 19.8278 5.73775L21.2616 3.10254ZM20.6663 6.22285C21.3722 6.65636 22.2959 6.43551 22.7294 5.72956C23.1629 5.02362 22.9421 4.09991 22.2361 3.66639L20.6663 6.22285ZM29.3336 10.7639C28.9001 10.0579 27.9764 9.83707 27.2704 10.2706C26.5645 10.7041 26.3436 11.6278 26.7772 12.3338L29.3336 10.7639ZM27.2623 13.1722C27.6582 13.8999 28.569 14.1688 29.2967 13.7729C30.0244 13.377 30.2934 12.4661 29.8975 11.7384L27.2623 13.1722ZM32.4927 21.4363C32.4714 20.6081 31.7827 19.9541 30.9546 19.9754C30.1264 19.9968 29.4724 20.6854 29.4937 21.5136L32.4927 21.4363ZM29.5 22.5038C29.5 23.3323 30.1716 24.0038 31 24.0038C31.8284 24.0038 32.5 23.3323 32.5 22.5038H29.5ZM32.5 31.5731C32.5 30.7446 31.8284 30.0731 31 30.0731C30.1716 30.0731 29.5 30.7446 29.5 31.5731H32.5ZM29.5 32.5808C29.5 33.4092 30.1716 34.0808 31 34.0808C31.8284 34.0808 32.5 33.4092 32.5 32.5808H29.5ZM32.5 41.65C32.5 40.8216 31.8284 40.15 31 40.15C30.1716 40.15 29.5 40.8216 29.5 41.65H32.5ZM29.5 42.6577C29.5 43.4861 30.1716 44.1577 31 44.1577C31.8284 44.1577 32.5 43.4861 32.5 42.6577H29.5ZM32.5 51.7269C32.5 50.8985 31.8284 50.2269 31 50.2269C30.1716 50.2269 29.5 50.8985 29.5 51.7269H32.5ZM29.5 52.7346C29.5 53.563 30.1716 54.2346 31 54.2346C31.8284 54.2346 32.5 53.563 32.5 52.7346H29.5ZM32.5 61.8039C32.5 60.9754 31.8284 60.3039 31 60.3039C30.1716 60.3039 29.5 60.9754 29.5 61.8039H32.5ZM29.5 62.8115C29.5 63.64 30.1716 64.3115 31 64.3115C31.8284 64.3115 32.5 63.64 32.5 62.8115H29.5ZM32.5 71.8808C32.5 71.0523 31.8284 70.3808 31 70.3808C30.1716 70.3808 29.5 71.0523 29.5 71.8808H32.5ZM29.5 72.8885C29.5 73.7169 30.1716 74.3885 31 74.3885C31.8284 74.3885 32.5 73.7169 32.5 72.8885H29.5ZM32.5 81.9577C32.5 81.1293 31.8284 80.4577 31 80.4577C30.1716 80.4577 29.5 81.1293 29.5 81.9577H32.5ZM29.5 82.9654C29.5 83.7938 30.1716 84.4654 31 84.4654C31.8284 84.4654 32.5 83.7938 32.5 82.9654H29.5ZM32.5 92.0346C32.5 91.2062 31.8284 90.5346 31 90.5346C30.1716 90.5346 29.5 91.2062 29.5 92.0346H32.5ZM29.5 93.0423C29.5 93.8707 30.1716 94.5423 31 94.5423C31.8284 94.5423 32.5 93.8707 32.5 93.0423H29.5ZM32.5 102.112C32.5 101.283 31.8284 100.612 31 100.612C30.1716 100.612 29.5 101.283 29.5 102.112H32.5ZM29.5 103.119C29.5 103.948 30.1716 104.619 31 104.619C31.8284 104.619 32.5 103.948 32.5 103.119H29.5ZM32.5 112.188C32.5 111.36 31.8284 110.688 31 110.688C30.1716 110.688 29.5 111.36 29.5 112.188H32.5ZM29.5 113.196C29.5 114.025 30.1716 114.696 31 114.696C31.8284 114.696 32.5 114.025 32.5 113.196H29.5ZM32.5 122.265C32.5 121.437 31.8284 120.765 31 120.765C30.1716 120.765 29.5 121.437 29.5 122.265H32.5ZM29.5 123.273C29.5 124.101 30.1716 124.773 31 124.773C31.8284 124.773 32.5 124.101 32.5 123.273H29.5ZM32.5 132.342C32.5 131.514 31.8284 130.842 31 130.842C30.1716 130.842 29.5 131.514 29.5 132.342H32.5ZM29.5 133.35C29.5 134.178 30.1716 134.85 31 134.85C31.8284 134.85 32.5 134.178 32.5 133.35H29.5ZM32.5 142.419C32.5 141.591 31.8284 140.919 31 140.919C30.1716 140.919 29.5 141.591 29.5 142.419H32.5ZM29.5 143.427C29.5 144.255 30.1716 144.927 31 144.927C31.8284 144.927 32.5 144.255 32.5 143.427H29.5ZM32.5 152.496C32.5 151.668 31.8284 150.996 31 150.996C30.1716 150.996 29.5 151.668 29.5 152.496H32.5ZM29.4937 153.486C29.4724 154.315 30.1264 155.003 30.9546 155.025C31.7827 155.046 32.4714 154.392 32.4927 153.564L29.4937 153.486ZM29.8975 163.262C30.2934 162.534 30.0244 161.623 29.2967 161.227C28.569 160.831 27.6582 161.1 27.2623 161.828L29.8975 163.262ZM26.7772 162.666C26.3436 163.372 26.5645 164.296 27.2704 164.729C27.9764 165.163 28.9001 164.942 29.3336 164.236L26.7772 162.666ZM22.2361 171.334C22.9421 170.9 23.1629 169.976 22.7294 169.27C22.2959 168.564 21.3722 168.344 20.6662 168.777L22.2361 171.334ZM19.8278 169.262C19.1001 169.658 18.8312 170.569 19.2271 171.297C19.623 172.024 20.5339 172.293 21.2616 171.897L19.8278 169.262ZM11.5637 174.493C12.3919 174.471 13.0459 173.783 13.0246 172.955C13.0032 172.126 12.3146 171.472 11.4864 171.494L11.5637 174.493ZM10.45 171.5C9.62157 171.5 8.95 172.172 8.95 173C8.95 173.828 9.62157 174.5 10.45 174.5V171.5ZM0.55 174.5C1.37843 174.5 2.05 173.828 2.05 173C2.05 172.172 1.37843 171.5 0.55 171.5V174.5ZM0 3.5H0.55V0.5H0V3.5ZM10.45 3.5H11V0.5H10.45V3.5ZM11 3.5C11.1627 3.5 11.3248 3.5021 11.4864 3.50626L11.5637 0.507256C11.3764 0.502428 11.1884 0.5 11 0.5V3.5ZM19.8278 5.73775C20.1118 5.89229 20.3914 6.05407 20.6663 6.22285L22.2361 3.66639C21.9167 3.47025 21.5918 3.2822 21.2616 3.10254L19.8278 5.73775ZM26.7772 12.3338C26.9459 12.6086 27.1077 12.8882 27.2623 13.1722L29.8975 11.7384C29.7178 11.4082 29.5298 11.0833 29.3336 10.7639L26.7772 12.3338ZM29.4937 21.5136C29.4979 21.6752 29.5 21.8373 29.5 22H32.5C32.5 21.8116 32.4976 21.6236 32.4927 21.4363L29.4937 21.5136ZM29.5 22V22.5038H32.5V22H29.5ZM29.5 31.5731V32.5808H32.5V31.5731H29.5ZM29.5 41.65V42.6577H32.5V41.65H29.5ZM29.5 51.7269V52.7346H32.5V51.7269H29.5ZM29.5 61.8039V62.8115H32.5V61.8039H29.5ZM29.5 71.8808V72.8885H32.5V71.8808H29.5ZM29.5 81.9577V82.9654H32.5V81.9577H29.5ZM29.5 92.0346V93.0423H32.5V92.0346H29.5ZM29.5 102.112V103.119H32.5V102.112H29.5ZM29.5 112.188V113.196H32.5V112.188H29.5ZM29.5 122.265V123.273H32.5V122.265H29.5ZM29.5 132.342V133.35H32.5V132.342H29.5ZM29.5 142.419V143.427H32.5V142.419H29.5ZM29.5 152.496V153H32.5V152.496H29.5ZM29.5 153C29.5 153.163 29.4979 153.325 29.4937 153.486L32.4927 153.564C32.4976 153.376 32.5 153.188 32.5 153H29.5ZM27.2623 161.828C27.1077 162.112 26.9459 162.391 26.7772 162.666L29.3336 164.236C29.5298 163.917 29.7178 163.592 29.8975 163.262L27.2623 161.828ZM20.6662 168.777C20.3914 168.946 20.1118 169.108 19.8278 169.262L21.2616 171.897C21.5918 171.718 21.9167 171.53 22.2361 171.334L20.6662 168.777ZM11.4864 171.494C11.3248 171.498 11.1627 171.5 11 171.5V174.5C11.1884 174.5 11.3764 174.498 11.5637 174.493L11.4864 171.494ZM11 171.5H10.45V174.5H11V171.5ZM0.55 171.5H0V174.5H0.55V171.5Z" fill="black"/>
</svg>
